<?xml version="1.0" encoding="UTF-8" standalone="no"?>
<!DOCTYPE svg PUBLIC "-//W3C//DTD SVG 1.1//EN" "http://www.w3.org/Graphics/SVG/1.1/DTD/svg11.dtd">
<svg width="100%" height="100%" viewBox="0 0 24 32" version="1.1" xmlns="http://www.w3.org/2000/svg" xmlnsXlink="http://www.w3.org/1999/xlink" xmlSpace="preserve" style="fill-rule:evenodd;clip-rule:evenodd;stroke-linecap:round;stroke-linejoin:round;stroke-miterlimit:1.5;">
    <g transform="matrix(1,0,0,1,-6474.75,-3806.61)">
        <g>
            <path d="M6478.67,3817.62C6478.67,3820.72 6480.18,3822.64 6483.2,3823.39C6482.36,3816.95 6483.57,3811.16 6490.1,3807.07C6489.95,3809.42 6490.43,3811.39 6491.87,3813.34C6493.26,3815.21 6498.88,3820.67 6498.25,3826.77C6496.63,3842.29 6476.89,3840.51 6475.29,3827.98C6474.85,3824.6 6476.19,3819.02 6478.67,3817.62Z" style="fill:none;stroke-width:0.91px;"/>
            <g transform="matrix(0.437741,0,0,0.437741,3647.02,2157.89)">
                <path d="M6478.67,3817.62C6478.67,3820.72 6480.18,3822.64 6483.2,3823.39C6482.36,3816.95 6483.57,3811.16 6490.1,3807.07C6489.95,3809.42 6490.43,3811.39 6491.87,3813.34C6493.26,3815.21 6498.88,3820.67 6498.25,3826.77C6496.63,3842.29 6476.89,3840.51 6475.29,3827.98C6474.85,3824.6 6476.19,3819.02 6478.67,3817.62Z" style="fill:none;stroke-width:2.07px;"/>
            </g>
        </g>
    </g>
</svg>
