<?xml version="1.0" encoding="UTF-8" standalone="no"?>
<!DOCTYPE svg PUBLIC "-//W3C//DTD SVG 1.1//EN" "http://www.w3.org/Graphics/SVG/1.1/DTD/svg11.dtd">
<svg width="100%" height="100%" viewBox="0 0 53 57" version="1.1" xmlns="http://www.w3.org/2000/svg" xmlnsXlink="http://www.w3.org/1999/xlink" xmlSpace="preserve" style="fill-rule:evenodd;clip-rule:evenodd;stroke-linecap:round;stroke-linejoin:round;stroke-miterlimit:1.5;">
    <g transform="matrix(1,0,0,1,-5779.83,-3702.31)">
        <g transform="matrix(0.944056,0,0,0.944056,-537.885,489.615)">
            <path d="M6722.7,3405.19C6720.94,3405.02 6719.18,3405.02 6717.42,3405.19C6713.45,3406.03 6712,3408.41 6713.06,3412.32C6710.29,3413.26 6707.74,3414.73 6705.54,3416.66C6702.68,3413.79 6699.9,3413.86 6697.18,3416.87C6696.16,3418.31 6695.28,3419.84 6694.54,3421.45C6693.29,3425.3 6694.62,3427.75 6698.54,3428.79C6697.97,3431.65 6697.97,3434.6 6698.54,3437.47C6694.62,3438.51 6693.29,3440.95 6694.54,3444.81C6695.28,3446.41 6696.16,3447.95 6697.18,3449.39C6699.9,3452.4 6702.68,3452.47 6705.54,3449.59C6707.74,3451.53 6710.29,3453 6713.06,3453.93C6712,3457.85 6713.45,3460.22 6717.42,3461.07C6719.18,3461.23 6720.94,3461.23 6722.7,3461.07C6726.67,3460.22 6728.12,3457.85 6727.06,3453.93C6729.83,3453 6732.39,3451.53 6734.58,3449.59C6737.44,3452.47 6740.22,3452.4 6742.94,3449.39C6743.96,3447.95 6744.84,3446.41 6745.58,3444.81C6746.83,3440.95 6745.5,3438.51 6741.58,3437.47C6742.15,3434.6 6742.15,3431.65 6741.58,3428.79C6745.5,3427.75 6746.83,3425.3 6745.58,3421.45C6744.84,3419.84 6743.96,3418.31 6742.94,3416.87C6740.22,3413.86 6737.44,3413.79 6734.58,3416.66C6732.39,3414.73 6729.83,3413.26 6727.06,3412.32C6728.12,3408.41 6726.67,3406.03 6722.7,3405.19ZM6720.06,3425.37C6724.34,3425.37 6727.82,3428.85 6727.82,3433.13C6727.82,3437.41 6724.34,3440.88 6720.06,3440.88C6715.78,3440.88 6712.3,3437.41 6712.3,3433.13C6712.3,3428.85 6715.78,3425.37 6720.06,3425.37Z" style="stroke-width:3.97px;"/>
        </g>
    </g>
</svg>
