<?xml version="1.0" encoding="UTF-8" standalone="no"?>
<!DOCTYPE svg PUBLIC "-//W3C//DTD SVG 1.1//EN" "http://www.w3.org/Graphics/SVG/1.1/DTD/svg11.dtd">
<svg width="100%" height="100%" viewBox="0 0 45 43" version="1.1" xmlns="http://www.w3.org/2000/svg" xmlnsXlink="http://www.w3.org/1999/xlink" xmlSpace="preserve" style="fill-rule:evenodd;clip-rule:evenodd;stroke-linecap:round;stroke-linejoin:round;stroke-miterlimit:1.5;">
    <g transform="matrix(1,0,0,1,-5407.17,-4144.07)">
        <g transform="matrix(1,0,0,1,-58.569,-22.385)">
            <circle cx="5481.98" cy="4169.94" r="2.026" style="fill:rgb(219,0,64);fill-opacity:0;stroke-width:1.27px;"/>
            <circle cx="5469.58" cy="4184.49" r="1.977" style="fill:rgb(219,0,64);fill-opacity:0;stroke-width:1.27px;"/>
            <g transform="matrix(0.998237,0.059358,-0.059358,0.998237,257.533,-317.541)">
                <path d="M5472.51,4173.58C5474.48,4171.72 5485.44,4178.89 5480,4183.29C5475.17,4187.2 5469.64,4176.29 5472.51,4173.58Z" style="fill:none;stroke-width:1.27px;"/>
            </g>
            <path d="M5481.6,4199.84C5479.48,4196.71 5479.59,4193.88 5482.84,4190.54C5483.29,4192.25 5484.09,4193.51 5485.31,4194.24C5485.64,4193.9 5486.13,4193.16 5486.79,4192.06C5487.92,4193.12 5487.74,4194.52 5486.79,4196.13C5489.15,4194.65 5490.63,4192.56 5491.56,4190.08C5493.4,4191.7 5493.97,4194.32 5493.17,4198.03C5492.94,4198.14 5495.95,4195.37 5496.22,4195.31C5498.18,4194.84 5494.94,4199.84 5494.94,4199.84" style="fill:none;stroke-width:1.27px;"/>
            <g transform="matrix(0.96994,0,0,1,165.438,0)">
                <path d="M5503.56,4201.47C5503.56,4200.62 5502.85,4199.93 5501.97,4199.93L5473.06,4199.93C5472.18,4199.93 5471.47,4200.62 5471.47,4201.47L5471.47,4204.56C5471.47,4205.41 5472.18,4206.1 5473.06,4206.1L5501.97,4206.1C5502.85,4206.1 5503.56,4205.41 5503.56,4204.56L5503.56,4201.47Z" style="fill:rgb(219,0,64);fill-opacity:0;stroke-width:1.29px;"/>
            </g>
            <g transform="matrix(0.749499,0,0,0.337167,1375.11,2790.03)">
                <path d="M5472.29,4199.93C5471.84,4199.93 5471.47,4200.62 5471.47,4201.47L5471.47,4204.56C5471.47,4205.41 5471.84,4206.1 5472.29,4206.1L5502.74,4206.1C5503.19,4206.1 5503.56,4205.41 5503.56,4204.56L5503.56,4201.47C5503.56,4200.62 5503.19,4199.93 5502.74,4199.93" style="fill:rgb(219,0,64);fill-opacity:0;stroke-width:2.19px;"/>
            </g>
            <path d="M5480.25,4195.93C5472.22,4197.89 5467.38,4195.55 5466.38,4189.38L5496.54,4183.54C5497.75,4187.35 5496.63,4190.42 5493.33,4192.8" style="fill:none;stroke-width:1.27px;"/>
            <path d="M5471.77,4175.02L5469.5,4172.51C5466.77,4173.82 5464.72,4169.46 5469.5,4169.34C5470.51,4165.03 5474.95,4167.75 5472.34,4170.62L5474.15,4173.21" style="fill:none;stroke-width:1.27px;"/>
            <path d="M5487.49,4177.9L5494.82,4171.89" style="fill:none;stroke-width:1.27px;"/>
            <path d="M5497.33,4186.09C5504.79,4185.07 5508.71,4183.31 5509.34,4185.6C5510.01,4187.99 5502.21,4188.7 5496.46,4189.59" style="fill:none;stroke-width:1.27px;"/>
            <path d="M5487.92,4200.05L5487.92,4205.73" style="fill:none;stroke-width:1.27px;"/>
            <path d="M5492.2,4173.99C5490.12,4172.05 5488.6,4172.69 5487.36,4174.61C5478.46,4175.59 5487.5,4187.24 5490.41,4178.37C5492.69,4177.64 5493.3,4176.14 5492.2,4173.99Z" style="fill:none;stroke-width:1.27px;"/>
        </g>
    </g>
</svg>
