<?xml version="1.0" encoding="UTF-8" standalone="no"?>
<!DOCTYPE svg PUBLIC "-//W3C//DTD SVG 1.1//EN" "http://www.w3.org/Graphics/SVG/1.1/DTD/svg11.dtd">
<svg width="100%" height="100%" viewBox="0 0 68 54" version="1.1" xmlns="http://www.w3.org/2000/svg" xmlnsXlink="http://www.w3.org/1999/xlink" xmlSpace="preserve" style="fill-rule:evenodd;clip-rule:evenodd;stroke-linecap:round;stroke-linejoin:round;stroke-miterlimit:1.5;">
    <g transform="matrix(1,0,0,1,-6290.32,-3772.21)">
        <g transform="matrix(1,0,0,1,-14.0524,-5.23989)">
            <g transform="matrix(1.01399,0,0,1.19697,-89.2639,-748.464)">
                <path d="M6371.47,3797.38C6371.47,3795.99 6370.14,3794.86 6368.5,3794.86L6309.05,3794.86C6307.41,3794.86 6306.08,3795.99 6306.08,3797.38C6306.08,3798.77 6307.41,3799.89 6309.05,3799.89L6368.5,3799.89C6370.14,3799.89 6371.47,3798.77 6371.47,3797.38Z" style="fill:rgb(28,28,28);stroke:black;stroke-opacity:0;stroke-width:1.15px;"/>
            </g>
            <g transform="matrix(0.195338,0,0,0.942424,5099.96,201.709)">
                <path d="M6371.47,3797.38C6371.47,3795.99 6366.03,3794.86 6359.34,3794.86L6318.21,3794.86C6311.52,3794.86 6306.08,3795.99 6306.08,3797.38C6306.08,3798.77 6311.52,3799.89 6318.21,3799.89L6359.34,3799.89C6366.03,3799.89 6371.47,3798.77 6371.47,3797.38Z" style="fill:rgb(28,28,28);stroke:black;stroke-opacity:0;stroke-width:1.87px;"/>
            </g>
            <g transform="matrix(0.130891,0,0,2.09055,5508.56,-4154.71)">
                <path d="M6371.47,3796.91C6371.47,3795.78 6356.82,3794.86 6338.78,3794.86C6320.73,3794.86 6306.08,3795.78 6306.08,3796.91L6306.08,3797.85C6306.08,3798.98 6320.73,3799.89 6338.78,3799.89C6356.82,3799.89 6371.47,3798.98 6371.47,3797.85L6371.47,3796.91Z" style="fill:rgb(28,28,28);stroke:black;stroke-opacity:0;stroke-width:0.86px;"/>
            </g>
            <g transform="matrix(1.12326,0,0,1.02648,-783.985,-101.249)">
                <path d="M6365.08,3793.08C6365.08,3788.78 6362.02,3784.64 6358.26,3784.64L6322.75,3784.64C6318.98,3784.64 6315.92,3788.78 6315.92,3793.08L6365.08,3793.08Z" style="fill:rgb(28,28,28);stroke:black;stroke-opacity:0;stroke-width:1.18px;"/>
            </g>
            <g transform="matrix(1.12326,0,0,-3.63228,-783.985,17576.9)">
                <path d="M6365.08,3793.08C6365.07,3788.31 6355.9,3784.7 6349.32,3784.73C6348.3,3784.74 6332.81,3784.65 6331.89,3784.73C6321.22,3785.7 6314.35,3788.59 6315.92,3793.08L6365.08,3793.08Z" style="fill:rgb(28,28,28);stroke:black;stroke-opacity:0;stroke-width:0.47px;"/>
            </g>
            <g transform="matrix(1.12326,0,0,-3.63228,-783.985,17576.9)">
                <path d="M6365.08,3793.08C6368.02,3788.54 6358.23,3784.84 6350.63,3784.73C6349.6,3784.72 6332.81,3784.65 6331.89,3784.73C6321.22,3785.7 6314.35,3788.59 6315.92,3793.08L6365.08,3793.08Z" style="fill:rgb(28,28,28);stroke:black;stroke-opacity:0;stroke-width:0.47px;"/>
            </g>
        </g>
    </g>
</svg>
