<?xml version="1.0" encoding="UTF-8" standalone="no"?>
<!DOCTYPE svg PUBLIC "-//W3C//DTD SVG 1.1//EN" "http://www.w3.org/Graphics/SVG/1.1/DTD/svg11.dtd">
<svg width="100%" height="100%" viewBox="0 0 1367 1831" version="1.1" xmlns="http://www.w3.org/2000/svg" xmlnsXlink="http://www.w3.org/1999/xlink" xmlSpace="preserve" style="fill-rule:evenodd;clip-rule:evenodd;stroke-linejoin:round;stroke-miterlimit:2;">
    <g transform="matrix(1,0,0,1,-5244.13,-5513.63)">
        <g transform="matrix(1,0,0,1,1433.64,-34.2702)">
            <path d="M3862.89,5881.04L3862.89,7001.06C3862.89,7098.55 3942.04,7177.7 4039.53,7177.7L4151.04,7177.7L4151.04,7289.97C4151.04,7321.41 4236.33,7326.47 4265.97,7326.47C4295.6,7326.47 4387.48,7322.6 4387.48,7289.97L4387.48,7177.7L4947.96,7177.7C5045.45,7177.7 5124.6,7098.55 5124.6,7001.06L5124.6,5881.04C5124.6,5726.09 5045.45,5600.3 4947.96,5600.3L4039.53,5600.3C3942.04,5600.3 3862.89,5726.09 3862.89,5881.04ZM4371.68,6136.06C4395.71,6095.03 4440.26,6067.45 4491.2,6067.45C4540.18,6067.45 4583.25,6092.95 4607.85,6131.39C4609.88,6131.3 4611.93,6131.26 4613.98,6131.26C4697.26,6131.26 4764.86,6198.87 4764.86,6282.14C4764.86,6341.25 4730.8,6392.46 4681.25,6417.21L4681.25,6494.59C4681.25,6556 4631.39,6605.85 4569.99,6605.85L4418.6,6605.85C4357.2,6605.85 4307.34,6556 4307.34,6494.59L4307.34,6410.11C4254.03,6389.64 4216.15,6337.94 4216.15,6277.46C4216.15,6199.07 4279.79,6135.43 4358.18,6135.43C4362.74,6135.43 4367.24,6135.64 4371.68,6136.06Z" style="stroke-width:90px;"/>
        </g>
    </g>
</svg>
