<?xml version="1.0" encoding="UTF-8" standalone="no"?>
<!DOCTYPE svg PUBLIC "-//W3C//DTD SVG 1.1//EN" "http://www.w3.org/Graphics/SVG/1.1/DTD/svg11.dtd">
<svg width="100%" height="100%" viewBox="0 0 117 117" version="1.1" xmlns="http://www.w3.org/2000/svg" xmlnsXlink="http://www.w3.org/1999/xlink" xmlSpace="preserve" style="fill-rule:evenodd;clip-rule:evenodd;stroke-linecap:round;stroke-linejoin:round;stroke-miterlimit:1.5;">
    <g transform="matrix(1,0,0,1,-5164.23,-3873.52)">
        <g>
            <g transform="matrix(0.933526,0,0,0.933526,345.436,259.669)">
                <path d="M5281.43,3914.82C5281.43,3910.13 5277.63,3906.33 5272.94,3906.33L5205.04,3906.33C5200.36,3906.33 5196.55,3910.13 5196.55,3914.82L5196.55,3982.72C5196.55,3987.41 5200.36,3991.21 5205.04,3991.21L5272.94,3991.21C5277.63,3991.21 5281.43,3987.41 5281.43,3982.72L5281.43,3914.82Z" style="fill:white;fill-opacity:0;stroke:white;stroke-width:10.39px;"/>
            </g>
            <g transform="matrix(0.933526,0,0,0.933526,345.436,259.669)">
                <path d="M5281.43,3914.82C5281.43,3910.13 5277.63,3906.33 5272.94,3906.33L5205.04,3906.33C5200.36,3906.33 5196.55,3910.13 5196.55,3914.82L5196.55,3982.72C5196.55,3987.41 5200.36,3991.21 5205.04,3991.21L5272.94,3991.21C5277.63,3991.21 5281.43,3987.41 5281.43,3982.72L5281.43,3914.82Z" style="fill:white;fill-opacity:0;stroke:white;stroke-width:10.39px;"/>
            </g>
            <g transform="matrix(0.933526,0,0,0.933526,317.96,231.703)">
                <path d="M5281.43,3923.84L5281.43,3914.82C5281.43,3910.13 5277.63,3906.33 5272.94,3906.33L5205.04,3906.33C5200.36,3906.33 5196.55,3910.13 5196.55,3914.82L5196.55,3982.72C5196.55,3987.41 5200.36,3991.21 5205.04,3991.21L5213.28,3991.21" style="fill:white;fill-opacity:0;stroke:white;stroke-width:10.39px;stroke-linecap:butt;"/>
            </g>
        </g>
    </g>
</svg>
