<?xml version="1.0" encoding="UTF-8" standalone="no"?>
<!DOCTYPE svg PUBLIC "-//W3C//DTD SVG 1.1//EN" "http://www.w3.org/Graphics/SVG/1.1/DTD/svg11.dtd">
<svg width="100%" height="100%" viewBox="0 0 30 28" version="1.1" xmlns="http://www.w3.org/2000/svg" xmlnsXlink="http://www.w3.org/1999/xlink" xmlSpace="preserve" style="fill-rule:evenodd;clip-rule:evenodd;stroke-linecap:round;stroke-linejoin:round;stroke-miterlimit:1.5;">
    <g transform="matrix(1,0,0,1,-6642.55,-3851.27)">
        <g transform="matrix(0.475712,0,0,0.451327,3482.94,2142.28)">
            <path d="M6668.93,3826.78C6668.93,3823.22 6666.19,3820.34 6662.82,3820.34L6649.28,3820.34C6645.91,3820.34 6643.17,3823.22 6643.17,3826.78L6643.17,3839.66C6643.17,3843.21 6645.91,3846.09 6649.28,3846.09L6662.82,3846.09C6666.19,3846.09 6668.93,3843.21 6668.93,3839.66L6668.93,3826.78Z" style="fill-opacity:0;stroke-width:2.7px;"/>
        </g>
        <g transform="matrix(0.475712,0,0,0.451327,3498.64,2142.28)">
            <path d="M6668.93,3826.78C6668.93,3823.22 6666.19,3820.34 6662.82,3820.34L6649.28,3820.34C6645.91,3820.34 6643.17,3823.22 6643.17,3826.78L6643.17,3839.66C6643.17,3843.21 6645.91,3846.09 6649.28,3846.09L6662.82,3846.09C6666.19,3846.09 6668.93,3843.21 6668.93,3839.66L6668.93,3826.78Z" style="fill-opacity:0;stroke-width:2.7px;"/>
        </g>
        <g transform="matrix(0.475712,0,0,0.451327,3482.94,2127.68)">
            <path d="M6668.93,3826.78C6668.93,3823.22 6666.19,3820.34 6662.82,3820.34L6649.28,3820.34C6645.91,3820.34 6643.17,3823.22 6643.17,3826.78L6643.17,3839.66C6643.17,3843.21 6645.91,3846.09 6649.28,3846.09L6662.82,3846.09C6666.19,3846.09 6668.93,3843.21 6668.93,3839.66L6668.93,3826.78Z" style="fill-opacity:0;stroke-width:2.7px;"/>
        </g>
        <g transform="matrix(0.475712,0,0,0.451327,3498.64,2127.68)">
            <path d="M6668.93,3826.78C6668.93,3823.22 6666.19,3820.34 6662.82,3820.34L6649.28,3820.34C6645.91,3820.34 6643.17,3823.22 6643.17,3826.78L6643.17,3839.66C6643.17,3843.21 6645.91,3846.09 6649.28,3846.09L6662.82,3846.09C6666.19,3846.09 6668.93,3843.21 6668.93,3839.66L6668.93,3826.78Z" style="fill-opacity:0;stroke-width:2.7px;"/>
        </g>
    </g>
</svg>
