<?xml version="1.0" encoding="UTF-8" standalone="no"?>
<!DOCTYPE svg PUBLIC "-//W3C//DTD SVG 1.1//EN" "http://www.w3.org/Graphics/SVG/1.1/DTD/svg11.dtd">
<svg width="100%" height="100%" viewBox="0 0 49 48" version="1.1" xmlns="http://www.w3.org/2000/svg" xmlnsXlink="http://www.w3.org/1999/xlink" xmlSpace="preserve" style="fill-rule:evenodd;clip-rule:evenodd;stroke-linecap:round;stroke-linejoin:round;stroke-miterlimit:1.5;">
    <g transform="matrix(1,0,0,1,-6677.42,-3716.22)">
        <g>
            <path d="M6694.76,3740.31L6704.22,3732.25L6720.89,3741.71" style="fill:none;stroke-width:1.63px;"/>
            <path d="M6685.54,3742C6683.47,3732.75 6693.6,3725.14 6702.29,3733.69" style="fill:none;stroke-width:1.45px;"/>
            <path d="M6695.95,3730.03C6696.29,3726.75 6698.12,3724.41 6701.76,3723.11C6700.77,3723.18 6698.62,3719.47 6700.11,3717.72C6701.24,3716.39 6708.34,3716.74 6710.19,3717.72C6711.64,3718.49 6711.47,3722.18 6708.05,3723.11C6713.93,3725.57 6715.36,3730.36 6714.1,3737.43" style="fill:none;stroke-width:1.25px;"/>
            <path d="M6681.7,3748.25L6681.7,3750.19C6681.7,3750.19 6684.51,3758.77 6685.37,3760.85C6685.68,3761.59 6686.1,3762.66 6686.9,3762.7C6692.08,3763.01 6711.31,3763.01 6716.45,3762.7C6717.2,3762.66 6717.45,3761.55 6717.72,3760.85C6718.55,3758.77 6721.39,3750.19 6721.39,3750.19L6721.39,3748.25L6722.89,3748.25C6724.14,3748.25 6725.14,3747.24 6725.14,3746L6725.14,3741.5C6725.14,3740.26 6724.14,3739.25 6722.89,3739.25L6680.17,3739.25C6678.93,3739.25 6677.92,3740.26 6677.92,3741.5L6677.92,3746C6677.92,3747.24 6678.93,3748.25 6680.17,3748.25L6681.7,3748.25ZM6696.16,3748.38C6696.16,3747.34 6695.31,3746.49 6694.26,3746.49C6693.22,3746.49 6692.37,3747.34 6692.37,3748.38L6692.37,3755.62C6692.37,3756.67 6693.22,3757.52 6694.26,3757.52C6695.31,3757.52 6696.16,3756.67 6696.16,3755.62L6696.16,3748.38ZM6703.4,3748.38C6703.4,3747.34 6702.55,3746.49 6701.51,3746.49C6700.46,3746.49 6699.61,3747.34 6699.61,3748.38L6699.61,3755.62C6699.61,3756.67 6700.46,3757.52 6701.51,3757.52C6702.55,3757.52 6703.4,3756.67 6703.4,3755.62L6703.4,3748.38ZM6710.56,3748.38C6710.56,3747.34 6709.71,3746.49 6708.67,3746.49C6707.62,3746.49 6706.78,3747.34 6706.78,3748.38L6706.78,3755.62C6706.78,3756.67 6707.62,3757.52 6708.67,3757.52C6709.71,3757.52 6710.56,3756.67 6710.56,3755.62L6710.56,3748.38Z" style="stroke-width:1px;"/>
        </g>
    </g>
</svg>
