<?xml version="1.0" encoding="UTF-8" standalone="no"?>
<!DOCTYPE svg PUBLIC "-//W3C//DTD SVG 1.1//EN" "http://www.w3.org/Graphics/SVG/1.1/DTD/svg11.dtd">
<svg width="100%" height="100%" viewBox="0 0 2992 3228" version="1.1" xmlns="http://www.w3.org/2000/svg" xmlns:xlink="http://www.w3.org/1999/xlink" xml:space="preserve" style="fill-rule:evenodd;clip-rule:evenodd;stroke-linejoin:round;stroke-miterlimit:2;">
    <g transform="matrix(1,0,0,1,-2837.76,-4476.29)">
        <g>
            <g transform="matrix(1.13017,0,0,1.53258,-187.113,-2631.88)">
                <path d="M4994.12,5687.6L4994.12,4844.2C4994.12,4730.42 4868.86,4638.05 4714.56,4638.05L3276.82,4638.05C3122.53,4638.05 2997.26,4730.42 2997.26,4844.2L2997.26,5687.6L4994.12,5687.6Z" style="fill:rgb(251,107,28);"/>
            </g>
            <g transform="matrix(1.13017,0,0,1.53258,-187.113,-2631.88)">
                <path d="M2997.26,6205.84L2997.26,6400.86C2997.26,6514.64 3122.53,6607.02 3276.82,6607.02L4714.56,6607.02C4868.86,6607.02 4994.12,6514.64 4994.12,6400.86L4994.12,6205.84L2997.26,6205.84Z" style="fill:rgb(251,107,28);"/>
            </g>
            <g transform="matrix(1.35645,0,0,1.35645,-1095.42,-2080.06)">
                <text x="2867.57px" y="6456.49px" style="font-family:'Gadugi-Bold', 'Gadugi', sans-serif;font-weight:700;font-size:400px;fill:rgb(251,107,28);">FOODBOOK</text>
            </g>
            <g>
                <g transform="matrix(1.20045,0,0,1,-867.783,0)">
                    <path d="M4591.89,5598.24C4591.89,5546.03 4464.17,5322.45 4331.76,5322.9C4201.58,5323.34 4066.66,5546.91 4066.66,5598.24L4066.66,5744.72C4066.66,5848.27 4136.7,5932.34 4222.95,5932.34L4435.6,5932.34C4521.85,5932.34 4591.89,5848.27 4591.89,5744.72L4591.89,5598.24Z" style="fill:white;"/>
                </g>
                <g transform="matrix(1,0,0,1,-9.35804,-101.769)">
                    <circle cx="4333.43" cy="5359.57" r="233.366" style="fill:white;"/>
                </g>
                <g transform="matrix(1.19912,0,0,1.19912,-751.83,-1072.39)">
                    <circle cx="4045.97" cy="5379.75" r="199.736" style="fill:white;"/>
                </g>
                <g transform="matrix(1,0,0,1,16.3766,49.1297)">
                    <circle cx="4514.75" cy="5337.34" r="254.422" style="fill:white;"/>
                </g>
            </g>
            <g transform="matrix(1,0,0,1,127.943,-324.881)">
                <g transform="matrix(0.747967,0,0,0.747967,891.958,1791.18)">
                    <path d="M3603.77,7910.35C3722.1,7910.35 3818.17,8006.42 3818.17,8124.75C3818.17,8243.08 3722.1,8339.15 3603.77,8339.15C3485.44,8339.15 3389.38,8243.08 3389.38,8124.75C3389.38,8062.52 3415.94,8006.45 3458.34,7967.27C3496.57,7931.94 3547.67,7910.35 3603.77,7910.35Z" style="fill:rgb(251,107,28);"/>
                </g>
                <g transform="matrix(0.810624,0,0,1.2979,769.884,-2190.75)">
                    <rect x="3277.9" y="7354.08" width="395.706" height="395.706" style="fill:rgb(251,107,28);"/>
                </g>
            </g>
        </g>
    </g>
</svg>
