<?xml version="1.0" encoding="UTF-8" standalone="no"?>
<!DOCTYPE svg PUBLIC "-//W3C//DTD SVG 1.1//EN" "http://www.w3.org/Graphics/SVG/1.1/DTD/svg11.dtd">
<svg width="100%" height="100%" viewBox="0 0 1863 1916" version="1.1" xmlns="http://www.w3.org/2000/svg" xmlnsXlink="http://www.w3.org/1999/xlink" xmlSpace="preserve" style="fill-rule:evenodd;clip-rule:evenodd;stroke-linejoin:round;stroke-miterlimit:1.5;">
    <g transform="matrix(1,0,0,1,-1740.15,-5181.67)">
        <g>
            <g transform="matrix(1,0,0,1,65.3435,-126.603)">
                <path d="M2470.01,6291.18C2424.51,6245.47 2385.85,6210.33 2357.62,6191.03C2271.97,6132.47 2125.95,6279.99 2037.1,6256.3C1948.25,6232.6 1866.82,6144.51 1810.93,6062.43C1753.4,5977.96 1693.78,5805.34 1691.94,5749.45C1690.74,5712.71 1768.51,5707.95 1799.91,5727.06C1855.45,5760.88 1949.13,5927.28 2025.21,5952.36C2101.28,5977.44 2205.36,5928.54 2256.36,5877.55C2307.35,5826.55 2356.25,5722.47 2331.17,5646.4C2306.09,5570.32 2139.69,5476.64 2105.87,5421.1C2086.76,5389.7 2091.53,5311.93 2128.26,5313.13C2184.15,5314.97 2356.77,5374.59 2441.25,5432.12C2523.32,5488.01 2611.41,5569.44 2635.11,5658.29C2658.8,5747.14 2506.96,5897.47 2565.53,5983.12C2584.83,6011.36 2620.08,6049.9 2666,6095.19L2470.01,6291.18Z" style="stroke:rgb(255,0,20);stroke-opacity:0;stroke-width:9.69px;"/>
            </g>
            <g>
                <path d="M3353.35,6517.98C3447.84,6600.51 3523.91,6669.6 3558.97,6710.08C3600.76,6758.33 3604.52,6847.62 3589.67,6899.1C3574.81,6950.57 3521.32,7004.06 3469.85,7018.91C3418.38,7033.76 3329.09,7030.01 3280.84,6988.21C3240.36,6953.15 3170.95,6877.4 3087.95,6783.38L3155.22,6716.11C3161.39,6715.45 3167.48,6713.84 3173.24,6711.28L3198.42,6736.46C3216.72,6754.76 3246.44,6754.76 3264.74,6736.46L3309.86,6691.34C3328.16,6673.04 3328.16,6643.32 3309.86,6625.02L3286.8,6601.95C3289.03,6595.25 3290.13,6588.25 3290.07,6581.26L3353.35,6517.98Z" style="stroke:rgb(255,0,20);stroke-opacity:0;stroke-width:9.69px;"/>
                <path d="M3106.37,6804.19C2977.13,6658.51 2810.27,6461.88 2668.31,6305.62L2873.07,6100.85C3030.14,6242.01 3227.88,6407.76 3374.26,6536.29L3297.7,6612.86L3286.8,6601.95C3294.19,6579.81 3289.08,6554.39 3271.46,6536.78C3246.64,6511.96 3206.34,6511.96 3181.53,6536.78C3180.91,6537.39 3180.31,6538.01 3179.73,6538.64C3160.95,6534.52 3140.51,6539.75 3125.91,6554.35C3110.73,6569.53 3105.67,6591.03 3110.74,6610.42C3109.29,6611.62 3107.88,6612.9 3106.53,6614.26C3083.16,6637.62 3083.16,6675.56 3106.53,6698.92C3124.55,6716.95 3151.25,6721.07 3173.24,6711.28L3186.26,6724.3L3106.37,6804.19Z" style="stroke:rgb(255,0,20);stroke-opacity:0;stroke-width:9.69px;"/>
            </g>
            <path d="M2059.34,6450.36L2135.29,6526.31C2121.64,6545.08 2119.42,6569.59 2128.61,6590.24L2101.57,6617.28C2081.91,6636.94 2081.91,6668.85 2101.57,6688.51L2150.02,6736.96C2169.67,6756.61 2201.59,6756.61 2221.24,6736.96L2246.01,6712.19C2267.39,6719.33 2291.61,6715.61 2310.03,6701.04L2386.68,6777.7L2106.21,7058.16C2061.05,7103.33 1987.71,7103.33 1942.54,7058.16L1778.88,6894.49C1733.71,6849.33 1733.71,6775.99 1778.88,6730.83L2059.34,6450.36Z" style="stroke:rgb(255,0,20);stroke-opacity:0;stroke-width:9.69px;"/>
            <path d="M2005.17,6504.53L2265.45,6244.26C2306.8,6202.91 2371.76,6199.41 2417.1,6233.78C2417.83,6230.03 2419.64,6226.45 2422.53,6223.56L2450.56,6195.53C2458.3,6187.8 2470.86,6187.8 2478.59,6195.53L2521.86,6238.8L3330.69,5429.97L3327.04,5373.94L3462.83,5306.39L3531.06,5374.61L3463.5,5510.4L3406.65,5506.77L2598.24,6315.18L2641.51,6358.45C2649.24,6366.18 2649.24,6378.74 2641.51,6386.48L2613.48,6414.5C2610.58,6417.4 2607.01,6419.21 2603.26,6419.94C2637.63,6465.28 2634.13,6530.24 2592.78,6571.59L2332.51,6831.86L2229.42,6728.78L2246.01,6712.19C2269.79,6720.13 2297.09,6714.64 2316,6695.72C2342.66,6669.07 2342.66,6625.79 2316,6599.14C2315.35,6598.48 2314.68,6597.84 2314,6597.22C2318.43,6577.04 2312.81,6555.09 2297.13,6539.41C2280.83,6523.11 2257.74,6517.68 2236.91,6523.12C2235.63,6521.57 2234.25,6520.06 2232.8,6518.6C2207.71,6493.51 2166.97,6493.51 2141.88,6518.6C2122.52,6537.95 2118.1,6566.63 2128.61,6590.24L2109.75,6609.1L2005.17,6504.53Z" style="stroke:rgb(255,0,20);stroke-opacity:0;stroke-width:9.69px;"/>
        </g>
    </g>
</svg>
