<?xml version="1.0" encoding="UTF-8" standalone="no"?>
<!DOCTYPE svg PUBLIC "-//W3C//DTD SVG 1.1//EN" "http://www.w3.org/Graphics/SVG/1.1/DTD/svg11.dtd">
<svg width="100%" height="100%" viewBox="0 0 1318 1063" version="1.1" xmlns="http://www.w3.org/2000/svg" xmlns:xlink="http://www.w3.org/1999/xlink" xml:space="preserve" xmlns:serif="http://www.serif.com/" style="fill-rule:evenodd;clip-rule:evenodd;stroke-linecap:round;stroke-linejoin:round;stroke-miterlimit:1.5;">
    <g transform="matrix(1,0,0,1,-5134.69,-11341.6)">
        <g>
            <g transform="matrix(1,-7.39557e-32,-2.46519e-32,1.30257,-1123.36,-604.216)">
                <path d="M6662.68,9698.77C6824.51,9590.55 6986.35,9591.76 7148.18,9698.77" style="fill:none;stroke:white;stroke-width:100.47px;"/>
            </g>
            <g transform="matrix(1.57412,-4.72287e-32,-9.86076e-32,1.77753,-5087.89,-5440.13)">
                <path d="M6662.68,9698.77C6824.51,9590.55 6986.35,9591.76 7148.18,9698.77" style="fill:none;stroke:white;stroke-width:69.49px;"/>
            </g>
            <g transform="matrix(2.42118,-1.95413e-31,0,2.84126,-10937.2,-15919.4)">
                <path d="M6662.68,9698.77C6727,9631.24 6916.59,9583.65 7044.73,9641.99" style="fill:none;stroke:white;stroke-width:45.2px;"/>
            </g>
            <g transform="matrix(1,0,0,1,-2958.91,2228.42)">
                <path d="M8740.7,9876.34C8823.45,9876.34 8890.63,9943.52 8890.63,10026.3C8890.63,10109 8823.45,10176.2 8740.7,10176.2C8657.95,10176.2 8590.77,10109 8590.77,10026.3C8590.77,9943.52 8657.95,9876.34 8740.7,9876.34ZM8706.21,9969.54C8713.3,9957.43 8726.44,9949.3 8741.46,9949.3C8755.91,9949.3 8768.62,9956.82 8775.87,9968.16C8776.47,9968.13 8777.08,9968.12 8777.68,9968.12C8802.25,9968.12 8822.19,9988.06 8822.19,10012.6C8822.19,10030.1 8812.14,10045.2 8797.52,10052.5L8797.52,10075.3C8797.52,10093.4 8782.82,10108.1 8764.7,10108.1L8720.05,10108.1C8701.94,10108.1 8687.23,10093.4 8687.23,10075.3L8687.23,10050.4C8671.5,10044.3 8660.33,10029.1 8660.33,10011.2C8660.33,9988.12 8679.1,9969.35 8702.23,9969.35C8703.57,9969.35 8704.9,9969.41 8706.21,9969.54Z" style="fill:white;"/>
            </g>
            <g transform="matrix(1,0,0,1,1635.11,1081.14)">
                <path d="M4635.92,10402.6L4785.7,10552.4" style="fill:none;stroke:white;stroke-width:62.5px;"/>
                <g transform="matrix(3.16986e-15,1,-1,3.16986e-15,15188.3,5766.69)">
                    <path d="M4635.92,10402.6L4785.7,10552.4" style="fill:none;stroke:white;stroke-width:62.5px;"/>
                </g>
            </g>
        </g>
    </g>
</svg>
