<?xml version="1.0" encoding="UTF-8" standalone="no"?>
<!DOCTYPE svg PUBLIC "-//W3C//DTD SVG 1.1//EN" "http://www.w3.org/Graphics/SVG/1.1/DTD/svg11.dtd">
<svg width="100%" height="100%" viewBox="0 0 230 258" version="1.1" xmlns="http://www.w3.org/2000/svg" xmlnsXlink="http://www.w3.org/1999/xlink" xmlSpace="preserve" style="fill-rule:evenodd;clip-rule:evenodd;stroke-linejoin:round;stroke-miterlimit:2;">
    <g transform="matrix(1,0,0,1,-6845.68,-3888.71)">
        <g>
            <g transform="matrix(1.06588,0,0,1.06588,-504.916,-280.775)">
                <circle cx="7004.82" cy="3975.4" r="63.635" style="fill:white;"/>
            </g>
            <path d="M7006,4027C7006.9,4027.09 7007.8,4027.17 7008.7,4027.24C7051.69,4030.82 7078.49,4074 7074.9,4080.51C7055.08,4116.52 7008.83,4145.39 6961.4,4145.89C6899.8,4146.53 6847.11,4092.39 6845.69,4077.33C6845.03,4070.3 6871.27,4030.98 6911.22,4027.8C6913.15,4027.64 6915.11,4027.45 6917.08,4027.24C6928.97,4037.53 6944.47,4043.75 6961.4,4043.75C6978.47,4043.75 6994.07,4037.43 7006,4027Z" style=""/>
        </g>
    </g>
</svg>
