<?xml version="1.0" encoding="UTF-8" standalone="no"?>
<!DOCTYPE svg PUBLIC "-//W3C//DTD SVG 1.1//EN" "http://www.w3.org/Graphics/SVG/1.1/DTD/svg11.dtd">
<svg width="100%" height="100%" viewBox="0 0 59 43" version="1.1" xmlns="http://www.w3.org/2000/svg" xmlnsXlink="http://www.w3.org/1999/xlink" xmlSpace="preserve" style="fill-rule:evenodd;clip-rule:evenodd;stroke-linejoin:round;stroke-miterlimit:2;">
    <g transform="matrix(1,0,0,1,-5977.04,-3764.61)">
        <g>
            <g transform="matrix(0.064379,-2.30288e-18,3.38837e-18,-0.122393,5609.08,4189.19)">
                <path d="M5958.72,3420.59C5958.72,3417.85 5954.5,3415.62 5949.29,3415.62L5909.2,3415.62C5903.99,3415.62 5899.77,3417.85 5899.77,3420.59L5899.77,3464C5899.77,3466.74 5903.99,3468.97 5909.2,3468.97L5949.29,3468.97C5954.5,3468.97 5958.72,3466.74 5958.72,3464L5958.72,3420.59Z" />
            </g>
            <g transform="matrix(0.064379,-2.30288e-18,3.38837e-18,-0.122393,5640.72,4189.19)">
                <path d="M5958.72,3420.59C5958.72,3417.85 5954.5,3415.62 5949.29,3415.62L5909.2,3415.62C5903.99,3415.62 5899.77,3417.85 5899.77,3420.59L5899.77,3464C5899.77,3466.74 5903.99,3468.97 5909.2,3468.97L5949.29,3468.97C5954.5,3468.97 5958.72,3466.74 5958.72,3464L5958.72,3420.59Z" />
            </g>
            <path d="M6025.06,3769.22L6030.35,3769.22C6033.47,3769.22 6035.99,3771.75 6035.99,3774.87L6035.99,3801.31C6035.99,3804.42 6033.47,3806.95 6030.35,3806.95L5982.68,3806.95C5979.57,3806.95 5977.04,3804.42 5977.04,3801.31L5977.04,3774.87C5977.04,3771.75 5979.57,3769.22 5982.68,3769.22L5988.13,3769.22L5988.13,3770.86C5988.13,3771.33 5988.51,3771.72 5988.98,3771.72L5992.61,3771.72C5993.09,3771.72 5993.47,3771.33 5993.47,3770.86L5993.47,3769.22L6019.72,3769.22L6019.72,3770.86C6019.72,3771.33 6020.1,3771.72 6020.58,3771.72L6024.21,3771.72C6024.68,3771.72 6025.06,3771.33 6025.06,3770.86L6025.06,3769.22ZM5986.32,3793.67L5980.73,3793.67L5980.73,3799.43L5986.32,3799.43L5986.32,3793.67ZM5994.03,3793.67L5988.43,3793.67L5988.43,3799.43L5994.03,3799.43L5994.03,3793.67ZM6001.76,3793.67L5996.17,3793.67L5996.17,3799.43L6001.76,3799.43L6001.76,3793.67ZM6009.5,3793.67L6003.91,3793.67L6003.91,3799.43L6009.5,3799.43L6009.5,3793.67ZM6017.23,3793.67L6011.64,3793.67L6011.64,3799.43L6017.23,3799.43L6017.23,3793.67ZM6024.97,3793.67L6019.38,3793.67L6019.38,3799.43L6024.97,3799.43L6024.97,3793.67ZM6032.71,3793.67L6027.12,3793.67L6027.12,3799.43L6032.71,3799.43L6032.71,3793.67ZM5986.32,3785.75L5980.73,3785.75L5980.73,3791.51L5986.32,3791.51L5986.32,3785.75ZM5994.03,3785.75L5988.43,3785.75L5988.43,3791.51L5994.03,3791.51L5994.03,3785.75ZM6001.76,3785.75L5996.17,3785.75L5996.17,3791.51L6001.76,3791.51L6001.76,3785.75ZM6009.5,3785.75L6003.91,3785.75L6003.91,3791.51L6009.5,3791.51L6009.5,3785.75ZM6017.23,3785.75L6011.64,3785.75L6011.64,3791.51L6017.23,3791.51L6017.23,3785.75ZM6024.97,3785.75L6019.38,3785.75L6019.38,3791.51L6024.97,3791.51L6024.97,3785.75ZM6032.71,3785.75L6027.12,3785.75L6027.12,3791.51L6032.71,3791.51L6032.71,3785.75ZM5986.32,3777.84L5980.73,3777.84L5980.73,3783.59L5986.32,3783.59L5986.32,3777.84ZM5994.03,3777.84L5988.43,3777.84L5988.43,3783.59L5994.03,3783.59L5994.03,3777.84ZM6001.76,3777.84L5996.17,3777.84L5996.17,3783.59L6001.76,3783.59L6001.76,3777.84ZM6009.5,3777.84L6003.91,3777.84L6003.91,3783.59L6009.5,3783.59L6009.5,3777.84ZM6017.23,3777.84L6011.64,3777.84L6011.64,3783.59L6017.23,3783.59L6017.23,3777.84ZM6024.97,3777.84L6019.38,3777.84L6019.38,3783.59L6024.97,3783.59L6024.97,3777.84ZM6032.71,3777.84L6027.12,3777.84L6027.12,3783.59L6032.71,3783.59L6032.71,3777.84Z"/>
        </g>
    </g>
</svg>
