<?xml version="1.0" encoding="UTF-8" standalone="no"?>
<!DOCTYPE svg PUBLIC "-//W3C//DTD SVG 1.1//EN" "http://www.w3.org/Graphics/SVG/1.1/DTD/svg11.dtd">
<svg width="100%" height="100%" viewBox="0 0 47 47" version="1.1" xmlns="http://www.w3.org/2000/svg" xmlnsXlink="http://www.w3.org/1999/xlink" xmlSpace="preserve" style="fill-rule:evenodd;clip-rule:evenodd;stroke-linecap:round;stroke-linejoin:round;stroke-miterlimit:1.5;">
    <g transform="matrix(1,0,0,1,-6156.65,-3868.42)">
        <g transform="matrix(1,0,0,1,1.52433,-8.2568)">
            <g transform="matrix(0.918656,0,0,0.310556,436.436,2661.22)">
                <path d="M6266.1,3922.12C6266.1,3918.67 6265.16,3915.87 6263.99,3915.87L6263.3,3915.87C6262.14,3915.87 6261.19,3918.67 6261.19,3922.12L6261.19,3944.75C6261.19,3948.2 6262.14,3951 6263.3,3951L6263.99,3951C6265.16,3951 6266.1,3948.2 6266.1,3944.75L6266.1,3922.12Z" style="fill:rgb(65,65,65);stroke:black;stroke-opacity:0;stroke-width:1.85px;"/>
            </g>
            <g transform="matrix(1.07018,0,0,1.09744,-433.902,-380.042)">
                <path d="M6185.76,3897.14C6185.76,3897 6185.64,3896.88 6185.49,3896.88L6179.95,3896.88C6179.81,3896.88 6179.69,3897 6179.69,3897.14L6179.69,3901.82C6179.69,3901.96 6179.81,3902.08 6179.95,3902.08L6185.49,3902.08C6185.64,3902.08 6185.76,3901.96 6185.76,3901.82L6185.76,3897.14Z" style="fill:rgb(65,65,65);stroke:black;stroke-opacity:0;stroke-width:1.17px;"/>
            </g>
            <g transform="matrix(1.07018,0,0,1.09744,-425.191,-380.042)">
                <path d="M6185.76,3897.14C6185.76,3897 6185.64,3896.88 6185.49,3896.88L6179.95,3896.88C6179.81,3896.88 6179.69,3897 6179.69,3897.14L6179.69,3901.82C6179.69,3901.96 6179.81,3902.08 6179.95,3902.08L6185.49,3902.08C6185.64,3902.08 6185.76,3901.96 6185.76,3901.82L6185.76,3897.14Z" style="fill:rgb(65,65,65);stroke:black;stroke-opacity:0;stroke-width:1.17px;"/>
            </g>
            <g transform="matrix(1.07018,0,0,1.09744,-433.902,-372.503)">
                <path d="M6185.76,3897.14C6185.76,3897 6185.64,3896.88 6185.49,3896.88L6179.95,3896.88C6179.81,3896.88 6179.69,3897 6179.69,3897.14L6179.69,3901.82C6179.69,3901.96 6179.81,3902.08 6179.95,3902.08L6185.49,3902.08C6185.64,3902.08 6185.76,3901.96 6185.76,3901.82L6185.76,3897.14Z" style="fill:rgb(65,65,65);stroke:black;stroke-opacity:0;stroke-width:1.17px;"/>
            </g>
            <g transform="matrix(1.07018,0,0,1.09744,-425.191,-372.503)">
                <path d="M6185.76,3897.14C6185.76,3897 6185.64,3896.88 6185.49,3896.88L6179.95,3896.88C6179.81,3896.88 6179.69,3897 6179.69,3897.14L6179.69,3901.82C6179.69,3901.96 6179.81,3902.08 6179.95,3902.08L6185.49,3902.08C6185.64,3902.08 6185.76,3901.96 6185.76,3901.82L6185.76,3897.14Z" style="fill:rgb(65,65,65);stroke:black;stroke-opacity:0;stroke-width:1.17px;"/>
            </g>
            <g transform="matrix(1.07018,0,0,1.09744,-433.902,-364.928)">
                <path d="M6185.76,3897.14C6185.76,3897 6185.64,3896.88 6185.49,3896.88L6179.95,3896.88C6179.81,3896.88 6179.69,3897 6179.69,3897.14L6179.69,3901.82C6179.69,3901.96 6179.81,3902.08 6179.95,3902.08L6185.49,3902.08C6185.64,3902.08 6185.76,3901.96 6185.76,3901.82L6185.76,3897.14Z" style="fill:rgb(65,65,65);stroke:black;stroke-opacity:0;stroke-width:1.17px;"/>
            </g>
            <g transform="matrix(1.07018,0,0,1.09744,-425.191,-364.928)">
                <path d="M6185.76,3897.14C6185.76,3897 6185.64,3896.88 6185.49,3896.88L6179.95,3896.88C6179.81,3896.88 6179.69,3897 6179.69,3897.14L6179.69,3901.82C6179.69,3901.96 6179.81,3902.08 6179.95,3902.08L6185.49,3902.08C6185.64,3902.08 6185.76,3901.96 6185.76,3901.82L6185.76,3897.14Z" style="fill:rgb(65,65,65);stroke:black;stroke-opacity:0;stroke-width:1.17px;"/>
            </g>
            <g transform="matrix(1.07018,0,0,1.09744,-451.324,-372.503)">
                <path d="M6185.76,3897.14C6185.76,3897 6185.64,3896.88 6185.49,3896.88L6179.95,3896.88C6179.81,3896.88 6179.69,3897 6179.69,3897.14L6179.69,3901.82C6179.69,3901.96 6179.81,3902.08 6179.95,3902.08L6185.49,3902.08C6185.64,3902.08 6185.76,3901.96 6185.76,3901.82L6185.76,3897.14Z" style="fill:rgb(65,65,65);stroke:black;stroke-opacity:0;stroke-width:1.17px;"/>
            </g>
            <g transform="matrix(1.07018,0,0,1.09744,-442.613,-372.503)">
                <path d="M6185.76,3897.14C6185.76,3897 6185.64,3896.88 6185.49,3896.88L6179.95,3896.88C6179.81,3896.88 6179.69,3897 6179.69,3897.14L6179.69,3901.82C6179.69,3901.96 6179.81,3902.08 6179.95,3902.08L6185.49,3902.08C6185.64,3902.08 6185.76,3901.96 6185.76,3901.82L6185.76,3897.14Z" style="fill:rgb(65,65,65);stroke:black;stroke-opacity:0;stroke-width:1.17px;"/>
            </g>
            <g transform="matrix(1.07018,0,0,1.09744,-451.324,-364.928)">
                <path d="M6185.76,3897.14C6185.76,3897 6185.64,3896.88 6185.49,3896.88L6179.95,3896.88C6179.81,3896.88 6179.69,3897 6179.69,3897.14L6179.69,3901.82C6179.69,3901.96 6179.81,3902.08 6179.95,3902.08L6185.49,3902.08C6185.64,3902.08 6185.76,3901.96 6185.76,3901.82L6185.76,3897.14Z" style="fill:rgb(65,65,65);stroke:black;stroke-opacity:0;stroke-width:1.17px;"/>
            </g>
            <g transform="matrix(1.07018,0,0,1.09744,-442.613,-364.928)">
                <path d="M6185.76,3897.14C6185.76,3897 6185.64,3896.88 6185.49,3896.88L6179.95,3896.88C6179.81,3896.88 6179.69,3897 6179.69,3897.14L6179.69,3901.82C6179.69,3901.96 6179.81,3902.08 6179.95,3902.08L6185.49,3902.08C6185.64,3902.08 6185.76,3901.96 6185.76,3901.82L6185.76,3897.14Z" style="fill:rgb(65,65,65);stroke:black;stroke-opacity:0;stroke-width:1.17px;"/>
            </g>
            <g transform="matrix(0.918656,0,0,0.310556,412.727,2661.22)">
                <path d="M6266.1,3922.12C6266.1,3918.67 6265.16,3915.87 6263.99,3915.87L6263.3,3915.87C6262.14,3915.87 6261.19,3918.67 6261.19,3922.12L6261.19,3944.75C6261.19,3948.2 6262.14,3951 6263.3,3951L6263.99,3951C6265.16,3951 6266.1,3948.2 6266.1,3944.75L6266.1,3922.12Z" style="fill:rgb(65,65,65);stroke:black;stroke-opacity:0;stroke-width:1.85px;"/>
            </g>
            <path d="M6194.36,3881.57L6194.36,3886.47C6194.36,3888.26 6192.9,3889.72 6191.1,3889.72L6190.04,3889.72C6188.24,3889.72 6186.78,3888.26 6186.78,3886.47L6186.78,3881.57L6170.65,3881.57L6170.65,3886.47C6170.65,3888.26 6169.19,3889.72 6167.39,3889.72L6166.33,3889.72C6164.53,3889.72 6163.07,3888.26 6163.07,3886.47L6163.07,3881.57L6157.82,3881.57C6156.68,3881.57 6155.76,3882.49 6155.76,3883.63L6155.76,3920.6C6155.76,3921.74 6156.68,3922.66 6157.82,3922.66L6199.18,3922.66C6200.32,3922.66 6201.24,3921.74 6201.24,3920.6L6201.24,3883.63C6201.24,3882.49 6200.32,3881.57 6199.18,3881.57L6194.36,3881.57ZM6199.02,3892.91L6158.07,3892.91L6158.07,3920.59L6199.02,3920.59L6199.02,3892.91Z" style="fill:rgb(65,65,65);stroke:rgb(66,66,66);stroke-width:1.27px;"/>
        </g>
    </g>
</svg>
