<?xml version="1.0" encoding="UTF-8" standalone="no"?>
<!DOCTYPE svg PUBLIC "-//W3C//DTD SVG 1.1//EN" "http://www.w3.org/Graphics/SVG/1.1/DTD/svg11.dtd">
<svg width="100%" height="100%" viewBox="0 0 35 45" version="1.1" xmlns="http://www.w3.org/2000/svg" xmlnsXlink="http://www.w3.org/1999/xlink" xmlSpace="preserve" style="fill-rule:evenodd;clip-rule:evenodd;stroke-linecap:round;stroke-linejoin:round;stroke-miterlimit:1.5;">
    <g transform="matrix(1,0,0,1,-5516.99,-4214.76)">
        <g>
            <path d="M5543.52,4240.23L5526.03,4240.23" style="fill:none;stroke-width:1.27px;"/>
            <path d="M5526.11,4235.12L5526.11,4242.2C5526.11,4243.12 5526.86,4243.87 5527.78,4243.87L5541.94,4243.87C5542.86,4243.87 5543.6,4243.12 5543.6,4242.2L5543.6,4235.12" style="fill:rgb(219,0,64);fill-opacity:0;stroke-width:1.27px;"/>
            <path d="M5529.65,4233.81C5514.63,4238 5516.05,4217.57 5527.78,4220.02" style="fill:none;stroke-width:1.27px;"/>
            <g transform="matrix(-1,0,0,1,11070,0)">
                <path d="M5529.65,4233.81C5514.63,4238 5516.05,4217.57 5527.78,4220.02" style="fill:none;stroke-width:1.27px;"/>
            </g>
            <g transform="matrix(0.856088,0.516831,-0.464606,0.769581,2760.95,-1882.85)">
                <path d="M5537.77,4251.91L5549.71,4251.91C5550.49,4251.91 5551.13,4251.2 5551.13,4250.33C5551.13,4249.46 5550.49,4248.76 5549.71,4248.76L5537.51,4248.76" style="fill:rgb(219,0,64);fill-opacity:0;stroke-width:1.34px;"/>
            </g>
            <g transform="matrix(0.856088,0.516831,-1.28321,2.12554,6228.7,-7652.95)">
                <path d="M5542.7,4251.91L5547.69,4251.91C5549.59,4251.91 5550.41,4251.32 5550.41,4250.55L5550.41,4250.18C5550.41,4249.41 5549.59,4248.76 5547.69,4248.76L5542.36,4248.76" style="fill:rgb(219,0,64);fill-opacity:0;stroke-width:0.67px;"/>
            </g>
            <path d="M5519.3,4245.99L5526.14,4249.86" style="fill:none;stroke-width:1.27px;"/>
            <g transform="matrix(-0.843445,0.537216,-0.45873,-0.720219,12163.9,4336.51)">
                <path d="M5544.79,4248.73L5536.17,4248.68C5532.3,4244.23 5528.08,4249.15 5528.56,4250.61C5529.27,4252.73 5533.51,4254.99 5536.36,4251.91L5546.09,4251.91" style="fill:rgb(219,0,64);fill-opacity:0;stroke-width:1.37px;"/>
            </g>
            <g transform="matrix(-0.843445,0.537216,-0.45873,-0.720219,12163.9,4336.51)">
                <path d="M5549.78,4251.91C5550.52,4251.91 5551.13,4251.2 5551.13,4250.33C5551.13,4249.46 5550.52,4248.76 5549.78,4248.76L5548.12,4248.75" style="fill:rgb(219,0,64);fill-opacity:0;stroke-width:1.37px;"/>
            </g>
            <path d="M5530.35,4237.35L5530.35,4240.15" style="fill:none;stroke-width:1.27px;"/>
            <g transform="matrix(1,0,0,1,8.7253,0)">
                <path d="M5530.35,4237.35L5530.35,4240.15" style="fill:none;stroke-width:1.27px;"/>
            </g>
            <g transform="matrix(1,0,0,1,4.28034,0)">
                <path d="M5530.35,4237.35L5530.35,4240.15" style="fill:none;stroke-width:1.27px;"/>
            </g>
            <path d="M5527.3,4223.37C5529.52,4212.06 5541.95,4213.39 5542.5,4223.45" style="fill:none;stroke-width:1.27px;"/>
        </g>
    </g>
</svg>
