<?xml version="1.0" encoding="UTF-8" standalone="no"?>
<!DOCTYPE svg PUBLIC "-//W3C//DTD SVG 1.1//EN" "http://www.w3.org/Graphics/SVG/1.1/DTD/svg11.dtd">
<svg width="100%" height="100%" viewBox="0 0 46 45" version="1.1" xmlns="http://www.w3.org/2000/svg" xmlnsXlink="http://www.w3.org/1999/xlink" xmlSpace="preserve" style="fill-rule:evenodd;clip-rule:evenodd;stroke-linecap:round;stroke-linejoin:round;stroke-miterlimit:1.5;">
    <g transform="matrix(1,0,0,1,-6218.79,-3702.05)">
        <g>
            <g transform="matrix(1.34153,0,0,1.31679,-2050.52,-1291.64)">
                <path d="M6165.35,3810.04C6165.35,3810.04 6197.46,3810.04 6197.46,3810.04C6197.46,3818.9 6190.26,3826.09 6181.4,3826.09C6172.55,3826.09 6165.35,3818.9 6165.35,3810.04Z" style="stroke:rgb(154,154,154);stroke-opacity:0;stroke-width:0.68px;"/>
            </g>
            <g transform="matrix(-0.27404,0.68563,-0.939631,-0.375561,11464.5,916.198)">
                <g transform="matrix(1,0,0,1,20.9001,0)">
                    <path d="M6122.66,3777.1C6122.66,3776.77 6122.29,3776.5 6121.84,3776.5L6120.2,3776.5C6119.74,3776.5 6119.38,3776.77 6119.38,3777.1L6119.38,3789.67C6119.38,3790 6119.74,3790.26 6120.2,3790.26L6121.84,3790.26C6122.29,3790.26 6122.66,3790 6122.66,3789.67L6122.66,3777.1Z" style="stroke:black;stroke-width:1.84px;"/>
                </g>
                <g transform="matrix(1,0,0,1,20.9001,0)">
                    <path d="M6120.98,3777.32L6120.98,3770.15" style="fill:none;stroke:black;stroke-width:2.05px;"/>
                </g>
                <path d="M6141.88,3771.05L6150.05,3759.21C6148.31,3753.68 6144.6,3751.8 6141.88,3751.8C6139.16,3751.8 6134,3754.49 6133.74,3759.21L6141.88,3771.05Z" style="fill:none;stroke:black;stroke-width:1.43px;"/>
                <path d="M6144.74,3761.71C6145.28,3758.2 6144.37,3754.89 6141.88,3751.8C6139.31,3755.3 6138.2,3758.63 6139.16,3761.71L6141.88,3771.05L6144.74,3761.71Z" style="fill:none;stroke:black;stroke-width:1.43px;"/>
            </g>
        </g>
    </g>
</svg>
