<?xml version="1.0" encoding="UTF-8" standalone="no"?>
<!DOCTYPE svg PUBLIC "-//W3C//DTD SVG 1.1//EN" "http://www.w3.org/Graphics/SVG/1.1/DTD/svg11.dtd">
<svg width="100%" height="100%" viewBox="0 0 2992 3228" version="1.1" xmlns="http://www.w3.org/2000/svg" xmlns:xlink="http://www.w3.org/1999/xlink" xml:space="preserve" xmlns:serif="http://www.serif.com/" style="fill-rule:evenodd;clip-rule:evenodd;stroke-linejoin:round;stroke-miterlimit:2;">
    <g transform="matrix(1,0,0,1,-5680.46,-7642.41)">
        <g transform="matrix(1,0,0,1,2842.71,3166.13)">
            <g transform="matrix(1.13017,0,0,1.53258,-187.113,-2631.88)">
                <path d="M2997.26,6205.84L2997.26,6400.86C2997.26,6514.64 3122.53,6607.02 3276.82,6607.02L4714.56,6607.02C4868.86,6607.02 4994.12,6514.64 4994.12,6400.86L4994.12,6205.84L2997.26,6205.84Z" style="fill:rgb(251,107,28);"/>
            </g>
            <g transform="matrix(1.35645,0,0,1.35645,-1095.42,-2080.06)">
                <text x="2867.57px" y="6456.49px" style="font-family:'Gadugi-Bold', 'Gadugi', sans-serif;font-weight:700;font-size:400px;fill:rgb(251,107,28);">FOODBOOK</text>
            </g>
            <g transform="matrix(1,0,0,1,-391.51,119.155)">
                <path d="M5848.59,5965.66L5848.59,4673.08C5848.59,4498.7 5707.02,4357.13 5532.64,4357.13L3907.75,4357.13C3733.38,4357.13 3591.8,4498.7 3591.8,4673.08L3591.8,5965.66L5848.59,5965.66ZM4514.05,5020.98C4554.57,4951.78 4629.69,4905.28 4715.59,4905.28C4798.18,4905.28 4870.82,4948.28 4912.3,5013.1C4915.71,5012.97 4919.16,5012.9 4922.63,5012.9C5063.05,5012.9 5177.06,5126.9 5177.06,5267.32C5177.06,5367 5119.6,5453.37 5036.03,5495.09L5036.03,5625.57C5036.03,5729.11 4951.97,5813.18 4848.42,5813.18L4593.15,5813.18C4489.61,5813.18 4405.54,5729.11 4405.54,5625.57L4405.54,5483.1C4315.66,5448.59 4251.78,5361.4 4251.78,5259.42C4251.78,5127.23 4359.1,5019.91 4491.28,5019.91C4498.97,5019.91 4506.56,5020.28 4514.05,5020.98Z" style="fill:rgb(251,107,28);"/>
            </g>
            <g transform="matrix(1,0,0,1,127.943,-324.881)">
                <g transform="matrix(0.747967,0,0,0.747967,891.958,1791.18)">
                    <path d="M3603.77,7910.35C3722.1,7910.35 3818.17,8006.42 3818.17,8124.75C3818.17,8243.08 3722.1,8339.15 3603.77,8339.15C3485.44,8339.15 3389.38,8243.08 3389.38,8124.75C3389.38,8062.52 3415.94,8006.45 3458.34,7967.27C3496.57,7931.94 3547.67,7910.35 3603.77,7910.35Z" style="fill:rgb(251,107,28);"/>
                </g>
                <g transform="matrix(0.810624,0,0,1.2979,769.884,-2190.75)">
                    <rect x="3277.9" y="7354.08" width="395.706" height="395.706" style="fill:rgb(251,107,28);"/>
                </g>
            </g>
        </g>
    </g>
</svg>
