<svg id="svg" version="1.1" xmlns="http://www.w3.org/2000/svg" xmlns:xlink="http://www.w3.org/1999/xlink" width="400" height="400" viewBox="0, 0, 400,400"><g id="svgg"><path id="path0" d="M145.735 36.399 C 144.910 36.732,144.105 38.238,144.527 38.660 C 144.637 38.770,144.851 38.471,145.002 37.995 C 145.153 37.519,145.844 36.882,146.538 36.580 C 147.900 35.988,147.166 35.823,145.735 36.399 M253.334 36.485 C 253.957 36.771,254.716 37.454,255.020 38.003 C 255.369 38.635,255.577 38.772,255.586 38.376 C 255.609 37.373,254.692 36.462,253.400 36.205 L 252.200 35.966 253.334 36.485 M134.200 42.800 C 133.625 43.435,133.596 43.600,134.058 43.600 C 134.685 43.600,135.600 42.841,135.600 42.320 C 135.600 41.753,134.944 41.978,134.200 42.800 M264.400 42.320 C 264.400 42.841,265.315 43.600,265.942 43.600 C 266.404 43.600,266.375 43.435,265.800 42.800 C 265.056 41.978,264.400 41.753,264.400 42.320 M124.229 45.029 C 123.883 45.374,123.605 45.869,123.612 46.129 C 123.619 46.388,123.805 46.291,124.025 45.913 C 124.245 45.535,124.735 45.045,125.113 44.825 C 125.491 44.605,125.588 44.419,125.329 44.412 C 125.069 44.405,124.574 44.683,124.229 45.029 M274.887 44.825 C 275.265 45.045,275.755 45.535,275.975 45.913 C 276.195 46.291,276.381 46.388,276.388 46.129 C 276.404 45.519,275.281 44.396,274.671 44.412 C 274.412 44.419,274.509 44.605,274.887 44.825 M116.654 49.629 C 116.074 50.085,115.606 50.760,115.614 51.129 C 115.624 51.608,115.786 51.515,116.180 50.803 C 116.484 50.254,117.243 49.587,117.866 49.321 C 118.490 49.054,118.709 48.828,118.354 48.818 C 117.999 48.808,117.234 49.173,116.654 49.629 M283.525 49.616 C 284.006 50.064,284.414 50.739,284.432 51.116 C 284.452 51.553,284.537 51.615,284.669 51.287 C 284.921 50.660,283.759 48.800,283.115 48.800 C 282.859 48.800,283.043 49.167,283.525 49.616 M307.746 66.943 C 309.445 68.657,310.155 68.706,309.059 67.034 C 308.720 66.516,307.914 65.909,307.268 65.684 C 306.125 65.285,306.139 65.320,307.746 66.943 M91.382 66.582 C 90.842 67.122,90.411 67.887,90.425 68.282 C 90.447 68.885,90.505 68.865,90.792 68.155 C 90.980 67.691,91.623 66.926,92.221 66.455 C 92.819 65.985,93.095 65.600,92.836 65.600 C 92.576 65.600,91.922 66.042,91.382 66.582 M66.582 91.382 C 66.042 91.922,65.600 92.576,65.600 92.836 C 65.600 93.095,65.985 92.819,66.455 92.221 C 66.926 91.623,67.691 90.980,68.155 90.792 C 68.865 90.505,68.885 90.447,68.282 90.425 C 67.887 90.411,67.122 90.842,66.582 91.382 M332.124 91.303 C 332.742 91.798,333.596 92.652,334.023 93.201 L 334.797 94.200 334.357 92.894 C 333.897 91.528,332.653 90.399,331.611 90.402 C 331.214 90.403,331.394 90.719,332.124 91.303 M349.077 115.981 C 349.779 116.410,350.641 117.264,350.991 117.880 C 351.601 118.951,351.618 118.956,351.382 118.000 C 351.086 116.802,349.423 115.199,348.478 115.201 C 348.045 115.202,348.261 115.484,349.077 115.981 M49.629 116.654 C 49.173 117.234,48.808 117.999,48.818 118.354 C 48.828 118.709,49.054 118.490,49.321 117.866 C 49.587 117.243,50.254 116.484,50.803 116.180 C 51.515 115.786,51.608 115.624,51.129 115.614 C 50.760 115.606,50.085 116.074,49.629 116.654 M45.639 124.300 C 45.171 124.685,44.624 125.585,44.422 126.300 C 43.938 128.018,44.240 127.957,44.980 126.187 C 45.364 125.267,46.029 124.575,46.885 124.203 C 47.918 123.754,48.017 123.628,47.344 123.616 C 46.874 123.607,46.106 123.915,45.639 124.300 M353.454 124.177 C 354.192 124.498,354.878 125.190,355.122 125.861 C 355.388 126.591,355.548 126.742,355.568 126.282 C 355.609 125.361,353.854 123.595,352.918 123.616 C 352.471 123.625,352.673 123.837,353.454 124.177 M200.600 134.258 C 200.160 134.341,196.303 134.547,192.029 134.718 C 185.778 134.967,184.219 135.142,184.063 135.610 C 183.592 137.025,181.704 138.335,179.765 138.591 C 176.064 139.081,175.553 139.276,173.878 140.834 C 172.955 141.693,171.930 142.476,171.600 142.574 C 171.270 142.672,170.280 142.938,169.400 143.166 C 168.247 143.463,167.662 143.889,167.307 144.689 C 167.036 145.300,166.141 146.160,165.317 146.600 C 164.493 147.040,163.619 147.804,163.374 148.297 C 162.753 149.549,161.567 150.800,161.000 150.800 C 158.705 150.800,158.891 155.943,161.240 157.426 C 162.258 158.068,163.109 159.070,163.686 160.305 C 164.173 161.347,164.969 162.518,165.457 162.907 C 166.718 163.913,167.887 165.951,168.214 167.717 C 168.547 169.511,169.227 169.472,169.704 167.632 C 169.970 166.603,170.388 166.183,171.632 165.695 C 172.852 165.215,173.389 164.688,173.952 163.416 C 174.559 162.043,174.971 161.675,176.375 161.255 C 177.524 160.910,178.281 160.372,178.734 159.575 C 179.552 158.136,181.134 157.347,184.152 156.874 C 186.087 156.570,186.645 156.286,187.616 155.107 C 189.297 153.068,190.906 152.800,201.477 152.801 C 211.524 152.801,212.861 153.067,213.908 155.272 C 214.216 155.922,214.965 156.525,215.811 156.804 C 217.402 157.329,217.792 157.904,218.191 160.314 C 218.347 161.257,218.904 162.537,219.428 163.160 C 221.024 165.057,221.215 168.523,219.806 169.994 C 218.922 170.917,218.591 171.811,218.176 174.404 C 217.640 177.751,216.859 179.464,215.677 179.882 C 214.588 180.267,213.600 181.271,213.600 181.992 C 213.600 182.787,211.989 184.395,211.174 184.413 C 210.420 184.429,209.546 185.154,208.720 186.447 C 208.352 187.023,207.228 187.976,206.223 188.565 C 205.217 189.155,203.650 190.366,202.741 191.258 C 201.831 192.150,200.544 193.183,199.881 193.553 C 199.198 193.935,197.944 195.427,196.989 196.994 C 196.062 198.517,194.928 199.930,194.469 200.134 C 193.865 200.404,193.511 201.126,193.187 202.753 C 192.412 206.639,191.554 208.971,189.781 212.000 C 189.365 212.711,189.226 213.984,189.298 216.400 L 189.400 219.800 200.000 219.800 L 210.600 219.800 210.921 215.238 C 211.298 209.861,211.891 208.136,213.557 207.555 C 214.453 207.243,214.872 206.736,215.271 205.483 C 215.776 203.900,216.095 203.619,218.752 202.422 C 219.055 202.286,219.505 201.555,219.752 200.798 C 220.114 199.688,220.535 199.305,221.937 198.811 C 223.252 198.349,223.808 197.880,224.224 196.885 C 224.576 196.044,225.252 195.370,226.102 195.015 C 227.733 194.334,231.658 190.622,232.529 188.936 C 232.882 188.254,233.812 187.318,234.595 186.856 C 235.378 186.394,236.122 185.697,236.247 185.308 C 236.954 183.114,237.362 182.402,238.041 182.187 C 239.308 181.785,240.000 180.808,240.000 179.420 C 240.000 175.448,241.829 167.852,243.208 166.099 C 244.557 164.383,244.283 161.607,242.378 157.708 C 241.103 155.099,240.661 153.615,240.311 150.772 C 239.871 147.195,239.850 147.148,238.518 146.592 C 237.615 146.214,236.976 145.561,236.578 144.608 C 236.150 143.584,235.557 143.016,234.457 142.576 C 233.443 142.170,232.739 141.541,232.365 140.706 C 231.790 139.424,231.129 139.089,228.204 138.597 C 227.051 138.402,226.168 137.865,225.027 136.666 L 223.447 135.005 215.223 134.530 C 207.090 134.060,202.152 133.968,200.600 134.258 M198.223 239.470 C 197.795 239.590,197.127 240.093,196.737 240.589 C 195.943 241.598,192.970 242.988,190.700 243.410 C 189.383 243.655,189.200 243.828,189.200 244.830 C 189.200 246.901,187.610 250.432,186.357 251.145 C 184.438 252.236,184.607 257.259,186.635 259.409 C 188.195 261.064,188.800 262.303,188.800 263.846 C 188.800 264.591,189.128 264.978,190.108 265.387 C 191.633 266.025,192.657 267.070,192.863 268.200 C 193.079 269.387,202.146 269.896,206.673 268.976 C 207.154 268.878,207.663 268.432,207.805 267.984 C 207.947 267.536,208.775 266.721,209.644 266.172 C 210.514 265.623,211.518 264.560,211.876 263.809 C 212.234 263.059,213.021 262.240,213.625 261.989 C 215.854 261.067,215.929 247.589,213.708 247.273 C 212.657 247.124,211.200 245.416,211.200 244.334 C 211.200 243.526,211.102 243.470,208.563 242.821 C 207.615 242.579,206.282 241.777,205.395 240.916 C 203.841 239.407,200.702 238.774,198.223 239.470 M44.422 273.700 C 44.853 275.226,46.137 276.406,47.344 276.384 C 48.017 276.372,47.918 276.246,46.885 275.797 C 46.029 275.425,45.364 274.733,44.980 273.813 C 44.240 272.043,43.938 271.982,44.422 273.700 M355.029 274.225 C 354.869 274.864,354.288 275.461,353.486 275.810 C 352.701 276.151,352.480 276.375,352.918 276.384 C 353.792 276.403,355.600 274.673,355.600 273.818 C 355.600 272.877,355.317 273.079,355.029 274.225 M48.818 281.646 C 48.792 282.572,50.337 284.403,51.129 284.386 C 51.608 284.376,51.515 284.214,50.803 283.820 C 50.254 283.516,49.587 282.757,49.321 282.134 C 49.054 281.510,48.828 281.291,48.818 281.646 M350.873 282.199 C 350.622 282.751,349.828 283.561,349.108 283.999 C 348.389 284.438,348.075 284.798,348.411 284.799 C 349.362 284.801,350.811 283.624,351.236 282.504 C 351.747 281.162,351.457 280.918,350.873 282.199 M65.684 307.268 C 65.909 307.914,66.516 308.720,67.034 309.059 C 68.706 310.155,68.657 309.445,66.943 307.746 C 65.320 306.139,65.285 306.125,65.684 307.268 M332.463 307.900 C 331.727 308.615,331.312 309.200,331.541 309.200 C 332.175 309.200,334.135 307.392,333.957 306.971 C 333.871 306.767,333.198 307.185,332.463 307.900 M69.212 312.271 C 69.196 312.881,70.319 314.004,70.929 313.988 C 71.188 313.981,71.091 313.795,70.713 313.575 C 70.335 313.355,69.845 312.865,69.625 312.487 C 69.405 312.109,69.219 312.012,69.212 312.271 M90.402 331.611 C 90.399 332.653,91.528 333.897,92.894 334.357 L 94.200 334.797 93.201 334.023 C 92.652 333.596,91.798 332.742,91.303 332.124 C 90.719 331.394,90.403 331.214,90.402 331.611 M307.736 332.673 C 306.963 333.512,306.713 333.997,307.093 333.922 C 307.738 333.796,309.479 331.732,309.173 331.457 C 309.078 331.371,308.431 331.919,307.736 332.673 M284.432 348.518 C 284.414 348.913,283.940 349.697,283.377 350.259 C 282.815 350.822,282.579 351.207,282.853 351.116 C 283.653 350.849,284.914 348.933,284.679 348.341 C 284.533 347.976,284.453 348.033,284.432 348.518 M115.614 348.871 C 115.597 349.663,117.428 351.208,118.354 351.182 C 118.709 351.172,118.490 350.946,117.866 350.679 C 117.243 350.413,116.484 349.746,116.180 349.197 C 115.786 348.485,115.624 348.392,115.614 348.871 M275.816 353.949 C 275.675 354.395,275.195 354.875,274.749 355.016 C 274.304 355.157,274.018 355.351,274.113 355.446 C 274.208 355.541,274.586 355.503,274.954 355.362 C 275.668 355.088,276.594 353.661,276.269 353.336 C 276.161 353.228,275.957 353.504,275.816 353.949 M123.612 353.871 C 123.594 354.569,124.758 355.604,125.529 355.575 C 126.026 355.556,125.976 355.459,125.334 355.200 C 124.858 355.008,124.278 354.525,124.046 354.126 C 123.814 353.726,123.619 353.612,123.612 353.871 M134.200 357.200 C 134.598 357.640,135.076 358.000,135.262 358.000 C 135.448 358.000,135.600 357.640,135.600 357.200 C 135.600 356.601,135.333 356.400,134.538 356.400 C 133.501 356.400,133.493 356.419,134.200 357.200 M264.400 357.200 C 264.400 357.640,264.552 358.000,264.738 358.000 C 264.924 358.000,265.402 357.640,265.800 357.200 C 266.507 356.419,266.499 356.400,265.462 356.400 C 264.667 356.400,264.400 356.601,264.400 357.200 M144.414 361.624 C 144.391 362.627,145.308 363.538,146.600 363.795 L 147.800 364.034 146.666 363.515 C 146.043 363.229,145.284 362.546,144.980 361.997 C 144.631 361.365,144.423 361.228,144.414 361.624 M254.202 362.798 C 253.803 363.239,253.662 363.600,253.889 363.600 C 254.392 363.600,255.390 362.457,255.121 362.188 C 255.015 362.082,254.602 362.356,254.202 362.798 M238.708 366.709 C 238.580 367.198,238.053 367.767,237.538 367.974 C 236.953 368.208,236.840 368.359,237.238 368.375 C 238.051 368.407,239.336 367.007,239.111 366.333 C 239.014 366.043,238.840 366.206,238.708 366.709 M160.800 366.752 C 160.800 367.142,162.355 368.598,162.523 368.364 C 162.587 368.274,162.226 367.801,161.720 367.314 C 161.214 366.827,160.800 366.574,160.800 366.752 " stroke="none" fill="#fcfcfc" fill-rule="evenodd"></path><path id="path1" d="M198.000 131.412 C 196.790 131.712,193.834 132.252,191.432 132.612 C 185.879 133.445,181.461 134.574,179.849 135.569 C 179.156 135.998,177.151 136.919,175.394 137.616 C 173.637 138.312,171.750 139.295,171.200 139.799 C 170.650 140.303,169.085 141.272,167.723 141.952 C 163.813 143.904,155.778 152.077,156.556 153.311 C 156.864 153.800,157.251 154.650,157.415 155.200 C 157.787 156.450,160.404 160.331,161.594 161.400 C 162.084 161.840,162.812 162.830,163.211 163.600 C 163.610 164.370,164.581 165.600,165.368 166.332 C 166.156 167.065,166.800 167.889,166.800 168.163 C 166.800 168.437,167.232 169.066,167.759 169.562 C 169.049 170.773,169.988 170.268,174.274 166.058 C 176.075 164.290,178.325 162.449,179.274 161.968 C 180.223 161.486,181.586 160.582,182.301 159.957 C 183.045 159.309,184.845 158.453,186.501 157.961 C 188.096 157.487,190.390 156.537,191.600 155.851 C 193.771 154.620,193.885 154.602,200.225 154.462 C 207.780 154.296,208.513 154.457,212.738 157.209 C 220.810 162.466,218.841 176.181,209.007 183.200 C 207.929 183.970,206.356 185.273,205.512 186.095 C 204.669 186.918,203.415 187.882,202.727 188.238 C 202.039 188.593,200.251 190.170,198.754 191.742 C 197.256 193.314,195.384 195.273,194.594 196.096 C 193.804 196.918,192.620 198.898,191.962 200.496 C 191.304 202.093,190.331 204.030,189.798 204.800 C 188.053 207.325,187.375 219.111,188.803 222.100 L 189.328 223.200 200.085 223.200 L 210.841 223.200 211.473 221.700 C 211.821 220.875,212.275 218.680,212.481 216.821 C 213.280 209.651,218.040 203.759,229.869 195.302 C 230.867 194.588,232.192 193.303,232.814 192.445 C 233.435 191.587,234.324 190.618,234.790 190.292 C 235.256 189.966,236.168 188.912,236.817 187.950 C 237.467 186.987,238.601 185.457,239.338 184.549 C 240.212 183.472,240.913 181.962,241.354 180.208 C 241.725 178.729,242.549 176.491,243.183 175.233 C 245.893 169.866,245.908 157.878,243.213 152.028 C 242.326 150.102,241.599 148.273,241.598 147.963 C 241.591 146.038,234.602 138.970,231.247 137.497 C 230.231 137.051,228.903 136.271,228.295 135.764 C 224.446 132.556,204.792 129.732,198.000 131.412 M215.223 134.530 L 223.447 135.005 225.027 136.666 C 226.168 137.865,227.051 138.402,228.204 138.597 C 231.129 139.089,231.790 139.424,232.365 140.706 C 232.739 141.541,233.443 142.170,234.457 142.576 C 235.557 143.016,236.150 143.584,236.578 144.608 C 236.976 145.561,237.615 146.214,238.518 146.592 C 239.850 147.148,239.871 147.195,240.311 150.772 C 240.661 153.615,241.103 155.099,242.378 157.708 C 244.283 161.607,244.557 164.383,243.208 166.099 C 241.829 167.852,240.000 175.448,240.000 179.420 C 240.000 180.808,239.308 181.785,238.041 182.187 C 237.362 182.402,236.954 183.114,236.247 185.308 C 236.122 185.697,235.378 186.394,234.595 186.856 C 233.812 187.318,232.882 188.254,232.529 188.936 C 231.658 190.622,227.733 194.334,226.102 195.015 C 225.252 195.370,224.576 196.044,224.224 196.885 C 223.808 197.880,223.252 198.349,221.937 198.811 C 220.535 199.305,220.114 199.688,219.752 200.798 C 219.505 201.555,219.055 202.286,218.752 202.422 C 216.095 203.619,215.776 203.900,215.271 205.483 C 214.872 206.736,214.453 207.243,213.557 207.555 C 211.891 208.136,211.298 209.861,210.921 215.238 L 210.600 219.800 200.000 219.800 L 189.400 219.800 189.298 216.400 C 189.226 213.984,189.365 212.711,189.781 212.000 C 191.554 208.971,192.412 206.639,193.187 202.753 C 193.511 201.126,193.865 200.404,194.469 200.134 C 194.928 199.930,196.062 198.517,196.989 196.994 C 197.944 195.427,199.198 193.935,199.881 193.553 C 200.544 193.183,201.831 192.150,202.741 191.258 C 203.650 190.366,205.217 189.155,206.223 188.565 C 207.228 187.976,208.352 187.023,208.720 186.447 C 209.546 185.154,210.420 184.429,211.174 184.413 C 211.989 184.395,213.600 182.787,213.600 181.992 C 213.600 181.271,214.588 180.267,215.677 179.882 C 216.859 179.464,217.640 177.751,218.176 174.404 C 218.591 171.811,218.922 170.917,219.806 169.994 C 221.215 168.523,221.024 165.057,219.428 163.160 C 218.904 162.537,218.347 161.257,218.191 160.314 C 217.792 157.904,217.402 157.329,215.811 156.804 C 214.965 156.525,214.216 155.922,213.908 155.272 C 212.861 153.067,211.524 152.801,201.477 152.801 C 190.906 152.800,189.297 153.068,187.616 155.107 C 186.645 156.286,186.087 156.570,184.152 156.874 C 181.134 157.347,179.552 158.136,178.734 159.575 C 178.281 160.372,177.524 160.910,176.375 161.255 C 174.971 161.675,174.559 162.043,173.952 163.416 C 173.389 164.688,172.852 165.215,171.632 165.695 C 170.388 166.183,169.970 166.603,169.704 167.632 C 169.227 169.472,168.547 169.511,168.214 167.717 C 167.887 165.951,166.718 163.913,165.457 162.907 C 164.969 162.518,164.173 161.347,163.686 160.305 C 163.109 159.070,162.258 158.068,161.240 157.426 C 158.891 155.943,158.705 150.800,161.000 150.800 C 161.567 150.800,162.753 149.549,163.374 148.297 C 163.619 147.804,164.493 147.040,165.317 146.600 C 166.141 146.160,167.036 145.300,167.307 144.689 C 167.662 143.889,168.247 143.463,169.400 143.166 C 170.280 142.938,171.270 142.672,171.600 142.574 C 171.930 142.476,172.955 141.693,173.878 140.834 C 175.553 139.276,176.064 139.081,179.765 138.591 C 181.704 138.335,183.592 137.025,184.063 135.610 C 184.219 135.142,185.778 134.967,192.029 134.718 C 196.303 134.547,200.160 134.341,200.600 134.258 C 202.152 133.968,207.090 134.060,215.223 134.530 M195.601 238.462 C 194.611 238.695,193.156 239.452,192.367 240.143 C 191.578 240.834,190.374 241.700,189.691 242.067 C 188.986 242.446,188.074 243.483,187.581 244.467 C 187.103 245.420,186.297 246.650,185.791 247.200 C 181.696 251.645,183.607 261.491,189.839 268.051 C 194.320 272.769,208.263 272.588,211.565 267.770 C 212.095 266.996,213.056 265.987,213.702 265.528 C 216.893 263.255,218.203 251.514,215.792 246.800 C 214.960 245.173,209.270 240.105,206.800 238.790 C 205.524 238.110,198.023 237.891,195.601 238.462 M205.395 240.916 C 206.282 241.777,207.615 242.579,208.563 242.821 C 211.102 243.470,211.200 243.526,211.200 244.334 C 211.200 245.416,212.657 247.124,213.708 247.273 C 215.929 247.589,215.854 261.067,213.625 261.989 C 213.021 262.240,212.234 263.059,211.876 263.809 C 211.518 264.560,210.514 265.623,209.644 266.172 C 208.775 266.721,207.947 267.536,207.805 267.984 C 207.663 268.432,207.154 268.878,206.673 268.976 C 202.146 269.896,193.079 269.387,192.863 268.200 C 192.657 267.070,191.633 266.025,190.108 265.387 C 189.128 264.978,188.800 264.591,188.800 263.846 C 188.800 262.303,188.195 261.064,186.635 259.409 C 184.607 257.259,184.438 252.236,186.357 251.145 C 187.610 250.432,189.200 246.901,189.200 244.830 C 189.200 243.828,189.383 243.655,190.700 243.410 C 192.970 242.988,195.943 241.598,196.737 240.589 C 198.335 238.557,203.154 238.739,205.395 240.916 " stroke="none" fill="#ececec" fill-rule="evenodd"></path><path id="path2" d="M198.000 129.456 C 197.450 129.536,195.672 129.799,194.048 130.039 C 192.425 130.279,189.995 130.880,188.648 131.374 C 187.302 131.869,184.612 132.598,182.672 132.994 C 180.482 133.441,178.586 134.099,177.672 134.729 C 176.862 135.287,174.940 136.261,173.400 136.894 C 171.860 137.528,170.150 138.466,169.600 138.980 C 169.050 139.494,167.651 140.388,166.492 140.968 C 162.725 142.851,154.251 151.680,154.571 153.388 C 154.859 154.923,157.753 159.401,160.009 161.800 C 160.836 162.680,161.792 163.956,162.133 164.635 C 162.474 165.314,163.367 166.338,164.118 166.910 C 164.869 167.483,165.697 168.468,165.958 169.099 C 167.425 172.640,170.164 172.089,175.344 167.212 C 177.425 165.253,180.010 163.203,181.089 162.656 C 182.168 162.110,183.296 161.366,183.596 161.005 C 184.374 160.067,185.870 159.383,188.400 158.806 C 189.610 158.530,191.800 157.786,193.267 157.152 C 195.783 156.065,196.248 156.000,201.467 156.006 L 207.000 156.011 211.000 158.162 C 214.990 160.307,215.002 160.318,215.676 162.456 C 217.743 169.018,215.560 175.157,209.081 181.000 C 204.194 185.407,202.218 187.021,201.164 187.468 C 200.557 187.725,199.758 188.397,199.389 188.961 C 199.019 189.525,198.125 190.352,197.401 190.799 C 196.677 191.247,195.790 192.236,195.428 192.997 C 195.067 193.758,194.174 194.836,193.445 195.393 C 192.572 196.059,191.731 197.328,190.987 199.103 C 190.366 200.586,189.454 202.290,188.963 202.890 C 186.821 205.501,185.979 220.964,187.843 223.468 L 188.686 224.600 199.913 224.706 C 213.763 224.837,213.006 225.152,213.654 219.000 C 213.886 216.800,214.315 214.550,214.607 214.000 C 214.899 213.450,215.904 211.412,216.840 209.472 C 218.266 206.517,218.789 205.818,220.065 205.167 C 220.903 204.739,221.882 203.942,222.240 203.395 C 222.598 202.848,224.112 201.589,225.604 200.597 C 227.096 199.605,228.419 198.527,228.544 198.201 C 228.669 197.875,229.768 196.971,230.986 196.192 C 232.204 195.413,233.200 194.574,233.200 194.327 C 233.200 194.081,234.145 192.930,235.300 191.770 C 240.186 186.861,241.435 184.986,242.432 181.065 C 242.702 180.000,243.375 178.470,243.925 177.665 C 247.148 172.953,247.362 154.883,244.252 150.135 C 243.699 149.291,242.863 147.564,242.394 146.298 C 241.327 143.418,236.555 138.550,233.200 136.919 C 231.990 136.330,230.414 135.348,229.698 134.735 C 228.982 134.123,227.362 133.342,226.098 133.001 C 224.834 132.660,222.137 131.841,220.104 131.180 C 214.795 129.455,203.832 128.600,198.000 129.456 M215.600 132.012 C 223.289 133.515,226.866 134.573,228.295 135.764 C 228.903 136.271,230.231 137.051,231.247 137.497 C 234.602 138.970,241.591 146.038,241.598 147.963 C 241.599 148.273,242.326 150.102,243.213 152.028 C 245.908 157.878,245.893 169.866,243.183 175.233 C 242.549 176.491,241.725 178.729,241.354 180.208 C 240.913 181.962,240.212 183.472,239.338 184.549 C 238.601 185.457,237.467 186.987,236.817 187.950 C 236.168 188.912,235.256 189.966,234.790 190.292 C 234.324 190.618,233.435 191.587,232.814 192.445 C 232.192 193.303,230.867 194.588,229.869 195.302 C 223.422 199.911,217.545 205.284,215.747 208.214 C 213.287 212.221,212.872 213.314,212.481 216.821 C 212.275 218.680,211.821 220.875,211.473 221.700 L 210.841 223.200 200.085 223.200 L 189.328 223.200 188.803 222.100 C 187.375 219.111,188.053 207.325,189.798 204.800 C 190.331 204.030,191.304 202.093,191.962 200.496 C 192.620 198.898,193.804 196.918,194.594 196.096 C 195.384 195.273,197.256 193.314,198.754 191.742 C 200.251 190.170,202.039 188.593,202.727 188.238 C 203.415 187.882,204.669 186.918,205.512 186.095 C 206.356 185.273,207.929 183.970,209.007 183.200 C 218.841 176.181,220.810 162.466,212.738 157.209 C 208.513 154.457,207.780 154.296,200.225 154.462 C 193.885 154.602,193.771 154.620,191.600 155.851 C 190.390 156.537,188.096 157.487,186.501 157.961 C 184.845 158.453,183.045 159.309,182.301 159.957 C 181.586 160.582,180.223 161.486,179.274 161.968 C 178.325 162.449,176.075 164.290,174.274 166.058 C 169.988 170.268,169.049 170.773,167.759 169.562 C 167.232 169.066,166.800 168.437,166.800 168.163 C 166.800 167.889,166.156 167.065,165.368 166.332 C 164.581 165.600,163.610 164.370,163.211 163.600 C 162.812 162.830,162.084 161.840,161.594 161.400 C 160.404 160.331,157.787 156.450,157.415 155.200 C 157.251 154.650,156.864 153.800,156.556 153.311 C 155.778 152.077,163.813 143.904,167.723 141.952 C 169.085 141.272,170.650 140.303,171.200 139.799 C 171.750 139.295,173.637 138.312,175.394 137.616 C 177.151 136.919,179.156 135.998,179.849 135.569 C 181.461 134.574,185.879 133.445,191.432 132.612 C 193.834 132.252,196.790 131.712,198.000 131.412 C 201.987 130.426,208.654 130.653,215.600 132.012 M195.309 237.141 C 193.662 237.361,192.897 237.728,191.709 238.866 C 190.879 239.661,189.617 240.605,188.904 240.964 C 188.187 241.325,187.268 242.283,186.846 243.108 C 186.428 243.929,185.688 244.960,185.202 245.399 C 183.396 247.032,183.048 248.320,182.877 254.000 C 182.653 261.459,182.809 261.899,187.914 268.237 C 191.509 272.700,199.652 274.543,206.124 272.359 C 215.705 269.126,219.930 261.848,218.211 251.536 C 217.173 245.309,216.288 243.797,211.579 240.216 C 207.380 237.023,202.748 236.147,195.309 237.141 M206.800 238.790 C 209.270 240.105,214.960 245.173,215.792 246.800 C 218.203 251.514,216.893 263.255,213.702 265.528 C 213.056 265.987,212.095 266.996,211.565 267.770 C 208.263 272.588,194.320 272.769,189.839 268.051 C 183.607 261.491,181.696 251.645,185.791 247.200 C 186.297 246.650,187.103 245.420,187.581 244.467 C 188.074 243.483,188.986 242.446,189.691 242.067 C 190.374 241.700,191.578 240.834,192.367 240.143 C 194.701 238.099,203.884 237.237,206.800 238.790 " stroke="none" fill="#b4b4b4" fill-rule="evenodd"></path><path id="path3" d="M175.300 31.476 C 175.685 31.576,176.315 31.576,176.700 31.476 C 177.085 31.375,176.770 31.293,176.000 31.293 C 175.230 31.293,174.915 31.375,175.300 31.476 M161.200 35.218 C 160.762 35.515,160.924 35.552,161.800 35.356 C 163.271 35.027,163.590 34.798,162.567 34.806 C 162.145 34.809,161.530 34.995,161.200 35.218 M146.182 37.782 C 145.642 38.322,145.212 38.997,145.227 39.282 C 145.242 39.567,145.449 39.395,145.688 38.900 C 145.927 38.405,146.281 38.000,146.475 38.000 C 146.669 38.000,146.617 38.405,146.360 38.900 C 145.901 39.782,145.913 39.780,146.946 38.830 C 148.155 37.718,148.241 37.532,147.400 37.855 C 147.070 37.982,146.800 37.971,146.800 37.830 C 146.800 37.689,147.205 37.411,147.700 37.212 C 148.417 36.924,148.454 36.846,147.882 36.825 C 147.487 36.811,146.722 37.242,146.182 37.782 M252.300 37.212 C 252.795 37.411,253.200 37.689,253.200 37.830 C 253.200 37.971,252.889 37.966,252.509 37.821 C 252.008 37.628,252.081 37.835,252.779 38.578 C 253.934 39.808,254.174 39.872,253.600 38.800 C 253.365 38.360,253.331 38.000,253.525 38.000 C 253.719 38.000,254.073 38.405,254.312 38.900 C 254.551 39.395,254.758 39.567,254.773 39.282 C 254.813 38.519,252.951 36.796,252.118 36.825 C 251.546 36.846,251.583 36.924,252.300 37.212 M117.775 50.900 L 116.600 52.200 117.900 51.025 C 119.112 49.930,119.384 49.600,119.075 49.600 C 119.006 49.600,118.421 50.185,117.775 50.900 M282.871 50.749 C 283.382 51.379,283.860 51.844,283.932 51.782 C 284.212 51.543,283.191 50.082,282.582 49.848 C 282.130 49.675,282.214 49.939,282.871 50.749 M281.102 50.266 C 281.379 50.377,281.500 50.637,281.373 50.844 C 281.245 51.051,281.379 51.170,281.670 51.110 C 281.962 51.049,282.165 51.195,282.122 51.433 C 282.079 51.672,282.308 51.867,282.629 51.867 C 283.059 51.867,282.982 51.619,282.337 50.933 C 281.855 50.420,281.267 50.014,281.030 50.032 C 280.794 50.049,280.826 50.154,281.102 50.266 M92.770 67.497 C 92.063 68.296,92.026 68.405,92.632 67.896 C 93.090 67.512,93.555 67.289,93.666 67.399 C 93.776 67.510,93.867 67.330,93.867 67.000 C 93.867 66.230,93.905 66.213,92.770 67.497 M305.600 66.824 C 305.600 67.057,305.811 67.117,306.068 66.958 C 306.385 66.762,306.451 66.889,306.273 67.355 C 306.107 67.787,306.166 67.945,306.432 67.781 C 306.664 67.637,306.953 67.898,307.074 68.360 C 307.315 69.284,308.000 69.513,308.000 68.670 C 308.000 68.132,306.378 66.400,305.874 66.400 C 305.723 66.400,305.600 66.591,305.600 66.824 M309.900 69.373 C 310.395 69.743,310.800 70.359,310.800 70.743 C 310.800 71.524,311.540 72.406,312.180 72.388 C 312.411 72.381,312.285 72.192,311.900 71.968 C 311.484 71.725,311.200 71.082,311.200 70.380 C 311.200 69.731,311.035 69.200,310.833 69.200 C 310.631 69.200,310.136 69.088,309.733 68.951 C 309.186 68.765,309.228 68.872,309.900 69.373 M83.200 73.957 C 83.200 74.227,82.992 74.319,82.738 74.162 C 82.465 73.993,82.384 74.051,82.541 74.304 C 82.686 74.539,82.579 74.823,82.302 74.934 C 81.989 75.060,81.970 75.149,82.251 75.168 C 82.834 75.209,83.793 74.060,83.457 73.724 C 83.316 73.582,83.200 73.687,83.200 73.957 M316.432 73.851 C 316.391 74.434,317.540 75.393,317.876 75.057 C 318.018 74.916,317.913 74.800,317.643 74.800 C 317.373 74.800,317.281 74.592,317.438 74.338 C 317.607 74.065,317.549 73.984,317.296 74.141 C 317.061 74.286,316.777 74.179,316.666 73.902 C 316.540 73.589,316.451 73.570,316.432 73.851 M74.800 82.357 C 74.800 82.627,74.592 82.719,74.338 82.562 C 74.065 82.393,73.984 82.451,74.141 82.704 C 74.286 82.939,74.179 83.223,73.902 83.334 C 73.589 83.460,73.570 83.549,73.851 83.568 C 74.434 83.609,75.393 82.460,75.057 82.124 C 74.916 81.982,74.800 82.087,74.800 82.357 M328.200 86.800 C 327.912 87.266,327.922 87.273,329.090 87.396 C 329.579 87.448,329.888 87.342,329.777 87.162 C 329.665 86.982,329.281 86.948,328.922 87.085 C 328.485 87.253,328.365 87.181,328.558 86.868 C 328.717 86.611,328.757 86.400,328.647 86.400 C 328.537 86.400,328.336 86.580,328.200 86.800 M329.308 88.583 C 329.579 88.876,329.935 89.034,330.100 88.934 C 330.658 88.596,330.404 88.171,329.608 88.111 C 328.968 88.062,328.910 88.153,329.308 88.583 M67.263 92.933 C 66.590 93.649,66.527 93.867,66.993 93.867 C 67.327 93.867,67.510 93.776,67.399 93.666 C 67.289 93.555,67.497 93.135,67.861 92.732 C 68.835 91.656,68.291 91.839,67.263 92.933 M330.800 92.400 C 330.800 92.620,331.070 92.800,331.400 92.800 C 331.730 92.800,332.000 93.031,332.000 93.314 C 332.000 93.597,332.355 93.829,332.789 93.829 C 333.554 93.829,333.552 93.801,332.719 92.914 C 331.834 91.972,330.800 91.695,330.800 92.400 M347.759 116.900 C 347.601 117.175,347.623 117.262,347.808 117.094 C 347.993 116.926,348.652 117.275,349.272 117.869 C 349.893 118.463,350.400 118.767,350.400 118.545 C 350.400 117.452,348.222 116.096,347.759 116.900 M347.878 117.857 C 348.140 117.964,348.305 118.265,348.243 118.526 C 348.182 118.787,348.207 118.864,348.300 118.698 C 348.392 118.531,348.678 118.521,348.934 118.674 C 349.190 118.828,349.153 118.649,348.851 118.277 C 348.549 117.905,348.099 117.614,347.851 117.632 C 347.545 117.653,347.554 117.726,347.878 117.857 M47.097 124.850 C 45.863 125.540,45.013 127.590,46.043 127.392 C 47.047 127.198,48.000 126.463,48.000 125.881 C 48.000 125.650,47.550 125.883,47.000 126.400 C 46.450 126.917,46.000 127.141,46.000 126.899 C 46.000 126.656,46.477 126.082,47.061 125.623 C 48.208 124.722,48.231 124.215,47.097 124.850 M192.400 128.361 C 189.178 128.665,187.794 129.197,186.723 130.547 C 186.169 131.244,185.192 131.519,181.358 132.055 C 176.715 132.703,176.656 132.725,175.187 134.316 C 173.997 135.605,173.262 136.014,171.456 136.388 C 169.763 136.740,168.793 137.242,167.525 138.425 C 166.599 139.288,165.055 140.295,164.093 140.662 C 162.789 141.160,162.174 141.693,161.670 142.763 C 161.231 143.696,160.464 144.446,159.471 144.914 C 158.436 145.401,157.756 146.085,157.356 147.043 C 156.958 147.995,156.320 148.641,155.398 149.027 C 152.338 150.305,152.321 157.070,155.373 158.461 C 155.932 158.715,156.772 159.716,157.242 160.687 C 157.756 161.749,158.699 162.831,159.612 163.408 C 160.605 164.035,161.218 164.771,161.387 165.541 C 161.676 166.857,162.547 167.767,163.916 168.185 C 164.502 168.363,164.916 168.879,165.062 169.612 C 165.820 173.399,172.472 173.150,175.586 169.217 C 176.286 168.333,177.346 167.322,177.942 166.971 C 178.538 166.619,179.323 165.812,179.687 165.178 C 180.169 164.337,180.849 163.899,182.194 163.560 C 183.490 163.233,184.336 162.706,185.037 161.786 C 186.161 160.314,186.411 160.229,192.800 159.167 C 206.095 156.957,214.635 159.193,215.118 165.011 C 215.491 169.516,214.885 172.967,213.622 173.526 C 212.855 173.866,212.237 174.648,211.682 175.984 C 211.129 177.315,210.473 178.149,209.640 178.579 C 208.966 178.928,208.130 179.761,207.784 180.431 C 207.384 181.205,206.514 181.923,205.391 182.404 C 204.086 182.963,203.476 183.523,203.044 184.556 C 202.581 185.665,202.173 186.006,201.059 186.215 C 200.288 186.360,199.380 186.776,199.040 187.139 C 198.253 187.981,196.634 189.547,195.369 190.690 C 194.827 191.179,194.275 192.124,194.142 192.790 C 194.009 193.455,193.677 194.000,193.404 194.000 C 192.348 194.000,190.885 195.639,190.467 197.290 C 190.199 198.351,189.508 199.495,188.647 200.305 C 186.383 202.433,186.200 203.477,186.200 214.290 L 186.200 223.980 187.308 225.090 L 188.417 226.200 198.308 226.330 C 213.321 226.527,215.200 225.954,215.200 221.177 C 215.200 220.063,215.719 217.648,216.400 215.600 C 217.060 213.613,217.600 211.712,217.600 211.374 C 217.600 209.720,219.865 206.957,222.976 204.816 C 223.912 204.172,224.990 203.170,225.370 202.589 C 225.751 202.008,226.637 201.293,227.339 201.000 C 228.689 200.436,229.722 199.442,230.115 198.329 C 230.246 197.960,231.153 197.304,232.131 196.872 C 233.524 196.256,234.012 195.776,234.379 194.664 C 234.714 193.650,235.270 193.036,236.324 192.522 C 237.273 192.057,238.049 191.269,238.498 190.311 C 238.882 189.493,239.733 188.545,240.391 188.205 C 241.918 187.415,242.644 185.991,243.009 183.065 C 243.257 181.084,243.531 180.503,244.821 179.226 C 246.895 177.173,247.000 176.399,247.000 163.200 C 247.000 150.839,246.874 149.935,244.835 147.703 C 244.197 147.004,243.382 145.551,243.025 144.474 C 242.386 142.551,241.241 141.144,239.947 140.690 C 239.588 140.564,238.778 139.707,238.147 138.784 C 237.345 137.611,236.396 136.851,234.989 136.254 C 233.883 135.784,232.590 135.007,232.116 134.527 C 230.650 133.042,229.495 132.481,226.859 131.971 C 225.341 131.678,223.867 131.100,223.196 130.535 C 220.738 128.467,219.488 128.285,207.000 128.178 C 200.620 128.123,194.050 128.205,192.400 128.361 M213.504 129.602 C 215.101 129.809,218.071 130.520,220.104 131.180 C 222.137 131.841,224.834 132.660,226.098 133.001 C 227.362 133.342,228.982 134.123,229.698 134.735 C 230.414 135.348,231.990 136.330,233.200 136.919 C 236.555 138.550,241.327 143.418,242.394 146.298 C 242.863 147.564,243.699 149.291,244.252 150.135 C 247.362 154.883,247.148 172.953,243.925 177.665 C 243.375 178.470,242.702 180.000,242.432 181.065 C 241.435 184.986,240.186 186.861,235.300 191.770 C 234.145 192.930,233.200 194.081,233.200 194.327 C 233.200 194.574,232.204 195.413,230.986 196.192 C 229.768 196.971,228.669 197.875,228.544 198.201 C 228.419 198.527,227.096 199.605,225.604 200.597 C 224.112 201.589,222.598 202.848,222.240 203.395 C 221.882 203.942,220.903 204.739,220.065 205.167 C 218.789 205.818,218.266 206.517,216.840 209.472 C 215.904 211.412,214.899 213.450,214.607 214.000 C 214.315 214.550,213.886 216.800,213.654 219.000 C 213.006 225.152,213.763 224.837,199.913 224.706 L 188.686 224.600 187.843 223.468 C 185.979 220.964,186.821 205.501,188.963 202.890 C 189.454 202.290,190.366 200.586,190.987 199.103 C 191.731 197.328,192.572 196.059,193.445 195.393 C 194.174 194.836,195.067 193.758,195.428 192.997 C 195.790 192.236,196.677 191.247,197.401 190.799 C 198.125 190.352,199.019 189.525,199.389 188.961 C 199.758 188.397,200.557 187.725,201.164 187.468 C 202.218 187.021,204.194 185.407,209.081 181.000 C 215.560 175.157,217.743 169.018,215.676 162.456 C 215.002 160.318,214.990 160.307,211.000 158.162 L 207.000 156.011 201.467 156.006 C 196.248 156.000,195.783 156.065,193.267 157.152 C 191.800 157.786,189.610 158.530,188.400 158.806 C 185.870 159.383,184.374 160.067,183.596 161.005 C 183.296 161.366,182.168 162.110,181.089 162.656 C 180.010 163.203,177.425 165.253,175.344 167.212 C 170.164 172.089,167.425 172.640,165.958 169.099 C 165.697 168.468,164.869 167.483,164.118 166.910 C 163.367 166.338,162.474 165.314,162.133 164.635 C 161.792 163.956,160.836 162.680,160.009 161.800 C 157.753 159.401,154.859 154.923,154.571 153.388 C 154.251 151.680,162.725 142.851,166.492 140.968 C 167.651 140.388,169.050 139.494,169.600 138.980 C 170.150 138.466,171.860 137.528,173.400 136.894 C 174.940 136.261,176.862 135.287,177.672 134.729 C 178.586 134.099,180.482 133.441,182.672 132.994 C 184.612 132.598,187.302 131.869,188.648 131.374 C 189.995 130.880,192.425 130.279,194.048 130.039 C 195.672 129.799,197.450 129.536,198.000 129.456 C 200.128 129.143,210.744 129.243,213.504 129.602 M38.642 144.868 C 38.833 145.177,38.718 145.254,38.303 145.095 C 37.581 144.818,36.193 146.142,36.568 146.749 C 36.710 146.978,37.232 146.732,37.789 146.174 C 38.325 145.638,38.952 145.200,39.182 145.200 C 39.412 145.200,39.600 145.020,39.600 144.800 C 39.600 144.580,39.319 144.400,38.976 144.400 C 38.602 144.400,38.468 144.587,38.642 144.868 M193.101 236.361 C 191.475 236.700,190.154 237.685,189.791 238.828 C 189.665 239.225,188.937 239.757,188.174 240.009 C 186.859 240.443,185.612 242.022,185.591 243.280 C 185.587 243.566,185.002 244.070,184.291 244.400 C 182.357 245.299,181.986 246.960,181.968 254.824 C 181.948 262.920,182.268 264.355,184.598 266.619 C 185.549 267.543,186.618 268.861,186.972 269.546 C 187.583 270.728,189.393 271.925,191.600 272.606 C 192.150 272.776,193.140 273.314,193.800 273.802 C 197.187 276.306,204.913 276.297,207.267 273.786 C 207.780 273.239,209.145 272.510,210.300 272.167 C 212.566 271.494,213.464 270.811,214.026 269.331 C 214.224 268.811,214.794 268.230,215.293 268.039 C 216.703 267.499,217.419 266.412,218.165 263.678 C 218.544 262.291,219.287 260.518,219.816 259.738 C 221.658 257.023,221.608 252.222,219.714 249.971 C 219.150 249.300,218.541 247.965,218.361 247.004 C 217.786 243.925,216.955 242.510,214.819 240.975 C 213.698 240.170,212.599 239.172,212.377 238.757 C 211.180 236.520,199.376 235.053,193.101 236.361 M207.930 237.764 C 214.361 241.090,217.076 244.726,218.211 251.536 C 219.930 261.848,215.705 269.126,206.124 272.359 C 199.652 274.543,191.509 272.700,187.914 268.237 C 182.809 261.899,182.653 261.459,182.877 254.000 C 183.048 248.320,183.396 247.032,185.202 245.399 C 185.688 244.960,186.428 243.929,186.846 243.108 C 187.268 242.283,188.187 241.325,188.904 240.964 C 189.617 240.605,190.879 239.661,191.709 238.866 C 193.943 236.725,204.530 236.006,207.930 237.764 M36.568 253.251 C 36.193 253.858,37.581 255.182,38.303 254.905 C 38.718 254.746,38.833 254.823,38.642 255.132 C 38.468 255.413,38.602 255.600,38.976 255.600 C 39.319 255.600,39.600 255.420,39.600 255.200 C 39.600 254.980,39.412 254.800,39.182 254.800 C 38.952 254.800,38.325 254.362,37.789 253.826 C 37.232 253.268,36.710 253.022,36.568 253.251 M45.806 273.611 C 46.137 274.252,46.766 274.968,47.204 275.202 C 48.320 275.799,48.196 275.269,47.000 274.329 C 46.450 273.896,46.000 273.344,46.000 273.101 C 46.000 272.859,46.450 273.083,47.000 273.600 C 47.550 274.117,48.000 274.350,48.000 274.119 C 48.000 273.537,47.047 272.802,46.043 272.608 C 45.239 272.453,45.229 272.496,45.806 273.611 M348.243 281.474 C 348.305 281.735,348.140 282.036,347.878 282.143 C 347.554 282.274,347.545 282.347,347.851 282.368 C 348.099 282.386,348.549 282.095,348.851 281.723 C 349.153 281.351,349.190 281.172,348.934 281.326 C 348.678 281.479,348.392 281.469,348.300 281.302 C 348.207 281.136,348.182 281.213,348.243 281.474 M348.996 282.404 C 348.366 283.062,348.033 283.600,348.255 283.600 C 348.770 283.600,350.603 281.670,350.339 281.406 C 350.231 281.297,349.626 281.746,348.996 282.404 M341.626 295.769 C 341.351 296.100,341.314 296.423,341.535 296.560 C 341.741 296.687,342.118 296.539,342.374 296.231 C 342.649 295.900,342.686 295.577,342.465 295.440 C 342.259 295.313,341.882 295.461,341.626 295.769 M67.281 307.086 C 68.166 308.028,69.200 308.305,69.200 307.600 C 69.200 307.380,68.930 307.200,68.600 307.200 C 68.270 307.200,68.000 306.969,68.000 306.686 C 68.000 306.403,67.645 306.171,67.211 306.171 C 66.446 306.171,66.448 306.199,67.281 307.086 M69.789 310.818 C 69.527 311.242,70.595 313.200,71.089 313.200 C 71.238 313.200,71.144 312.984,70.880 312.720 C 70.021 311.861,70.375 311.455,71.300 312.238 L 72.200 313.000 71.447 312.109 C 71.032 311.620,70.507 311.334,70.279 311.475 C 70.024 311.632,69.963 311.474,70.119 311.066 C 70.403 310.327,70.191 310.167,69.789 310.818 M329.308 311.417 C 328.910 311.847,328.968 311.938,329.608 311.889 C 330.404 311.829,330.658 311.404,330.100 311.066 C 329.935 310.966,329.579 311.124,329.308 311.417 M328.201 312.798 C 328.083 312.989,328.198 313.275,328.455 313.434 C 328.769 313.628,328.816 313.549,328.596 313.194 C 328.360 312.811,328.450 312.734,328.922 312.915 C 329.281 313.052,329.658 313.030,329.759 312.866 C 329.861 312.701,329.601 312.540,329.180 312.508 C 328.760 312.477,328.319 312.607,328.201 312.798 M73.902 316.666 C 74.179 316.777,74.286 317.061,74.141 317.296 C 73.984 317.549,74.065 317.607,74.338 317.438 C 74.592 317.281,74.800 317.373,74.800 317.643 C 74.800 317.913,74.916 318.018,75.057 317.876 C 75.393 317.540,74.434 316.391,73.851 316.432 C 73.570 316.451,73.589 316.540,73.902 316.666 M82.302 325.066 C 82.579 325.177,82.686 325.461,82.541 325.696 C 82.384 325.949,82.465 326.007,82.738 325.838 C 82.992 325.681,83.200 325.773,83.200 326.043 C 83.200 326.313,83.316 326.418,83.457 326.276 C 83.793 325.940,82.834 324.791,82.251 324.832 C 81.970 324.851,81.989 324.940,82.302 325.066 M86.566 328.455 C 86.372 328.769,86.451 328.816,86.806 328.596 C 87.189 328.360,87.266 328.450,87.085 328.922 C 86.948 329.281,86.970 329.658,87.134 329.759 C 87.299 329.861,87.460 329.601,87.492 329.180 C 87.561 328.262,86.971 327.800,86.566 328.455 M312.396 329.004 C 312.124 329.332,312.059 329.603,312.251 329.606 C 312.443 329.609,312.330 329.787,312.000 330.000 C 311.670 330.213,311.597 330.391,311.838 330.394 C 312.495 330.403,313.713 328.917,313.271 328.644 C 313.062 328.515,312.668 328.677,312.396 329.004 M88.111 329.608 C 88.171 330.404,88.596 330.658,88.934 330.100 C 89.034 329.935,88.876 329.579,88.583 329.308 C 88.153 328.910,88.062 328.968,88.111 329.608 M92.000 331.530 C 92.000 332.070,93.974 333.759,94.265 333.468 C 94.413 333.321,94.304 333.200,94.024 333.200 C 93.735 333.200,93.614 332.940,93.745 332.600 C 93.885 332.235,93.745 332.000,93.387 332.000 C 93.064 332.000,92.800 331.820,92.800 331.600 C 92.800 331.380,92.620 331.200,92.400 331.200 C 92.180 331.200,92.000 331.349,92.000 331.530 M116.800 348.125 C 116.800 348.194,117.385 348.779,118.100 349.425 L 119.400 350.600 118.225 349.300 C 117.130 348.088,116.800 347.816,116.800 348.125 M282.000 349.660 C 281.230 350.335,280.962 350.705,281.404 350.481 C 282.135 350.111,283.947 348.378,283.562 348.416 C 283.473 348.425,282.770 348.985,282.000 349.660 M124.028 352.131 C 123.991 353.086,126.131 355.213,127.069 355.154 C 127.749 355.110,127.747 355.094,127.042 354.913 C 126.625 354.806,126.445 354.602,126.642 354.459 C 126.839 354.317,126.505 353.716,125.900 353.126 C 125.295 352.535,124.787 352.265,124.772 352.526 C 124.756 352.786,124.589 352.640,124.400 352.200 C 124.089 351.477,124.054 351.470,124.028 352.131 M274.326 353.688 C 273.735 354.299,273.388 354.800,273.556 354.800 C 273.935 354.800,275.799 352.845,275.568 352.689 C 275.476 352.626,274.916 353.076,274.326 353.688 M126.212 354.321 C 125.943 354.590,124.800 353.592,124.800 353.089 C 124.800 352.862,125.161 353.003,125.602 353.402 C 126.044 353.802,126.318 354.215,126.212 354.321 M133.905 356.283 C 134.402 356.379,135.122 356.375,135.505 356.275 C 135.887 356.175,135.480 356.096,134.600 356.101 C 133.720 356.105,133.407 356.187,133.905 356.283 M263.967 356.100 C 263.729 356.814,263.820 358.000,264.114 358.000 C 264.322 358.000,264.402 357.650,264.290 357.222 C 264.120 356.573,264.329 356.417,265.543 356.289 L 267.000 356.134 265.500 356.067 C 264.675 356.030,263.985 356.045,263.967 356.100 M145.227 360.718 C 145.187 361.481,147.049 363.204,147.882 363.175 C 148.454 363.154,148.417 363.076,147.700 362.788 C 147.205 362.589,146.800 362.311,146.800 362.170 C 146.800 362.029,147.111 362.034,147.491 362.179 C 147.992 362.372,147.919 362.165,147.221 361.422 C 146.066 360.192,145.826 360.128,146.400 361.200 C 146.635 361.640,146.669 362.000,146.475 362.000 C 146.281 362.000,145.927 361.595,145.688 361.100 C 145.449 360.605,145.242 360.433,145.227 360.718 M236.198 365.602 C 235.175 366.732,235.610 366.837,236.686 365.720 C 237.173 365.214,237.426 364.800,237.248 364.800 C 237.070 364.800,236.597 365.161,236.198 365.602 M237.683 365.778 C 237.444 366.302,236.875 366.849,236.419 366.994 C 235.615 367.249,235.636 368.000,236.447 368.000 C 236.667 368.000,236.717 367.789,236.558 367.532 C 236.368 367.225,236.481 367.145,236.886 367.301 C 237.225 367.431,237.690 367.350,237.920 367.120 C 238.150 366.890,238.231 366.425,238.101 366.086 C 237.945 365.681,238.025 365.568,238.332 365.758 C 238.589 365.917,238.800 365.867,238.800 365.647 C 238.800 364.791,238.095 364.873,237.683 365.778 M161.840 366.335 C 161.713 366.541,161.861 366.918,162.169 367.174 C 162.500 367.449,162.823 367.486,162.960 367.265 C 163.087 367.059,162.939 366.682,162.631 366.426 C 162.300 366.151,161.977 366.114,161.840 366.335 M175.700 368.676 C 176.085 368.776,176.715 368.776,177.100 368.676 C 177.485 368.575,177.170 368.493,176.400 368.493 C 175.630 368.493,175.315 368.575,175.700 368.676 M223.105 368.683 C 223.602 368.779,224.322 368.775,224.705 368.675 C 225.087 368.575,224.680 368.496,223.800 368.501 C 222.920 368.505,222.607 368.587,223.105 368.683 " stroke="none" fill="#acacac" fill-rule="evenodd"></path><path id="path4" d="M163.452 31.482 C 163.297 31.637,162.682 31.774,162.085 31.788 C 161.304 31.805,161.031 31.998,161.111 32.476 C 161.171 32.841,161.036 33.254,160.811 33.393 C 160.585 33.533,160.400 34.087,160.400 34.624 L 160.400 35.600 155.500 35.647 C 152.805 35.673,150.446 35.667,150.258 35.633 C 150.070 35.600,149.630 35.803,149.281 36.086 C 148.821 36.459,148.727 36.465,148.941 36.110 C 149.161 35.744,148.756 35.656,147.340 35.762 C 145.232 35.920,144.000 36.983,144.000 38.644 C 144.000 39.668,143.697 39.733,139.200 39.672 C 137.805 39.653,137.246 39.845,136.716 40.524 L 136.032 41.400 136.279 40.437 C 136.571 39.300,136.097 39.630,133.067 42.676 C 131.661 44.089,131.280 44.284,130.636 43.920 C 130.127 43.632,129.659 43.619,129.236 43.881 C 128.886 44.097,127.790 44.221,126.800 44.157 C 124.234 43.992,123.038 44.847,123.329 46.639 C 123.506 47.731,123.416 48.005,122.875 48.026 C 116.282 48.284,114.344 49.289,115.102 52.059 C 115.141 52.201,114.818 52.225,114.384 52.112 C 113.951 51.998,113.344 52.114,113.037 52.369 C 112.608 52.725,112.434 52.713,112.290 52.317 C 111.847 51.096,110.601 52.640,110.571 54.446 L 110.541 56.200 107.671 56.318 C 105.414 56.410,104.800 56.566,104.800 57.046 C 104.800 57.580,104.718 57.575,104.154 57.011 C 103.361 56.218,102.703 56.387,102.542 57.423 C 102.054 60.552,101.989 60.660,100.709 60.472 C 99.746 60.331,99.557 60.410,99.820 60.846 C 100.100 61.312,100.049 61.315,99.494 60.866 C 99.132 60.572,98.614 60.468,98.344 60.635 C 97.993 60.852,98.073 61.024,98.627 61.241 C 99.357 61.527,99.358 61.545,98.656 61.572 C 98.049 61.595,97.942 61.851,98.072 62.966 C 98.238 64.391,97.668 64.702,94.600 64.859 C 92.410 64.971,90.752 65.673,90.382 66.646 C 89.788 68.209,89.963 69.157,90.583 67.731 C 90.887 67.034,91.498 66.269,91.941 66.031 C 93.291 65.309,93.326 65.545,92.031 66.636 C 91.354 67.205,90.800 67.998,90.800 68.397 C 90.800 69.014,90.558 69.091,89.200 68.909 C 88.104 68.762,87.600 68.846,87.600 69.174 C 87.600 69.465,87.298 69.558,86.832 69.410 C 85.734 69.062,85.342 70.547,86.191 71.843 C 86.754 72.702,86.762 72.829,86.247 72.723 C 85.916 72.655,85.351 72.960,84.993 73.400 C 84.634 73.840,84.463 73.961,84.613 73.669 C 84.822 73.261,84.527 73.173,83.343 73.288 C 82.494 73.371,81.784 73.610,81.765 73.819 C 81.746 74.029,81.591 74.518,81.420 74.906 C 81.250 75.294,81.203 75.969,81.317 76.406 C 81.469 76.986,81.326 77.200,80.786 77.200 C 80.380 77.200,79.931 77.389,79.788 77.619 C 79.612 77.904,79.341 77.883,78.944 77.554 C 78.089 76.844,76.844 78.089,77.554 78.944 C 77.883 79.341,77.904 79.612,77.619 79.788 C 77.389 79.931,77.200 80.380,77.200 80.786 C 77.200 81.326,76.986 81.469,76.406 81.317 C 75.969 81.203,75.294 81.250,74.906 81.420 C 74.518 81.591,74.029 81.746,73.819 81.765 C 73.610 81.784,73.371 82.494,73.288 83.343 C 73.173 84.527,73.261 84.822,73.669 84.613 C 73.961 84.463,73.840 84.634,73.400 84.993 C 72.960 85.351,72.655 85.916,72.723 86.247 C 72.829 86.762,72.702 86.754,71.843 86.191 C 70.547 85.342,69.062 85.734,69.410 86.832 C 69.558 87.298,69.465 87.600,69.174 87.600 C 68.846 87.600,68.762 88.104,68.909 89.200 C 69.091 90.558,69.014 90.800,68.397 90.800 C 67.998 90.800,67.205 91.354,66.636 92.031 C 65.545 93.326,65.309 93.291,66.031 91.941 C 66.269 91.498,67.034 90.887,67.731 90.583 C 69.157 89.963,68.209 89.788,66.646 90.382 C 65.673 90.752,64.971 92.410,64.859 94.600 C 64.695 97.804,64.387 98.362,62.885 98.169 C 62.097 98.069,61.575 98.108,61.724 98.257 C 61.873 98.406,61.618 98.792,61.158 99.115 C 60.534 99.551,60.376 99.979,60.538 100.790 C 60.760 101.898,58.527 103.173,57.489 102.532 C 57.135 102.313,56.420 103.066,56.406 103.671 C 56.403 103.821,56.683 104.226,57.029 104.571 C 57.581 105.124,57.583 105.200,57.050 105.200 C 56.591 105.200,56.448 105.661,56.460 107.100 C 56.493 110.840,56.595 110.653,54.552 110.625 C 52.661 110.599,51.022 111.821,52.317 112.290 C 52.713 112.434,52.725 112.608,52.369 113.037 C 52.114 113.344,51.998 113.951,52.112 114.384 C 52.225 114.818,52.201 115.141,52.059 115.102 C 49.866 114.502,48.347 116.328,48.175 119.771 C 48.108 121.107,48.041 122.403,48.027 122.650 C 48.012 122.897,47.432 123.214,46.738 123.352 C 45.275 123.645,44.400 124.273,44.400 125.031 C 44.400 125.353,44.789 125.175,45.382 124.582 C 45.922 124.042,46.777 123.607,47.282 123.616 C 48.079 123.629,48.033 123.704,46.931 124.183 C 45.558 124.780,44.800 125.853,44.800 127.197 C 44.800 127.665,44.620 127.936,44.400 127.800 C 44.180 127.664,43.987 127.788,43.971 128.076 C 43.956 128.364,43.860 130.120,43.760 131.978 C 43.545 135.941,43.730 135.627,41.542 135.737 L 39.800 135.824 39.702 139.787 C 39.642 142.172,39.425 143.861,39.156 144.027 C 38.844 144.220,38.874 144.378,39.255 144.552 C 39.706 144.757,39.701 144.845,39.223 145.059 C 38.905 145.202,38.234 145.730,37.730 146.233 C 37.203 146.761,36.711 146.979,36.568 146.749 C 36.196 146.146,37.580 144.825,38.338 145.060 C 38.852 145.219,38.827 145.124,38.224 144.633 C 36.460 143.196,34.891 145.059,36.193 147.046 C 36.790 147.956,36.803 148.087,36.276 147.885 C 35.835 147.715,35.670 147.872,35.712 148.423 C 35.744 148.850,35.912 149.200,36.085 149.200 C 36.258 149.200,36.400 149.391,36.400 149.624 C 36.400 149.857,36.220 149.936,36.000 149.800 C 35.689 149.608,35.298 158.998,35.539 160.858 C 35.557 161.000,34.917 160.915,34.116 160.670 C 32.993 160.325,32.622 160.335,32.495 160.714 C 32.405 160.984,32.139 161.086,31.904 160.941 C 31.661 160.790,31.592 160.864,31.745 161.111 C 31.892 161.349,31.830 161.658,31.607 161.796 C 31.048 162.141,31.095 163.735,31.680 164.320 C 32.031 164.671,32.036 164.800,31.699 164.800 C 31.356 164.800,31.239 173.715,31.239 200.000 C 31.239 226.285,31.356 235.200,31.699 235.200 C 32.036 235.200,32.031 235.329,31.680 235.680 C 31.095 236.265,31.048 237.859,31.607 238.204 C 31.830 238.342,31.892 238.651,31.745 238.889 C 31.592 239.136,31.661 239.210,31.904 239.059 C 32.139 238.914,32.405 239.016,32.495 239.286 C 32.620 239.661,32.993 239.675,34.063 239.347 C 35.081 239.034,35.475 239.037,35.499 239.358 C 35.516 239.601,35.559 242.188,35.594 245.106 C 35.639 248.794,35.790 250.330,36.091 250.144 C 36.377 249.967,36.405 250.067,36.173 250.438 C 35.516 251.492,35.559 252.390,36.254 252.124 C 36.820 251.907,36.812 252.009,36.193 252.954 C 34.891 254.941,36.460 256.804,38.224 255.367 C 38.827 254.876,38.852 254.781,38.338 254.940 C 37.580 255.175,36.196 253.854,36.568 253.251 C 36.711 253.021,37.203 253.239,37.730 253.767 C 38.234 254.270,38.905 254.785,39.223 254.910 C 39.706 255.102,39.711 255.201,39.255 255.521 C 38.891 255.776,38.858 255.953,39.156 256.052 C 39.436 256.145,39.639 257.691,39.701 260.188 L 39.800 264.176 41.542 264.263 C 43.730 264.373,43.545 264.059,43.760 268.022 C 43.860 269.880,43.956 271.636,43.971 271.924 C 43.987 272.212,44.180 272.336,44.400 272.200 C 44.620 272.064,44.800 272.335,44.800 272.803 C 44.800 274.147,45.558 275.220,46.931 275.817 C 48.033 276.296,48.079 276.371,47.282 276.384 C 46.777 276.393,45.922 275.958,45.382 275.418 C 44.789 274.825,44.400 274.647,44.400 274.969 C 44.400 275.727,45.275 276.355,46.738 276.648 C 47.432 276.786,48.012 277.103,48.027 277.350 C 48.041 277.598,48.108 278.893,48.175 280.229 C 48.347 283.672,49.866 285.498,52.059 284.898 C 52.201 284.859,52.225 285.182,52.112 285.616 C 51.998 286.049,52.129 286.673,52.402 287.002 C 52.745 287.416,52.760 287.600,52.449 287.600 C 51.807 287.600,51.895 288.352,52.621 289.078 C 53.061 289.518,53.704 289.638,54.821 289.488 L 56.400 289.276 56.446 291.338 C 56.471 292.472,56.460 293.715,56.421 294.100 C 56.382 294.485,56.547 294.800,56.789 294.800 C 57.099 294.800,57.107 295.027,56.814 295.574 C 56.293 296.547,56.286 296.917,56.795 296.603 C 57.022 296.463,57.089 296.623,56.953 296.979 C 56.642 297.789,57.180 297.767,58.411 296.919 C 59.261 296.334,59.327 296.329,58.881 296.883 C 58.430 297.443,58.521 297.563,59.565 297.792 C 60.662 298.033,60.747 298.166,60.522 299.291 C 60.323 300.283,60.385 300.458,60.838 300.185 C 61.320 299.895,61.320 299.945,60.837 300.540 C 60.375 301.110,60.367 301.320,60.796 301.717 C 61.213 302.103,61.269 302.060,61.071 301.500 C 60.936 301.115,60.999 300.800,61.213 300.800 C 61.426 300.800,61.600 301.062,61.600 301.383 C 61.600 301.801,61.987 301.936,62.965 301.859 C 64.208 301.761,64.348 301.861,64.533 302.976 C 64.644 303.649,64.795 304.540,64.867 304.955 C 65.061 306.056,67.218 308.423,68.551 308.996 C 69.183 309.268,69.542 309.589,69.347 309.709 C 68.584 310.181,66.363 308.806,65.802 307.514 C 65.384 306.551,65.227 306.417,65.216 307.011 C 65.192 308.250,66.267 309.507,67.600 309.800 C 68.530 310.004,68.800 310.281,68.800 311.032 C 68.800 311.564,68.992 312.000,69.227 312.000 C 69.467 312.000,69.546 312.339,69.408 312.776 C 69.094 313.764,70.387 314.519,71.792 314.166 C 72.438 314.004,72.800 314.081,72.800 314.380 C 72.800 314.637,72.961 314.748,73.158 314.626 C 73.355 314.504,73.623 314.683,73.754 315.023 C 73.894 315.389,73.824 315.538,73.581 315.388 C 73.319 315.227,73.227 315.678,73.325 316.635 C 73.413 317.496,73.718 318.189,74.039 318.260 C 75.596 318.608,76.943 318.777,76.500 318.569 C 76.225 318.439,76.000 318.146,76.000 317.918 C 76.000 317.667,76.238 317.699,76.600 318.000 C 76.930 318.274,77.200 318.825,77.200 319.225 C 77.200 319.625,77.389 320.069,77.619 320.212 C 77.904 320.388,77.883 320.659,77.554 321.056 C 76.844 321.911,78.089 323.156,78.944 322.446 C 79.341 322.117,79.612 322.096,79.788 322.381 C 79.931 322.611,80.375 322.800,80.775 322.800 C 81.175 322.800,81.726 323.070,82.000 323.400 C 82.301 323.762,82.333 324.000,82.082 324.000 C 81.854 324.000,81.561 323.775,81.431 323.500 C 81.223 323.057,81.392 324.404,81.740 325.961 C 81.811 326.282,82.504 326.587,83.365 326.675 C 84.322 326.773,84.773 326.681,84.612 326.419 C 84.462 326.176,84.611 326.106,84.977 326.246 C 85.317 326.377,85.496 326.645,85.374 326.842 C 85.252 327.039,85.515 327.200,85.958 327.200 C 86.732 327.200,86.738 327.244,86.098 328.358 C 85.358 329.647,85.920 330.959,87.029 330.533 C 87.343 330.413,87.600 330.514,87.600 330.757 C 87.600 331.001,88.126 331.200,88.768 331.200 C 89.741 331.200,89.981 331.401,90.200 332.400 C 90.493 333.733,91.750 334.808,92.989 334.784 C 93.583 334.773,93.449 334.616,92.486 334.198 C 91.194 333.637,89.819 331.416,90.291 330.653 C 90.411 330.458,90.732 330.817,91.004 331.449 C 91.578 332.785,93.947 334.942,95.045 335.128 C 98.130 335.652,98.221 335.731,98.021 337.700 C 97.977 338.127,98.232 338.411,98.675 338.428 C 99.338 338.454,99.334 338.482,98.627 338.759 C 97.521 339.192,98.323 339.535,100.271 339.463 C 102.008 339.397,102.395 339.944,102.435 342.521 C 102.450 343.452,103.441 343.830,104.205 343.196 C 104.657 342.821,104.800 342.817,104.800 343.179 C 104.800 343.501,105.551 343.637,107.100 343.596 C 110.930 343.494,110.749 343.410,110.512 345.179 C 110.362 346.296,110.482 346.939,110.922 347.379 C 111.662 348.119,112.400 348.189,112.400 347.520 C 112.400 347.147,112.507 347.147,112.880 347.520 C 113.507 348.147,114.688 348.136,114.902 347.500 C 114.994 347.225,115.087 347.574,115.107 348.275 C 115.197 351.325,115.968 351.690,122.890 351.972 C 123.434 351.994,123.531 352.244,123.348 353.158 C 122.977 355.017,124.283 356.033,126.801 355.842 C 127.905 355.758,128.896 355.831,129.003 356.004 C 129.109 356.177,130.742 356.241,132.631 356.146 C 134.779 356.037,135.975 356.117,135.826 356.359 C 135.694 356.571,135.773 356.860,136.000 357.000 C 136.227 357.140,136.280 357.468,136.118 357.728 C 135.645 358.484,135.618 359.309,136.043 359.978 C 136.341 360.447,136.378 360.353,136.194 359.600 L 135.950 358.600 136.675 359.476 C 137.232 360.149,137.816 360.347,139.200 360.328 C 143.697 360.267,144.000 360.332,144.000 361.356 C 144.000 363.017,145.232 364.080,147.340 364.238 C 148.756 364.344,149.161 364.256,148.941 363.890 C 148.727 363.535,148.821 363.541,149.281 363.914 C 149.630 364.197,150.070 364.400,150.258 364.367 C 152.793 363.912,160.400 364.487,160.400 365.133 C 160.400 365.537,160.535 366.003,160.700 366.169 C 160.865 366.336,161.000 366.861,161.000 367.336 C 161.000 367.929,161.251 368.204,161.800 368.213 C 162.240 368.220,163.192 368.371,163.916 368.548 C 164.767 368.757,165.426 368.710,165.781 368.416 C 166.157 368.103,166.410 368.092,166.588 368.381 C 166.918 368.914,169.417 368.926,170.402 368.399 C 170.884 368.141,171.237 368.136,171.391 368.386 C 171.748 368.963,232.910 368.868,233.267 368.291 C 233.459 367.980,233.722 368.003,234.164 368.370 C 234.588 368.722,235.146 368.783,235.895 368.558 C 236.503 368.376,237.450 368.221,238.000 368.214 C 238.850 368.202,238.983 368.035,238.885 367.100 C 238.822 366.495,238.957 366.000,239.185 366.000 C 239.413 366.000,239.600 365.640,239.600 365.200 C 239.600 364.440,239.867 364.400,244.869 364.400 C 249.305 364.400,250.267 364.289,250.962 363.700 C 251.746 363.034,251.760 363.034,251.244 363.700 C 250.742 364.349,250.840 364.386,252.601 364.208 C 254.910 363.974,255.503 363.525,255.834 361.760 C 256.112 360.276,256.182 360.257,260.920 360.331 C 262.250 360.352,262.908 360.183,263.063 359.781 C 263.383 358.946,264.025 359.062,263.724 359.900 C 263.586 360.285,263.615 360.471,263.790 360.313 C 264.210 359.933,264.412 358.000,264.032 358.000 C 263.868 358.000,263.763 357.595,263.800 357.100 C 263.864 356.220,263.983 356.198,269.033 356.131 C 275.782 356.041,277.645 355.178,276.656 352.601 C 276.417 351.979,277.058 351.848,279.900 351.940 C 280.615 351.963,281.200 351.810,281.200 351.601 C 281.200 351.391,281.695 351.317,282.300 351.435 C 283.742 351.716,284.667 350.940,284.965 349.200 C 285.177 347.956,285.157 347.911,284.781 348.792 C 284.247 350.043,283.209 351.204,282.638 351.188 C 282.397 351.181,282.532 350.983,282.937 350.747 C 283.343 350.511,283.928 349.712,284.238 348.972 C 284.606 348.090,284.996 347.700,285.369 347.843 C 285.682 347.963,286.312 347.861,286.769 347.617 C 287.322 347.321,287.600 347.310,287.600 347.586 C 287.600 348.180,288.361 348.096,289.029 347.429 C 289.733 346.724,289.777 346.246,289.100 346.653 C 288.755 346.860,288.769 346.745,289.145 346.282 C 289.472 345.878,289.589 345.209,289.437 344.605 C 289.155 343.480,289.105 343.495,292.900 343.596 C 294.449 343.637,295.200 343.501,295.200 343.179 C 295.200 342.817,295.343 342.821,295.795 343.196 C 296.559 343.830,297.550 343.452,297.565 342.521 C 297.604 340.008,298.049 339.230,299.305 339.481 C 300.284 339.677,300.458 339.614,300.185 339.162 C 299.895 338.680,299.945 338.680,300.540 339.163 C 301.110 339.625,301.320 339.633,301.717 339.204 C 302.103 338.787,302.060 338.731,301.500 338.929 C 301.115 339.064,300.800 339.001,300.800 338.787 C 300.800 338.574,301.062 338.400,301.383 338.400 C 301.801 338.400,301.936 338.013,301.859 337.035 C 301.746 335.608,301.997 335.467,305.300 335.105 C 305.685 335.063,306.000 334.904,306.000 334.752 C 306.000 334.599,306.334 334.562,306.741 334.669 C 307.766 334.937,309.591 333.241,309.689 331.929 C 309.734 331.340,309.912 330.945,310.085 331.052 C 310.258 331.160,310.405 330.922,310.412 330.524 C 310.424 329.841,310.447 329.839,310.832 330.500 C 311.260 331.235,312.800 331.479,312.800 330.813 C 312.800 330.599,313.101 330.541,313.469 330.682 C 313.982 330.879,314.077 330.778,313.874 330.249 C 313.728 329.869,313.746 329.643,313.912 329.746 C 314.079 329.849,314.234 329.215,314.257 328.337 C 314.294 326.926,315.200 324.988,315.200 326.320 C 315.200 326.584,315.582 326.800,316.049 326.800 C 316.795 326.800,316.831 326.719,316.349 326.130 C 315.837 325.505,315.869 325.505,316.832 326.132 C 318.155 326.992,318.592 326.555,317.732 325.232 C 317.105 324.269,317.105 324.237,317.730 324.749 C 318.327 325.238,318.428 325.161,318.650 324.049 C 318.823 323.183,319.130 322.800,319.650 322.800 C 320.088 322.800,320.400 322.518,320.400 322.124 C 320.400 321.526,320.464 321.535,320.951 322.201 C 321.484 322.929,321.527 322.930,322.229 322.229 C 322.930 321.527,322.929 321.484,322.201 320.951 C 321.535 320.464,321.526 320.400,322.124 320.400 C 322.518 320.400,322.800 320.088,322.800 319.650 C 322.800 319.130,323.183 318.823,324.049 318.650 C 325.161 318.428,325.238 318.327,324.749 317.730 C 324.237 317.105,324.269 317.105,325.232 317.732 C 326.555 318.592,326.992 318.155,326.132 316.832 C 325.505 315.869,325.505 315.837,326.130 316.349 C 326.719 316.831,326.800 316.795,326.800 316.049 C 326.800 315.582,326.575 315.194,326.300 315.187 C 325.995 315.180,326.072 314.968,326.500 314.643 C 326.885 314.351,327.200 313.903,327.200 313.647 C 327.200 313.341,327.537 313.402,328.180 313.824 C 329.455 314.659,330.935 314.256,330.590 313.168 C 330.453 312.738,330.534 312.400,330.773 312.400 C 331.365 312.400,331.310 310.283,330.700 309.599 C 330.287 309.137,330.305 309.111,330.800 309.456 C 332.401 310.569,335.459 307.948,334.448 306.329 C 334.002 305.615,334.009 305.518,334.488 305.702 C 334.919 305.867,335.078 305.477,335.150 304.070 C 335.266 301.844,335.201 301.920,336.973 301.920 C 338.021 301.920,338.407 301.745,338.428 301.260 C 338.451 300.733,338.517 300.756,338.759 301.373 C 338.976 301.927,339.148 302.007,339.365 301.656 C 339.532 301.386,339.428 300.868,339.134 300.506 C 338.685 299.951,338.688 299.900,339.154 300.180 C 339.591 300.444,339.669 300.250,339.523 299.257 C 339.343 298.029,341.360 296.757,342.435 297.422 C 343.231 297.914,343.446 296.746,343.557 291.310 L 343.600 289.220 344.862 289.472 C 345.653 289.631,346.033 289.577,345.880 289.329 C 345.745 289.111,345.889 288.933,346.200 288.933 C 346.511 288.933,346.672 289.083,346.559 289.267 C 346.224 289.808,346.810 289.648,347.429 289.029 C 348.096 288.361,348.180 287.600,347.586 287.600 C 347.304 287.600,347.307 287.348,347.595 286.809 C 347.828 286.374,347.938 285.575,347.840 285.033 C 347.709 284.309,347.810 284.106,348.222 284.264 C 348.530 284.382,349.327 283.935,349.991 283.270 C 350.676 282.585,351.200 282.296,351.200 282.602 C 351.200 282.899,350.726 283.515,350.146 283.971 C 349.392 284.564,349.276 284.800,349.737 284.800 C 350.833 284.800,351.790 282.934,351.274 281.803 C 350.903 280.989,350.932 280.876,351.457 281.077 C 351.964 281.272,352.062 281.026,351.984 279.758 C 351.827 277.201,351.941 276.800,352.826 276.800 C 355.331 276.800,355.877 275.592,356.196 269.348 C 356.483 263.716,355.949 264.434,360.149 264.033 C 360.341 264.015,360.251 263.695,359.949 263.323 C 359.641 262.943,359.606 262.770,359.870 262.929 C 360.203 263.128,360.334 262.710,360.319 261.505 C 360.251 256.265,360.461 255.243,361.520 255.646 C 362.644 256.073,363.971 255.774,364.061 255.073 C 364.162 254.296,364.275 250.545,364.380 244.549 L 364.478 238.899 365.909 239.338 C 367.007 239.675,367.379 239.663,367.505 239.286 C 367.595 239.016,367.861 238.914,368.096 239.059 C 368.339 239.210,368.408 239.136,368.255 238.889 C 368.108 238.651,368.170 238.342,368.393 238.204 C 368.952 237.859,368.905 236.265,368.320 235.680 C 367.967 235.327,367.962 235.200,368.303 235.200 C 368.649 235.200,368.765 226.380,368.765 200.000 C 368.765 173.620,368.649 164.800,368.303 164.800 C 367.962 164.800,367.967 164.673,368.320 164.320 C 368.905 163.735,368.952 162.141,368.393 161.796 C 368.170 161.658,368.108 161.349,368.255 161.111 C 368.408 160.864,368.339 160.790,368.096 160.941 C 367.861 161.086,367.595 160.984,367.505 160.714 C 367.379 160.337,367.007 160.325,365.909 160.662 L 364.478 161.101 364.380 155.451 C 364.275 149.455,364.162 145.704,364.061 144.927 C 363.971 144.226,362.644 143.927,361.520 144.354 C 360.461 144.757,360.251 143.735,360.319 138.495 C 360.334 137.290,360.203 136.872,359.870 137.071 C 359.606 137.230,359.641 137.057,359.949 136.677 C 360.251 136.305,360.341 135.985,360.149 135.967 C 355.949 135.566,356.483 136.284,356.196 130.652 C 355.880 124.466,355.322 123.200,352.914 123.200 C 352.460 123.200,352.000 122.736,351.721 121.997 C 351.472 121.336,351.405 120.879,351.573 120.983 C 351.741 121.087,351.895 120.624,351.914 119.953 C 351.939 119.067,351.796 118.793,351.392 118.948 C 350.940 119.121,350.918 118.979,351.274 118.197 C 351.790 117.066,350.833 115.200,349.737 115.200 C 349.276 115.200,349.392 115.436,350.146 116.029 C 350.726 116.485,351.200 117.101,351.200 117.398 C 351.200 117.704,350.676 117.415,349.991 116.730 C 349.327 116.065,348.530 115.618,348.222 115.736 C 347.810 115.894,347.709 115.691,347.840 114.967 C 347.938 114.425,347.828 113.626,347.595 113.191 C 347.307 112.652,347.304 112.400,347.586 112.400 C 348.180 112.400,348.096 111.639,347.429 110.971 C 346.810 110.352,346.224 110.192,346.559 110.733 C 346.672 110.917,346.511 111.067,346.200 111.067 C 345.889 111.067,345.745 110.889,345.880 110.671 C 346.033 110.423,345.653 110.369,344.862 110.528 L 343.600 110.780 343.554 108.690 C 343.529 107.541,343.540 106.286,343.579 105.903 C 343.629 105.403,343.459 105.279,342.975 105.465 C 342.346 105.706,342.345 105.656,342.959 104.718 C 343.668 103.636,343.425 102.228,342.584 102.551 C 341.177 103.091,339.236 101.918,339.485 100.677 C 339.677 99.714,339.613 99.543,339.162 99.815 C 338.680 100.105,338.680 100.055,339.163 99.460 C 339.625 98.890,339.633 98.680,339.204 98.283 C 338.787 97.897,338.731 97.940,338.929 98.500 C 339.064 98.885,339.001 99.200,338.787 99.200 C 338.574 99.200,338.400 98.938,338.400 98.617 C 338.400 98.199,338.013 98.064,337.035 98.141 C 335.792 98.239,335.652 98.139,335.467 97.024 C 335.356 96.351,335.205 95.440,335.133 95.000 C 334.988 94.127,331.938 90.800,331.282 90.800 C 331.039 90.800,330.962 90.157,331.091 89.200 C 331.241 88.079,331.157 87.600,330.810 87.600 C 330.537 87.600,330.413 87.343,330.533 87.029 C 330.959 85.920,329.647 85.358,328.358 86.098 C 327.244 86.738,327.200 86.732,327.200 85.958 C 327.200 85.515,327.023 85.262,326.806 85.396 C 326.559 85.549,326.510 85.147,326.673 84.320 C 326.920 83.076,326.893 83.034,326.198 83.600 C 325.483 84.181,325.483 84.166,326.176 83.100 C 326.570 82.495,326.826 81.986,326.746 81.969 C 326.666 81.953,326.330 81.862,326.000 81.767 C 325.670 81.673,324.815 81.486,324.100 81.352 C 323.179 81.180,322.800 80.889,322.800 80.355 C 322.800 79.913,322.520 79.600,322.124 79.600 C 321.526 79.600,321.535 79.536,322.201 79.049 C 322.929 78.516,322.930 78.473,322.229 77.771 C 321.527 77.070,321.484 77.071,320.951 77.799 C 320.464 78.465,320.400 78.474,320.400 77.876 C 320.400 77.431,320.075 77.200,319.449 77.200 C 318.926 77.200,318.274 76.930,318.000 76.600 C 317.699 76.238,317.667 76.000,317.918 76.000 C 318.146 76.000,318.439 76.225,318.569 76.500 C 318.777 76.943,318.608 75.596,318.260 74.039 C 318.189 73.718,317.496 73.413,316.635 73.325 C 315.678 73.227,315.227 73.319,315.388 73.581 C 315.537 73.822,315.391 73.895,315.033 73.757 C 314.699 73.629,314.441 73.406,314.460 73.262 C 314.576 72.384,314.328 72.053,313.728 72.283 C 313.099 72.524,313.099 72.480,313.728 71.581 C 314.508 70.468,314.606 69.826,313.932 70.242 C 313.611 70.440,313.550 70.308,313.737 69.821 C 313.939 69.293,313.854 69.171,313.405 69.343 C 313.072 69.471,312.800 69.401,312.800 69.187 C 312.800 68.974,312.440 68.800,312.000 68.800 C 310.930 68.800,310.851 71.339,311.900 72.003 C 312.306 72.260,312.360 72.385,312.029 72.299 C 311.198 72.086,310.578 70.778,309.846 67.700 C 309.506 66.273,308.272 65.191,307.011 65.216 C 306.417 65.227,306.551 65.384,307.514 65.802 C 308.739 66.335,310.267 68.697,309.711 69.200 C 309.590 69.310,309.397 69.130,309.282 68.800 C 308.785 67.368,305.754 64.882,305.012 65.297 C 304.522 65.571,304.372 65.570,304.543 65.292 C 304.839 64.814,303.932 64.400,302.586 64.400 C 301.725 64.400,301.654 64.263,301.825 62.926 C 301.929 62.116,301.892 61.575,301.743 61.724 C 301.594 61.873,301.208 61.618,300.885 61.158 C 300.445 60.529,300.023 60.375,299.192 60.542 C 298.062 60.768,297.602 59.903,297.565 57.479 C 297.550 56.548,296.559 56.170,295.795 56.804 C 295.382 57.147,295.200 57.161,295.200 56.849 C 295.200 56.557,294.161 56.400,292.238 56.400 L 289.276 56.400 289.488 54.821 C 289.638 53.704,289.518 53.061,289.078 52.621 C 288.338 51.881,287.600 51.811,287.600 52.480 C 287.600 52.853,287.493 52.853,287.120 52.480 C 286.856 52.216,286.336 52.000,285.965 52.000 C 285.513 52.000,285.204 51.549,285.034 50.640 C 284.695 48.834,283.943 48.261,282.366 48.607 C 281.601 48.775,281.193 48.736,281.334 48.507 C 281.464 48.296,280.911 48.121,280.084 48.111 C 276.273 48.064,276.429 48.131,276.671 46.639 C 276.968 44.807,275.751 43.968,273.085 44.167 C 272.043 44.245,271.086 44.139,270.957 43.931 C 270.829 43.723,270.189 43.671,269.535 43.814 C 268.520 44.037,268.122 43.851,266.805 42.538 C 263.874 39.614,263.433 39.313,263.721 40.437 L 263.968 41.400 263.284 40.524 C 262.754 39.845,262.195 39.653,260.800 39.672 C 256.303 39.733,256.000 39.668,256.000 38.644 C 256.000 36.983,254.768 35.920,252.660 35.762 C 251.244 35.656,250.839 35.744,251.059 36.110 C 251.273 36.465,251.179 36.459,250.719 36.086 C 250.370 35.803,249.930 35.600,249.742 35.633 C 246.676 36.184,239.600 35.509,239.600 34.667 C 239.600 34.153,239.467 33.601,239.305 33.438 C 239.143 33.276,239.008 32.841,239.005 32.472 C 239.002 32.044,238.637 31.773,238.000 31.724 C 237.450 31.683,236.478 31.522,235.841 31.366 C 235.121 31.191,234.772 31.232,234.922 31.474 C 235.185 31.899,234.042 31.920,233.366 31.503 C 232.597 31.028,167.069 31.211,166.492 31.690 C 166.110 32.006,165.839 31.999,165.503 31.663 C 164.987 31.147,163.884 31.049,163.452 31.482 M163.167 34.944 C 163.075 35.023,162.460 35.208,161.800 35.356 C 160.924 35.552,160.762 35.515,161.200 35.218 C 161.740 34.853,163.568 34.598,163.167 34.944 M146.538 36.580 C 145.844 36.882,145.153 37.519,145.002 37.995 C 144.851 38.471,144.637 38.770,144.527 38.660 C 144.105 38.238,144.910 36.732,145.735 36.399 C 147.166 35.823,147.900 35.988,146.538 36.580 M255.100 37.098 C 255.375 37.458,255.594 38.034,255.586 38.376 C 255.577 38.772,255.369 38.635,255.020 38.003 C 254.716 37.454,253.957 36.771,253.334 36.485 L 252.200 35.966 253.400 36.205 C 254.060 36.336,254.825 36.738,255.100 37.098 M147.700 37.212 C 147.205 37.411,146.800 37.689,146.800 37.830 C 146.800 37.971,147.070 37.982,147.400 37.855 C 148.241 37.532,148.155 37.718,146.946 38.830 C 145.913 39.780,145.901 39.782,146.360 38.900 C 146.617 38.405,146.669 38.000,146.475 38.000 C 146.281 38.000,145.927 38.405,145.688 38.900 C 145.449 39.395,145.242 39.567,145.227 39.282 C 145.187 38.519,147.049 36.796,147.882 36.825 C 148.454 36.846,148.417 36.924,147.700 37.212 M253.818 37.782 C 254.358 38.322,254.788 38.997,254.773 39.282 C 254.758 39.567,254.551 39.395,254.312 38.900 C 254.073 38.405,253.719 38.000,253.525 38.000 C 253.331 38.000,253.365 38.360,253.600 38.800 C 254.174 39.872,253.934 39.808,252.779 38.578 C 252.081 37.835,252.008 37.628,252.509 37.821 C 252.889 37.966,253.200 37.971,253.200 37.830 C 253.200 37.689,252.795 37.411,252.300 37.212 C 251.583 36.924,251.546 36.846,252.118 36.825 C 252.513 36.811,253.278 37.242,253.818 37.782 M135.200 43.000 C 134.683 43.550,133.991 44.000,133.661 44.000 C 133.218 44.000,133.307 43.738,134.000 43.000 C 134.517 42.450,135.209 42.000,135.539 42.000 C 135.982 42.000,135.893 42.262,135.200 43.000 M266.000 43.000 C 266.693 43.738,266.782 44.000,266.339 44.000 C 266.009 44.000,265.317 43.550,264.800 43.000 C 264.107 42.262,264.018 42.000,264.461 42.000 C 264.791 42.000,265.483 42.450,266.000 43.000 M125.113 44.825 C 124.735 45.045,124.245 45.535,124.025 45.913 C 123.805 46.291,123.619 46.388,123.612 46.129 C 123.596 45.519,124.719 44.396,125.329 44.412 C 125.588 44.419,125.491 44.605,125.113 44.825 M275.771 45.029 C 276.117 45.374,276.395 45.869,276.388 46.129 C 276.381 46.388,276.195 46.291,275.975 45.913 C 275.755 45.535,275.265 45.045,274.887 44.825 C 274.509 44.605,274.412 44.419,274.671 44.412 C 274.931 44.405,275.426 44.683,275.771 45.029 M119.800 48.800 C 119.664 49.020,119.148 49.200,118.653 49.200 C 117.622 49.200,116.694 49.845,116.062 51.000 C 115.726 51.615,115.622 51.652,115.612 51.162 C 115.595 50.264,116.932 49.161,118.484 48.794 C 119.208 48.622,119.856 48.463,119.924 48.441 C 119.992 48.418,119.936 48.580,119.800 48.800 M284.228 49.787 C 284.584 50.330,284.782 51.005,284.669 51.287 C 284.537 51.615,284.452 51.553,284.432 51.116 C 284.414 50.739,284.006 50.064,283.525 49.616 C 283.043 49.167,282.859 48.800,283.115 48.800 C 283.372 48.800,283.873 49.244,284.228 49.787 M119.200 49.725 C 119.200 49.794,118.615 50.379,117.900 51.025 L 116.600 52.200 117.775 50.900 C 118.870 49.688,119.200 49.416,119.200 49.725 M283.644 50.881 C 284.290 52.089,283.904 52.023,282.871 50.749 C 282.214 49.939,282.130 49.675,282.582 49.848 C 282.934 49.984,283.412 50.448,283.644 50.881 M282.337 50.933 C 282.982 51.619,283.059 51.867,282.629 51.867 C 282.308 51.867,282.079 51.672,282.122 51.433 C 282.165 51.195,281.962 51.049,281.670 51.110 C 281.379 51.170,281.245 51.051,281.373 50.844 C 281.500 50.637,281.379 50.377,281.102 50.266 C 280.826 50.154,280.794 50.049,281.030 50.032 C 281.267 50.014,281.855 50.420,282.337 50.933 M93.867 67.000 C 93.867 67.330,93.776 67.510,93.666 67.399 C 93.555 67.289,93.090 67.512,92.632 67.896 C 92.026 68.405,92.063 68.296,92.770 67.497 C 93.905 66.213,93.867 66.230,93.867 67.000 M307.074 67.270 C 307.999 68.139,308.314 69.200,307.647 69.200 C 307.452 69.200,307.194 68.822,307.074 68.360 C 306.953 67.897,306.662 67.638,306.427 67.783 C 306.192 67.928,306.000 67.961,306.000 67.856 C 306.000 67.751,305.891 67.381,305.757 67.033 C 305.416 66.144,305.985 66.246,307.074 67.270 M83.200 73.982 C 83.200 73.699,83.316 73.582,83.457 73.724 C 83.793 74.060,82.834 75.209,82.251 75.168 C 81.983 75.150,82.010 75.053,82.317 74.930 C 82.739 74.760,82.739 74.601,82.317 74.061 C 81.855 73.470,81.875 73.458,82.500 73.949 C 83.054 74.384,83.200 74.390,83.200 73.982 M317.539 73.917 C 318.130 73.455,318.142 73.475,317.651 74.100 C 317.216 74.654,317.210 74.800,317.618 74.800 C 317.901 74.800,318.018 74.916,317.876 75.057 C 317.540 75.393,316.391 74.434,316.432 73.851 C 316.450 73.583,316.547 73.610,316.670 73.917 C 316.840 74.339,316.999 74.339,317.539 73.917 M74.800 82.382 C 74.800 82.099,74.916 81.982,75.057 82.124 C 75.393 82.460,74.434 83.609,73.851 83.568 C 73.583 83.550,73.610 83.453,73.917 83.330 C 74.339 83.160,74.339 83.001,73.917 82.461 C 73.455 81.870,73.475 81.858,74.100 82.349 C 74.654 82.784,74.800 82.790,74.800 82.382 M328.558 86.868 C 328.365 87.181,328.485 87.253,328.922 87.085 C 329.281 86.948,329.665 86.982,329.777 87.162 C 329.936 87.420,328.649 87.488,328.076 87.251 C 327.894 87.176,328.414 86.400,328.647 86.400 C 328.757 86.400,328.717 86.611,328.558 86.868 M330.400 88.462 C 330.400 89.037,329.790 89.106,329.308 88.583 C 328.910 88.153,328.968 88.062,329.608 88.111 C 330.044 88.143,330.400 88.301,330.400 88.462 M332.314 90.567 C 333.099 90.929,333.857 91.701,334.198 92.486 C 334.647 93.519,334.772 93.617,334.784 92.944 C 334.806 91.742,333.616 90.477,332.200 90.197 L 331.000 89.960 332.314 90.567 M67.861 92.732 C 67.497 93.135,67.289 93.555,67.399 93.666 C 67.510 93.776,67.327 93.867,66.993 93.867 C 66.527 93.867,66.590 93.649,67.263 92.933 C 68.291 91.839,68.835 91.656,67.861 92.732 M332.721 92.916 C 333.558 93.807,333.560 93.833,332.790 93.891 C 332.342 93.925,332.000 93.701,332.000 93.375 C 332.000 93.059,331.730 92.800,331.400 92.800 C 331.070 92.800,330.800 92.620,330.800 92.400 C 330.800 91.694,331.834 91.972,332.721 92.916 M58.215 103.682 C 58.346 103.813,58.282 104.026,58.072 104.156 C 57.862 104.285,57.480 104.138,57.223 103.828 C 56.747 103.254,57.654 103.121,58.215 103.682 M50.709 116.224 C 50.075 116.568,49.463 117.356,49.245 118.108 C 48.983 119.017,48.861 119.150,48.836 118.554 C 48.790 117.471,50.254 115.595,51.129 115.616 C 51.580 115.627,51.443 115.826,50.709 116.224 M349.474 117.270 C 349.983 117.748,350.400 118.322,350.400 118.545 C 350.400 118.767,349.893 118.463,349.272 117.869 C 348.652 117.275,347.993 116.926,347.808 117.094 C 347.623 117.262,347.601 117.175,347.759 116.900 C 348.155 116.212,348.406 116.266,349.474 117.270 M349.119 118.356 C 349.224 118.670,349.123 118.799,348.886 118.653 C 348.656 118.511,348.392 118.531,348.300 118.698 C 348.207 118.864,348.182 118.787,348.243 118.526 C 348.305 118.265,348.140 117.953,347.878 117.833 C 347.615 117.713,347.745 117.656,348.167 117.707 C 348.589 117.758,349.017 118.050,349.119 118.356 M354.618 124.582 C 355.158 125.122,355.586 125.887,355.568 126.282 C 355.548 126.742,355.388 126.591,355.122 125.861 C 354.878 125.190,354.192 124.498,353.454 124.177 C 352.673 123.837,352.471 123.625,352.918 123.616 C 353.313 123.607,354.078 124.042,354.618 124.582 M47.061 125.623 C 46.477 126.082,46.000 126.656,46.000 126.899 C 46.000 127.141,46.450 126.917,47.000 126.400 C 47.550 125.883,48.000 125.650,48.000 125.881 C 48.000 126.463,47.047 127.198,46.043 127.392 C 45.013 127.590,45.863 125.540,47.097 124.850 C 48.231 124.215,48.208 124.722,47.061 125.623 M220.336 128.934 C 221.292 129.295,222.578 130.015,223.196 130.535 C 223.867 131.100,225.341 131.678,226.859 131.971 C 229.495 132.481,230.650 133.042,232.116 134.527 C 232.590 135.007,233.883 135.784,234.989 136.254 C 236.396 136.851,237.345 137.611,238.147 138.784 C 238.778 139.707,239.588 140.564,239.947 140.690 C 241.241 141.144,242.386 142.551,243.025 144.474 C 243.382 145.551,244.197 147.004,244.835 147.703 C 246.874 149.935,247.000 150.839,247.000 163.200 C 247.000 176.399,246.895 177.173,244.821 179.226 C 243.531 180.503,243.257 181.084,243.009 183.065 C 242.644 185.991,241.918 187.415,240.391 188.205 C 239.733 188.545,238.882 189.493,238.498 190.311 C 238.049 191.269,237.273 192.057,236.324 192.522 C 235.270 193.036,234.714 193.650,234.379 194.664 C 234.012 195.776,233.524 196.256,232.131 196.872 C 231.153 197.304,230.246 197.960,230.115 198.329 C 229.722 199.442,228.689 200.436,227.339 201.000 C 226.637 201.293,225.751 202.008,225.370 202.589 C 224.990 203.170,223.912 204.172,222.976 204.816 C 219.865 206.957,217.600 209.720,217.600 211.374 C 217.600 211.712,217.060 213.613,216.400 215.600 C 215.719 217.648,215.200 220.063,215.200 221.177 C 215.200 225.954,213.321 226.527,198.308 226.330 L 188.417 226.200 187.308 225.090 L 186.200 223.980 186.200 214.290 C 186.200 203.477,186.383 202.433,188.647 200.305 C 189.508 199.495,190.199 198.351,190.467 197.290 C 190.885 195.639,192.348 194.000,193.404 194.000 C 193.677 194.000,194.009 193.455,194.142 192.790 C 194.275 192.124,194.827 191.179,195.369 190.690 C 196.634 189.547,198.253 187.981,199.040 187.139 C 199.380 186.776,200.288 186.360,201.059 186.215 C 202.173 186.006,202.581 185.665,203.044 184.556 C 203.476 183.523,204.086 182.963,205.391 182.404 C 206.514 181.923,207.384 181.205,207.784 180.431 C 208.130 179.761,208.966 178.928,209.640 178.579 C 210.473 178.149,211.129 177.315,211.682 175.984 C 212.237 174.648,212.855 173.866,213.622 173.526 C 214.885 172.967,215.491 169.516,215.118 165.011 C 214.635 159.193,206.095 156.957,192.800 159.167 C 186.411 160.229,186.161 160.314,185.037 161.786 C 184.336 162.706,183.490 163.233,182.194 163.560 C 180.849 163.899,180.169 164.337,179.687 165.178 C 179.323 165.812,178.538 166.619,177.942 166.971 C 177.346 167.322,176.286 168.333,175.586 169.217 C 172.472 173.150,165.820 173.399,165.062 169.612 C 164.916 168.879,164.502 168.363,163.916 168.185 C 162.547 167.767,161.676 166.857,161.387 165.541 C 161.218 164.771,160.605 164.035,159.612 163.408 C 158.699 162.831,157.756 161.749,157.242 160.687 C 156.772 159.716,155.932 158.715,155.373 158.461 C 152.321 157.070,152.338 150.305,155.398 149.027 C 156.320 148.641,156.958 147.995,157.356 147.043 C 157.756 146.085,158.436 145.401,159.471 144.914 C 160.464 144.446,161.231 143.696,161.670 142.763 C 162.174 141.693,162.789 141.160,164.093 140.662 C 165.055 140.295,166.599 139.288,167.525 138.425 C 168.793 137.242,169.763 136.740,171.456 136.388 C 173.262 136.014,173.997 135.605,175.187 134.316 C 176.656 132.725,176.715 132.703,181.358 132.055 C 185.192 131.519,186.169 131.244,186.723 130.547 C 188.475 128.339,191.030 128.041,207.000 128.178 C 216.608 128.260,218.898 128.390,220.336 128.934 M210.287 237.121 C 211.214 237.606,212.155 238.342,212.377 238.757 C 212.599 239.172,213.698 240.170,214.819 240.975 C 216.955 242.510,217.786 243.925,218.361 247.004 C 218.541 247.965,219.150 249.300,219.714 249.971 C 221.608 252.222,221.658 257.023,219.816 259.738 C 219.287 260.518,218.544 262.291,218.165 263.678 C 217.419 266.412,216.703 267.499,215.293 268.039 C 214.794 268.230,214.224 268.811,214.026 269.331 C 213.464 270.811,212.566 271.494,210.300 272.167 C 209.145 272.510,207.780 273.239,207.267 273.786 C 204.913 276.297,197.187 276.306,193.800 273.802 C 193.140 273.314,192.150 272.776,191.600 272.606 C 189.393 271.925,187.583 270.728,186.972 269.546 C 186.618 268.861,185.549 267.543,184.598 266.619 C 182.268 264.355,181.948 262.920,181.968 254.824 C 181.986 246.960,182.357 245.299,184.291 244.400 C 185.002 244.070,185.587 243.566,185.591 243.280 C 185.612 242.022,186.859 240.443,188.174 240.009 C 188.937 239.757,189.665 239.225,189.791 238.828 C 190.538 236.474,192.534 236.021,201.600 236.144 C 207.932 236.230,208.761 236.323,210.287 237.121 M47.441 273.234 C 47.748 273.489,48.000 273.887,48.000 274.119 C 48.000 274.350,47.550 274.117,47.000 273.600 C 46.450 273.083,46.000 272.859,46.000 273.101 C 46.000 273.344,46.450 273.896,47.000 274.329 C 48.196 275.269,48.320 275.799,47.204 275.202 C 45.905 274.507,44.962 272.400,46.043 272.608 C 46.504 272.697,47.133 272.979,47.441 273.234 M355.600 273.818 C 355.600 274.673,353.792 276.403,352.918 276.384 C 352.480 276.375,352.701 276.151,353.486 275.810 C 354.288 275.461,354.869 274.864,355.029 274.225 C 355.317 273.079,355.600 272.877,355.600 273.818 M50.709 283.776 C 51.443 284.174,51.580 284.373,51.129 284.384 C 50.254 284.405,48.790 282.529,48.836 281.446 C 48.861 280.850,48.983 280.983,49.245 281.892 C 49.463 282.644,50.075 283.432,50.709 283.776 M348.886 281.347 C 349.123 281.201,349.224 281.330,349.119 281.644 C 349.017 281.950,348.589 282.242,348.167 282.293 C 347.745 282.344,347.615 282.287,347.878 282.167 C 348.140 282.047,348.305 281.735,348.243 281.474 C 348.182 281.213,348.207 281.136,348.300 281.302 C 348.392 281.469,348.656 281.489,348.886 281.347 M349.599 282.602 C 349.083 283.151,348.478 283.600,348.255 283.600 C 348.033 283.600,348.366 283.062,348.996 282.404 C 349.626 281.746,350.231 281.297,350.339 281.406 C 350.448 281.514,350.114 282.052,349.599 282.602 M342.374 296.231 C 342.118 296.539,341.741 296.687,341.535 296.560 C 341.314 296.423,341.351 296.100,341.626 295.769 C 341.882 295.461,342.259 295.313,342.465 295.440 C 342.686 295.577,342.649 295.900,342.374 296.231 M68.000 306.625 C 68.000 306.941,68.270 307.200,68.600 307.200 C 68.930 307.200,69.200 307.380,69.200 307.600 C 69.200 308.306,68.166 308.028,67.279 307.084 C 66.442 306.193,66.440 306.167,67.210 306.109 C 67.658 306.075,68.000 306.299,68.000 306.625 M333.035 308.271 C 331.398 309.680,330.939 309.382,332.463 307.900 C 333.198 307.185,333.871 306.767,333.957 306.971 C 334.044 307.176,333.629 307.761,333.035 308.271 M70.119 311.066 C 69.963 311.474,70.024 311.632,70.279 311.475 C 70.507 311.334,71.032 311.620,71.447 312.109 L 72.200 313.000 71.300 312.238 C 70.375 311.455,70.021 311.861,70.880 312.720 C 71.144 312.984,71.238 313.200,71.089 313.200 C 70.595 313.200,69.527 311.242,69.789 310.818 C 70.191 310.167,70.403 310.327,70.119 311.066 M330.400 311.538 C 330.400 311.699,330.044 311.857,329.608 311.889 C 328.968 311.938,328.910 311.847,329.308 311.417 C 329.790 310.894,330.400 310.963,330.400 311.538 M329.759 312.866 C 329.658 313.030,329.281 313.052,328.922 312.915 C 328.450 312.734,328.360 312.811,328.596 313.194 C 328.816 313.549,328.769 313.628,328.455 313.434 C 327.800 313.029,328.262 312.439,329.180 312.508 C 329.601 312.540,329.861 312.701,329.759 312.866 M74.808 317.010 C 75.086 317.345,75.198 317.735,75.057 317.876 C 74.916 318.018,74.800 317.901,74.800 317.618 C 74.800 317.210,74.654 317.216,74.100 317.651 C 73.475 318.142,73.455 318.130,73.917 317.539 C 74.339 316.999,74.339 316.840,73.917 316.670 C 73.610 316.547,73.583 316.450,73.851 316.432 C 74.099 316.414,74.530 316.674,74.808 317.010 M78.774 321.831 C 78.518 322.139,78.141 322.287,77.935 322.160 C 77.714 322.023,77.751 321.700,78.026 321.369 C 78.282 321.061,78.659 320.913,78.865 321.040 C 79.086 321.177,79.049 321.500,78.774 321.831 M83.208 325.410 C 83.486 325.745,83.598 326.135,83.457 326.276 C 83.316 326.418,83.200 326.301,83.200 326.018 C 83.200 325.610,83.054 325.616,82.500 326.051 C 81.875 326.542,81.855 326.530,82.317 325.939 C 82.739 325.399,82.739 325.240,82.317 325.070 C 82.010 324.947,81.983 324.850,82.251 324.832 C 82.499 324.814,82.930 325.074,83.208 325.410 M87.492 329.180 C 87.460 329.601,87.299 329.861,87.134 329.759 C 86.970 329.658,86.948 329.281,87.085 328.922 C 87.266 328.450,87.189 328.360,86.806 328.596 C 86.451 328.816,86.372 328.769,86.566 328.455 C 86.971 327.800,87.561 328.262,87.492 329.180 M312.964 329.640 C 312.586 330.058,312.079 330.397,311.838 330.394 C 311.597 330.391,311.670 330.213,312.000 330.000 C 312.330 329.787,312.443 329.609,312.251 329.606 C 312.059 329.603,312.124 329.332,312.396 329.004 C 312.668 328.677,313.062 328.515,313.271 328.644 C 313.486 328.777,313.352 329.211,312.964 329.640 M88.934 330.100 C 88.596 330.658,88.171 330.404,88.111 329.608 C 88.062 328.968,88.153 328.910,88.583 329.308 C 88.876 329.579,89.034 329.935,88.934 330.100 M92.800 331.600 C 92.800 331.820,93.089 332.000,93.443 332.000 C 93.850 332.000,94.001 332.220,93.855 332.600 C 93.729 332.930,93.829 333.200,94.079 333.200 C 94.329 333.200,94.413 333.321,94.265 333.468 C 94.118 333.616,93.548 333.314,92.998 332.799 C 91.953 331.817,91.723 331.200,92.400 331.200 C 92.620 331.200,92.800 331.380,92.800 331.600 M308.531 332.707 C 308.082 333.308,307.435 333.855,307.093 333.922 C 306.713 333.997,306.963 333.512,307.736 332.673 C 309.202 331.082,309.726 331.104,308.531 332.707 M118.225 349.300 L 119.400 350.600 118.100 349.425 C 116.888 348.330,116.616 348.000,116.925 348.000 C 116.994 348.000,117.579 348.585,118.225 349.300 M117.126 350.300 C 117.471 350.575,118.158 350.800,118.653 350.800 C 119.148 350.800,119.652 350.961,119.774 351.157 C 120.153 351.771,117.189 350.914,116.371 350.174 C 115.947 349.790,115.605 349.189,115.612 348.838 C 115.622 348.348,115.726 348.385,116.062 349.000 C 116.303 349.440,116.781 350.025,117.126 350.300 M282.966 349.237 C 282.550 349.697,281.847 350.257,281.404 350.481 C 280.962 350.705,281.230 350.335,282.000 349.660 C 283.634 348.228,284.042 348.049,282.966 349.237 M124.772 352.526 C 124.787 352.265,125.295 352.535,125.900 353.126 C 126.505 353.716,126.839 354.317,126.642 354.459 C 126.445 354.602,126.625 354.806,127.042 354.913 C 127.747 355.094,127.749 355.110,127.069 355.154 C 126.131 355.213,123.991 353.086,124.028 352.131 C 124.054 351.470,124.089 351.477,124.400 352.200 C 124.589 352.640,124.756 352.786,124.772 352.526 M274.799 353.802 C 274.283 354.351,273.723 354.800,273.556 354.800 C 273.388 354.800,273.735 354.299,274.326 353.688 C 274.916 353.076,275.476 352.626,275.568 352.689 C 275.661 352.752,275.314 353.252,274.799 353.802 M124.800 353.089 C 124.800 353.592,125.943 354.590,126.212 354.321 C 126.318 354.215,126.044 353.802,125.602 353.402 C 125.161 353.003,124.800 352.862,124.800 353.089 M276.044 354.319 C 275.628 355.095,274.450 355.783,274.113 355.446 C 274.018 355.351,274.304 355.157,274.749 355.016 C 275.195 354.875,275.675 354.395,275.816 353.949 C 275.957 353.504,276.161 353.228,276.269 353.336 C 276.377 353.443,276.275 353.886,276.044 354.319 M125.334 355.200 C 125.976 355.459,126.026 355.556,125.529 355.575 C 124.758 355.604,123.594 354.569,123.612 353.871 C 123.619 353.612,123.814 353.726,124.046 354.126 C 124.278 354.525,124.858 355.008,125.334 355.200 M146.475 362.000 C 146.669 362.000,146.635 361.640,146.400 361.200 C 145.826 360.128,146.066 360.192,147.221 361.422 C 147.919 362.165,147.992 362.372,147.491 362.179 C 147.111 362.034,146.800 362.029,146.800 362.170 C 146.800 362.311,147.205 362.589,147.700 362.788 C 148.417 363.076,148.454 363.154,147.882 363.175 C 147.049 363.204,145.187 361.481,145.227 360.718 C 145.242 360.433,145.449 360.605,145.688 361.100 C 145.927 361.595,146.281 362.000,146.475 362.000 M146.666 363.515 L 147.800 364.034 146.600 363.795 C 145.308 363.538,144.391 362.627,144.414 361.624 C 144.423 361.228,144.631 361.365,144.980 361.997 C 145.284 362.546,146.043 363.229,146.666 363.515 M254.808 362.990 C 254.530 363.326,254.116 363.600,253.889 363.600 C 253.662 363.600,253.803 363.239,254.202 362.798 C 255.029 361.883,255.581 362.059,254.808 362.990 M236.686 365.720 C 236.199 366.226,235.726 366.587,235.636 366.523 C 235.402 366.355,236.858 364.800,237.248 364.800 C 237.426 364.800,237.173 365.214,236.686 365.720 M238.800 365.647 C 238.800 365.867,238.589 365.917,238.332 365.758 C 238.025 365.568,237.945 365.681,238.101 366.086 C 238.231 366.425,238.150 366.890,237.920 367.120 C 237.690 367.350,237.225 367.431,236.886 367.301 C 236.481 367.145,236.368 367.225,236.558 367.532 C 236.717 367.789,236.667 368.000,236.447 368.000 C 235.636 368.000,235.615 367.249,236.419 366.994 C 236.875 366.849,237.444 366.302,237.683 365.778 C 238.095 364.873,238.800 364.791,238.800 365.647 M162.960 367.265 C 162.823 367.486,162.500 367.449,162.169 367.174 C 161.861 366.918,161.713 366.541,161.840 366.335 C 161.977 366.114,162.300 366.151,162.631 366.426 C 162.939 366.682,163.087 367.059,162.960 367.265 " stroke="none" fill="#848484" fill-rule="evenodd"></path></g></svg>