<svg id="svg" version="1.1" xmlns="http://www.w3.org/2000/svg" xmlns:xlink="http://www.w3.org/1999/xlink" width="400" height="400" viewBox="0, 0, 400,400"><g id="svgg"><path id="path0" d="M259.283 42.100 C 259.160 44.747,259.043 73.009,258.441 245.258 C 258.172 322.197,258.188 353.154,258.498 354.258 C 258.736 355.106,258.947 356.835,258.966 358.100 L 259.000 360.400 261.067 360.400 C 264.099 360.400,264.400 360.198,264.400 358.157 L 264.400 356.400 267.300 356.386 C 272.878 356.359,275.820 355.411,276.317 353.480 C 276.633 352.255,276.749 352.191,279.024 351.991 C 282.036 351.726,283.640 350.936,284.400 349.344 C 284.926 348.243,285.240 348.064,286.943 347.898 C 289.149 347.684,289.585 347.223,289.594 345.100 L 289.600 343.600 292.826 343.600 C 296.922 343.600,297.600 343.257,297.600 341.186 L 297.600 339.600 299.320 339.600 C 301.481 339.600,302.000 339.081,302.000 336.920 L 302.000 335.200 303.725 335.200 C 306.070 335.200,308.778 333.844,309.324 332.395 C 309.691 331.423,310.040 331.215,311.684 330.988 C 313.806 330.697,314.400 330.049,314.400 328.026 C 314.400 326.838,314.457 326.800,316.213 326.800 C 318.138 326.800,318.179 326.758,318.587 324.300 C 318.823 322.877,318.914 322.800,320.338 322.800 C 322.226 322.800,322.800 322.232,322.800 320.363 C 322.800 318.917,322.839 318.879,324.700 318.541 L 326.600 318.196 326.722 316.298 C 326.839 314.481,326.895 314.400,328.048 314.400 C 330.006 314.400,330.725 313.776,331.018 311.822 C 331.250 310.270,331.432 310.013,332.456 309.788 C 334.106 309.425,334.803 308.114,335.076 304.859 L 335.313 302.038 337.356 301.919 L 339.400 301.800 339.600 299.800 C 339.795 297.852,339.836 297.797,341.198 297.667 C 343.402 297.458,343.600 297.087,343.600 293.151 L 343.600 289.600 345.351 289.600 C 347.454 289.600,347.905 289.138,348.072 286.815 C 348.189 285.198,348.310 285.018,349.491 284.714 C 351.169 284.282,351.619 283.359,351.889 279.798 L 352.110 276.868 353.415 276.624 C 355.286 276.272,355.579 275.718,356.093 271.540 C 356.503 268.208,356.686 267.669,357.777 266.577 C 360.250 264.101,360.400 263.711,360.400 259.763 L 360.400 256.089 361.760 255.834 C 364.073 255.400,364.186 255.014,364.334 247.042 C 364.475 239.385,364.521 239.217,366.451 239.206 C 368.701 239.193,368.600 241.043,368.600 200.000 C 368.600 158.350,368.780 161.091,366.017 160.649 L 364.449 160.398 364.325 152.963 C 364.188 144.807,363.921 144.000,361.356 144.000 C 360.414 144.000,360.400 143.943,360.400 140.134 C 360.400 135.990,360.515 136.279,357.733 133.418 C 356.584 132.237,356.438 131.801,356.178 128.758 C 355.785 124.159,355.556 123.666,353.667 123.364 L 352.109 123.115 351.883 120.131 C 351.623 116.689,350.953 115.411,349.227 115.065 C 348.085 114.837,348.000 114.701,348.000 113.090 C 348.000 110.918,347.483 110.400,345.320 110.400 L 343.600 110.400 343.600 107.033 C 343.600 102.820,343.443 102.402,341.857 102.394 C 340.041 102.385,339.670 102.003,339.528 99.993 L 339.400 98.200 337.356 98.081 L 335.313 97.962 335.076 95.141 C 334.804 91.890,334.106 90.575,332.463 90.214 C 331.458 89.993,331.269 89.732,331.076 88.293 C 330.818 86.369,329.982 85.600,328.145 85.600 C 326.877 85.600,326.841 85.552,326.722 83.702 L 326.600 81.804 324.700 81.459 C 322.839 81.121,322.800 81.083,322.800 79.637 C 322.800 77.774,322.226 77.200,320.363 77.200 C 318.917 77.200,318.879 77.161,318.541 75.300 L 318.196 73.400 316.298 73.278 C 314.448 73.159,314.400 73.123,314.400 71.855 C 314.400 70.055,313.700 69.317,311.616 68.920 C 310.203 68.652,309.785 68.382,309.606 67.627 C 309.235 66.052,307.577 65.138,304.667 64.905 L 302.038 64.694 301.919 62.647 L 301.800 60.600 299.800 60.400 C 297.852 60.205,297.797 60.164,297.667 58.802 C 297.458 56.598,297.087 56.400,293.151 56.400 L 289.600 56.400 289.594 54.900 C 289.585 52.799,289.167 52.343,287.029 52.102 C 285.346 51.912,285.135 51.773,284.924 50.719 C 284.589 49.043,283.281 48.375,279.826 48.113 L 276.800 47.885 276.389 46.358 C 275.875 44.449,274.771 44.071,268.700 43.725 L 264.400 43.480 264.400 41.783 C 264.400 39.832,264.066 39.600,261.267 39.600 L 259.400 39.600 259.283 42.100 M357.887 135.446 C 357.498 135.835,356.400 134.813,356.400 134.062 C 356.400 133.548,356.572 133.595,357.278 134.300 C 357.761 134.783,358.035 135.298,357.887 135.446 " stroke="none" fill="#f04250" fill-rule="evenodd"></path><path id="path1" d="M136.400 40.100 C 136.400 40.291,136.220 40.336,136.000 40.200 C 135.780 40.064,135.600 40.143,135.600 40.376 C 135.600 40.609,135.825 40.803,136.100 40.806 C 136.457 40.811,136.441 40.913,136.042 41.166 C 135.735 41.360,135.592 41.802,135.725 42.148 C 135.997 42.857,135.039 44.000,134.171 44.000 C 133.857 44.000,133.597 44.225,133.594 44.500 C 133.590 44.851,133.480 44.830,133.228 44.431 C 132.906 43.922,131.736 43.799,129.100 43.997 C 128.715 44.026,128.397 44.264,128.394 44.525 C 128.389 44.889,128.317 44.888,128.084 44.522 C 127.279 43.256,123.600 45.169,123.600 46.853 C 123.600 47.771,123.339 47.901,121.199 48.049 C 118.384 48.244,115.600 49.821,115.600 51.219 C 115.600 52.104,114.717 52.443,113.202 52.140 C 112.322 51.964,111.948 52.071,111.763 52.551 C 111.626 52.908,111.244 53.200,110.914 53.200 C 110.532 53.200,110.402 53.429,110.557 53.832 C 111.169 55.428,110.402 56.400,108.530 56.400 C 107.550 56.400,106.399 56.586,105.974 56.814 C 105.440 57.100,105.200 57.100,105.200 56.814 C 105.200 56.211,103.878 56.307,102.976 56.976 C 102.314 57.467,102.274 57.672,102.703 58.376 C 103.057 58.955,103.073 59.200,102.757 59.200 C 102.499 59.200,102.384 59.605,102.487 60.145 C 102.613 60.803,102.414 61.243,101.834 61.592 C 101.145 62.007,101.087 62.002,101.500 61.567 C 102.283 60.741,102.102 60.523,100.700 60.604 C 98.449 60.734,98.130 61.051,98.167 63.117 L 98.200 65.000 96.600 64.869 C 93.405 64.609,89.209 67.596,90.297 69.357 C 90.428 69.569,89.855 69.615,88.929 69.467 C 86.660 69.104,85.727 69.841,86.316 71.530 C 86.813 72.955,86.405 73.453,84.900 73.259 C 84.404 73.195,84.000 73.357,84.000 73.620 C 84.000 73.981,83.854 73.976,83.400 73.600 C 82.681 73.004,81.434 73.790,81.758 74.635 C 82.295 76.034,81.070 77.612,79.654 77.346 C 78.688 77.165,78.366 77.222,78.563 77.540 C 78.747 77.838,78.608 77.901,78.151 77.726 C 77.616 77.521,77.521 77.616,77.726 78.151 C 77.901 78.608,77.838 78.747,77.540 78.563 C 77.221 78.365,77.167 78.699,77.356 79.708 C 77.625 81.142,76.852 81.713,74.528 81.794 C 73.873 81.817,73.407 82.351,73.359 83.136 C 73.337 83.501,73.291 84.250,73.258 84.800 C 73.206 85.660,73.000 85.804,71.782 85.831 C 69.805 85.874,68.976 86.782,69.512 88.318 C 69.935 89.534,69.061 90.400,67.410 90.400 C 66.721 90.400,65.200 92.289,65.200 93.145 C 65.200 93.543,65.662 93.222,66.429 92.291 C 67.105 91.471,67.926 90.800,68.253 90.800 C 68.582 90.800,67.945 91.665,66.824 92.740 C 65.029 94.461,64.800 94.868,64.800 96.340 C 64.800 97.636,64.647 98.010,64.100 98.048 C 63.715 98.074,62.950 98.119,62.400 98.148 C 61.008 98.221,60.180 99.053,60.780 99.776 C 61.095 100.155,61.107 100.410,60.819 100.588 C 60.589 100.731,60.400 101.197,60.400 101.624 C 60.400 102.051,60.130 102.400,59.800 102.400 C 59.470 102.400,59.200 102.582,59.200 102.803 C 59.200 103.042,58.864 103.001,58.376 102.703 C 57.672 102.274,57.467 102.314,56.976 102.976 C 56.307 103.878,56.211 105.200,56.814 105.200 C 57.100 105.200,57.100 105.440,56.814 105.974 C 56.242 107.043,56.294 109.091,56.900 109.335 C 57.300 109.496,57.300 109.543,56.900 109.568 C 56.625 109.586,56.400 109.825,56.400 110.100 C 56.400 110.413,55.838 110.597,54.900 110.591 C 53.302 110.582,52.267 111.062,52.628 111.645 C 52.749 111.840,52.657 112.000,52.424 112.000 C 52.191 112.000,52.000 112.281,52.000 112.624 C 52.000 112.967,52.154 113.152,52.342 113.036 C 52.530 112.919,52.598 113.276,52.493 113.827 C 52.368 114.477,51.860 115.015,51.050 115.353 C 49.488 116.007,48.822 116.794,48.597 118.257 C 48.500 118.886,48.340 119.760,48.241 120.200 C 48.142 120.640,48.047 121.475,48.031 122.055 C 48.005 122.930,47.767 123.155,46.640 123.366 C 45.010 123.672,44.574 124.151,44.239 126.000 L 43.986 127.400 44.614 125.955 C 44.959 125.160,45.691 124.305,46.240 124.055 C 47.847 123.322,48.334 123.534,46.804 124.301 C 45.928 124.740,45.260 125.447,45.009 126.200 C 44.790 126.860,44.449 127.515,44.253 127.656 C 44.056 127.797,43.845 128.828,43.785 129.947 C 43.691 131.696,43.473 132.174,42.238 133.339 C 41.447 134.084,40.800 135.078,40.800 135.547 C 40.800 136.036,40.546 136.400,40.205 136.400 C 39.877 136.400,39.636 136.715,39.668 137.100 C 39.700 137.485,39.698 139.167,39.663 140.837 L 39.600 143.873 38.012 144.349 C 35.922 144.975,35.656 146.052,35.706 153.692 C 35.750 160.463,35.382 161.848,33.738 161.099 C 32.514 160.541,31.834 161.151,31.710 162.921 C 31.227 169.793,31.248 171.191,31.844 171.787 C 32.395 172.338,32.393 172.400,31.829 172.400 C 31.293 172.400,31.200 173.087,31.200 177.024 C 31.200 180.004,31.342 181.559,31.600 181.400 C 31.820 181.264,32.000 181.333,32.000 181.553 C 32.000 181.773,31.820 182.064,31.600 182.200 C 31.358 182.350,31.221 184.845,31.253 188.524 C 31.282 191.866,31.417 194.002,31.553 193.270 L 31.800 191.940 32.235 193.354 C 32.475 194.131,32.520 194.674,32.335 194.560 C 32.151 194.446,32.000 194.614,32.000 194.934 C 32.000 195.552,33.040 196.143,33.309 195.678 C 33.397 195.525,33.382 195.670,33.276 196.000 C 32.812 197.440,32.721 201.600,33.153 201.600 C 33.399 201.600,33.600 201.049,33.600 200.376 C 33.600 198.638,34.385 199.316,34.465 201.124 C 34.518 202.323,34.581 202.187,34.800 200.400 C 35.024 198.575,35.081 198.456,35.135 199.700 C 35.215 201.537,35.984 201.707,36.040 199.900 C 36.078 198.668,36.097 198.653,36.400 199.600 C 36.697 200.527,36.725 200.498,36.791 199.200 L 36.861 197.800 37.389 199.400 C 37.903 200.960,37.918 200.970,37.983 199.800 C 38.042 198.763,38.095 198.710,38.378 199.408 C 38.677 200.143,38.964 200.196,41.594 200.000 C 44.626 199.775,44.536 199.830,46.519 197.019 C 47.217 196.029,47.367 196.000,51.777 196.000 C 56.766 196.000,56.358 196.175,59.016 192.900 C 60.006 191.680,60.228 191.600,62.615 191.600 C 65.093 191.600,65.188 191.561,66.257 190.100 C 67.907 187.845,68.354 187.600,70.828 187.600 C 73.091 187.600,73.113 187.588,74.982 185.400 L 76.862 183.200 81.395 183.200 L 85.929 183.200 86.950 181.900 C 89.076 179.193,89.063 179.200,91.630 179.200 C 93.772 179.200,94.164 179.075,94.930 178.142 C 97.556 174.946,97.793 174.800,100.351 174.800 C 102.504 174.800,102.840 174.687,103.481 173.751 C 105.476 170.840,105.571 170.800,110.400 170.800 C 115.229 170.800,115.324 170.760,117.319 167.849 C 117.967 166.903,118.287 166.800,120.570 166.800 L 123.103 166.800 124.982 164.600 C 126.855 162.408,126.870 162.400,129.154 162.400 C 131.646 162.400,132.092 162.157,133.743 159.900 C 134.793 158.465,134.941 158.400,137.162 158.400 L 139.484 158.400 139.691 169.210 C 139.805 175.155,139.940 189.690,139.992 201.510 C 140.044 213.329,140.393 250.720,140.767 284.600 L 141.448 346.200 141.287 196.400 C 141.194 109.239,140.975 46.015,140.765 45.200 C 140.567 44.430,140.403 42.876,140.402 41.746 L 140.400 39.692 138.400 39.723 C 137.300 39.739,136.400 39.909,136.400 40.100 M126.800 45.084 C 125.881 45.422,124.742 46.511,124.378 47.400 C 124.090 48.104,124.048 48.114,124.025 47.482 C 123.992 46.550,125.756 44.791,126.682 44.832 C 127.240 44.856,127.266 44.912,126.800 45.084 M117.692 50.892 C 116.401 52.183,115.776 52.249,116.238 51.045 C 116.502 50.359,118.457 49.129,118.779 49.448 C 118.878 49.546,118.389 50.196,117.692 50.892 M119.180 51.519 C 118.861 51.614,118.377 51.973,118.104 52.317 C 117.370 53.242,117.120 52.693,117.820 51.693 C 118.210 51.136,118.657 50.924,119.091 51.090 C 119.633 51.298,119.650 51.380,119.180 51.519 M103.892 57.237 C 103.502 57.464,103.303 57.863,103.450 58.125 C 103.620 58.427,103.515 58.412,103.162 58.083 C 102.588 57.549,103.199 56.803,104.200 56.818 C 104.420 56.822,104.281 57.010,103.892 57.237 M100.717 62.163 C 100.653 62.198,100.299 62.455,99.932 62.736 C 99.322 63.200,99.185 62.812,99.569 61.713 C 99.586 61.664,99.878 61.732,100.217 61.862 C 100.557 61.992,100.782 62.128,100.717 62.163 M93.988 65.900 C 93.969 66.387,91.562 68.896,91.334 68.667 C 91.219 68.552,91.726 67.818,92.462 67.036 C 93.889 65.520,94.007 65.433,93.988 65.900 M88.597 69.995 C 88.739 70.224,88.573 70.288,88.204 70.146 C 87.811 69.995,87.612 70.092,87.684 70.398 C 87.748 70.671,87.485 70.947,87.100 71.011 C 86.287 71.148,86.196 70.764,86.880 70.080 C 87.462 69.498,88.265 69.458,88.597 69.995 M90.294 72.048 C 90.322 72.426,90.078 72.838,89.752 72.963 C 89.426 73.088,89.258 73.030,89.380 72.833 C 89.502 72.636,89.241 72.569,88.801 72.684 C 88.360 72.799,88.000 73.063,88.000 73.270 C 88.000 73.478,87.801 73.524,87.557 73.374 C 87.249 73.183,87.279 72.996,87.657 72.756 C 87.956 72.567,88.043 72.409,87.851 72.406 C 87.659 72.403,87.696 72.166,87.934 71.880 C 88.577 71.105,90.231 71.222,90.294 72.048 M77.221 84.070 C 77.598 83.983,77.534 84.210,77.025 84.773 C 76.610 85.230,76.180 85.513,76.068 85.401 C 75.956 85.289,75.429 85.482,74.897 85.831 C 73.780 86.563,73.247 86.307,74.000 85.400 C 74.283 85.059,74.417 84.683,74.298 84.564 C 74.179 84.445,74.468 83.955,74.941 83.474 C 75.793 82.607,75.804 82.607,76.233 83.400 C 76.471 83.840,76.916 84.142,77.221 84.070 M74.774 84.837 C 73.919 86.037,73.917 86.058,74.721 85.557 C 75.176 85.272,75.633 84.716,75.737 84.320 C 76.003 83.302,75.783 83.420,74.774 84.837 M71.698 86.266 C 71.421 86.377,71.314 86.661,71.459 86.896 C 71.626 87.166,71.532 87.205,71.201 87.001 C 70.872 86.797,70.479 86.951,70.139 87.415 C 69.843 87.821,69.600 87.949,69.600 87.699 C 69.600 87.181,71.171 85.984,71.789 86.032 C 72.015 86.049,71.974 86.154,71.698 86.266 M63.779 99.634 C 63.650 99.843,63.357 99.897,63.128 99.755 C 62.898 99.614,62.553 99.746,62.361 100.049 C 62.128 100.417,62.010 100.441,62.006 100.120 C 61.999 99.556,63.241 98.778,63.698 99.061 C 63.871 99.168,63.908 99.426,63.779 99.634 M58.238 103.262 C 58.409 103.539,58.349 103.615,58.086 103.453 C 57.846 103.305,57.464 103.502,57.237 103.892 C 56.779 104.678,56.667 104.413,57.043 103.433 C 57.329 102.687,57.838 102.614,58.238 103.262 M55.600 111.600 C 55.600 111.820,55.371 112.000,55.091 112.000 C 54.811 112.000,54.242 112.631,53.827 113.402 C 53.411 114.174,52.985 114.718,52.879 114.612 C 52.773 114.506,52.914 114.145,53.192 113.810 C 53.470 113.474,53.560 113.200,53.391 113.200 C 53.222 113.200,53.569 112.750,54.162 112.200 C 55.345 111.104,55.600 110.998,55.600 111.600 M52.600 116.522 C 52.822 116.705,52.620 116.746,52.146 116.614 C 51.512 116.437,51.023 116.695,50.246 117.618 C 49.225 118.832,48.710 118.368,49.700 117.126 C 50.350 116.311,51.737 115.586,51.997 115.925 C 52.109 116.071,52.380 116.340,52.600 116.522 M51.200 119.600 C 51.200 119.820,50.930 120.000,50.600 120.000 C 50.270 120.000,50.000 120.161,50.000 120.357 C 50.000 120.554,49.739 120.814,49.420 120.937 C 48.494 121.292,49.126 120.160,50.123 119.678 C 51.254 119.132,51.200 119.135,51.200 119.600 M47.886 125.700 C 47.896 125.975,48.033 126.560,48.190 127.000 C 48.351 127.451,48.328 127.620,48.138 127.388 C 47.952 127.162,47.386 127.003,46.881 127.035 L 45.961 127.093 46.850 126.146 C 47.888 125.042,47.861 125.054,47.886 125.700 M43.905 133.500 C 42.941 135.528,42.634 135.911,42.125 135.716 C 41.681 135.545,41.800 135.235,42.650 134.348 C 43.734 133.216,44.184 132.913,43.905 133.500 M38.918 144.843 C 38.213 145.047,37.358 145.611,37.018 146.096 C 36.678 146.581,36.400 146.771,36.400 146.518 C 36.400 145.809,38.406 144.396,39.354 144.436 C 39.954 144.462,39.827 144.580,38.918 144.843 M33.515 166.800 C 33.418 167.460,33.517 168.000,33.736 168.000 C 33.955 168.000,34.039 168.094,33.924 168.209 C 33.578 168.555,32.479 167.982,32.226 167.325 C 32.061 166.895,32.172 166.780,32.595 166.943 C 33.009 167.101,33.200 166.926,33.200 166.387 C 33.200 165.954,33.310 165.600,33.445 165.600 C 33.580 165.600,33.612 166.140,33.515 166.800 M32.946 169.673 C 32.763 169.963,32.609 170.320,32.606 170.467 C 32.603 170.613,32.436 170.883,32.236 171.067 C 32.026 171.258,31.987 171.199,32.142 170.928 C 32.291 170.668,32.219 170.336,31.983 170.189 C 31.706 170.018,31.810 169.734,32.275 169.394 C 33.113 168.782,33.428 168.913,32.946 169.673 M32.604 184.393 C 33.143 185.065,33.186 185.221,32.739 184.876 C 32.202 184.463,32.044 184.464,31.897 184.883 C 31.797 185.167,31.712 184.898,31.708 184.283 C 31.704 183.669,31.724 183.219,31.754 183.283 C 31.784 183.347,32.167 183.847,32.604 184.393 M32.800 186.200 C 32.800 186.530,32.609 186.800,32.376 186.800 C 32.143 186.800,32.055 186.635,32.179 186.434 C 32.303 186.233,32.179 185.977,31.902 185.866 C 31.599 185.744,31.678 185.651,32.100 185.632 C 32.485 185.614,32.800 185.870,32.800 186.200 M34.974 186.358 C 35.221 186.758,34.056 187.395,32.792 187.550 C 32.554 187.579,32.495 188.041,32.651 188.660 C 32.850 189.452,32.790 189.641,32.415 189.410 C 32.048 189.183,31.986 189.327,32.184 189.950 C 32.337 190.432,32.280 190.800,32.052 190.800 C 30.860 190.800,31.707 187.613,33.026 187.136 C 33.758 186.871,34.266 186.507,34.155 186.327 C 34.044 186.147,34.133 186.000,34.353 186.000 C 34.573 186.000,34.852 186.161,34.974 186.358 M36.836 187.969 C 36.526 188.165,36.031 188.233,35.736 188.120 C 34.890 187.796,35.106 187.599,36.300 187.606 C 37.101 187.611,37.247 187.709,36.836 187.969 M34.000 188.667 C 34.000 188.960,34.191 189.200,34.424 189.200 C 34.657 189.200,34.736 189.020,34.600 188.800 C 34.464 188.580,34.678 188.403,35.076 188.406 C 35.895 188.413,37.300 189.184,36.513 189.194 C 36.244 189.197,36.114 189.431,36.222 189.714 C 36.340 190.020,36.091 190.253,35.610 190.289 C 35.164 190.323,34.800 190.171,34.800 189.952 C 34.800 189.732,34.619 189.664,34.399 189.801 C 34.178 189.937,34.088 190.623,34.199 191.324 C 34.377 192.443,34.343 192.503,33.931 191.810 C 33.144 190.490,32.846 188.133,33.466 188.133 C 33.760 188.133,34.000 188.373,34.000 188.667 M31.353 199.400 C 31.353 202.040,31.418 203.068,31.497 201.684 C 31.575 200.301,31.574 198.141,31.495 196.884 C 31.416 195.628,31.352 196.760,31.353 199.400 M34.774 197.369 C 35.161 197.835,35.098 197.898,34.423 197.722 C 33.970 197.604,33.600 197.348,33.600 197.153 C 33.600 196.614,34.246 196.732,34.774 197.369 M33.339 203.400 C 33.467 203.840,33.613 204.946,33.662 205.858 C 33.728 207.090,33.895 207.462,34.309 207.303 C 34.715 207.147,34.740 207.010,34.400 206.800 C 34.074 206.599,34.135 206.434,34.599 206.256 C 35.506 205.908,35.688 205.934,35.417 206.372 C 35.291 206.577,35.370 206.858,35.593 206.996 C 36.087 207.301,36.120 206.409,35.644 205.657 C 35.400 205.273,35.219 205.246,35.022 205.564 C 34.580 206.279,33.952 205.639,34.348 204.876 C 34.595 204.398,34.464 203.965,33.901 203.400 L 33.105 202.600 33.339 203.400 M32.406 205.988 C 32.154 206.459,32.028 207.059,32.126 207.322 C 32.224 207.585,32.511 207.280,32.764 206.645 C 33.314 205.258,33.054 204.779,32.406 205.988 M31.266 211.300 C 31.202 217.011,31.226 217.200,32.024 217.200 C 32.480 217.200,32.735 217.019,32.596 216.793 C 32.458 216.570,32.177 216.491,31.972 216.617 C 31.766 216.745,31.600 216.115,31.600 215.200 C 31.600 214.057,31.741 213.640,32.062 213.838 C 32.380 214.035,32.412 213.948,32.166 213.562 C 31.970 213.253,31.702 211.290,31.570 209.200 C 31.345 205.603,31.328 205.715,31.266 211.300 M32.106 215.144 C 32.140 215.603,32.405 216.070,32.694 216.181 C 33.113 216.341,33.125 216.202,32.755 215.491 C 32.103 214.237,32.035 214.201,32.106 215.144 M31.200 222.902 C 31.200 225.339,31.305 227.229,31.433 227.101 C 31.560 226.973,31.660 225.764,31.653 224.414 C 31.645 222.632,31.800 221.898,32.221 221.737 C 32.539 221.614,32.800 221.332,32.800 221.108 C 32.800 220.874,32.546 220.913,32.200 221.200 C 31.697 221.617,31.600 221.553,31.600 220.802 C 31.600 220.103,31.776 219.953,32.401 220.116 C 32.841 220.231,33.100 220.162,32.977 219.963 C 32.854 219.763,32.483 219.600,32.153 219.600 C 31.823 219.600,31.666 219.417,31.804 219.193 C 31.942 218.970,32.268 218.909,32.528 219.058 C 32.787 219.206,32.860 219.174,32.688 218.986 C 31.505 217.685,31.200 218.487,31.200 222.902 M31.389 228.835 C 31.058 229.876,31.504 232.400,32.018 232.400 C 32.534 232.400,32.503 231.711,31.972 231.383 C 31.709 231.220,31.645 230.516,31.807 229.559 C 32.088 227.896,31.829 227.448,31.389 228.835 M31.467 233.067 C 30.974 233.560,31.194 234.757,31.845 235.121 C 32.374 235.417,32.406 235.641,32.023 236.356 C 31.093 238.095,32.631 239.747,34.332 238.836 C 34.752 238.612,35.208 238.542,35.347 238.681 C 35.486 238.820,35.600 238.543,35.600 238.067 C 35.600 237.590,35.407 237.200,35.171 237.200 C 34.578 237.200,33.582 236.151,33.887 235.847 C 34.023 235.710,34.447 235.880,34.828 236.225 C 35.386 236.730,35.580 236.750,35.824 236.326 C 35.992 236.037,35.978 235.937,35.794 236.104 C 35.610 236.271,35.012 236.001,34.465 235.504 C 33.918 235.007,33.621 234.870,33.804 235.200 C 34.034 235.613,33.881 235.575,33.312 235.077 C 32.757 234.591,32.561 234.067,32.713 233.477 C 32.921 232.667,32.882 232.646,32.193 233.200 C 31.761 233.547,31.573 233.589,31.747 233.300 C 32.069 232.764,31.905 232.628,31.467 233.067 M32.667 236.971 C 32.546 237.285,32.677 237.732,32.957 237.964 C 33.330 238.274,33.467 238.232,33.467 237.811 C 33.467 237.494,33.289 237.345,33.072 237.479 C 32.849 237.617,32.802 237.520,32.966 237.255 C 33.360 236.617,33.952 237.045,33.829 237.880 C 33.695 238.798,33.029 238.958,32.415 238.218 C 31.937 237.642,32.083 236.400,32.630 236.400 C 32.771 236.400,32.787 236.657,32.667 236.971 M35.713 247.700 C 35.747 248.305,35.915 248.800,36.087 248.800 C 36.471 248.800,36.448 248.442,35.998 247.400 C 35.700 246.710,35.661 246.751,35.713 247.700 M35.737 249.800 C 35.784 250.240,35.964 250.825,36.135 251.100 C 36.311 251.382,36.262 251.600,36.024 251.600 C 35.791 251.600,35.879 251.915,36.221 252.300 C 36.562 252.685,37.147 253.389,37.521 253.865 C 37.894 254.341,38.650 254.848,39.200 254.991 C 39.870 255.166,40.024 255.130,39.666 254.881 C 39.372 254.677,39.132 254.371,39.132 254.200 C 39.132 254.029,39.372 253.717,39.666 253.507 C 40.077 253.212,40.050 253.172,39.549 253.331 C 38.713 253.596,38.005 252.892,38.261 252.051 C 38.396 251.611,38.302 251.649,37.972 252.169 C 37.557 252.821,37.620 253.049,38.386 253.669 C 38.882 254.071,39.117 254.400,38.906 254.400 C 38.340 254.400,37.029 252.838,37.337 252.530 C 37.482 252.384,37.310 251.942,36.952 251.547 C 36.595 251.153,36.413 250.544,36.547 250.194 C 36.681 249.845,36.628 249.659,36.430 249.782 C 36.231 249.905,35.974 249.779,35.859 249.502 C 35.745 249.226,35.689 249.360,35.737 249.800 M36.025 253.438 C 35.997 254.359,37.143 255.600,38.020 255.600 C 38.348 255.600,38.199 255.335,37.660 254.957 C 37.156 254.604,36.587 253.929,36.397 253.457 C 36.051 252.601,36.051 252.601,36.025 253.438 M40.153 262.621 C 40.289 262.977,40.222 263.137,39.995 262.997 C 39.778 262.863,39.600 262.943,39.600 263.176 C 39.600 263.409,39.870 263.600,40.200 263.600 C 40.530 263.600,40.800 263.780,40.800 264.000 C 40.800 264.220,40.983 264.400,41.206 264.400 C 41.429 264.400,42.143 264.985,42.794 265.700 C 43.499 266.475,43.981 266.768,43.988 266.426 C 43.995 266.110,43.599 265.425,43.109 264.904 C 42.423 264.173,42.377 264.016,42.909 264.221 C 43.320 264.378,43.600 264.297,43.600 264.019 C 43.600 263.763,43.440 263.651,43.245 263.772 C 43.050 263.893,42.670 263.725,42.400 263.400 C 42.130 263.075,41.748 262.908,41.552 263.030 C 41.355 263.151,41.086 262.969,40.954 262.625 C 40.822 262.281,40.534 262.000,40.314 262.000 C 40.094 262.000,40.022 262.279,40.153 262.621 M44.215 273.242 C 44.504 275.520,44.795 275.904,46.713 276.531 C 48.268 277.039,48.463 277.046,47.824 276.574 C 47.396 276.258,46.839 276.000,46.586 276.000 C 45.941 276.000,44.947 274.790,44.616 273.600 C 44.377 272.739,44.451 272.777,45.148 273.874 C 46.164 275.474,48.401 276.730,48.400 275.700 C 48.398 274.982,45.049 272.000,44.243 272.000 C 44.141 272.000,44.129 272.559,44.215 273.242 M48.651 281.012 C 48.088 282.479,49.732 284.415,52.000 284.955 C 52.550 285.086,52.803 285.098,52.561 284.983 C 52.319 284.868,52.185 284.108,52.261 283.287 C 52.466 281.078,49.373 279.129,48.651 281.012 M52.000 284.250 C 52.000 284.680,49.669 283.156,49.448 282.582 C 48.951 281.285,49.228 281.308,50.600 282.680 C 51.370 283.450,52.000 284.157,52.000 284.250 M52.212 286.919 C 51.996 287.417,52.131 287.814,52.650 288.206 C 53.235 288.649,53.268 288.779,52.800 288.793 C 52.280 288.810,52.278 288.861,52.781 289.180 C 53.649 289.729,54.138 289.217,53.467 288.460 C 53.146 288.097,52.802 287.440,52.703 287.000 C 52.536 286.256,52.502 286.250,52.212 286.919 M56.551 294.984 C 56.414 295.342,56.413 295.747,56.551 295.884 C 56.688 296.021,56.800 295.923,56.800 295.667 C 56.800 295.410,56.986 295.200,57.214 295.200 C 57.497 295.200,57.499 295.441,57.222 295.958 C 56.730 296.879,57.550 297.748,58.549 297.364 C 59.254 297.094,59.455 296.000,58.800 296.000 C 58.580 296.000,58.445 296.203,58.500 296.450 C 58.555 296.697,58.403 296.973,58.163 297.062 C 57.899 297.160,57.740 296.718,57.763 295.951 C 57.803 294.582,56.962 293.912,56.551 294.984 M60.647 299.924 C 60.213 300.627,61.254 301.788,62.400 301.879 C 63.368 301.956,63.372 301.945,62.542 301.537 C 62.071 301.305,61.517 300.740,61.313 300.282 C 61.058 299.711,60.848 299.598,60.647 299.924 M66.975 306.738 C 68.268 308.128,69.203 308.388,68.995 307.300 C 68.922 306.915,68.847 306.452,68.831 306.271 C 68.814 306.091,68.395 305.995,67.900 306.059 C 67.405 306.123,66.730 306.018,66.400 305.826 C 66.070 305.634,66.329 306.044,66.975 306.738 M65.655 307.185 C 66.122 308.524,66.600 308.992,68.079 309.554 C 69.188 309.976,70.063 309.134,69.121 308.551 C 68.852 308.385,68.789 308.459,68.962 308.738 C 69.637 309.831,68.149 309.067,66.762 307.608 C 65.293 306.064,65.260 306.052,65.655 307.185 M69.445 311.328 C 69.316 311.808,69.208 312.322,69.205 312.471 C 69.197 312.910,70.417 314.000,70.918 314.000 C 71.171 314.000,70.978 313.720,70.489 313.377 C 70.000 313.035,69.600 312.475,69.600 312.133 C 69.600 311.669,69.783 311.737,70.318 312.399 C 70.740 312.920,71.607 313.347,72.418 313.433 C 73.521 313.550,73.657 313.496,73.092 313.165 C 72.702 312.937,72.505 312.554,72.653 312.314 C 72.819 312.046,72.738 311.991,72.444 312.173 C 71.842 312.545,70.784 311.707,71.034 311.057 C 71.136 310.789,70.874 310.546,70.449 310.514 C 69.967 310.477,69.591 310.782,69.445 311.328 M71.701 312.586 C 72.183 312.924,72.358 313.200,72.089 313.200 C 71.444 313.200,69.997 311.736,70.012 311.100 C 70.019 310.816,70.197 310.896,70.424 311.286 C 70.644 311.663,71.218 312.248,71.701 312.586 M73.700 314.265 C 73.425 314.376,73.200 314.707,73.200 315.000 C 73.200 315.293,73.425 315.609,73.700 315.702 C 74.087 315.832,74.072 316.025,73.634 316.555 C 72.826 317.534,74.011 318.821,74.980 318.017 C 75.321 317.733,75.600 317.683,75.600 317.904 C 75.600 318.126,75.930 318.393,76.333 318.498 C 76.771 318.613,77.067 318.477,77.067 318.163 C 77.067 317.873,76.944 317.711,76.794 317.804 C 76.644 317.896,76.153 317.629,75.703 317.210 C 75.253 316.791,74.776 316.557,74.643 316.691 C 74.411 316.922,74.287 316.217,74.293 314.700 C 74.295 314.315,74.274 314.014,74.248 314.032 C 74.222 314.049,73.975 314.154,73.700 314.265 M74.725 317.575 C 74.825 317.875,74.675 318.025,74.375 317.925 C 74.086 317.829,73.771 317.514,73.675 317.225 C 73.575 316.925,73.725 316.775,74.025 316.875 C 74.314 316.971,74.629 317.286,74.725 317.575 M77.711 319.313 C 77.856 319.691,77.801 320.000,77.587 320.000 C 77.374 320.000,77.200 320.264,77.200 320.587 C 77.200 320.914,77.438 321.084,77.736 320.969 C 78.390 320.718,79.369 321.803,79.011 322.382 C 78.869 322.612,79.033 322.800,79.376 322.800 C 79.719 322.800,80.000 322.626,80.000 322.413 C 80.000 322.199,80.309 322.144,80.687 322.289 C 81.296 322.522,81.307 322.480,80.787 321.916 C 80.464 321.567,80.125 321.353,80.032 321.441 C 79.790 321.673,78.390 320.340,78.567 320.047 C 78.649 319.911,78.431 319.536,78.082 319.213 C 77.520 318.693,77.478 318.704,77.711 319.313 M77.788 321.620 C 77.407 322.235,77.928 322.632,78.442 322.118 C 78.729 321.831,78.736 321.607,78.462 321.439 C 78.239 321.300,77.935 321.382,77.788 321.620 M81.424 322.761 C 81.297 322.967,81.482 323.425,81.836 323.779 C 82.351 324.294,82.382 324.540,81.991 325.011 C 81.120 326.061,82.422 327.174,83.600 326.387 C 84.126 326.035,84.118 325.937,83.531 325.590 C 83.163 325.373,82.745 324.658,82.600 324.002 C 82.317 322.713,81.794 322.162,81.424 322.761 M86.425 327.718 C 86.411 328.113,86.842 328.878,87.382 329.418 C 88.021 330.057,88.169 330.400,87.804 330.400 C 87.497 330.400,86.965 330.000,86.623 329.511 C 86.280 329.022,86.000 328.829,86.000 329.082 C 86.000 330.018,87.289 330.864,88.320 330.606 C 88.913 330.457,89.442 330.544,89.612 330.820 C 89.788 331.104,89.993 331.134,90.140 330.897 C 90.465 330.371,87.767 327.315,87.343 327.730 C 87.158 327.912,87.320 328.235,87.703 328.450 C 88.086 328.664,88.400 329.033,88.400 329.269 C 88.400 329.892,87.178 328.794,86.781 327.814 C 86.495 327.109,86.447 327.096,86.425 327.718 M90.800 331.371 C 90.800 332.040,92.334 334.000,92.858 334.000 C 93.077 334.000,93.527 334.270,93.857 334.600 C 94.187 334.930,94.652 335.200,94.890 335.200 C 95.128 335.200,94.959 334.885,94.516 334.500 C 93.916 333.980,93.758 333.466,93.900 332.500 C 94.055 331.441,93.956 331.200,93.365 331.200 C 92.801 331.200,92.747 331.307,93.120 331.680 C 94.015 332.575,93.704 333.418,92.786 332.587 C 92.338 332.182,92.048 331.651,92.142 331.407 C 92.236 331.163,91.972 330.938,91.556 330.907 C 91.140 330.875,90.800 331.084,90.800 331.371 M102.784 341.230 C 102.403 341.941,102.452 342.209,103.058 342.747 C 103.463 343.106,103.571 343.139,103.297 342.820 C 102.514 341.907,102.717 341.401,103.560 342.164 C 104.587 343.094,104.910 342.424,103.986 341.282 L 103.246 340.368 102.784 341.230 M104.623 343.033 C 103.974 343.507,103.954 343.600,104.500 343.600 C 104.859 343.600,105.271 343.408,105.416 343.173 C 105.840 342.487,105.461 342.420,104.623 343.033 M110.617 345.972 C 110.491 346.177,110.573 346.460,110.800 346.600 C 111.027 346.740,111.119 347.007,111.005 347.193 C 110.890 347.378,111.062 347.491,111.387 347.443 C 112.386 347.296,112.503 346.887,111.624 346.608 C 111.165 346.462,110.892 346.175,111.018 345.971 C 111.144 345.767,111.157 345.600,111.047 345.600 C 110.937 345.600,110.744 345.768,110.617 345.972 M115.100 347.865 C 115.375 347.976,115.600 348.384,115.600 348.771 C 115.600 349.598,116.492 350.438,118.296 351.309 C 119.470 351.876,120.588 351.611,119.600 351.000 C 119.373 350.860,119.283 350.590,119.400 350.400 C 119.517 350.210,119.427 349.940,119.200 349.800 C 118.973 349.660,118.908 349.349,119.055 349.111 C 119.209 348.861,119.139 348.791,118.889 348.945 C 118.650 349.093,118.191 348.837,117.869 348.377 C 117.547 347.917,117.180 347.708,117.054 347.912 C 116.928 348.117,117.269 348.701,117.812 349.212 C 119.141 350.460,119.061 350.955,117.648 350.225 C 116.462 349.612,115.827 348.604,116.222 347.964 C 116.346 347.764,116.032 347.614,115.524 347.632 C 115.016 347.649,114.825 347.754,115.100 347.865 M125.200 352.352 C 125.200 352.742,126.755 354.198,126.923 353.964 C 126.987 353.874,126.626 353.401,126.120 352.914 C 125.614 352.427,125.200 352.174,125.200 352.352 M124.012 353.100 C 123.997 353.736,125.444 355.200,126.089 355.200 C 126.358 355.200,126.183 354.924,125.701 354.586 C 125.218 354.248,124.644 353.663,124.424 353.286 C 124.197 352.896,124.019 352.816,124.012 353.100 " stroke="none" fill="#0c64aa" fill-rule="evenodd"></path><path id="path2" d="M132.500 43.876 C 132.885 43.976,133.203 44.270,133.206 44.529 C 133.210 44.863,133.298 44.872,133.506 44.560 C 133.668 44.318,134.070 44.017,134.400 43.892 C 134.730 43.766,134.280 43.670,133.400 43.678 C 132.520 43.686,132.115 43.775,132.500 43.876 M124.982 45.782 C 124.442 46.322,124.011 47.087,124.025 47.482 C 124.048 48.114,124.090 48.104,124.378 47.400 C 124.742 46.511,125.881 45.422,126.800 45.084 C 127.266 44.912,127.240 44.856,126.682 44.832 C 126.287 44.814,125.522 45.242,124.982 45.782 M117.665 48.509 C 116.156 48.991,115.041 50.405,115.320 51.480 C 115.472 52.064,115.516 52.035,115.554 51.329 C 115.602 50.424,117.320 48.800,118.230 48.800 C 118.518 48.800,118.864 48.620,119.000 48.400 C 119.136 48.180,119.192 48.018,119.124 48.041 C 119.056 48.063,118.399 48.274,117.665 48.509 M117.547 49.823 C 116.502 50.372,115.778 51.511,116.203 51.937 C 116.326 52.059,116.996 51.589,117.692 50.892 C 119.139 49.445,119.082 49.018,117.547 49.823 M117.820 51.693 C 117.120 52.693,117.370 53.242,118.104 52.317 C 118.377 51.973,118.861 51.614,119.180 51.519 C 119.650 51.380,119.633 51.298,119.091 51.090 C 118.657 50.924,118.210 51.136,117.820 51.693 M110.884 52.615 C 110.460 53.096,110.470 53.200,110.941 53.200 C 111.257 53.200,111.618 52.930,111.745 52.600 C 112.036 51.841,111.560 51.849,110.884 52.615 M114.105 52.253 C 114.493 52.367,114.715 52.614,114.598 52.803 C 114.482 52.991,114.587 53.268,114.832 53.420 C 115.112 53.593,115.224 53.419,115.134 52.952 C 115.055 52.543,114.633 52.172,114.195 52.128 C 113.562 52.063,113.544 52.088,114.105 52.253 M103.445 56.873 C 103.637 57.183,103.509 57.251,103.056 57.077 C 102.489 56.859,102.449 56.944,102.805 57.609 C 103.038 58.044,103.322 58.400,103.438 58.400 C 103.553 58.400,103.543 58.231,103.415 58.025 C 103.288 57.818,103.477 57.485,103.835 57.284 C 104.436 56.948,104.435 56.899,103.823 56.664 C 103.379 56.494,103.254 56.563,103.445 56.873 M102.000 60.320 C 102.000 60.716,101.775 61.277,101.500 61.567 C 101.087 62.002,101.147 62.005,101.846 61.584 C 102.381 61.263,102.621 60.803,102.500 60.337 C 102.254 59.398,102.000 59.389,102.000 60.320 M99.569 61.713 C 99.185 62.812,99.322 63.200,99.932 62.736 C 100.299 62.455,100.653 62.198,100.717 62.163 C 100.782 62.128,100.557 61.992,100.217 61.862 C 99.878 61.732,99.586 61.664,99.569 61.713 M96.000 64.555 C 96.000 64.640,96.530 64.787,97.179 64.882 C 97.827 64.977,98.267 64.908,98.155 64.728 C 97.957 64.407,96.000 64.250,96.000 64.555 M91.473 66.014 C 90.883 66.478,90.400 67.017,90.400 67.211 C 90.400 67.405,90.842 67.122,91.382 66.582 C 92.222 65.742,93.600 65.237,93.600 65.769 C 93.600 65.862,93.038 66.500,92.351 67.187 C 91.664 67.874,91.207 68.540,91.335 68.668 C 91.613 68.946,93.800 66.427,93.800 65.829 C 93.800 65.061,92.559 65.160,91.473 66.014 M89.300 68.682 C 88.805 68.778,88.400 69.043,88.400 69.271 C 88.400 69.512,87.990 69.584,87.425 69.442 C 86.888 69.307,86.339 69.376,86.204 69.594 C 86.057 69.831,86.249 69.888,86.679 69.737 C 87.268 69.529,87.309 69.581,86.900 70.021 C 86.201 70.774,86.277 71.150,87.100 71.011 C 87.485 70.947,87.748 70.671,87.684 70.398 C 87.612 70.092,87.811 69.995,88.204 70.146 C 88.573 70.288,88.739 70.224,88.597 69.995 C 88.462 69.777,88.781 69.600,89.310 69.600 C 89.894 69.600,90.267 69.366,90.267 69.000 C 90.267 68.670,90.252 68.425,90.233 68.454 C 90.215 68.484,89.795 68.587,89.300 68.682 M85.744 71.972 C 85.774 73.143,85.907 73.443,86.263 73.148 C 86.612 72.858,86.630 72.433,86.331 71.575 C 85.791 70.026,85.694 70.091,85.744 71.972 M87.934 71.880 C 87.696 72.166,87.659 72.403,87.851 72.406 C 88.043 72.409,87.956 72.567,87.657 72.756 C 87.279 72.996,87.249 73.183,87.557 73.374 C 87.801 73.524,88.000 73.478,88.000 73.270 C 88.000 73.063,88.360 72.799,88.801 72.684 C 89.241 72.569,89.502 72.636,89.380 72.833 C 89.258 73.030,89.426 73.088,89.752 72.963 C 90.078 72.838,90.322 72.426,90.294 72.048 C 90.231 71.222,88.577 71.105,87.934 71.880 M81.840 73.535 C 81.713 73.741,81.861 74.118,82.169 74.374 C 82.500 74.649,82.823 74.686,82.960 74.465 C 83.087 74.259,82.939 73.882,82.631 73.626 C 82.300 73.351,81.977 73.314,81.840 73.535 M74.633 81.500 C 74.468 81.665,74.168 81.800,73.967 81.800 C 73.765 81.800,73.600 81.935,73.600 82.100 C 73.600 82.471,73.878 82.418,75.400 81.754 C 76.363 81.335,76.435 81.228,75.767 81.216 C 75.308 81.207,74.798 81.335,74.633 81.500 M74.941 83.474 C 74.468 83.955,74.179 84.445,74.298 84.564 C 74.417 84.683,74.283 85.059,74.000 85.400 C 73.247 86.307,73.780 86.563,74.897 85.831 C 75.429 85.482,75.956 85.289,76.068 85.401 C 76.180 85.513,76.610 85.230,77.025 84.773 C 77.534 84.210,77.598 83.983,77.221 84.070 C 76.916 84.142,76.471 83.840,76.233 83.400 C 75.804 82.607,75.793 82.607,74.941 83.474 M75.737 84.320 C 75.633 84.716,75.176 85.272,74.721 85.557 C 73.917 86.058,73.919 86.037,74.774 84.837 C 75.783 83.420,76.003 83.302,75.737 84.320 M70.671 85.855 C 70.964 85.975,70.699 86.472,69.971 87.167 C 68.745 88.340,68.325 90.157,69.375 89.754 C 69.691 89.633,69.857 89.293,69.744 88.998 C 69.427 88.173,70.372 86.704,71.051 86.964 C 71.383 87.092,71.535 87.018,71.397 86.795 C 71.263 86.578,71.388 86.397,71.676 86.394 C 72.057 86.389,72.036 86.282,71.600 86.000 C 71.270 85.787,70.820 85.624,70.600 85.638 C 70.380 85.652,70.412 85.750,70.671 85.855 M65.582 91.234 C 64.947 92.421,65.269 92.497,66.119 91.361 C 66.514 90.832,66.655 90.400,66.433 90.400 C 66.210 90.400,65.827 90.775,65.582 91.234 M66.571 92.100 C 65.966 92.815,65.320 93.355,65.136 93.300 C 64.602 93.141,64.747 94.322,65.300 94.641 C 65.575 94.799,65.672 94.786,65.516 94.613 C 65.359 94.440,66.041 93.511,67.031 92.549 C 68.026 91.582,68.571 90.800,68.251 90.800 C 67.932 90.800,67.176 91.385,66.571 92.100 M62.691 99.253 C 62.311 99.466,62.003 99.856,62.006 100.120 C 62.010 100.441,62.128 100.417,62.361 100.049 C 62.553 99.746,62.898 99.614,63.128 99.755 C 63.357 99.897,63.650 99.843,63.779 99.634 C 64.137 99.054,63.467 98.819,62.691 99.253 M57.077 103.056 C 57.251 103.509,57.183 103.637,56.873 103.445 C 56.563 103.254,56.494 103.379,56.664 103.823 C 56.899 104.435,56.948 104.436,57.284 103.835 C 57.485 103.477,57.818 103.288,58.025 103.415 C 58.231 103.543,58.400 103.553,58.400 103.438 C 58.400 103.322,58.044 103.038,57.609 102.805 C 56.944 102.449,56.859 102.489,57.077 103.056 M52.392 110.968 C 51.886 111.474,51.890 112.000,52.400 112.000 C 52.620 112.000,52.755 111.800,52.700 111.555 C 52.645 111.310,53.039 111.036,53.576 110.946 C 54.947 110.715,55.155 110.380,53.860 110.487 C 53.268 110.536,52.608 110.752,52.392 110.968 M54.162 112.200 C 53.569 112.750,53.222 113.200,53.391 113.200 C 53.560 113.200,53.470 113.474,53.192 113.810 C 52.914 114.145,52.773 114.506,52.879 114.612 C 52.985 114.718,53.411 114.174,53.827 113.402 C 54.242 112.631,54.811 112.000,55.091 112.000 C 55.371 112.000,55.600 111.820,55.600 111.600 C 55.600 110.998,55.345 111.104,54.162 112.200 M52.187 113.400 C 52.084 113.730,51.912 114.279,51.805 114.621 C 51.697 114.962,51.766 115.145,51.957 115.027 C 52.148 114.909,52.391 114.359,52.497 113.806 C 52.706 112.713,52.490 112.430,52.187 113.400 M49.200 116.000 C 48.760 116.440,48.411 117.115,48.425 117.500 C 48.446 118.059,48.520 118.028,48.797 117.343 C 48.987 116.871,49.556 116.196,50.060 115.843 C 50.565 115.489,50.758 115.200,50.489 115.200 C 50.220 115.200,49.640 115.560,49.200 116.000 M50.997 116.080 C 49.990 116.610,49.200 117.589,49.200 118.307 C 49.200 118.612,49.671 118.302,50.246 117.618 C 51.023 116.695,51.512 116.437,52.146 116.614 C 52.620 116.746,52.822 116.705,52.600 116.522 C 52.380 116.340,52.109 116.071,51.997 115.925 C 51.885 115.779,51.435 115.849,50.997 116.080 M50.123 119.678 C 49.126 120.160,48.494 121.292,49.420 120.937 C 49.739 120.814,50.000 120.554,50.000 120.357 C 50.000 120.161,50.270 120.000,50.600 120.000 C 50.930 120.000,51.200 119.820,51.200 119.600 C 51.200 119.135,51.254 119.132,50.123 119.678 M46.109 124.084 C 45.619 124.321,45.104 124.872,44.965 125.310 C 44.789 125.865,44.622 125.959,44.412 125.619 C 44.242 125.344,44.131 125.667,44.156 126.366 C 44.213 127.958,44.536 127.934,45.017 126.300 C 45.279 125.411,45.843 124.779,46.800 124.301 C 47.570 123.916,47.930 123.613,47.600 123.628 C 47.270 123.642,46.599 123.848,46.109 124.084 M46.850 126.146 L 45.961 127.093 46.881 127.035 C 47.386 127.003,47.952 127.162,48.138 127.388 C 48.328 127.620,48.351 127.451,48.190 127.000 C 48.033 126.560,47.896 125.975,47.886 125.700 C 47.861 125.054,47.888 125.042,46.850 126.146 M42.364 132.512 C 41.620 133.014,40.831 133.959,40.610 134.612 C 40.390 135.266,40.028 135.932,39.805 136.094 C 39.574 136.262,39.700 136.390,40.100 136.394 C 40.552 136.398,40.800 136.095,40.800 135.539 C 40.800 135.041,41.503 134.028,42.467 133.139 C 44.362 131.389,44.329 131.188,42.364 132.512 M42.650 134.348 C 41.800 135.235,41.681 135.545,42.125 135.716 C 42.634 135.911,42.941 135.528,43.905 133.500 C 44.184 132.913,43.734 133.216,42.650 134.348 M37.908 144.252 C 38.258 144.403,38.101 144.720,37.408 145.265 C 36.854 145.701,36.400 146.217,36.400 146.411 C 36.400 146.605,36.842 146.322,37.382 145.782 C 37.922 145.242,38.762 144.800,39.248 144.800 C 40.392 144.800,40.117 144.576,38.600 144.272 C 37.940 144.140,37.629 144.131,37.908 144.252 M133.743 159.900 C 132.092 162.157,131.646 162.400,129.154 162.400 C 126.870 162.400,126.855 162.408,124.982 164.600 L 123.103 166.800 120.570 166.800 C 118.287 166.800,117.967 166.903,117.319 167.849 C 115.324 170.760,115.229 170.800,110.400 170.800 C 105.571 170.800,105.476 170.840,103.481 173.751 C 102.840 174.687,102.504 174.800,100.351 174.800 C 97.793 174.800,97.556 174.946,94.930 178.142 C 94.164 179.075,93.772 179.200,91.630 179.200 C 89.063 179.200,89.076 179.193,86.950 181.900 L 85.929 183.200 81.395 183.200 L 76.862 183.200 74.982 185.400 C 73.113 187.588,73.091 187.600,70.828 187.600 C 68.354 187.600,67.907 187.845,66.257 190.100 C 65.188 191.561,65.093 191.600,62.615 191.600 C 60.228 191.600,60.006 191.680,59.016 192.900 C 56.358 196.175,56.766 196.000,51.777 196.000 C 47.367 196.000,47.217 196.029,46.519 197.019 C 44.536 199.830,44.626 199.775,41.594 200.000 C 38.964 200.196,38.677 200.143,38.378 199.408 C 38.095 198.710,38.042 198.763,37.983 199.800 C 37.918 200.970,37.903 200.960,37.389 199.400 L 36.861 197.800 36.791 199.200 C 36.725 200.498,36.697 200.527,36.400 199.600 C 36.097 198.653,36.078 198.668,36.040 199.900 C 35.984 201.707,35.215 201.537,35.135 199.700 C 35.081 198.456,35.024 198.575,34.800 200.400 C 34.581 202.187,34.518 202.323,34.465 201.124 C 34.385 199.316,33.600 198.638,33.600 200.376 C 33.600 201.049,33.399 201.600,33.153 201.600 C 32.721 201.600,32.812 197.440,33.276 196.000 C 33.382 195.670,33.397 195.525,33.309 195.678 C 33.040 196.143,32.000 195.552,32.000 194.934 C 32.000 194.614,32.151 194.446,32.335 194.560 C 32.520 194.674,32.479 194.155,32.245 193.407 C 32.011 192.659,31.758 192.109,31.683 192.184 C 31.322 192.545,31.594 211.931,31.974 212.931 C 32.242 213.637,32.251 213.955,31.999 213.799 C 31.758 213.651,31.600 214.207,31.600 215.200 C 31.600 216.115,31.766 216.745,31.972 216.617 C 32.177 216.491,32.458 216.570,32.596 216.793 C 32.736 217.020,32.470 217.200,31.994 217.200 C 31.397 217.200,31.182 217.410,31.276 217.900 C 31.350 218.285,31.618 218.600,31.872 218.600 C 32.126 218.600,32.483 218.764,32.667 218.964 C 32.858 219.174,32.799 219.213,32.528 219.058 C 32.268 218.909,31.942 218.970,31.804 219.193 C 31.666 219.417,31.823 219.600,32.153 219.600 C 32.483 219.600,32.854 219.763,32.977 219.963 C 33.100 220.162,32.841 220.231,32.401 220.116 C 31.776 219.953,31.600 220.103,31.600 220.802 C 31.600 221.553,31.697 221.617,32.200 221.200 C 32.546 220.913,32.800 220.874,32.800 221.108 C 32.800 221.332,32.528 221.619,32.196 221.746 C 31.774 221.908,31.611 222.491,31.653 223.689 C 31.686 224.630,31.587 226.210,31.433 227.200 C 31.231 228.500,31.269 228.833,31.570 228.400 C 32.133 227.591,32.128 228.339,31.554 230.615 C 30.993 232.845,31.305 233.940,32.274 233.145 C 32.863 232.662,32.913 232.700,32.713 233.477 C 32.561 234.067,32.757 234.591,33.312 235.077 C 33.881 235.575,34.034 235.613,33.804 235.200 C 33.621 234.870,33.918 235.007,34.465 235.504 C 35.012 236.001,35.610 236.271,35.794 236.104 C 35.978 235.937,35.992 236.037,35.824 236.326 C 35.580 236.750,35.386 236.730,34.828 236.225 C 34.447 235.880,34.023 235.710,33.887 235.847 C 33.582 236.151,34.578 237.200,35.171 237.200 C 35.407 237.200,35.600 237.560,35.600 238.000 C 35.600 238.440,35.465 238.779,35.300 238.753 C 34.567 238.637,34.000 238.832,34.000 239.200 C 34.000 239.420,34.360 239.600,34.800 239.600 C 35.656 239.600,35.704 239.921,35.736 245.877 C 35.744 247.240,35.896 248.264,36.075 248.154 C 36.254 248.043,36.400 248.143,36.400 248.376 C 36.400 248.609,36.259 248.800,36.086 248.800 C 35.913 248.800,35.771 249.150,35.771 249.578 C 35.771 250.140,35.905 250.245,36.254 249.955 C 36.612 249.658,36.682 249.766,36.523 250.373 C 36.405 250.823,36.150 251.092,35.955 250.972 C 35.760 250.851,35.600 250.963,35.600 251.219 C 35.600 251.476,35.857 251.587,36.171 251.467 C 36.793 251.228,37.755 252.112,37.332 252.534 C 37.028 252.839,38.344 254.400,38.906 254.400 C 39.117 254.400,38.882 254.071,38.386 253.669 C 37.620 253.049,37.557 252.821,37.972 252.169 C 38.302 251.649,38.396 251.611,38.261 252.051 C 38.005 252.892,38.713 253.596,39.549 253.331 C 39.933 253.209,40.036 253.263,39.800 253.462 C 39.212 253.959,39.128 254.800,39.667 254.800 C 39.923 254.800,40.038 254.895,39.922 255.011 C 39.444 255.489,37.595 254.351,37.009 253.217 C 36.267 251.783,35.597 251.631,35.606 252.900 C 35.611 253.628,35.686 253.685,36.000 253.200 C 36.335 252.682,36.389 252.692,36.394 253.271 C 36.397 253.640,36.854 254.299,37.408 254.735 C 38.101 255.280,38.257 255.597,37.908 255.748 C 37.629 255.869,37.940 255.930,38.600 255.884 C 39.719 255.806,39.801 255.895,39.812 257.200 C 39.819 257.970,39.986 258.859,40.183 259.176 C 40.411 259.543,40.379 259.807,40.093 259.902 C 39.847 259.984,39.744 260.309,39.864 260.624 C 39.985 260.938,40.290 261.093,40.542 260.968 C 40.794 260.843,40.685 260.999,40.300 261.314 C 39.519 261.954,39.398 262.628,39.995 262.997 C 40.222 263.137,40.289 262.977,40.153 262.621 C 40.022 262.279,40.094 262.000,40.314 262.000 C 40.534 262.000,40.822 262.281,40.954 262.625 C 41.086 262.969,41.355 263.151,41.552 263.030 C 41.748 262.908,42.130 263.075,42.400 263.400 C 42.670 263.725,43.050 263.893,43.245 263.772 C 43.440 263.651,43.600 263.763,43.600 264.019 C 43.600 264.297,43.320 264.378,42.909 264.221 C 42.377 264.016,42.423 264.173,43.109 264.904 C 43.599 265.425,43.995 266.110,43.988 266.426 C 43.981 266.768,43.499 266.475,42.794 265.700 C 42.143 264.985,41.429 264.400,41.206 264.400 C 40.983 264.400,40.800 264.220,40.800 264.000 C 40.800 263.780,40.496 263.600,40.124 263.600 C 39.527 263.600,39.518 263.659,40.052 264.100 C 40.384 264.375,40.954 265.082,41.319 265.672 C 41.683 266.262,42.507 267.054,43.149 267.433 C 44.213 268.062,44.279 268.226,43.904 269.304 C 43.595 270.191,43.618 270.564,43.997 270.798 C 44.275 270.970,44.399 271.278,44.273 271.482 C 44.147 271.686,44.619 272.188,45.322 272.598 C 46.616 273.352,48.399 275.149,48.400 275.700 C 48.401 276.873,45.680 274.980,44.600 273.057 C 44.267 272.465,44.192 272.568,44.151 273.673 C 44.124 274.403,44.186 274.663,44.289 274.251 C 44.460 273.574,44.522 273.592,44.947 274.443 C 45.205 274.961,45.839 275.595,46.357 275.853 C 47.213 276.280,47.230 276.341,46.549 276.530 C 46.137 276.644,46.336 276.706,46.991 276.669 C 47.668 276.630,48.187 276.802,48.191 277.067 C 48.196 277.323,48.329 277.662,48.486 277.819 C 48.643 277.977,48.577 278.469,48.339 278.913 C 47.965 279.612,48.008 279.686,48.653 279.460 C 49.355 279.214,49.358 279.231,48.700 279.743 C 47.938 280.337,47.760 281.200,48.400 281.200 C 48.620 281.200,48.800 281.021,48.800 280.802 C 48.800 280.269,51.716 280.745,52.084 281.338 C 52.439 281.910,52.367 284.373,51.988 284.607 C 51.834 284.703,51.794 285.233,51.899 285.786 C 52.005 286.338,52.251 286.692,52.446 286.572 C 52.641 286.451,52.800 286.664,52.800 287.045 C 52.800 287.426,53.115 288.097,53.500 288.537 C 53.885 288.977,53.987 289.214,53.728 289.062 C 53.468 288.911,53.150 288.958,53.020 289.167 C 52.881 289.393,53.446 289.482,54.410 289.386 C 56.320 289.196,56.535 289.520,56.550 292.613 C 56.558 294.231,56.696 294.675,57.180 294.642 C 57.593 294.614,57.814 294.972,57.841 295.713 C 57.885 296.934,57.421 297.481,56.966 296.745 C 56.807 296.487,56.846 296.381,57.052 296.509 C 57.259 296.637,57.429 296.394,57.429 295.971 C 57.429 295.054,56.980 294.955,56.655 295.800 C 56.330 296.649,56.806 297.683,57.416 297.449 C 58.693 296.959,60.793 298.088,60.533 299.124 C 60.368 299.783,60.429 300.030,60.713 299.854 C 60.949 299.708,61.257 299.951,61.398 300.394 C 61.539 300.837,61.867 301.203,62.127 301.206 C 62.406 301.210,62.354 301.370,62.000 301.596 C 61.566 301.874,61.757 301.936,62.689 301.821 C 63.398 301.733,64.125 301.570,64.305 301.459 C 64.485 301.347,64.561 301.873,64.473 302.628 C 64.342 303.748,64.449 304.006,65.056 304.032 C 65.506 304.051,65.596 304.145,65.283 304.270 C 64.887 304.430,64.875 304.608,65.232 305.039 C 65.587 305.466,65.586 305.600,65.230 305.600 C 64.973 305.600,65.561 306.410,66.537 307.400 C 68.150 309.036,69.661 309.870,68.962 308.738 C 68.789 308.459,68.852 308.385,69.121 308.551 C 69.365 308.702,69.466 309.084,69.345 309.399 C 68.971 310.375,66.713 309.183,65.901 307.580 C 65.385 306.562,65.201 306.413,65.201 307.011 C 65.200 308.260,66.274 309.509,67.600 309.800 C 68.425 309.981,68.800 310.304,68.800 310.832 C 68.800 311.254,69.000 311.600,69.243 311.600 C 69.515 311.600,69.591 311.982,69.440 312.584 C 69.122 313.851,69.984 314.324,72.441 314.230 C 73.866 314.176,74.283 314.300,74.286 314.780 C 74.296 316.267,74.417 316.916,74.643 316.691 C 74.776 316.557,75.253 316.791,75.703 317.210 C 76.153 317.629,76.678 317.875,76.870 317.756 C 77.063 317.638,77.194 317.689,77.163 317.870 C 77.003 318.787,77.245 320.000,77.587 320.000 C 77.801 320.000,77.856 319.691,77.711 319.313 C 77.478 318.704,77.520 318.693,78.082 319.213 C 78.431 319.536,78.649 319.911,78.567 320.047 C 78.390 320.340,79.790 321.673,80.032 321.441 C 80.125 321.353,80.464 321.567,80.787 321.916 C 81.307 322.480,81.296 322.522,80.687 322.289 C 80.309 322.144,80.000 322.212,80.000 322.441 C 80.000 322.670,80.478 322.799,81.063 322.729 C 81.963 322.620,82.197 322.810,82.590 323.976 C 82.846 324.733,83.268 325.423,83.528 325.509 C 84.086 325.695,84.166 326.400,83.629 326.400 C 83.030 326.400,81.972 325.169,82.222 324.765 C 82.348 324.561,82.137 324.080,81.753 323.697 C 81.090 323.034,81.070 323.049,81.360 324.000 C 81.528 324.550,81.709 325.342,81.763 325.760 C 81.835 326.322,82.253 326.561,83.363 326.675 C 84.331 326.774,84.774 326.682,84.609 326.415 C 84.468 326.187,84.498 326.003,84.676 326.006 C 85.505 326.022,85.894 326.717,85.790 327.999 C 85.631 329.979,86.194 330.867,87.416 330.560 C 88.018 330.409,88.400 330.485,88.400 330.757 C 88.400 331.000,88.670 331.200,89.000 331.200 C 89.330 331.200,89.600 331.020,89.600 330.800 C 89.600 330.580,89.322 330.400,88.982 330.400 C 88.122 330.400,86.395 328.588,86.425 327.718 C 86.447 327.096,86.495 327.109,86.781 327.814 C 87.178 328.794,88.400 329.892,88.400 329.269 C 88.400 329.033,88.086 328.664,87.703 328.450 C 87.320 328.235,87.158 327.912,87.343 327.730 C 87.657 327.422,90.406 330.194,90.337 330.748 C 90.105 332.609,91.912 334.609,93.471 334.218 C 94.264 334.019,94.451 334.091,94.282 334.530 C 94.162 334.844,94.274 335.095,94.532 335.087 C 94.789 335.080,95.741 335.102,96.647 335.137 L 98.294 335.200 98.158 336.800 C 98.080 337.720,98.198 338.400,98.435 338.400 C 98.662 338.400,98.744 338.568,98.617 338.772 C 98.491 338.977,98.570 339.258,98.793 339.396 C 99.017 339.534,99.200 339.435,99.200 339.175 C 99.200 338.822,99.351 338.828,99.798 339.198 C 100.127 339.471,100.753 339.601,101.190 339.487 C 101.969 339.283,103.084 341.617,102.589 342.417 C 102.078 343.244,103.623 343.677,104.660 342.998 C 105.606 342.378,105.696 342.372,105.474 342.950 C 105.309 343.380,105.438 343.600,105.855 343.600 C 106.282 343.600,106.407 343.374,106.242 342.900 C 106.023 342.271,106.049 342.265,106.499 342.840 C 107.085 343.588,107.127 343.600,109.144 343.600 L 110.688 343.600 110.575 345.177 C 110.497 346.276,110.666 346.913,111.132 347.277 C 111.743 347.756,111.749 347.734,111.200 347.025 C 110.651 346.316,110.663 346.274,111.333 346.525 C 111.736 346.676,112.135 346.800,112.220 346.800 C 112.305 346.800,112.257 347.115,112.113 347.500 C 111.875 348.134,111.920 348.144,112.590 347.600 C 113.167 347.133,113.368 347.113,113.502 347.511 C 113.622 347.868,114.102 347.942,115.095 347.756 C 116.044 347.578,116.430 347.629,116.257 347.909 C 115.829 348.600,116.425 349.592,117.648 350.225 C 119.061 350.955,119.141 350.460,117.812 349.212 C 117.269 348.701,116.928 348.117,117.054 347.912 C 117.180 347.708,117.547 347.917,117.869 348.377 C 118.191 348.837,118.650 349.093,118.889 348.945 C 119.139 348.791,119.209 348.861,119.055 349.111 C 118.908 349.349,118.973 349.660,119.200 349.800 C 119.427 349.940,119.517 350.210,119.400 350.400 C 119.283 350.590,119.373 350.860,119.600 351.000 C 119.827 351.140,119.922 351.403,119.810 351.584 C 119.699 351.764,120.402 351.871,121.373 351.821 L 123.138 351.730 123.568 353.438 C 123.855 354.580,124.263 355.221,124.799 355.373 C 125.239 355.498,125.983 355.709,126.450 355.843 C 127.095 356.027,127.221 355.955,126.973 355.543 C 126.717 355.118,126.772 355.098,127.223 355.450 C 127.540 355.697,128.216 355.832,128.724 355.749 C 129.257 355.662,129.546 355.763,129.407 355.989 C 129.265 356.218,129.710 356.351,130.483 356.309 C 133.283 356.159,136.042 356.409,135.805 356.792 C 135.672 357.007,135.769 357.569,136.021 358.040 C 136.303 358.566,136.320 358.798,136.064 358.640 C 135.824 358.491,135.674 358.720,135.709 359.181 C 135.783 360.176,136.795 360.640,136.812 359.687 C 136.824 359.045,136.851 359.046,137.232 359.700 C 137.639 360.398,140.345 360.735,140.449 360.100 C 140.477 359.935,140.548 359.080,140.609 358.200 C 140.670 357.320,140.890 355.767,141.099 354.748 C 141.344 353.555,141.225 329.141,140.767 286.148 C 140.375 249.437,140.018 210.490,139.973 199.600 C 139.928 188.710,139.800 174.985,139.688 169.100 L 139.484 158.400 137.162 158.400 C 134.941 158.400,134.793 158.465,133.743 159.900 M33.826 160.758 C 33.704 160.955,33.859 161.214,34.169 161.333 C 34.480 161.452,34.833 161.291,34.954 160.975 C 35.194 160.350,34.196 160.159,33.826 160.758 M32.251 162.100 C 31.939 162.595,31.576 163.450,31.446 164.000 C 31.296 164.630,31.443 164.481,31.843 163.600 C 32.192 162.830,32.662 161.975,32.888 161.700 C 33.113 161.425,33.190 161.200,33.058 161.200 C 32.926 161.200,32.563 161.605,32.251 162.100 M33.200 166.387 C 33.200 166.926,33.009 167.101,32.595 166.943 C 32.172 166.780,32.061 166.895,32.226 167.325 C 32.479 167.982,33.578 168.555,33.924 168.209 C 34.039 168.094,33.955 168.000,33.736 168.000 C 33.517 168.000,33.418 167.460,33.515 166.800 C 33.612 166.140,33.580 165.600,33.445 165.600 C 33.310 165.600,33.200 165.954,33.200 166.387 M32.275 169.394 C 31.810 169.734,31.706 170.018,31.983 170.189 C 32.219 170.336,32.291 170.668,32.142 170.928 C 31.987 171.199,32.026 171.258,32.236 171.067 C 32.436 170.883,32.603 170.613,32.606 170.467 C 32.609 170.320,32.763 169.963,32.946 169.673 C 33.428 168.913,33.113 168.782,32.275 169.394 M31.708 184.283 C 31.712 184.898,31.797 185.167,31.897 184.883 C 32.044 184.464,32.202 184.463,32.739 184.876 C 33.186 185.221,33.143 185.065,32.604 184.393 C 32.167 183.847,31.784 183.347,31.754 183.283 C 31.724 183.219,31.704 183.669,31.708 184.283 M31.902 185.866 C 32.179 185.977,32.303 186.233,32.179 186.434 C 32.055 186.635,32.143 186.800,32.376 186.800 C 32.609 186.800,32.800 186.530,32.800 186.200 C 32.800 185.870,32.485 185.614,32.100 185.632 C 31.678 185.651,31.599 185.744,31.902 185.866 M34.155 186.327 C 34.266 186.507,33.758 186.871,33.026 187.136 C 31.707 187.613,30.860 190.800,32.052 190.800 C 32.280 190.800,32.337 190.432,32.184 189.950 C 31.986 189.327,32.048 189.183,32.415 189.410 C 32.790 189.641,32.850 189.452,32.651 188.660 C 32.495 188.041,32.554 187.579,32.792 187.550 C 34.600 187.328,35.937 186.000,34.353 186.000 C 34.133 186.000,34.044 186.147,34.155 186.327 M35.200 187.757 C 35.200 188.146,36.327 188.292,36.836 187.969 C 37.247 187.709,37.101 187.611,36.300 187.606 C 35.695 187.603,35.200 187.671,35.200 187.757 M33.196 189.577 C 33.555 191.544,34.493 193.176,34.199 191.324 C 34.088 190.623,34.178 189.937,34.399 189.801 C 34.619 189.664,34.800 189.732,34.800 189.952 C 34.800 190.171,35.164 190.323,35.610 190.289 C 36.091 190.253,36.340 190.020,36.222 189.714 C 36.114 189.431,36.244 189.197,36.513 189.194 C 37.300 189.184,35.895 188.413,35.076 188.406 C 34.678 188.403,34.464 188.580,34.600 188.800 C 34.736 189.020,34.657 189.200,34.424 189.200 C 34.191 189.200,34.000 188.960,34.000 188.667 C 34.000 188.373,33.760 188.133,33.466 188.133 C 33.070 188.133,33.000 188.508,33.196 189.577 M33.600 197.153 C 33.600 197.348,33.970 197.604,34.423 197.722 C 35.098 197.898,35.161 197.835,34.774 197.369 C 34.246 196.732,33.600 196.614,33.600 197.153 M34.348 204.876 C 33.952 205.639,34.580 206.279,35.022 205.564 C 35.219 205.246,35.400 205.273,35.644 205.657 C 36.120 206.409,36.087 207.301,35.593 206.996 C 35.370 206.858,35.291 206.577,35.417 206.372 C 35.688 205.934,35.506 205.908,34.599 206.256 C 34.135 206.434,34.074 206.599,34.400 206.800 C 34.740 207.010,34.715 207.147,34.309 207.303 C 33.895 207.462,33.728 207.090,33.662 205.858 C 33.613 204.946,33.467 203.840,33.339 203.400 L 33.105 202.600 33.901 203.400 C 34.464 203.965,34.595 204.398,34.348 204.876 M32.764 206.645 C 32.511 207.280,32.224 207.585,32.126 207.322 C 31.934 206.805,32.749 205.016,33.044 205.310 C 33.142 205.409,33.016 206.009,32.764 206.645 M32.755 215.491 C 33.125 216.202,33.113 216.341,32.694 216.181 C 32.405 216.070,32.140 215.603,32.106 215.144 C 32.035 214.201,32.103 214.237,32.755 215.491 M31.357 234.969 C 31.237 235.282,31.342 235.918,31.591 236.384 C 31.840 236.849,31.937 237.568,31.806 237.981 C 31.675 238.395,31.751 238.846,31.975 238.985 C 32.626 239.387,33.941 238.478,33.827 237.705 C 33.723 236.992,33.354 236.887,32.867 237.431 C 32.720 237.594,32.795 237.617,33.033 237.482 C 33.272 237.346,33.467 237.494,33.467 237.811 C 33.467 238.232,33.330 238.274,32.957 237.964 C 32.677 237.732,32.557 237.255,32.692 236.905 C 32.863 236.459,32.784 236.363,32.425 236.584 C 32.047 236.818,31.984 236.680,32.184 236.050 C 32.350 235.527,32.281 235.200,32.003 235.200 C 31.756 235.200,31.664 235.020,31.800 234.800 C 31.936 234.580,31.941 234.400,31.811 234.400 C 31.681 234.400,31.477 234.656,31.357 234.969 M49.200 281.607 C 49.200 282.474,49.802 283.284,50.848 283.825 C 52.348 284.601,52.301 284.381,50.600 282.680 C 49.830 281.910,49.200 281.427,49.200 281.607 M48.425 282.500 C 48.397 283.293,49.749 284.800,50.489 284.800 C 50.758 284.800,50.565 284.511,50.060 284.157 C 49.556 283.804,48.987 283.129,48.797 282.657 C 48.520 281.972,48.446 281.941,48.425 282.500 M67.900 306.059 C 68.395 305.995,68.814 306.091,68.831 306.271 C 68.847 306.452,68.922 306.915,68.995 307.300 C 69.203 308.388,68.268 308.128,66.975 306.738 C 66.329 306.044,66.070 305.634,66.400 305.826 C 66.730 306.018,67.405 306.123,67.900 306.059 M71.034 311.057 C 70.784 311.707,71.842 312.545,72.444 312.173 C 72.738 311.991,72.819 312.046,72.653 312.314 C 72.505 312.554,72.702 312.937,73.092 313.165 C 73.657 313.496,73.521 313.550,72.418 313.433 C 70.351 313.213,68.389 310.358,70.410 310.511 C 70.864 310.545,71.138 310.784,71.034 311.057 M70.012 311.100 C 69.997 311.736,71.444 313.200,72.089 313.200 C 72.358 313.200,72.183 312.924,71.701 312.586 C 71.218 312.248,70.644 311.663,70.424 311.286 C 70.197 310.896,70.019 310.816,70.012 311.100 M73.346 316.870 C 73.443 317.755,73.714 318.169,74.242 318.237 C 74.659 318.291,75.360 318.413,75.800 318.510 C 76.240 318.606,76.375 318.608,76.100 318.513 C 75.825 318.419,75.600 318.145,75.600 317.904 C 75.600 317.663,75.495 317.572,75.367 317.700 C 75.000 318.067,73.718 316.657,73.912 316.100 C 74.007 315.825,73.888 315.600,73.646 315.600 C 73.390 315.600,73.265 316.130,73.346 316.870 M77.467 321.067 C 77.026 321.507,77.166 322.007,77.700 321.900 C 77.975 321.845,78.155 322.025,78.100 322.300 C 77.979 322.905,78.650 322.966,79.011 322.382 C 79.484 321.617,78.098 320.435,77.467 321.067 M92.142 331.407 C 92.048 331.651,92.338 332.182,92.786 332.587 C 93.704 333.418,94.015 332.575,93.120 331.680 C 92.747 331.307,92.791 331.200,93.320 331.200 C 94.015 331.200,94.213 332.179,93.757 333.367 C 93.398 334.302,92.566 334.138,91.629 332.946 C 90.596 331.633,90.568 330.832,91.556 330.907 C 91.972 330.938,92.236 331.163,92.142 331.407 M104.514 342.538 C 104.398 342.727,103.943 342.521,103.503 342.081 C 103.063 341.641,102.828 341.079,102.980 340.832 C 103.163 340.536,103.508 340.692,103.992 341.289 C 104.396 341.788,104.631 342.350,104.514 342.538 M115.254 348.656 C 115.225 349.126,115.515 349.871,115.900 350.311 C 116.619 351.132,119.425 352.288,118.990 351.584 C 118.860 351.373,118.518 351.200,118.230 351.200 C 117.368 351.200,115.666 349.647,115.481 348.692 C 115.313 347.822,115.308 347.821,115.254 348.656 M126.923 353.964 C 126.755 354.198,125.200 352.742,125.200 352.352 C 125.200 352.174,125.614 352.427,126.120 352.914 C 126.626 353.401,126.987 353.874,126.923 353.964 M125.701 354.586 C 126.183 354.924,126.358 355.200,126.089 355.200 C 125.444 355.200,123.997 353.736,124.012 353.100 C 124.019 352.816,124.197 352.896,124.424 353.286 C 124.644 353.663,125.218 354.248,125.701 354.586 M144.848 361.508 C 145.303 362.873,146.237 363.611,147.474 363.584 C 147.923 363.575,147.704 363.353,146.900 363.004 C 146.185 362.693,145.600 362.284,145.600 362.096 C 145.600 361.907,145.332 361.404,145.005 360.976 C 144.462 360.267,144.448 360.312,144.848 361.508 M254.701 361.457 C 254.436 362.039,253.675 362.752,253.010 363.042 C 252.221 363.385,252.053 363.574,252.526 363.584 C 253.733 363.610,254.692 362.884,255.137 361.608 C 255.656 360.119,255.358 360.016,254.701 361.457 " stroke="none" fill="#115a9e" fill-rule="evenodd"></path><path id="path3" d="M163.051 32.600 C 163.310 33.295,163.266 33.332,162.711 32.881 C 162.315 32.560,161.979 32.511,161.829 32.753 C 161.696 32.968,161.773 33.260,162.000 33.400 C 162.227 33.540,162.295 33.868,162.151 34.128 C 162.008 34.387,162.313 34.197,162.829 33.704 C 163.588 32.981,163.671 32.712,163.261 32.304 C 162.851 31.897,162.810 31.954,163.051 32.600 M140.575 42.302 C 141.005 47.079,141.637 352.013,141.221 354.400 C 140.215 360.177,141.115 362.085,143.651 359.549 C 144.188 359.012,144.611 358.832,144.701 359.103 C 144.784 359.351,145.112 359.455,145.430 359.333 C 145.814 359.186,145.935 359.303,145.790 359.682 C 145.558 360.287,146.744 361.744,148.401 362.892 C 149.120 363.390,149.180 363.508,148.613 363.316 C 147.917 363.079,147.893 363.119,148.405 363.667 C 148.982 364.285,150.373 364.341,151.700 363.800 C 152.142 363.620,152.400 363.696,152.400 364.006 C 152.400 364.392,152.530 364.390,153.002 363.998 C 153.532 363.558,153.508 363.414,152.800 362.800 C 152.092 362.186,152.068 362.042,152.598 361.602 C 152.929 361.327,153.200 360.704,153.200 360.218 C 153.200 359.731,153.325 359.208,153.478 359.055 C 154.050 358.483,153.946 357.535,153.336 357.769 C 153.005 357.896,152.614 358.003,152.467 358.006 C 152.320 358.009,152.470 358.189,152.800 358.406 C 153.301 358.735,153.251 358.841,152.500 359.047 C 152.005 359.182,151.600 359.463,151.600 359.670 C 151.600 359.878,151.760 359.949,151.955 359.828 C 152.150 359.708,152.403 359.967,152.517 360.404 C 152.631 360.842,152.562 361.200,152.363 361.200 C 152.163 361.200,152.000 361.012,152.000 360.782 C 152.000 360.553,151.775 360.394,151.500 360.430 C 150.434 360.568,150.000 360.375,150.000 359.763 C 150.000 359.412,149.636 359.030,149.192 358.914 C 148.550 358.746,148.479 358.587,148.848 358.142 C 149.219 357.696,149.186 357.631,148.688 357.822 C 148.343 357.954,147.964 358.318,147.843 358.631 C 147.513 359.491,146.571 359.313,146.571 358.390 C 146.571 357.920,146.775 357.658,147.056 357.766 C 147.323 357.869,147.734 357.721,147.968 357.438 C 148.300 357.039,148.150 356.937,147.298 356.983 C 146.500 357.027,146.200 357.255,146.199 357.816 C 146.199 358.253,145.873 358.652,145.452 358.733 C 144.921 358.835,144.794 358.721,145.011 358.338 C 145.258 357.905,145.213 357.897,144.779 358.300 C 144.482 358.575,144.102 358.800,143.933 358.800 C 143.763 358.800,143.621 348.855,143.616 336.700 C 143.612 324.545,143.494 305.600,143.356 294.600 C 143.217 283.600,142.942 222.760,142.745 159.400 C 142.333 27.245,142.488 39.782,141.266 39.681 C 140.350 39.605,140.337 39.657,140.575 42.302 M259.076 40.300 C 258.898 40.575,258.844 40.947,258.955 41.126 C 259.066 41.306,258.912 42.701,258.614 44.226 C 258.177 46.460,258.025 59.765,257.832 112.600 C 257.700 148.680,257.426 193.230,257.221 211.600 C 257.017 229.970,256.722 258.275,256.566 274.500 L 256.283 304.000 254.123 304.000 C 251.841 304.000,251.834 304.005,249.146 307.162 C 248.206 308.266,247.856 308.400,245.906 308.400 C 243.794 308.400,243.656 308.469,241.877 310.400 C 240.072 312.359,239.987 312.400,237.717 312.397 C 235.448 312.394,235.358 312.437,233.340 314.497 C 227.032 320.937,227.217 320.801,224.737 320.800 C 222.512 320.800,222.447 320.833,220.800 322.800 C 219.152 324.768,219.089 324.800,216.863 324.797 C 214.632 324.794,214.571 324.825,212.559 326.997 C 210.546 329.171,210.488 329.200,208.241 329.200 C 205.840 329.200,205.256 329.562,203.481 332.151 C 202.833 333.097,202.513 333.200,200.230 333.200 L 197.697 333.200 195.818 335.400 L 193.938 337.600 191.593 337.600 C 189.270 337.600,189.231 337.619,187.561 339.600 C 185.908 341.561,185.831 341.600,183.637 341.600 C 181.167 341.599,182.017 340.977,175.024 347.900 C 172.967 349.937,172.835 350.000,170.634 350.000 C 168.424 350.000,168.318 350.052,166.523 352.000 C 164.747 353.928,164.603 354.000,162.510 354.000 C 160.631 354.000,160.177 354.161,159.138 355.200 C 158.478 355.860,157.582 356.400,157.146 356.400 C 156.710 356.400,156.464 356.580,156.600 356.800 C 157.032 357.500,156.391 358.091,155.764 357.570 C 155.454 357.313,155.197 357.259,155.194 357.451 C 155.191 357.643,154.994 357.530,154.756 357.200 C 154.392 356.694,154.360 356.709,154.550 357.300 C 154.674 357.685,154.606 358.000,154.400 358.000 C 154.194 358.000,154.129 358.270,154.255 358.600 C 154.382 358.930,154.286 359.200,154.043 359.200 C 153.472 359.200,153.466 361.306,154.035 361.875 C 154.348 362.188,154.331 362.396,153.973 362.617 C 153.664 362.808,153.578 362.759,153.745 362.489 C 153.892 362.251,153.843 361.950,153.634 361.821 C 152.996 361.426,152.771 362.278,153.381 362.784 C 153.695 363.045,153.850 363.524,153.726 363.850 C 153.507 364.420,154.313 364.396,156.321 363.771 C 156.607 363.682,156.735 363.781,156.605 363.992 C 156.465 364.219,157.169 364.345,158.339 364.302 C 159.712 364.251,160.252 364.079,160.120 363.737 C 160.006 363.439,160.246 363.268,160.727 363.304 C 161.262 363.345,161.477 363.599,161.384 364.082 C 161.308 364.477,161.438 364.800,161.672 364.800 C 161.938 364.800,161.908 365.028,161.592 365.410 C 161.070 366.039,161.315 366.586,162.133 366.618 C 162.390 366.628,162.551 366.867,162.490 367.148 C 162.430 367.429,162.573 367.540,162.810 367.394 C 163.111 367.208,163.100 366.962,162.774 366.569 C 162.518 366.261,162.122 366.125,161.893 366.266 C 161.643 366.421,161.597 366.328,161.778 366.036 C 162.197 365.358,163.707 366.745,163.405 367.531 C 163.230 367.988,163.301 368.014,163.738 367.652 C 164.166 367.297,164.410 367.330,164.796 367.795 C 165.553 368.708,166.532 368.595,166.028 367.653 C 165.808 367.242,165.667 366.834,165.714 366.748 C 165.761 366.661,165.559 366.863,165.264 367.195 C 164.794 367.726,164.745 367.706,164.864 367.033 C 165.101 365.697,165.984 365.864,166.611 367.365 C 167.229 368.844,167.739 369.147,168.242 368.332 C 168.428 368.031,168.324 367.944,167.947 368.088 C 167.295 368.339,166.997 366.972,167.621 366.587 C 167.824 366.461,167.884 366.638,167.753 366.979 C 167.474 367.705,168.038 367.802,168.698 367.142 C 169.041 366.799,169.095 366.914,168.915 367.605 C 168.748 368.244,168.816 368.438,169.137 368.239 C 169.392 368.082,169.600 368.143,169.600 368.376 C 169.600 368.955,171.327 368.913,171.920 368.320 C 172.293 367.947,172.400 367.956,172.400 368.360 C 172.400 368.861,174.386 368.819,178.102 368.241 C 178.708 368.147,179.113 368.217,179.003 368.396 C 178.892 368.575,180.148 368.727,181.794 368.733 C 183.440 368.740,184.890 368.577,185.017 368.373 C 185.144 368.168,185.517 368.000,185.847 368.000 C 186.177 368.000,186.348 368.160,186.228 368.355 C 186.101 368.560,193.451 368.712,203.606 368.713 C 213.769 368.715,221.300 368.562,221.430 368.351 C 221.554 368.151,221.841 368.102,222.068 368.242 C 222.855 368.729,227.210 368.823,228.053 368.371 C 228.650 368.052,228.817 368.049,228.625 368.360 C 228.289 368.903,229.949 368.946,230.787 368.417 C 231.109 368.213,231.559 368.190,231.787 368.367 C 232.499 368.921,235.281 368.387,235.034 367.744 C 234.864 367.302,234.982 367.269,235.583 367.591 C 236.587 368.128,236.914 368.108,236.558 367.532 C 236.367 367.223,236.482 367.146,236.897 367.305 C 237.689 367.609,238.978 366.241,238.666 365.428 C 238.315 364.513,238.747 364.417,243.539 364.346 C 246.220 364.306,247.880 364.130,247.738 363.900 C 247.609 363.691,247.872 363.717,248.322 363.958 C 249.399 364.534,251.277 364.378,251.029 363.732 C 250.913 363.429,251.068 363.328,251.437 363.469 C 251.765 363.595,251.980 363.530,251.916 363.323 C 251.563 362.187,254.313 360.442,256.648 360.322 L 259.000 360.200 258.958 358.000 C 258.935 356.790,258.725 355.107,258.491 354.260 C 258.192 353.176,258.170 325.381,258.417 260.460 C 258.610 209.717,258.775 140.984,258.784 107.720 C 258.795 66.608,258.936 46.605,259.225 45.258 C 259.700 43.044,259.594 39.501,259.076 40.300 M159.423 357.162 C 159.300 357.362,158.839 357.431,158.400 357.316 C 157.299 357.028,157.398 356.800,158.624 356.800 C 159.187 356.800,159.546 356.963,159.423 357.162 M159.016 358.027 C 159.440 358.713,159.061 358.780,158.223 358.167 C 157.574 357.693,157.554 357.600,158.100 357.600 C 158.459 357.600,158.871 357.792,159.016 358.027 M150.300 361.600 C 150.245 361.820,150.380 361.955,150.600 361.900 C 150.820 361.845,150.955 361.665,150.900 361.500 C 150.845 361.335,151.047 361.200,151.350 361.200 C 151.670 361.200,151.900 361.618,151.900 362.200 C 151.900 363.331,151.845 363.359,150.774 362.786 C 150.240 362.500,150.000 362.500,150.000 362.786 C 150.000 363.014,150.210 363.200,150.467 363.200 C 150.723 363.200,150.818 363.316,150.676 363.457 C 150.535 363.598,150.136 363.479,149.791 363.192 C 149.290 362.776,149.267 362.604,149.681 362.341 C 150.086 362.084,150.068 362.010,149.600 362.000 C 149.067 361.989,149.067 361.945,149.600 361.600 C 150.358 361.110,150.422 361.110,150.300 361.600 M163.048 364.620 C 162.920 364.954,163.046 365.080,163.380 364.952 C 163.676 364.839,164.027 364.921,164.160 365.135 C 164.292 365.350,164.806 365.450,165.300 365.358 C 165.804 365.265,165.936 365.307,165.600 365.454 C 165.270 365.599,164.848 365.976,164.661 366.292 C 164.382 366.766,164.173 366.707,163.474 365.957 C 162.576 364.993,162.081 363.355,162.826 363.816 C 163.062 363.962,163.161 364.324,163.048 364.620 M237.113 365.386 C 236.851 365.614,236.432 366.051,236.181 366.359 C 235.814 366.808,235.745 366.729,235.829 365.959 C 235.886 365.431,235.948 364.994,235.967 364.986 C 236.547 364.737,237.483 365.064,237.113 365.386 M237.948 366.662 C 237.707 366.953,237.347 367.091,237.148 366.968 C 236.645 366.657,237.039 366.133,237.776 366.133 C 238.238 366.133,238.280 366.263,237.948 366.662 M171.600 368.043 C 171.600 368.239,171.360 368.400,171.067 368.400 C 170.773 368.400,170.533 368.147,170.533 367.838 C 170.533 367.529,170.773 367.368,171.067 367.481 C 171.360 367.593,171.600 367.846,171.600 368.043 " stroke="none" fill="#bac3cc" fill-rule="evenodd"></path><path id="path4" d="M164.832 31.900 C 164.606 32.289,164.419 32.378,164.412 32.100 C 164.393 31.308,162.200 31.516,161.414 32.384 C 160.946 32.902,160.765 33.582,160.883 34.384 L 161.061 35.600 154.531 35.600 C 150.939 35.600,148.000 35.758,148.000 35.950 C 148.000 36.143,147.452 36.410,146.782 36.544 C 145.874 36.725,145.415 37.144,144.977 38.194 C 144.427 39.509,143.782 39.829,141.988 39.677 C 141.872 39.667,141.930 40.771,142.117 42.129 C 142.304 43.488,142.603 96.350,142.781 159.600 C 142.958 222.850,143.217 283.600,143.356 294.600 C 143.494 305.600,143.612 324.545,143.616 336.700 C 143.621 348.855,143.763 358.800,143.933 358.800 C 144.102 358.800,144.482 358.575,144.779 358.300 C 145.213 357.897,145.258 357.905,145.011 358.338 C 144.794 358.721,144.921 358.835,145.452 358.733 C 145.873 358.652,146.199 358.253,146.199 357.816 C 146.200 357.255,146.500 357.027,147.298 356.983 C 148.150 356.937,148.300 357.039,147.968 357.438 C 147.734 357.721,147.323 357.869,147.056 357.766 C 146.775 357.658,146.571 357.920,146.571 358.390 C 146.571 359.313,147.513 359.491,147.843 358.631 C 147.964 358.318,148.343 357.954,148.688 357.822 C 149.186 357.631,149.219 357.696,148.848 358.142 C 148.479 358.587,148.550 358.746,149.192 358.914 C 149.636 359.030,150.000 359.412,150.000 359.763 C 150.000 360.375,150.434 360.568,151.500 360.430 C 151.775 360.394,152.000 360.553,152.000 360.782 C 152.000 361.012,152.163 361.200,152.363 361.200 C 152.562 361.200,152.631 360.842,152.517 360.404 C 152.403 359.967,152.150 359.708,151.955 359.828 C 151.760 359.949,151.600 359.878,151.600 359.670 C 151.600 359.463,152.005 359.182,152.500 359.047 C 153.180 358.860,153.269 358.716,152.866 358.456 C 152.399 358.154,153.002 357.600,153.797 357.600 C 154.025 357.600,153.770 358.763,153.478 359.055 C 153.325 359.208,153.200 359.731,153.200 360.218 C 153.200 360.704,152.929 361.327,152.598 361.602 C 152.067 362.042,152.090 362.184,152.783 362.785 C 153.383 363.305,153.460 363.580,153.106 363.934 C 152.751 364.289,152.755 364.400,153.120 364.400 C 153.384 364.400,153.600 364.220,153.600 364.000 C 153.600 363.227,153.671 362.996,154.053 362.536 C 154.303 362.235,154.291 361.980,154.019 361.812 C 153.459 361.466,153.480 359.200,154.043 359.200 C 154.286 359.200,154.382 358.930,154.255 358.600 C 154.129 358.270,154.194 358.000,154.400 358.000 C 154.606 358.000,154.674 357.685,154.550 357.300 C 154.360 356.709,154.392 356.694,154.756 357.200 C 154.994 357.530,155.191 357.643,155.194 357.451 C 155.197 357.259,155.454 357.313,155.764 357.570 C 156.391 358.091,157.032 357.500,156.600 356.800 C 156.464 356.580,156.710 356.400,157.146 356.400 C 157.582 356.400,158.478 355.860,159.138 355.200 C 160.177 354.161,160.631 354.000,162.510 354.000 C 164.603 354.000,164.747 353.928,166.523 352.000 C 168.318 350.052,168.424 350.000,170.634 350.000 C 172.835 350.000,172.967 349.937,175.024 347.900 C 182.017 340.977,181.167 341.599,183.637 341.600 C 185.831 341.600,185.908 341.561,187.561 339.600 C 189.231 337.619,189.270 337.600,191.593 337.600 L 193.938 337.600 195.818 335.400 L 197.697 333.200 200.230 333.200 C 202.513 333.200,202.833 333.097,203.481 332.151 C 205.256 329.562,205.840 329.200,208.241 329.200 C 210.488 329.200,210.546 329.171,212.559 326.997 C 214.571 324.825,214.632 324.794,216.863 324.797 C 219.089 324.800,219.152 324.768,220.800 322.800 C 222.447 320.833,222.512 320.800,224.737 320.800 C 227.217 320.801,227.032 320.937,233.340 314.497 C 235.358 312.437,235.448 312.394,237.717 312.397 C 239.987 312.400,240.072 312.359,241.877 310.400 C 243.656 308.469,243.794 308.400,245.906 308.400 C 247.856 308.400,248.206 308.266,249.146 307.162 C 251.834 304.005,251.841 304.000,254.123 304.000 L 256.283 304.000 256.566 274.500 C 256.722 258.275,257.017 229.970,257.221 211.600 C 257.426 193.230,257.696 148.680,257.822 112.600 C 257.959 73.679,258.207 46.268,258.432 45.200 C 258.641 44.210,258.888 42.545,258.980 41.500 L 259.149 39.600 257.380 39.600 C 255.735 39.600,255.570 39.502,255.023 38.194 C 254.585 37.144,254.126 36.725,253.218 36.544 C 252.548 36.410,252.000 36.143,252.000 35.950 C 252.000 35.758,249.120 35.600,245.600 35.600 L 239.200 35.600 239.200 34.262 C 239.200 31.198,241.940 31.412,201.378 31.300 C 167.324 31.206,165.216 31.241,164.832 31.900 M162.829 33.704 C 162.313 34.197,162.008 34.387,162.151 34.128 C 162.295 33.868,162.227 33.540,162.000 33.400 C 161.773 33.260,161.696 32.968,161.829 32.753 C 161.979 32.511,162.315 32.560,162.711 32.881 C 163.266 33.332,163.310 33.295,163.051 32.600 C 162.810 31.954,162.851 31.897,163.261 32.304 C 163.671 32.712,163.588 32.981,162.829 33.704 M356.400 134.062 C 356.400 134.813,357.498 135.835,357.887 135.446 C 358.035 135.298,357.761 134.783,357.278 134.300 C 356.572 133.595,356.400 133.548,356.400 134.062 M157.600 356.953 C 157.600 357.308,159.218 357.494,159.423 357.162 C 159.546 356.963,159.187 356.800,158.624 356.800 C 158.061 356.800,157.600 356.869,157.600 356.953 M158.223 358.167 C 159.061 358.780,159.440 358.713,159.016 358.027 C 158.871 357.792,158.459 357.600,158.100 357.600 C 157.554 357.600,157.574 357.693,158.223 358.167 M143.900 359.245 C 142.869 359.827,143.049 360.374,144.203 360.165 C 144.754 360.065,145.183 360.122,145.155 360.292 C 144.928 361.687,146.351 363.197,147.900 363.206 C 148.669 363.210,148.837 363.316,148.457 363.556 C 148.124 363.768,148.069 363.995,148.315 364.148 C 148.536 364.284,148.816 364.135,148.938 363.818 C 149.076 363.457,148.680 362.941,147.880 362.443 C 146.390 361.514,145.453 360.162,145.852 359.516 C 146.033 359.223,145.906 359.151,145.491 359.310 C 145.140 359.445,144.795 359.396,144.726 359.202 C 144.656 359.007,144.287 359.026,143.900 359.245 M252.842 361.824 C 251.918 362.760,251.684 363.200,252.109 363.200 C 253.275 363.200,254.028 362.707,254.625 361.552 C 255.464 359.929,254.580 360.064,252.842 361.824 M149.600 361.600 C 149.067 361.945,149.067 361.989,149.600 362.000 C 150.068 362.010,150.086 362.084,149.681 362.341 C 149.267 362.604,149.290 362.776,149.791 363.192 C 150.136 363.479,150.535 363.598,150.676 363.457 C 150.818 363.316,150.723 363.200,150.467 363.200 C 150.210 363.200,150.000 363.014,150.000 362.786 C 150.000 362.500,150.240 362.500,150.774 362.786 C 151.845 363.359,151.900 363.331,151.900 362.200 C 151.900 361.618,151.670 361.200,151.350 361.200 C 151.047 361.200,150.845 361.335,150.900 361.500 C 150.955 361.665,150.820 361.845,150.600 361.900 C 150.380 361.955,150.245 361.820,150.300 361.600 C 150.422 361.110,150.358 361.110,149.600 361.600 M160.000 363.601 C 160.000 363.795,160.180 364.064,160.400 364.200 C 160.620 364.336,160.800 364.977,160.800 365.624 C 160.800 367.754,165.854 369.906,167.348 368.412 C 167.876 367.884,168.525 367.875,168.200 368.400 C 168.064 368.620,168.323 368.800,168.776 368.800 C 169.229 368.800,169.600 368.609,169.600 368.376 C 169.600 368.143,169.392 368.082,169.137 368.239 C 168.816 368.438,168.748 368.244,168.915 367.605 C 169.095 366.914,169.041 366.799,168.698 367.142 C 168.038 367.802,167.474 367.705,167.753 366.979 C 167.898 366.601,167.825 366.461,167.568 366.620 C 167.336 366.763,167.235 367.115,167.345 367.401 C 167.776 368.524,167.023 368.340,166.546 367.207 C 165.943 365.773,165.310 365.661,164.812 366.900 C 164.613 367.395,164.439 367.643,164.425 367.451 C 164.411 367.259,164.126 367.330,163.791 367.608 C 163.289 368.024,163.221 368.010,163.405 367.531 C 163.707 366.745,162.197 365.358,161.778 366.036 C 161.597 366.328,161.643 366.421,161.893 366.266 C 162.122 366.125,162.518 366.261,162.774 366.569 C 163.100 366.962,163.111 367.208,162.810 367.394 C 162.573 367.540,162.430 367.429,162.490 367.148 C 162.551 366.867,162.390 366.628,162.133 366.618 C 161.315 366.586,161.070 366.039,161.592 365.410 C 161.908 365.028,161.938 364.800,161.672 364.800 C 161.438 364.800,161.308 364.477,161.384 364.082 C 161.476 363.608,161.264 363.345,160.761 363.307 C 160.343 363.276,160.000 363.408,160.000 363.601 M151.200 364.000 C 150.715 364.314,150.772 364.389,151.500 364.394 C 151.995 364.397,152.400 364.220,152.400 364.000 C 152.400 363.499,151.976 363.499,151.200 364.000 M155.400 364.000 L 154.200 364.305 155.276 364.353 C 155.868 364.379,156.464 364.220,156.600 364.000 C 156.736 363.780,156.792 363.621,156.724 363.647 C 156.656 363.673,156.060 363.832,155.400 364.000 M162.512 364.299 C 162.702 365.548,164.253 366.986,164.661 366.292 C 164.848 365.976,165.270 365.599,165.600 365.454 C 165.936 365.307,165.804 365.265,165.300 365.358 C 164.806 365.450,164.292 365.350,164.160 365.135 C 164.027 364.921,163.676 364.839,163.380 364.952 C 163.046 365.080,162.920 364.954,163.048 364.620 C 163.161 364.324,163.062 363.962,162.826 363.816 C 162.569 363.657,162.443 363.850,162.512 364.299 M238.754 364.700 C 238.729 364.865,238.738 365.307,238.776 365.681 C 238.824 366.165,238.608 366.317,238.030 366.206 C 237.097 366.026,236.557 366.603,237.255 367.034 C 237.520 367.198,237.617 367.151,237.479 366.928 C 237.345 366.711,237.494 366.533,237.811 366.533 C 238.232 366.533,238.274 366.670,237.964 367.043 C 237.732 367.323,237.255 367.443,236.905 367.308 C 236.483 367.146,236.366 367.222,236.558 367.532 C 236.914 368.108,236.587 368.128,235.583 367.591 C 234.966 367.261,234.863 367.299,235.052 367.791 C 235.744 369.594,239.200 367.769,239.200 365.600 C 239.200 364.544,238.878 363.894,238.754 364.700 M235.967 364.986 C 235.948 364.994,235.886 365.431,235.829 365.959 C 235.745 366.729,235.814 366.808,236.181 366.359 C 236.432 366.051,236.851 365.614,237.113 365.386 C 237.483 365.064,236.547 364.737,235.967 364.986 M165.881 366.653 C 165.742 366.792,165.808 367.242,166.028 367.653 C 166.425 368.393,165.703 368.770,165.081 368.147 C 164.803 367.870,165.476 366.400,165.881 366.400 C 166.020 366.400,166.020 366.514,165.881 366.653 M170.533 367.838 C 170.533 368.147,170.669 368.400,170.834 368.400 C 170.999 368.400,171.419 368.509,171.767 368.643 C 172.121 368.779,172.400 368.680,172.400 368.419 C 172.400 368.163,172.220 368.064,172.000 368.200 C 171.780 368.336,171.600 368.276,171.600 368.066 C 171.600 367.857,171.360 367.593,171.067 367.481 C 170.773 367.368,170.533 367.529,170.533 367.838 M177.000 368.417 C 176.337 368.688,176.418 368.749,177.476 368.772 C 178.178 368.787,178.841 368.657,178.949 368.483 C 179.213 368.055,177.989 368.013,177.000 368.417 M184.722 368.530 C 185.350 368.811,185.761 368.799,186.068 368.492 C 186.390 368.170,186.146 368.061,185.164 368.089 C 183.918 368.124,183.885 368.157,184.722 368.530 M221.377 368.438 C 221.254 368.637,221.613 368.800,222.176 368.800 C 223.402 368.800,223.501 368.572,222.400 368.284 C 221.961 368.169,221.500 368.238,221.377 368.438 M193.105 368.683 C 193.602 368.779,194.322 368.775,194.705 368.675 C 195.087 368.575,194.680 368.496,193.800 368.501 C 192.920 368.505,192.607 368.587,193.105 368.683 M205.505 368.683 C 206.002 368.779,206.722 368.775,207.105 368.675 C 207.487 368.575,207.080 368.496,206.200 368.501 C 205.320 368.505,205.007 368.587,205.505 368.683 " stroke="none" fill="#c4ccd5" fill-rule="evenodd"></path></g></svg>