<svg id="svg" version="1.1" xmlns="http://www.w3.org/2000/svg" xmlns:xlink="http://www.w3.org/1999/xlink" width="400" height="400" viewBox="0, 0, 400,400"><g id="svgg"><path id="path0" d="M356.072 266.334 L 356.000 267.668 353.300 267.405 C 349.586 267.043,53.090 266.518,50.600 266.869 C 46.787 267.407,44.869 267.471,44.174 267.082 C 43.527 266.719,43.495 266.920,43.741 269.845 C 44.168 274.929,44.559 275.904,46.369 276.392 L 47.907 276.806 48.074 279.303 C 48.291 282.546,49.051 284.097,50.656 284.570 C 51.803 284.909,51.928 285.111,52.101 286.913 C 52.316 289.149,52.772 289.585,54.900 289.594 L 56.400 289.600 56.400 293.151 C 56.400 297.087,56.598 297.458,58.802 297.667 C 60.164 297.797,60.205 297.852,60.400 299.800 L 60.600 301.800 62.647 301.919 L 64.694 302.038 64.905 304.667 C 65.139 307.582,66.052 309.235,67.636 309.608 C 68.405 309.790,68.682 310.220,69.004 311.735 C 69.457 313.864,70.020 314.385,71.878 314.394 C 73.118 314.400,73.160 314.457,73.278 316.298 L 73.400 318.196 75.300 318.541 C 77.116 318.871,77.200 318.945,77.200 320.215 C 77.200 321.904,78.096 322.800,79.785 322.800 C 81.055 322.800,81.129 322.884,81.459 324.700 L 81.804 326.600 83.702 326.722 C 85.552 326.841,85.600 326.877,85.600 328.145 C 85.600 329.945,86.300 330.683,88.384 331.080 C 89.797 331.348,90.215 331.618,90.394 332.373 C 90.766 333.952,92.423 334.862,95.352 335.097 L 98.000 335.310 98.000 336.975 C 98.000 339.026,98.533 339.600,100.437 339.600 C 102.032 339.600,102.400 340.049,102.400 341.990 C 102.400 343.427,102.898 343.600,107.033 343.600 L 110.400 343.600 110.406 345.100 C 110.415 347.228,110.851 347.684,113.087 347.899 C 114.889 348.072,115.091 348.197,115.430 349.344 C 115.901 350.943,117.453 351.709,120.656 351.923 L 123.112 352.088 123.363 353.656 C 123.676 355.615,124.203 355.837,129.441 356.208 C 133.715 356.511,135.600 357.408,135.600 359.138 C 135.600 360.208,136.325 360.400,140.369 360.400 L 143.873 360.400 144.348 361.984 C 144.985 364.110,146.136 364.395,154.095 364.398 L 160.391 364.400 160.645 365.992 C 161.092 368.784,158.315 368.600,200.000 368.600 C 240.751 368.600,239.200 368.680,239.200 366.584 C 239.200 364.403,239.207 364.400,245.943 364.398 C 253.863 364.395,255.016 364.108,255.652 361.984 L 256.127 360.400 259.631 360.400 C 263.693 360.400,264.400 360.209,264.400 359.115 C 264.400 357.468,266.258 356.631,270.952 356.164 C 275.660 355.695,276.800 355.081,276.800 353.013 C 276.800 352.182,277.025 352.098,279.826 351.887 C 283.281 351.625,284.589 350.957,284.924 349.281 C 285.135 348.227,285.346 348.088,287.029 347.898 C 289.167 347.657,289.585 347.201,289.594 345.100 L 289.600 343.600 292.967 343.600 C 297.102 343.600,297.600 343.427,297.600 341.990 C 297.600 340.049,297.968 339.600,299.563 339.600 C 301.478 339.600,302.000 339.026,302.000 336.920 L 302.000 335.200 303.725 335.200 C 306.056 335.200,308.778 333.843,309.318 332.412 C 309.676 331.462,310.022 331.256,311.547 331.085 C 313.631 330.850,314.400 330.051,314.400 328.124 C 314.400 326.820,314.428 326.800,316.213 326.800 C 318.138 326.800,318.179 326.758,318.587 324.300 C 318.823 322.877,318.914 322.800,320.338 322.800 C 321.164 322.800,322.056 322.584,322.320 322.320 C 322.584 322.056,322.800 321.164,322.800 320.338 C 322.800 318.914,322.877 318.823,324.300 318.587 C 326.758 318.179,326.800 318.138,326.800 316.213 C 326.800 314.457,326.838 314.400,328.026 314.400 C 330.072 314.400,330.748 313.784,331.029 311.665 C 331.246 310.032,331.453 309.680,332.410 309.319 C 333.843 308.778,335.200 306.057,335.200 303.725 L 335.200 302.000 336.920 302.000 C 339.081 302.000,339.600 301.481,339.600 299.320 L 339.600 297.600 341.186 297.600 C 343.257 297.600,343.600 296.922,343.600 292.826 L 343.600 289.600 345.100 289.594 C 347.193 289.585,347.609 289.201,347.926 286.986 C 348.177 285.229,348.322 285.019,349.492 284.716 C 351.169 284.281,351.620 283.358,351.889 279.798 L 352.110 276.868 353.415 276.624 C 355.549 276.223,356.710 272.348,356.298 266.999 C 356.197 265.692,356.119 265.462,356.072 266.334 " stroke="none" fill="#fcd404" fill-rule="evenodd"></path><path id="path1" d="M163.466 31.467 C 163.328 31.606,162.716 31.737,162.107 31.760 C 161.116 31.796,160.962 31.996,160.637 33.676 L 160.275 35.552 152.901 35.676 C 144.814 35.812,144.000 36.083,144.000 38.644 C 144.000 39.517,139.656 40.114,136.700 39.647 C 136.361 39.594,135.384 40.382,133.363 42.339 C 132.055 43.606,131.794 43.688,128.490 43.867 C 124.153 44.101,123.052 44.686,123.280 46.635 C 123.438 47.988,123.425 48.000,121.820 48.015 C 117.390 48.056,115.757 48.680,115.286 50.509 C 114.982 51.690,114.802 51.811,113.185 51.928 C 110.862 52.095,110.400 52.546,110.400 54.649 L 110.400 56.400 107.500 56.439 C 102.964 56.501,102.603 56.556,102.552 57.200 C 102.339 59.864,101.963 60.356,100.054 60.480 L 98.200 60.600 98.080 62.454 L 97.960 64.309 94.950 64.756 C 91.162 65.320,90.496 65.683,90.181 67.358 C 89.944 68.623,89.807 68.723,87.969 68.966 C 85.916 69.239,85.806 69.375,85.512 72.000 C 85.414 72.871,85.179 73.016,83.681 73.124 C 81.848 73.256,81.200 74.066,81.200 76.226 C 81.200 77.197,80.750 77.413,79.047 77.259 C 78.001 77.164,77.174 77.947,77.256 78.954 C 77.404 80.774,77.209 81.200,76.226 81.200 C 74.066 81.200,73.256 81.848,73.124 83.681 C 73.016 85.179,72.871 85.414,72.000 85.512 C 69.375 85.806,69.239 85.916,68.966 87.969 C 68.723 89.807,68.623 89.944,67.358 90.181 C 65.683 90.496,65.320 91.162,64.756 94.950 L 64.309 97.960 62.454 98.080 L 60.600 98.200 60.478 100.098 C 60.350 102.088,59.484 102.759,57.444 102.447 C 56.887 102.361,56.754 102.504,56.939 102.986 C 57.097 103.398,57.031 103.543,56.761 103.376 C 56.494 103.211,56.361 103.469,56.410 104.055 C 56.453 104.575,56.469 106.215,56.444 107.700 L 56.400 110.400 54.649 110.400 C 52.546 110.400,52.095 110.862,51.928 113.185 C 51.811 114.802,51.690 114.982,50.509 115.286 C 48.831 115.718,48.381 116.641,48.111 120.202 L 47.890 123.132 46.585 123.376 C 45.034 123.667,44.589 124.148,44.203 125.950 C 43.972 127.030,44.023 127.235,44.457 126.973 C 44.911 126.700,44.910 126.757,44.454 127.319 C 44.154 127.689,43.839 129.209,43.753 130.696 C 43.667 132.183,43.703 133.175,43.832 132.900 C 44.105 132.318,47.026 132.250,49.400 132.770 C 51.463 133.222,346.902 133.459,352.108 133.013 C 356.713 132.618,356.657 132.693,356.049 127.791 C 355.625 124.377,354.847 123.200,353.013 123.200 C 352.182 123.200,352.098 122.975,351.887 120.174 C 351.623 116.690,350.957 115.411,349.227 115.065 C 348.085 114.837,348.000 114.701,348.000 113.090 C 348.000 110.918,347.483 110.400,345.320 110.400 L 343.600 110.400 343.600 107.033 C 343.600 102.820,343.443 102.402,341.857 102.394 C 340.041 102.385,339.670 102.003,339.528 99.993 L 339.400 98.200 337.561 98.081 L 335.721 97.961 335.221 95.081 C 334.617 91.604,334.013 90.554,332.414 90.203 C 331.434 89.988,331.199 89.731,331.194 88.868 C 331.183 86.891,330.329 85.819,328.590 85.600 C 327.039 85.405,326.995 85.355,326.800 83.600 C 326.601 81.812,326.587 81.798,324.700 81.433 C 322.849 81.075,322.800 81.028,322.800 79.613 C 322.800 77.780,322.220 77.200,320.387 77.200 C 318.972 77.200,318.925 77.151,318.567 75.300 C 318.202 73.413,318.188 73.399,316.400 73.200 C 314.627 73.003,314.597 72.975,314.374 71.307 C 314.093 69.203,314.039 69.151,311.841 68.903 C 310.246 68.724,310.013 68.569,309.786 67.537 C 309.486 66.170,307.937 65.019,306.799 65.316 C 306.360 65.431,306.000 65.379,306.000 65.200 C 306.000 65.021,305.109 64.753,304.020 64.603 L 302.041 64.331 301.920 62.465 L 301.800 60.600 299.940 60.480 L 298.079 60.359 297.737 58.480 L 297.394 56.600 293.497 56.486 L 289.600 56.371 289.600 54.666 C 289.600 52.528,289.078 52.000,286.965 52.000 C 285.376 52.000,285.276 51.930,285.034 50.640 C 284.669 48.697,284.096 48.396,280.239 48.124 L 276.800 47.881 276.800 46.550 C 276.800 44.696,275.720 44.145,271.450 43.820 C 268.169 43.571,267.800 43.453,266.589 42.275 C 263.721 39.484,264.012 39.600,259.866 39.600 C 256.057 39.600,256.000 39.586,256.000 38.644 C 256.000 36.083,255.186 35.812,247.099 35.676 L 239.725 35.552 239.363 33.680 C 239.017 31.896,238.926 31.796,237.400 31.526 C 235.421 31.175,163.814 31.119,163.466 31.467 M135.600 42.320 C 135.600 42.841,134.685 43.600,134.058 43.600 C 133.596 43.600,133.625 43.435,134.200 42.800 C 134.944 41.978,135.600 41.753,135.600 42.320 M265.800 42.800 C 266.375 43.435,266.404 43.600,265.942 43.600 C 265.315 43.600,264.400 42.841,264.400 42.320 C 264.400 41.753,265.056 41.978,265.800 42.800 M367.670 238.453 C 367.158 239.084,366.933 239.600,367.170 239.600 C 367.406 239.600,367.600 239.409,367.600 239.176 C 367.600 238.943,367.825 238.882,368.100 239.041 C 368.375 239.199,368.467 239.181,368.303 239.001 C 368.140 238.821,368.211 238.428,368.460 238.127 C 368.710 237.827,368.843 237.519,368.757 237.443 C 368.671 237.367,368.181 237.822,367.670 238.453 M362.983 254.827 C 362.838 255.062,362.467 255.158,362.160 255.040 C 361.269 254.698,361.512 255.126,362.500 255.640 C 362.995 255.898,363.267 255.966,363.103 255.791 C 362.940 255.616,363.007 255.232,363.252 254.937 C 363.497 254.642,363.597 254.400,363.473 254.400 C 363.349 254.400,363.128 254.592,362.983 254.827 " stroke="none" fill="#595959" fill-rule="evenodd"></path><path id="path2" d="M353.000 133.246 C 352.120 133.407,350.590 133.891,349.600 134.321 C 347.848 135.083,347.130 135.095,322.800 134.763 C 229.129 133.487,191.549 133.202,124.000 133.258 C 82.683 133.292,53.604 133.455,57.000 133.634 C 62.529 133.925,112.853 134.474,189.700 135.081 C 206.805 135.216,220.800 135.477,220.800 135.661 C 220.800 135.845,220.069 136.525,219.175 137.172 C 218.281 137.820,217.031 139.066,216.397 139.941 C 215.763 140.816,214.867 141.652,214.407 141.798 C 213.947 141.944,213.128 142.764,212.587 143.620 C 212.047 144.477,211.095 145.441,210.473 145.762 C 209.850 146.084,208.860 147.074,208.272 147.963 C 207.684 148.851,206.666 149.856,206.008 150.196 C 205.351 150.535,204.529 151.363,204.182 152.035 C 203.835 152.707,202.925 153.625,202.161 154.076 C 201.396 154.527,200.502 155.415,200.174 156.050 C 199.846 156.684,198.851 157.684,197.963 158.272 C 197.074 158.860,196.084 159.850,195.762 160.473 C 195.441 161.095,194.477 162.047,193.620 162.587 C 192.764 163.128,191.944 163.947,191.798 164.407 C 191.652 164.867,190.816 165.763,189.941 166.397 C 189.066 167.031,187.831 168.266,187.197 169.141 C 186.563 170.016,185.667 170.852,185.207 170.998 C 184.747 171.144,183.928 171.964,183.387 172.820 C 182.847 173.677,181.881 174.648,181.241 174.979 C 180.601 175.310,179.691 176.206,179.218 176.970 C 178.746 177.734,177.734 178.746,176.970 179.218 C 176.206 179.691,175.310 180.601,174.979 181.241 C 174.648 181.881,173.677 182.847,172.820 183.387 C 171.964 183.928,171.144 184.747,170.998 185.207 C 170.852 185.667,170.016 186.563,169.141 187.197 C 168.266 187.831,167.031 189.066,166.397 189.941 C 165.763 190.816,164.867 191.652,164.407 191.798 C 163.947 191.944,163.128 192.764,162.587 193.620 C 162.047 194.477,161.095 195.441,160.473 195.762 C 159.850 196.084,158.860 197.074,158.272 197.963 C 157.684 198.851,156.666 199.856,156.008 200.196 C 155.351 200.535,154.529 201.363,154.182 202.035 C 153.835 202.707,152.937 203.618,152.188 204.060 C 151.439 204.502,150.451 205.470,149.993 206.212 C 149.535 206.953,148.534 207.946,147.770 208.418 C 147.006 208.891,146.110 209.801,145.779 210.441 C 145.448 211.081,144.477 212.047,143.620 212.587 C 142.764 213.128,141.944 213.947,141.798 214.407 C 141.652 214.867,140.816 215.763,139.941 216.397 C 139.066 217.031,137.831 218.266,137.197 219.141 C 136.563 220.016,135.667 220.852,135.207 220.998 C 134.747 221.144,133.928 221.964,133.387 222.820 C 132.847 223.677,131.881 224.648,131.241 224.979 C 130.601 225.310,129.691 226.206,129.218 226.970 C 128.746 227.734,127.734 228.746,126.970 229.218 C 126.206 229.691,125.310 230.601,124.979 231.241 C 124.648 231.881,123.677 232.847,122.820 233.387 C 121.964 233.928,121.144 234.747,120.998 235.207 C 120.852 235.667,120.016 236.563,119.141 237.197 C 118.266 237.831,117.031 239.066,116.397 239.941 C 115.763 240.816,114.867 241.652,114.407 241.798 C 113.947 241.944,113.128 242.764,112.587 243.620 C 112.047 244.477,111.095 245.441,110.473 245.762 C 109.850 246.084,108.860 247.074,108.272 247.963 C 107.684 248.851,106.666 249.856,106.008 250.196 C 105.351 250.535,104.529 251.363,104.182 252.035 C 103.835 252.707,102.937 253.618,102.188 254.060 C 101.439 254.502,100.451 255.470,99.993 256.212 C 99.535 256.953,98.534 257.946,97.770 258.418 C 97.006 258.891,96.110 259.801,95.779 260.441 C 95.448 261.081,94.462 262.056,93.589 262.607 C 92.715 263.159,92.000 263.843,92.000 264.129 C 92.000 264.684,142.024 265.210,269.800 266.000 C 302.360 266.201,334.760 266.402,341.800 266.446 C 349.170 266.493,354.810 266.689,355.095 266.909 C 356.033 267.631,356.339 265.647,355.803 262.332 C 355.636 261.304,355.625 259.459,355.779 258.232 L 356.058 256.000 358.029 256.000 C 360.402 256.000,360.218 256.847,359.803 247.854 C 359.698 245.586,359.792 243.588,360.024 243.154 C 360.475 242.313,362.740 242.100,363.470 242.830 C 364.129 243.489,364.431 240.365,364.092 236.400 C 363.711 231.940,363.733 224.696,364.136 222.277 C 364.456 220.352,365.810 219.088,366.459 220.108 C 366.604 220.335,366.805 220.180,366.913 219.758 C 367.074 219.130,367.115 219.158,367.154 219.924 C 367.183 220.514,367.367 220.744,367.663 220.561 C 367.982 220.364,368.054 220.550,367.894 221.160 C 367.749 221.715,367.828 221.991,368.106 221.898 C 368.829 221.657,368.879 220.936,368.218 220.275 C 367.538 219.596,367.381 219.018,367.976 219.385 C 368.182 219.513,368.360 219.298,368.370 218.909 C 368.630 209.019,368.654 202.681,368.424 204.400 C 368.235 205.815,368.101 206.172,368.049 205.400 L 367.968 204.200 367.342 205.356 C 366.856 206.252,366.637 206.387,366.364 205.956 C 366.111 205.557,366.011 205.541,366.006 205.900 C 366.003 206.175,365.820 206.400,365.600 206.400 C 365.380 206.400,365.200 206.004,365.200 205.520 C 365.200 204.278,364.714 204.982,363.487 208.000 C 362.075 211.476,361.187 226.392,362.074 231.738 C 362.904 236.746,362.913 236.692,361.131 237.478 C 359.128 238.362,358.053 240.311,357.942 243.262 C 357.806 246.877,358.098 251.600,358.458 251.600 C 359.422 251.600,358.593 252.391,357.136 252.862 C 354.396 253.747,353.856 254.875,353.903 259.610 C 353.938 263.059,353.846 263.679,353.272 263.866 C 352.902 263.987,351.982 264.361,351.226 264.697 C 349.810 265.327,251.145 265.097,247.585 264.455 L 246.171 264.200 301.285 209.090 L 356.400 153.980 356.426 157.090 C 356.473 162.841,356.884 163.944,359.000 163.993 C 360.673 164.033,360.722 164.288,360.952 174.002 C 361.144 182.175,361.450 186.202,362.238 190.947 C 362.842 194.591,365.685 196.878,367.878 195.484 C 368.237 195.256,368.316 195.903,368.198 198.090 C 368.055 200.733,368.072 200.817,368.385 199.000 C 369.139 194.626,368.781 180.756,367.949 182.069 C 367.672 182.506,367.611 182.503,367.606 182.054 C 367.601 181.599,367.450 181.603,366.700 182.076 C 363.890 183.847,361.878 174.732,363.311 166.723 C 364.168 161.931,364.499 158.893,364.108 159.400 C 363.761 159.851,363.103 160.043,361.498 160.163 C 359.268 160.331,357.815 154.266,359.064 150.000 C 359.921 147.074,359.842 146.893,357.399 146.182 C 356.188 145.830,355.033 145.236,354.833 144.862 C 354.384 144.024,354.084 136.399,354.500 136.400 C 354.665 136.400,354.800 136.209,354.800 135.976 C 354.800 135.743,354.632 135.656,354.428 135.783 C 354.223 135.909,353.958 135.856,353.840 135.664 C 353.721 135.473,354.114 135.335,354.712 135.358 C 355.601 135.392,355.822 135.209,355.922 134.352 C 356.067 133.097,355.333 132.819,353.000 133.246 " stroke="none" fill="#ec3744" fill-rule="evenodd"></path><path id="path3" d="M356.000 132.371 C 356.000 132.575,355.685 132.824,355.300 132.924 C 354.773 133.062,354.823 133.119,355.500 133.154 C 356.054 133.182,356.400 132.969,356.400 132.600 C 356.400 132.270,356.310 132.000,356.200 132.000 C 356.090 132.000,356.000 132.167,356.000 132.371 M349.000 133.258 C 347.827 133.471,318.950 133.551,279.200 133.452 L 211.400 133.283 252.400 133.821 C 274.950 134.116,305.640 134.525,320.600 134.729 C 347.125 135.091,347.845 135.081,349.600 134.320 C 350.590 133.890,352.120 133.393,353.000 133.213 L 354.600 132.888 352.800 132.891 C 351.810 132.893,350.100 133.058,349.000 133.258 M301.135 209.233 L 246.069 264.316 248.135 264.545 C 253.790 265.170,349.841 265.313,351.224 264.698 C 351.981 264.361,352.902 263.987,353.272 263.866 C 353.846 263.679,353.938 263.059,353.903 259.610 C 353.856 254.875,354.396 253.747,357.136 252.862 C 358.593 252.391,359.422 251.600,358.458 251.600 C 358.098 251.600,357.806 246.877,357.942 243.262 C 358.053 240.311,359.128 238.362,361.131 237.478 C 362.913 236.692,362.904 236.746,362.074 231.738 C 361.187 226.392,362.075 211.476,363.487 208.000 C 364.714 204.982,365.200 204.278,365.200 205.520 C 365.200 206.004,365.380 206.400,365.600 206.400 C 365.820 206.400,366.003 206.175,366.006 205.900 C 366.011 205.541,366.111 205.557,366.364 205.956 C 366.637 206.387,366.856 206.252,367.342 205.356 L 367.968 204.200 368.043 205.400 C 368.153 207.168,368.716 202.173,368.697 199.600 L 368.680 197.400 368.367 199.200 C 368.116 200.645,368.084 200.426,368.205 198.090 C 368.318 195.904,368.236 195.256,367.878 195.484 C 365.685 196.878,362.842 194.591,362.238 190.947 C 361.450 186.202,361.144 182.175,360.952 174.002 C 360.722 164.288,360.673 164.033,359.000 163.993 C 357.057 163.948,356.632 163.049,356.489 158.691 C 356.415 156.441,356.320 154.499,356.277 154.375 C 356.235 154.251,331.421 178.937,301.135 209.233 M334.432 306.918 C 334.414 307.313,333.940 308.097,333.377 308.659 C 332.815 309.222,332.579 309.607,332.853 309.516 C 333.653 309.249,334.914 307.333,334.679 306.741 C 334.533 306.376,334.453 306.433,334.432 306.918 M309.056 332.999 C 308.922 333.348,308.225 333.889,307.506 334.201 C 306.788 334.513,306.505 334.776,306.878 334.784 C 307.674 334.803,309.916 332.984,309.549 332.617 C 309.412 332.479,309.189 332.651,309.056 332.999 " stroke="none" fill="#e42834" fill-rule="evenodd"></path><path id="path4" d="M134.200 42.800 C 133.625 43.435,133.596 43.600,134.058 43.600 C 134.685 43.600,135.600 42.841,135.600 42.320 C 135.600 41.753,134.944 41.978,134.200 42.800 M264.400 42.320 C 264.400 42.841,265.315 43.600,265.942 43.600 C 266.404 43.600,266.375 43.435,265.800 42.800 C 265.056 41.978,264.400 41.753,264.400 42.320 M43.863 132.980 C 43.718 133.357,43.600 134.101,43.600 134.633 C 43.600 135.490,43.423 135.600,42.043 135.600 C 39.908 135.600,39.719 136.019,39.646 140.900 L 39.600 144.000 38.476 144.000 C 35.788 144.000,35.661 144.464,35.624 154.445 L 35.600 160.689 34.699 160.517 C 33.210 160.232,31.615 161.038,31.797 161.983 C 31.883 162.432,31.787 162.800,31.582 162.800 C 31.199 162.800,31.217 236.054,31.600 237.199 C 31.710 237.528,32.070 238.023,32.400 238.300 C 32.914 238.730,32.890 238.763,32.234 238.533 C 31.680 238.338,31.555 238.403,31.780 238.767 C 31.950 239.043,32.430 239.181,32.845 239.072 C 33.260 238.964,33.600 239.059,33.600 239.284 C 33.600 239.509,34.050 239.607,34.600 239.502 L 35.600 239.311 35.600 245.632 C 35.600 249.414,35.761 252.052,36.000 252.200 C 36.220 252.336,36.397 252.662,36.394 252.924 C 36.390 253.210,36.233 253.161,36.000 252.800 C 35.689 252.319,35.611 252.387,35.606 253.143 C 35.602 253.854,35.761 254.024,36.257 253.834 C 36.823 253.616,36.839 253.671,36.372 254.234 C 35.908 254.793,35.940 254.967,36.592 255.443 C 37.559 256.151,38.954 256.191,38.567 255.500 C 38.413 255.225,38.574 255.270,38.923 255.600 C 39.393 256.043,39.580 257.088,39.638 259.599 C 39.734 263.721,40.082 264.400,42.096 264.400 C 43.495 264.400,43.600 264.483,43.600 265.580 C 43.600 267.512,44.661 267.707,50.600 266.869 C 53.090 266.518,349.586 267.043,353.300 267.405 C 355.865 267.655,356.761 267.318,355.538 266.562 C 355.225 266.368,355.185 266.457,355.415 266.838 C 355.680 267.278,355.629 267.305,355.177 266.964 C 354.794 266.674,350.305 266.500,341.800 266.446 C 334.760 266.402,302.360 266.201,269.800 266.000 C 142.024 265.210,92.000 264.684,92.000 264.129 C 92.000 263.843,92.715 263.159,93.589 262.607 C 94.462 262.056,95.448 261.081,95.779 260.441 C 96.110 259.801,97.006 258.891,97.770 258.418 C 98.534 257.946,99.535 256.953,99.993 256.212 C 100.451 255.470,101.439 254.502,102.188 254.060 C 102.937 253.618,103.835 252.707,104.182 252.035 C 104.529 251.363,105.351 250.535,106.008 250.196 C 106.666 249.856,107.684 248.851,108.272 247.963 C 108.860 247.074,109.850 246.084,110.473 245.762 C 111.095 245.441,112.047 244.477,112.587 243.620 C 113.128 242.764,113.947 241.944,114.407 241.798 C 114.867 241.652,115.763 240.816,116.397 239.941 C 117.031 239.066,118.266 237.831,119.141 237.197 C 120.016 236.563,120.852 235.667,120.998 235.207 C 121.144 234.747,121.964 233.928,122.820 233.387 C 123.677 232.847,124.648 231.881,124.979 231.241 C 125.310 230.601,126.206 229.691,126.970 229.218 C 127.734 228.746,128.746 227.734,129.218 226.970 C 129.691 226.206,130.601 225.310,131.241 224.979 C 131.881 224.648,132.847 223.677,133.387 222.820 C 133.928 221.964,134.747 221.144,135.207 220.998 C 135.667 220.852,136.563 220.016,137.197 219.141 C 137.831 218.266,139.066 217.031,139.941 216.397 C 140.816 215.763,141.652 214.867,141.798 214.407 C 141.944 213.947,142.764 213.128,143.620 212.587 C 144.477 212.047,145.448 211.081,145.779 210.441 C 146.110 209.801,147.006 208.891,147.770 208.418 C 148.534 207.946,149.546 206.934,150.018 206.170 C 150.491 205.406,151.413 204.504,152.067 204.165 C 152.721 203.827,153.625 202.925,154.076 202.161 C 154.527 201.396,155.415 200.502,156.050 200.174 C 156.684 199.846,157.684 198.851,158.272 197.963 C 158.860 197.074,159.850 196.084,160.473 195.762 C 161.095 195.441,162.047 194.477,162.587 193.620 C 163.128 192.764,163.947 191.944,164.407 191.798 C 164.867 191.652,165.763 190.816,166.397 189.941 C 167.031 189.066,168.266 187.831,169.141 187.197 C 170.016 186.563,170.852 185.667,170.998 185.207 C 171.144 184.747,171.964 183.928,172.820 183.387 C 173.677 182.847,174.648 181.881,174.979 181.241 C 175.310 180.601,176.206 179.691,176.970 179.218 C 177.734 178.746,178.746 177.734,179.218 176.970 C 179.691 176.206,180.601 175.310,181.241 174.979 C 181.881 174.648,182.847 173.677,183.387 172.820 C 183.928 171.964,184.747 171.144,185.207 170.998 C 185.667 170.852,186.563 170.016,187.197 169.141 C 187.831 168.266,189.066 167.031,189.941 166.397 C 190.816 165.763,191.652 164.867,191.798 164.407 C 191.944 163.947,192.764 163.128,193.620 162.587 C 194.477 162.047,195.441 161.095,195.762 160.473 C 196.084 159.850,197.074 158.860,197.963 158.272 C 198.851 157.684,199.846 156.684,200.174 156.050 C 200.502 155.415,201.396 154.527,202.161 154.076 C 202.925 153.625,203.835 152.707,204.182 152.035 C 204.529 151.363,205.351 150.535,206.008 150.196 C 206.666 149.856,207.684 148.851,208.272 147.963 C 208.860 147.074,209.850 146.084,210.473 145.762 C 211.095 145.441,212.047 144.477,212.587 143.620 C 213.128 142.764,213.947 141.944,214.407 141.798 C 214.867 141.652,215.763 140.816,216.397 139.941 C 217.031 139.066,218.281 137.820,219.175 137.172 C 221.885 135.209,221.824 135.200,206.100 135.204 C 198.015 135.206,174.210 135.021,153.200 134.792 C 132.190 134.563,100.766 134.224,83.369 134.039 C 59.915 133.790,51.505 133.577,50.833 133.218 C 49.205 132.346,44.172 132.175,43.863 132.980 M355.982 134.200 C 355.829 135.208,355.626 135.393,354.712 135.358 C 354.114 135.335,353.721 135.473,353.840 135.664 C 353.958 135.856,354.223 135.909,354.428 135.783 C 354.632 135.656,354.800 135.743,354.800 135.976 C 354.800 136.209,354.665 136.400,354.500 136.400 C 354.084 136.399,354.384 144.024,354.833 144.862 C 355.033 145.236,356.188 145.830,357.399 146.182 C 359.842 146.893,359.921 147.074,359.064 150.000 C 357.746 154.503,359.274 160.367,361.698 160.106 C 362.414 160.029,363.229 159.944,363.509 159.916 C 363.789 159.889,364.113 159.488,364.229 159.025 C 364.560 157.707,364.239 146.586,363.874 146.721 C 363.483 146.865,362.000 145.058,362.000 144.437 C 362.000 144.197,361.719 144.000,361.376 144.000 C 361.033 144.000,360.864 144.180,361.000 144.400 C 361.136 144.620,361.057 144.800,360.824 144.800 C 360.455 144.800,360.144 139.413,360.379 137.100 C 360.418 136.715,360.248 136.400,360.002 136.400 C 359.755 136.400,359.671 136.208,359.817 135.973 C 359.962 135.739,359.837 135.580,359.540 135.621 C 357.264 135.933,356.451 135.601,356.308 134.300 L 356.165 133.000 355.982 134.200 M362.652 144.716 C 362.362 145.186,363.502 146.231,363.886 145.847 C 364.032 145.701,363.869 145.298,363.524 144.952 C 363.149 144.578,362.796 144.482,362.652 144.716 M364.085 161.767 C 364.043 162.445,363.702 164.675,363.327 166.723 C 361.902 174.500,363.943 184.093,366.608 182.145 C 367.198 181.713,367.419 181.704,367.670 182.100 C 367.910 182.478,368.001 182.453,368.041 182.000 C 368.071 181.670,368.233 181.940,368.402 182.600 C 368.697 183.749,368.639 164.631,368.343 163.019 C 368.170 162.073,367.122 160.861,366.682 161.098 C 366.508 161.192,366.148 161.098,365.882 160.889 C 364.919 160.130,364.162 160.499,364.085 161.767 M368.353 217.500 C 368.327 218.105,368.339 218.843,368.379 219.140 C 368.420 219.437,368.261 219.562,368.027 219.417 C 367.397 219.028,367.508 219.565,368.200 220.257 C 368.733 220.790,368.800 220.610,368.800 218.629 C 368.800 216.376,368.440 215.468,368.353 217.500 M366.848 219.800 C 366.811 220.294,366.675 220.428,366.494 220.150 C 365.805 219.096,364.464 220.305,364.136 222.277 C 362.996 229.126,364.100 240.611,365.766 239.229 C 366.095 238.955,366.508 238.808,366.682 238.902 C 367.126 239.141,368.173 237.921,368.332 236.981 C 368.816 234.108,368.713 221.659,368.207 221.853 C 367.807 222.006,367.722 221.822,367.892 221.169 C 368.046 220.582,367.977 220.367,367.692 220.543 C 367.440 220.699,367.184 220.430,367.083 219.906 C 366.932 219.122,366.901 219.108,366.848 219.800 M364.000 242.280 C 364.000 243.120,363.893 243.253,363.520 242.880 C 362.749 242.109,360.489 242.286,360.024 243.154 C 359.792 243.588,359.698 245.584,359.804 247.854 C 360.070 253.602,360.148 254.216,360.697 254.876 C 360.970 255.205,361.075 255.592,360.930 255.737 C 360.785 255.882,360.982 256.000,361.367 256.000 C 361.752 256.000,361.997 255.792,361.913 255.539 C 361.750 255.051,363.391 253.200,363.985 253.200 C 364.177 253.200,364.353 250.500,364.378 247.200 C 364.402 243.900,364.327 241.200,364.211 241.200 C 364.095 241.200,364.000 241.686,364.000 242.280 M362.852 254.537 C 362.607 254.832,362.524 255.190,362.667 255.333 C 362.967 255.634,364.000 254.872,364.000 254.351 C 364.000 253.824,363.357 253.928,362.852 254.537 M360.000 255.400 C 360.000 255.851,359.517 256.000,358.052 256.000 C 355.910 256.000,355.616 256.535,355.604 260.450 C 355.594 263.886,355.884 264.348,358.021 264.295 C 359.084 264.269,359.863 264.102,359.753 263.924 C 359.643 263.746,359.710 263.600,359.902 263.600 C 360.094 263.600,360.273 261.620,360.300 259.200 C 360.326 256.780,360.270 254.800,360.174 254.800 C 360.078 254.800,360.000 255.070,360.000 255.400 " stroke="none" fill="#f44552" fill-rule="evenodd"></path></g></svg>