<svg id="svg" version="1.1" xmlns="http://www.w3.org/2000/svg" xmlns:xlink="http://www.w3.org/1999/xlink" width="400" height="400" viewBox="0, 0, 400,400"><g id="svgg"><path id="path0" d="M136.100 39.865 C 135.806 39.984,135.600 40.794,135.600 41.833 L 135.600 43.600 132.900 43.608 C 126.333 43.627,123.781 44.428,123.374 46.596 C 123.131 47.891,123.089 47.914,120.664 48.076 C 117.420 48.293,115.902 49.052,115.417 50.700 C 115.057 51.922,114.925 52.000,113.197 52.000 C 110.917 52.000,110.400 52.495,110.400 54.680 L 110.400 56.400 107.033 56.400 C 102.898 56.400,102.400 56.573,102.400 58.010 C 102.400 59.951,102.032 60.400,100.437 60.400 C 98.579 60.400,98.000 60.974,98.000 62.816 L 98.000 64.272 95.210 64.770 C 92.182 65.312,90.526 66.307,90.327 67.707 C 90.226 68.415,89.808 68.680,88.283 69.002 C 86.137 69.456,85.615 70.017,85.606 71.878 C 85.600 73.118,85.543 73.160,83.702 73.278 L 81.804 73.400 81.459 75.300 C 81.121 77.161,81.083 77.200,79.637 77.200 C 77.764 77.200,77.200 77.774,77.200 79.680 C 77.200 81.024,77.087 81.200,76.226 81.200 C 74.068 81.200,73.256 81.848,73.124 83.676 C 73.007 85.298,72.924 85.403,71.586 85.618 C 69.553 85.946,69.276 86.217,68.983 88.172 C 68.743 89.776,68.605 89.948,67.365 90.180 C 65.683 90.496,65.320 91.159,64.756 94.950 L 64.309 97.960 62.454 98.080 L 60.600 98.200 60.472 99.993 C 60.330 102.003,59.959 102.385,58.143 102.394 C 56.557 102.402,56.400 102.820,56.400 107.033 L 56.400 110.400 54.649 110.400 C 52.546 110.400,52.095 110.862,51.928 113.185 C 51.811 114.802,51.690 114.982,50.509 115.286 C 48.828 115.719,48.381 116.641,48.109 120.236 C 47.890 123.124,47.857 123.200,46.819 123.200 C 44.634 123.200,43.757 125.334,43.615 131.000 C 43.604 131.453,43.086 132.089,42.423 132.467 C 40.471 133.577,39.600 135.970,39.600 140.224 L 39.600 143.898 38.040 144.147 C 35.858 144.496,35.600 145.499,35.600 153.616 L 35.600 160.313 33.700 160.660 C 31.122 161.131,31.259 158.912,31.259 200.000 C 31.259 241.088,31.122 238.869,33.700 239.340 L 35.600 239.687 35.600 246.384 C 35.600 254.501,35.858 255.504,38.040 255.853 L 39.600 256.102 39.600 259.918 C 39.600 264.004,39.488 263.724,42.267 266.582 C 43.416 267.763,43.562 268.199,43.822 271.242 C 44.215 275.841,44.444 276.334,46.333 276.636 L 47.891 276.885 48.112 279.806 C 48.381 283.359,48.832 284.282,50.509 284.714 C 51.690 285.018,51.811 285.198,51.928 286.815 C 52.095 289.138,52.546 289.600,54.649 289.600 L 56.400 289.600 56.400 292.967 C 56.400 297.180,56.557 297.598,58.143 297.606 C 59.959 297.615,60.330 297.997,60.472 300.007 L 60.600 301.800 62.439 301.919 L 64.279 302.039 64.779 304.919 C 65.381 308.386,65.987 309.446,67.566 309.793 C 68.615 310.023,68.792 310.270,69.027 311.838 C 69.320 313.797,70.009 314.400,71.952 314.400 C 73.105 314.400,73.161 314.481,73.278 316.298 L 73.400 318.196 75.300 318.541 C 77.161 318.879,77.200 318.917,77.200 320.363 C 77.200 322.226,77.774 322.800,79.637 322.800 C 81.083 322.800,81.121 322.839,81.459 324.700 L 81.804 326.600 83.702 326.722 C 85.519 326.839,85.600 326.895,85.600 328.048 C 85.600 330.048,86.200 330.697,88.316 330.988 C 89.960 331.215,90.309 331.423,90.676 332.395 C 91.222 333.844,93.930 335.200,96.275 335.200 L 98.000 335.200 98.000 336.951 C 98.000 339.016,98.459 339.496,100.605 339.670 C 102.106 339.792,102.208 339.882,102.333 341.198 C 102.542 343.402,102.913 343.600,106.849 343.600 L 110.400 343.600 110.406 345.100 C 110.415 347.228,110.851 347.684,113.087 347.899 C 114.889 348.072,115.091 348.197,115.430 349.344 C 115.903 350.949,117.454 351.709,120.697 351.926 L 123.194 352.093 123.608 353.631 C 124.126 355.552,125.219 355.928,131.300 356.275 L 135.600 356.520 135.600 358.217 C 135.600 360.180,135.926 360.400,138.833 360.400 L 140.800 360.400 140.800 358.260 C 140.800 357.083,140.977 355.598,141.194 354.960 C 141.617 353.716,141.008 47.828,140.572 42.500 L 140.334 39.600 138.467 39.632 C 137.440 39.649,136.375 39.754,136.100 39.865 M144.848 361.508 C 145.303 362.873,146.237 363.611,147.474 363.584 C 147.923 363.575,147.704 363.353,146.900 363.004 C 146.185 362.693,145.600 362.284,145.600 362.096 C 145.600 361.907,145.332 361.404,145.005 360.976 C 144.462 360.267,144.448 360.312,144.848 361.508 M254.701 361.457 C 254.436 362.039,253.675 362.752,253.010 363.042 C 252.221 363.385,252.053 363.574,252.526 363.584 C 253.733 363.610,254.692 362.884,255.137 361.608 C 255.656 360.119,255.358 360.016,254.701 361.457 " stroke="none" fill="#1ca45d" fill-rule="evenodd"></path><path id="path1" d="M259.576 39.900 C 259.563 40.065,259.474 41.190,259.378 42.400 C 258.600 52.215,258.237 350.280,258.993 357.700 L 259.268 360.400 261.201 360.400 C 264.089 360.400,264.400 360.182,264.400 358.157 L 264.400 356.400 267.300 356.386 C 272.878 356.359,275.820 355.411,276.317 353.480 C 276.633 352.255,276.749 352.191,279.024 351.991 C 282.036 351.726,283.640 350.936,284.400 349.344 C 284.926 348.243,285.240 348.064,286.943 347.898 C 289.149 347.684,289.585 347.223,289.594 345.100 L 289.600 343.600 292.826 343.600 C 296.922 343.600,297.600 343.257,297.600 341.186 L 297.600 339.600 299.320 339.600 C 301.481 339.600,302.000 339.081,302.000 336.920 L 302.000 335.200 303.725 335.200 C 306.070 335.200,308.778 333.844,309.324 332.395 C 309.691 331.423,310.040 331.215,311.684 330.988 C 313.806 330.697,314.400 330.049,314.400 328.026 C 314.400 326.838,314.457 326.800,316.213 326.800 C 318.138 326.800,318.179 326.758,318.587 324.300 C 318.823 322.877,318.914 322.800,320.338 322.800 C 322.226 322.800,322.800 322.232,322.800 320.363 C 322.800 318.917,322.839 318.879,324.700 318.541 L 326.600 318.196 326.722 316.298 C 326.839 314.481,326.895 314.400,328.048 314.400 C 330.006 314.400,330.725 313.776,331.018 311.822 C 331.250 310.270,331.432 310.013,332.456 309.788 C 334.106 309.425,334.803 308.114,335.076 304.859 L 335.313 302.038 337.356 301.919 L 339.400 301.800 339.600 299.800 C 339.795 297.852,339.836 297.797,341.198 297.667 C 343.402 297.458,343.600 297.087,343.600 293.151 L 343.600 289.600 345.320 289.600 C 347.505 289.600,348.000 289.083,348.000 286.803 C 348.000 285.075,348.078 284.943,349.300 284.583 C 350.948 284.098,351.707 282.580,351.924 279.336 C 352.086 276.911,352.109 276.869,353.404 276.626 C 355.287 276.272,355.578 275.723,356.093 271.540 C 356.503 268.208,356.686 267.669,357.777 266.577 C 360.250 264.101,360.400 263.711,360.400 259.763 L 360.400 256.089 361.760 255.834 C 364.073 255.400,364.186 255.014,364.334 247.042 C 364.475 239.385,364.521 239.217,366.451 239.206 C 368.701 239.193,368.600 241.043,368.600 200.000 C 368.600 158.360,368.779 161.091,366.024 160.650 L 364.464 160.401 364.332 153.061 C 364.187 144.976,364.078 144.601,361.760 144.166 L 360.400 143.911 360.400 140.089 C 360.400 136.001,360.509 136.276,357.764 133.447 C 356.651 132.301,356.485 131.797,356.106 128.405 C 355.655 124.358,354.966 123.200,353.013 123.200 C 352.182 123.200,352.098 122.975,351.887 120.174 C 351.623 116.690,350.957 115.411,349.227 115.065 C 348.085 114.837,348.000 114.701,348.000 113.090 C 348.000 110.918,347.483 110.400,345.320 110.400 L 343.600 110.400 343.600 107.033 C 343.600 102.820,343.443 102.402,341.857 102.394 C 340.041 102.385,339.670 102.003,339.528 99.993 L 339.400 98.200 337.356 98.081 L 335.313 97.962 335.076 95.141 C 334.804 91.890,334.106 90.575,332.463 90.214 C 331.458 89.993,331.269 89.732,331.076 88.293 C 330.818 86.369,329.982 85.600,328.145 85.600 C 326.877 85.600,326.841 85.552,326.722 83.702 L 326.600 81.804 324.700 81.459 C 322.839 81.121,322.800 81.083,322.800 79.637 C 322.800 77.774,322.226 77.200,320.363 77.200 C 318.917 77.200,318.879 77.161,318.541 75.300 L 318.196 73.400 316.298 73.278 C 314.448 73.159,314.400 73.123,314.400 71.855 C 314.400 70.055,313.700 69.317,311.616 68.920 C 310.203 68.652,309.785 68.382,309.606 67.627 C 309.235 66.052,307.577 65.138,304.667 64.905 L 302.038 64.694 301.919 62.647 L 301.800 60.600 299.800 60.400 C 297.852 60.205,297.797 60.164,297.667 58.802 C 297.458 56.598,297.087 56.400,293.151 56.400 L 289.600 56.400 289.594 54.900 C 289.585 52.799,289.167 52.343,287.029 52.102 C 285.346 51.912,285.135 51.773,284.924 50.719 C 284.589 49.043,283.281 48.375,279.826 48.113 L 276.800 47.885 276.389 46.358 C 275.875 44.449,274.771 44.071,268.700 43.725 L 264.400 43.480 264.400 41.783 C 264.400 40.604,264.207 40.011,263.767 39.843 C 262.866 39.497,259.605 39.542,259.576 39.900 " stroke="none" fill="#ed8604" fill-rule="evenodd"></path><path id="path2" d="M236.000 33.152 C 236.000 33.542,237.555 34.998,237.723 34.764 C 237.787 34.674,237.426 34.201,236.920 33.714 C 236.414 33.227,236.000 32.974,236.000 33.152 M257.934 40.094 C 258.110 40.270,258.079 41.356,257.865 42.507 C 257.648 43.673,257.426 55.405,257.363 69.000 C 257.302 82.420,257.040 125.747,256.782 165.283 L 256.313 237.165 254.257 239.386 C 252.235 241.568,252.162 241.606,249.976 241.603 C 247.556 241.600,247.104 241.849,245.457 244.100 C 244.399 245.546,244.272 245.600,241.949 245.600 C 239.375 245.600,239.550 245.489,236.411 249.100 C 235.783 249.823,235.209 250.000,233.499 250.000 C 231.473 250.000,231.274 250.097,229.400 252.000 C 227.498 253.931,227.352 254.000,225.175 254.000 C 222.980 254.000,222.865 254.056,220.877 256.100 C 214.636 262.517,214.794 262.400,212.402 262.400 C 210.263 262.400,210.169 262.449,208.183 264.600 C 206.179 266.771,206.122 266.800,203.876 266.800 C 201.481 266.800,201.461 266.812,199.350 269.500 C 198.390 270.722,198.177 270.800,195.800 270.800 C 193.423 270.800,193.210 270.878,192.250 272.100 C 190.130 274.800,190.130 274.800,187.631 274.800 L 185.262 274.800 183.382 277.000 C 181.503 279.199,181.502 279.200,179.175 279.200 C 176.874 279.200,176.829 279.222,175.161 281.200 C 173.506 283.163,173.433 283.200,171.228 283.200 L 168.980 283.200 164.703 287.400 L 160.426 291.600 158.163 291.600 C 155.956 291.600,155.855 291.649,154.086 293.600 C 152.334 295.530,152.196 295.600,150.105 295.600 C 147.821 295.600,147.525 295.793,144.885 298.993 C 144.381 299.603,143.874 300.008,143.758 299.891 C 143.642 299.775,143.385 242.377,143.187 172.340 C 142.841 50.331,142.751 40.400,141.991 40.400 C 141.547 40.400,141.732 43.649,142.219 44.407 C 142.457 44.778,142.693 92.403,142.848 171.400 C 142.984 240.920,143.216 310.400,143.362 325.800 C 143.508 341.200,143.476 355.105,143.290 356.700 C 142.869 360.320,142.936 360.417,145.713 360.222 C 146.966 360.134,148.095 360.231,148.223 360.437 C 148.351 360.644,148.651 360.692,148.889 360.545 C 149.149 360.385,149.209 360.463,149.038 360.738 C 148.881 360.992,148.913 361.200,149.110 361.200 C 149.306 361.200,149.467 361.473,149.467 361.806 C 149.467 362.218,149.200 362.347,148.633 362.209 C 148.175 362.098,148.015 362.107,148.278 362.230 C 148.540 362.352,148.663 362.692,148.550 362.985 C 148.438 363.279,148.568 363.657,148.841 363.825 C 149.172 364.030,149.262 363.939,149.113 363.551 C 148.969 363.176,149.147 362.971,149.616 362.971 C 150.015 362.971,150.276 363.076,150.197 363.205 C 150.118 363.333,150.218 363.700,150.420 364.019 C 150.701 364.463,150.791 364.365,150.800 363.600 C 150.809 362.835,150.899 362.737,151.180 363.181 C 151.382 363.500,151.444 363.929,151.318 364.133 C 151.192 364.337,151.339 364.417,151.644 364.310 C 151.950 364.204,152.147 363.821,152.082 363.459 C 152.018 363.096,152.183 362.800,152.449 362.800 C 152.715 362.800,152.815 362.918,152.670 363.063 C 152.360 363.373,153.130 364.400,153.673 364.400 C 153.879 364.400,153.920 364.175,153.765 363.900 C 153.539 363.500,153.590 363.500,154.021 363.900 C 154.713 364.542,156.087 364.542,156.779 363.900 C 157.206 363.503,157.259 363.503,157.036 363.899 C 156.826 364.271,157.341 364.400,159.077 364.410 C 160.355 364.417,161.711 364.429,162.092 364.437 C 162.473 364.444,162.887 364.617,163.013 364.821 C 163.139 365.024,162.962 365.084,162.621 364.953 C 161.493 364.520,161.975 365.521,163.498 366.777 C 164.322 367.456,165.057 367.829,165.131 367.606 C 165.206 367.383,165.451 367.200,165.676 367.200 C 165.901 367.200,165.982 367.470,165.855 367.800 C 165.710 368.178,165.860 368.400,166.259 368.400 C 166.696 368.400,166.828 368.152,166.684 367.600 C 166.412 366.561,166.867 366.574,167.523 367.625 C 168.116 368.575,169.866 368.547,169.694 367.591 C 169.621 367.181,169.768 367.230,170.175 367.750 C 170.579 368.267,170.986 368.404,171.481 368.190 C 172.624 367.696,173.181 367.646,173.409 368.015 C 173.526 368.204,173.252 368.287,172.800 368.200 C 172.348 368.113,172.084 368.212,172.213 368.421 C 172.595 369.040,174.747 368.853,175.895 368.101 C 176.923 367.427,176.951 367.429,176.673 368.155 C 176.408 368.844,176.528 368.883,178.092 368.620 C 180.526 368.210,185.172 368.122,184.944 368.490 C 184.839 368.660,185.023 368.800,185.353 368.800 C 185.683 368.800,186.064 368.620,186.200 368.400 C 186.336 368.180,187.112 368.021,187.924 368.047 L 189.400 368.095 188.200 368.434 C 187.477 368.638,189.450 368.699,193.164 368.586 C 196.554 368.484,200.359 368.400,201.619 368.400 C 203.834 368.400,207.206 366.852,205.076 366.813 C 204.678 366.806,204.464 366.980,204.600 367.200 C 204.736 367.420,204.671 367.600,204.456 367.600 C 204.241 367.600,203.751 367.721,203.367 367.868 C 202.837 368.072,202.751 367.999,203.011 367.568 C 203.297 367.094,203.248 367.086,202.717 367.515 C 202.308 367.847,201.056 368.005,199.209 367.959 C 197.473 367.915,196.547 367.753,196.869 367.549 C 197.299 367.277,197.290 367.211,196.824 367.206 C 196.408 367.202,196.464 367.032,197.024 366.599 C 197.788 366.007,197.788 366.002,197.000 366.236 C 196.329 366.436,196.360 366.344,197.192 365.666 C 198.030 364.983,198.068 364.869,197.434 364.929 C 196.946 364.975,196.660 364.721,196.615 364.200 C 196.551 363.455,196.751 363.409,199.494 363.532 C 201.675 363.630,202.691 363.501,203.400 363.037 C 203.927 362.692,204.646 362.520,204.998 362.655 C 205.379 362.801,205.874 362.596,206.220 362.150 C 206.783 361.424,206.794 361.426,206.568 362.200 C 206.351 362.946,206.373 362.953,206.907 362.306 C 207.222 361.925,207.595 361.728,207.736 361.869 C 207.877 362.011,207.770 362.402,207.497 362.738 C 207.078 363.254,207.115 363.307,207.737 363.073 C 209.561 362.389,210.400 362.321,210.406 362.857 C 210.411 363.282,210.493 363.272,210.785 362.811 C 211.024 362.432,211.005 362.127,210.731 361.957 C 210.344 361.718,211.733 361.137,213.800 360.672 C 214.467 360.523,214.439 360.485,213.630 360.446 L 212.661 360.400 213.600 359.400 C 214.376 358.574,214.914 358.400,216.684 358.400 C 218.410 358.400,218.981 358.224,219.611 357.500 C 222.750 353.889,222.575 354.000,225.149 354.000 C 227.472 354.000,227.599 353.946,228.657 352.500 C 230.308 350.244,230.754 350.000,233.234 350.000 C 235.196 350.000,235.648 349.852,236.458 348.944 C 239.468 345.568,239.419 345.600,241.705 345.600 C 243.796 345.600,243.934 345.530,245.686 343.600 C 247.469 341.634,247.540 341.600,249.843 341.600 L 252.186 341.600 254.493 339.100 L 256.799 336.600 256.800 338.367 C 256.800 341.361,257.198 339.939,257.809 334.754 C 258.303 330.568,258.402 316.162,258.452 241.800 C 258.511 154.296,258.998 46.869,259.358 42.107 C 259.542 39.669,259.525 39.615,258.580 39.693 C 258.048 39.737,257.758 39.918,257.934 40.094 M208.617 361.227 C 208.762 361.462,209.133 361.558,209.440 361.440 C 209.748 361.322,210.000 361.378,210.000 361.566 C 210.000 361.753,209.622 362.005,209.160 362.126 C 208.699 362.247,208.426 362.241,208.554 362.112 C 208.683 361.984,208.475 361.642,208.094 361.352 C 207.708 361.059,207.611 360.820,207.876 360.813 C 208.138 360.806,208.472 360.992,208.617 361.227 M202.505 362.600 C 202.388 363.088,198.013 363.372,197.560 362.922 C 197.382 362.745,198.443 362.636,199.918 362.680 C 201.912 362.739,202.343 362.667,201.600 362.399 L 200.600 362.039 201.600 362.119 C 202.150 362.164,202.557 362.380,202.505 362.600 M205.487 363.717 C 205.116 364.173,204.868 364.602,204.936 364.669 C 205.127 364.860,207.193 363.831,207.197 363.543 C 207.205 362.865,206.085 362.979,205.487 363.717 M244.392 363.064 C 245.056 363.393,244.441 363.986,243.687 363.745 C 243.139 363.569,243.114 363.606,243.564 363.925 C 243.874 364.146,244.376 364.230,244.681 364.114 C 245.321 363.868,245.177 363.095,244.465 362.955 C 244.198 362.903,244.166 362.952,244.392 363.064 M247.862 364.100 C 247.964 364.265,248.397 364.400,248.824 364.400 C 249.251 364.400,249.600 364.265,249.600 364.100 C 249.600 363.935,249.167 363.800,248.638 363.800 C 248.109 363.800,247.760 363.935,247.862 364.100 M198.900 364.287 C 199.505 364.378,200.495 364.378,201.100 364.287 C 201.705 364.195,201.210 364.120,200.000 364.120 C 198.790 364.120,198.295 364.195,198.900 364.287 M237.800 364.630 C 237.360 364.962,237.000 365.452,237.000 365.717 C 237.000 365.983,236.807 366.200,236.571 366.200 C 236.008 366.200,234.642 367.575,234.924 367.858 C 235.045 367.978,235.951 367.270,236.938 366.283 C 237.924 365.297,238.972 364.394,239.266 364.276 C 239.671 364.115,239.655 364.059,239.200 364.044 C 238.870 364.034,238.240 364.297,237.800 364.630 M164.430 364.910 C 164.381 365.388,163.832 365.296,163.660 364.780 C 163.572 364.516,163.716 364.372,163.980 364.460 C 164.244 364.548,164.447 364.750,164.430 364.910 M235.665 364.994 C 235.150 365.277,234.901 365.615,235.111 365.745 C 235.321 365.875,235.815 365.625,236.209 365.191 C 237.020 364.294,236.969 364.275,235.665 364.994 M164.121 365.934 C 164.603 366.334,164.763 366.331,164.930 365.917 C 165.065 365.579,165.148 365.634,165.168 366.076 C 165.186 366.448,165.020 366.864,164.800 367.000 C 164.580 367.136,164.400 367.046,164.400 366.800 C 164.400 366.554,164.244 366.449,164.053 366.567 C 163.863 366.685,163.397 366.439,163.019 366.021 C 162.212 365.129,163.070 365.062,164.121 365.934 M207.854 366.598 C 207.981 366.926,208.245 367.096,208.442 366.974 C 209.007 366.625,208.860 366.000,208.213 366.000 C 207.856 366.000,207.715 366.235,207.854 366.598 M233.577 366.843 C 233.235 367.483,233.245 367.796,233.622 368.143 C 233.994 368.486,234.053 368.485,233.857 368.136 C 233.459 367.425,234.031 366.326,234.672 366.572 C 234.988 366.693,235.133 366.614,234.997 366.395 C 234.606 365.763,234.063 365.934,233.577 366.843 M197.436 367.196 C 197.688 367.448,198.700 367.466,200.216 367.245 L 202.600 366.898 199.820 366.849 C 197.985 366.817,197.175 366.935,197.436 367.196 M210.579 367.166 C 210.703 367.367,210.579 367.623,210.302 367.734 C 210.026 367.846,210.317 367.951,210.949 367.968 C 211.926 367.995,212.024 367.910,211.600 367.400 C 211.065 366.756,210.203 366.558,210.579 367.166 M227.351 367.279 C 227.175 367.564,227.261 367.610,227.590 367.406 C 227.933 367.194,228.041 367.273,227.914 367.644 C 227.805 367.962,227.184 368.198,226.462 368.196 C 225.768 368.194,225.200 368.329,225.200 368.496 C 225.200 368.953,227.515 368.862,227.804 368.393 C 227.942 368.170,228.223 368.091,228.428 368.217 C 228.632 368.344,228.800 368.186,228.800 367.866 C 228.800 367.129,227.715 366.690,227.351 367.279 M209.200 367.643 C 209.200 367.886,208.921 367.978,208.579 367.847 C 208.180 367.694,208.058 367.771,208.239 368.063 C 208.429 368.371,208.212 368.450,207.560 368.308 C 207.032 368.193,206.150 368.239,205.600 368.410 C 204.971 368.605,205.935 368.711,208.200 368.696 C 210.180 368.683,211.225 368.600,210.522 368.512 C 209.609 368.398,209.307 368.188,209.464 367.776 C 209.586 367.459,209.576 367.200,209.443 367.200 C 209.309 367.200,209.200 367.399,209.200 367.643 M194.600 368.000 C 195.371 368.331,195.369 368.345,194.524 368.372 C 194.042 368.387,193.536 368.220,193.400 368.000 C 193.108 367.527,193.499 367.527,194.600 368.000 M220.600 368.400 C 221.040 368.589,221.850 368.744,222.400 368.744 C 223.312 368.744,223.329 368.713,222.600 368.400 C 222.160 368.211,221.350 368.056,220.800 368.056 C 219.888 368.056,219.871 368.087,220.600 368.400 " stroke="none" fill="#bcc4cd" fill-rule="evenodd"></path><path id="path3" d="M164.826 31.911 C 164.599 32.300,164.419 32.382,164.412 32.100 C 164.393 31.308,162.200 31.516,161.414 32.384 C 160.946 32.902,160.765 33.582,160.883 34.384 L 161.061 35.600 156.031 35.644 C 153.264 35.669,150.575 35.653,150.055 35.610 C 149.463 35.560,149.210 35.693,149.379 35.965 C 149.526 36.204,149.472 36.400,149.257 36.400 C 149.042 36.400,148.775 36.175,148.664 35.900 C 148.520 35.545,148.365 35.528,148.130 35.838 C 147.949 36.080,147.293 36.401,146.674 36.553 C 145.894 36.744,145.369 37.255,144.968 38.214 C 144.419 39.528,143.500 39.942,141.832 39.625 C 141.630 39.586,141.657 39.790,141.891 40.077 C 142.774 41.159,142.841 47.996,143.190 172.340 C 143.386 242.377,143.642 299.775,143.758 299.891 C 143.874 300.008,144.381 299.603,144.885 298.993 C 147.525 295.793,147.821 295.600,150.105 295.600 C 152.196 295.600,152.334 295.530,154.086 293.600 C 155.855 291.649,155.956 291.600,158.163 291.600 L 160.426 291.600 164.703 287.400 L 168.980 283.200 171.228 283.200 C 173.433 283.200,173.506 283.163,175.161 281.200 C 176.829 279.222,176.874 279.200,179.175 279.200 C 181.502 279.200,181.503 279.199,183.382 277.000 L 185.262 274.800 187.631 274.800 C 190.130 274.800,190.130 274.800,192.250 272.100 C 193.210 270.878,193.423 270.800,195.800 270.800 C 198.177 270.800,198.390 270.722,199.350 269.500 C 201.461 266.812,201.481 266.800,203.876 266.800 C 206.122 266.800,206.179 266.771,208.183 264.600 C 210.169 262.449,210.263 262.400,212.402 262.400 C 214.794 262.400,214.636 262.517,220.877 256.100 C 222.865 254.056,222.980 254.000,225.175 254.000 C 227.352 254.000,227.498 253.931,229.400 252.000 C 231.274 250.097,231.473 250.000,233.499 250.000 C 235.209 250.000,235.783 249.823,236.411 249.100 C 239.550 245.489,239.375 245.600,241.949 245.600 C 244.272 245.600,244.399 245.546,245.457 244.100 C 247.104 241.849,247.556 241.600,249.976 241.603 C 252.160 241.606,252.236 241.567,254.245 239.398 L 256.290 237.190 256.751 175.095 C 257.004 140.943,257.209 97.862,257.206 79.360 C 257.202 59.447,257.353 45.246,257.576 44.560 C 258.035 43.144,258.366 39.631,258.038 39.668 C 256.307 39.862,255.572 39.506,255.032 38.214 C 254.631 37.255,254.106 36.744,253.326 36.553 C 252.707 36.401,252.051 36.080,251.870 35.838 C 251.635 35.528,251.480 35.545,251.336 35.900 C 251.225 36.175,250.958 36.400,250.743 36.400 C 250.528 36.400,250.474 36.204,250.621 35.965 C 250.790 35.693,250.537 35.560,249.945 35.610 C 249.425 35.653,246.795 35.669,244.100 35.644 L 239.200 35.600 239.200 34.262 C 239.200 31.197,241.942 31.411,201.372 31.311 C 167.530 31.227,165.202 31.265,164.826 31.911 M163.382 33.302 C 163.248 33.652,162.873 34.040,162.548 34.164 C 162.224 34.289,162.061 34.225,162.186 34.023 C 162.311 33.821,162.227 33.540,162.000 33.400 C 161.773 33.260,161.696 32.968,161.829 32.753 C 161.979 32.511,162.315 32.560,162.711 32.881 C 163.266 33.332,163.310 33.295,163.051 32.600 C 162.836 32.023,162.874 31.921,163.189 32.233 C 163.430 32.471,163.516 32.952,163.382 33.302 M238.254 34.009 C 238.966 33.470,238.968 33.478,238.312 34.195 C 237.603 34.970,236.000 34.206,236.000 33.094 C 236.000 32.883,236.339 33.130,236.754 33.643 C 237.425 34.471,237.591 34.512,238.254 34.009 M145.375 361.552 C 145.973 362.708,146.725 363.200,147.894 363.200 C 148.311 363.200,148.037 362.728,147.081 361.800 C 145.307 360.077,144.556 359.967,145.375 361.552 M252.842 361.824 C 251.918 362.760,251.684 363.200,252.109 363.200 C 253.275 363.200,254.028 362.707,254.625 361.552 C 255.464 359.929,254.580 360.064,252.842 361.824 M160.800 365.613 C 160.800 367.139,162.066 368.400,163.600 368.400 C 164.778 368.400,165.188 367.887,164.400 367.400 C 164.180 367.264,164.000 367.343,164.000 367.576 C 164.000 367.809,163.809 368.000,163.576 368.000 C 163.343 368.000,163.271 367.809,163.416 367.575 C 163.735 367.059,162.437 365.530,161.940 365.837 C 161.746 365.957,161.692 366.226,161.821 366.434 C 161.950 366.643,162.251 366.692,162.489 366.545 C 162.767 366.373,162.807 366.465,162.600 366.800 C 162.372 367.169,162.431 367.228,162.800 367.000 C 163.156 366.780,163.227 366.832,163.022 367.164 C 162.796 367.531,162.532 367.481,161.960 366.964 C 161.097 366.183,160.970 365.343,161.680 365.107 C 161.980 365.007,161.905 364.849,161.480 364.686 C 160.934 364.477,160.800 364.659,160.800 365.613 M238.754 364.700 C 238.729 364.865,238.738 365.307,238.776 365.681 C 238.824 366.165,238.608 366.317,238.030 366.206 C 237.097 366.026,236.557 366.603,237.255 367.034 C 237.520 367.198,237.617 367.151,237.479 366.928 C 237.345 366.711,237.494 366.533,237.811 366.533 C 238.232 366.533,238.274 366.670,237.964 367.043 C 237.732 367.323,237.255 367.443,236.905 367.308 C 236.459 367.137,236.363 367.216,236.584 367.575 C 236.818 367.953,236.680 368.016,236.050 367.816 C 235.546 367.656,235.200 367.720,235.200 367.973 C 235.200 368.713,237.562 368.438,238.400 367.600 C 238.844 367.156,239.200 366.267,239.200 365.600 C 239.200 364.544,238.878 363.894,238.754 364.700 M166.200 368.400 L 165.000 368.705 166.076 368.753 C 166.668 368.779,167.264 368.620,167.400 368.400 C 167.536 368.180,167.592 368.021,167.524 368.047 C 167.456 368.073,166.860 368.232,166.200 368.400 " stroke="none" fill="#d7e3ec" fill-rule="evenodd"></path><path id="path4" d="M140.572 42.502 C 141.008 47.827,141.617 353.716,141.194 354.960 C 140.294 357.609,140.676 360.400,141.940 360.400 C 143.466 360.400,143.431 361.306,143.253 327.000 C 143.172 311.380,142.992 241.540,142.853 171.800 C 142.693 91.664,142.458 44.779,142.215 44.400 C 141.716 43.624,141.581 40.722,142.018 40.185 C 142.233 39.922,141.988 39.740,141.345 39.687 L 140.334 39.604 140.572 42.502 M257.863 334.507 C 257.434 338.982,256.885 341.058,256.834 338.400 L 256.799 336.600 254.493 339.100 L 252.186 341.600 249.843 341.600 C 247.540 341.600,247.469 341.634,245.686 343.600 C 243.934 345.530,243.796 345.600,241.705 345.600 C 239.419 345.600,239.468 345.568,236.458 348.944 C 235.648 349.852,235.196 350.000,233.234 350.000 C 230.754 350.000,230.308 350.244,228.657 352.500 C 227.599 353.946,227.472 354.000,225.149 354.000 C 222.575 354.000,222.750 353.889,219.611 357.500 C 218.981 358.224,218.410 358.400,216.684 358.400 C 214.914 358.400,214.376 358.574,213.600 359.400 L 212.661 360.400 213.630 360.446 C 214.439 360.485,214.467 360.523,213.800 360.672 C 211.733 361.137,210.344 361.718,210.731 361.957 C 211.005 362.127,211.024 362.432,210.785 362.811 C 210.493 363.272,210.411 363.282,210.406 362.857 C 210.400 362.321,209.561 362.389,207.737 363.073 C 207.115 363.307,207.078 363.254,207.497 362.738 C 207.770 362.402,207.877 362.011,207.736 361.869 C 207.595 361.728,207.222 361.925,206.907 362.306 C 206.373 362.953,206.351 362.946,206.568 362.200 C 206.794 361.426,206.783 361.424,206.220 362.150 C 205.874 362.596,205.379 362.801,204.998 362.655 C 204.646 362.520,203.927 362.692,203.400 363.037 C 202.691 363.501,201.675 363.630,199.494 363.532 C 196.751 363.409,196.551 363.455,196.615 364.200 C 196.660 364.721,196.946 364.975,197.434 364.929 C 198.068 364.869,198.030 364.983,197.192 365.666 C 196.360 366.344,196.329 366.436,197.000 366.236 C 197.788 366.002,197.788 366.007,197.024 366.599 C 196.464 367.032,196.408 367.202,196.824 367.206 C 197.290 367.211,197.299 367.277,196.869 367.549 C 196.547 367.753,197.473 367.915,199.209 367.959 C 201.056 368.005,202.308 367.847,202.717 367.515 C 203.248 367.086,203.297 367.094,203.011 367.568 C 202.751 367.999,202.837 368.072,203.367 367.868 C 203.751 367.721,204.241 367.600,204.456 367.600 C 204.671 367.600,204.736 367.420,204.600 367.200 C 204.464 366.980,204.678 366.806,205.076 366.813 C 205.693 366.825,205.655 366.947,204.817 367.645 C 203.775 368.512,195.738 368.640,193.800 367.821 C 193.127 367.536,193.083 367.571,193.519 368.041 C 194.308 368.890,208.668 368.757,208.142 367.906 C 208.011 367.694,208.326 367.746,208.841 368.022 C 209.435 368.340,211.913 368.568,215.590 368.643 C 219.552 368.724,221.146 368.639,220.600 368.374 C 220.010 368.087,220.220 368.052,221.400 368.239 C 223.074 368.504,223.524 368.515,226.294 368.353 C 227.226 368.299,228.111 368.377,228.261 368.527 C 228.775 369.042,230.400 368.811,230.400 368.224 C 230.400 367.907,230.578 367.537,230.795 367.403 C 231.030 367.258,231.084 367.437,230.927 367.845 C 230.758 368.286,230.819 368.435,231.098 368.263 C 231.336 368.116,231.600 368.200,231.684 368.451 C 231.774 368.723,232.181 368.796,232.697 368.633 C 233.171 368.482,233.474 368.138,233.371 367.868 C 233.031 366.982,234.262 365.716,234.873 366.324 C 235.308 366.756,235.287 366.805,234.752 366.601 C 234.072 366.342,233.409 367.367,233.822 368.036 C 234.207 368.658,235.194 368.450,234.945 367.800 C 234.690 367.135,235.409 366.967,235.800 367.600 C 235.936 367.820,236.227 368.000,236.447 368.000 C 236.667 368.000,236.717 367.789,236.558 367.532 C 236.367 367.223,236.482 367.146,236.897 367.305 C 237.715 367.619,238.782 366.424,238.697 365.289 C 238.610 364.141,238.542 364.164,237.800 365.600 C 237.459 366.260,236.982 366.800,236.741 366.800 C 236.449 366.800,236.469 366.599,236.800 366.200 C 237.144 365.785,237.159 365.600,236.849 365.600 C 236.439 365.600,236.233 366.140,236.353 366.900 C 236.379 367.065,236.208 367.200,235.973 367.200 C 235.720 367.200,235.656 366.854,235.816 366.350 C 235.988 365.807,235.936 365.592,235.670 365.756 C 235.442 365.898,235.168 365.872,235.062 365.700 C 234.955 365.528,235.303 365.182,235.835 364.931 C 236.366 364.680,236.700 364.638,236.577 364.837 C 236.243 365.377,236.943 365.276,237.781 364.663 C 238.311 364.276,239.612 364.164,242.457 364.261 C 245.322 364.359,246.400 364.265,246.400 363.918 C 246.400 363.549,246.509 363.549,246.880 363.920 C 247.404 364.444,248.160 364.583,247.862 364.100 C 247.760 363.935,248.109 363.800,248.638 363.800 C 249.167 363.800,249.600 363.924,249.600 364.075 C 249.600 364.226,249.940 364.325,250.356 364.293 C 250.846 364.256,251.033 364.029,250.887 363.649 C 250.728 363.234,250.850 363.134,251.303 363.307 C 251.782 363.491,251.907 363.354,251.793 362.766 C 251.710 362.333,251.812 362.084,252.019 362.212 C 252.227 362.340,252.856 361.949,253.417 361.344 C 254.174 360.527,254.795 360.253,255.819 360.282 C 256.613 360.304,257.203 360.125,257.206 359.860 C 257.210 359.568,257.319 359.546,257.506 359.800 C 257.882 360.311,259.200 360.543,259.200 360.098 C 259.200 359.912,258.984 359.544,258.720 359.280 C 258.347 358.907,258.356 358.800,258.760 358.800 C 259.154 358.800,259.212 358.337,258.999 356.900 C 258.844 355.855,258.601 349.600,258.458 343.000 C 258.241 332.881,258.147 331.550,257.863 334.507 M146.159 360.923 C 146.402 361.320,147.196 362.017,147.924 362.470 C 148.656 362.926,149.161 363.525,149.052 363.808 C 148.936 364.111,149.117 364.283,149.494 364.227 C 149.846 364.176,150.176 363.846,150.227 363.494 C 150.283 363.113,150.112 362.936,149.801 363.055 C 149.515 363.165,149.162 363.062,149.017 362.827 C 148.872 362.592,148.913 362.400,149.110 362.400 C 149.306 362.400,149.467 362.130,149.467 361.800 C 149.467 361.470,149.306 361.200,149.110 361.200 C 148.913 361.200,148.867 361.016,149.006 360.790 C 149.145 360.565,149.111 360.406,148.930 360.437 C 148.748 360.469,148.465 360.451,148.300 360.397 C 146.926 359.951,145.743 360.242,146.159 360.923 M208.094 361.352 C 208.475 361.642,208.683 361.984,208.554 362.112 C 208.426 362.241,208.699 362.247,209.160 362.126 C 209.622 362.005,210.000 361.753,210.000 361.566 C 210.000 361.378,209.748 361.322,209.440 361.440 C 209.133 361.558,208.762 361.462,208.617 361.227 C 208.472 360.992,208.138 360.806,207.876 360.813 C 207.611 360.820,207.708 361.059,208.094 361.352 M201.600 362.399 C 202.343 362.667,201.912 362.739,199.918 362.680 C 198.443 362.636,197.382 362.745,197.560 362.922 C 198.013 363.372,202.388 363.088,202.505 362.600 C 202.557 362.380,202.150 362.164,201.600 362.119 L 200.600 362.039 201.600 362.399 M207.197 363.543 C 207.193 363.831,205.127 364.860,204.936 364.669 C 204.868 364.602,205.116 364.173,205.487 363.717 C 206.085 362.979,207.205 362.865,207.197 363.543 M201.100 364.287 C 200.495 364.378,199.505 364.378,198.900 364.287 C 198.295 364.195,198.790 364.120,200.000 364.120 C 201.210 364.120,201.705 364.195,201.100 364.287 M162.400 364.763 C 162.730 364.997,162.837 365.191,162.638 365.194 C 162.439 365.197,162.598 365.556,162.991 365.991 C 163.385 366.425,163.863 366.685,164.053 366.567 C 164.244 366.449,164.403 366.588,164.406 366.876 C 164.411 367.257,164.518 367.236,164.800 366.800 C 165.260 366.088,165.345 365.186,164.894 365.800 C 164.314 366.589,162.695 365.899,162.822 364.918 C 162.843 364.754,162.621 364.557,162.330 364.480 C 161.979 364.387,162.003 364.482,162.400 364.763 M161.200 365.738 C 161.200 366.423,162.653 367.761,162.923 367.324 C 163.128 366.993,161.873 365.200,161.436 365.200 C 161.306 365.200,161.200 365.442,161.200 365.738 M208.800 366.376 C 208.800 367.047,208.091 367.213,207.854 366.598 C 207.715 366.235,207.856 366.000,208.213 366.000 C 208.536 366.000,208.800 366.169,208.800 366.376 M166.758 367.700 C 166.941 368.195,167.406 368.662,167.793 368.738 C 168.228 368.824,168.390 368.708,168.220 368.432 C 168.068 368.187,167.773 368.093,167.562 368.223 C 167.352 368.353,167.206 368.311,167.237 368.130 C 167.366 367.390,167.177 366.800,166.813 366.800 C 166.580 366.800,166.558 367.158,166.758 367.700 M200.216 367.245 C 198.700 367.466,197.688 367.448,197.436 367.196 C 197.175 366.935,197.985 366.817,199.820 366.849 L 202.600 366.898 200.216 367.245 M211.600 367.400 C 212.024 367.910,211.926 367.995,210.949 367.968 C 210.317 367.951,210.026 367.846,210.302 367.734 C 210.579 367.623,210.703 367.367,210.579 367.166 C 210.203 366.558,211.065 366.756,211.600 367.400 M228.787 367.943 C 228.776 368.535,228.722 368.531,228.248 367.906 C 227.958 367.525,227.575 367.345,227.396 367.506 C 227.218 367.668,227.196 367.583,227.349 367.317 C 227.726 366.660,228.803 367.129,228.787 367.943 M165.043 367.833 C 164.893 368.223,164.982 368.406,165.275 368.308 C 165.873 368.109,166.202 367.200,165.676 367.200 C 165.461 367.200,165.176 367.485,165.043 367.833 M169.712 367.975 C 169.646 368.845,171.303 369.204,171.785 368.425 C 171.912 368.218,172.378 368.119,172.819 368.204 C 173.260 368.289,173.526 368.204,173.409 368.015 C 173.181 367.646,172.624 367.696,171.481 368.190 C 170.995 368.399,170.601 368.281,170.268 367.825 C 169.816 367.208,169.769 367.220,169.712 367.975 M176.000 368.000 C 175.683 368.196,175.556 368.489,175.718 368.652 C 175.881 368.814,176.223 368.737,176.480 368.480 C 177.084 367.876,176.747 367.538,176.000 368.000 M179.380 368.439 C 178.764 368.680,178.873 368.750,179.900 368.772 C 180.615 368.787,181.200 368.650,181.200 368.467 C 181.200 368.051,180.403 368.038,179.380 368.439 M181.826 368.443 C 182.094 368.875,184.678 368.922,184.937 368.500 C 185.038 368.335,184.330 368.174,183.363 368.143 C 182.397 368.111,181.705 368.246,181.826 368.443 M186.184 368.426 C 186.005 368.715,186.412 368.762,187.461 368.572 C 189.503 368.203,189.655 368.000,187.890 368.000 C 187.097 368.000,186.329 368.191,186.184 368.426 " stroke="none" fill="#b4c0cc" fill-rule="evenodd"></path></g></svg>