<svg id="svg" version="1.1" xmlns="http://www.w3.org/2000/svg" xmlns:xlink="http://www.w3.org/1999/xlink" width="400" height="400" viewBox="0, 0, 400,400"><g id="svgg"><path id="path0" d="M263.043 39.906 C 263.287 40.068,263.412 40.560,263.320 41.000 C 263.088 42.111,263.075 42.515,263.249 43.148 C 263.340 43.478,262.869 43.881,262.064 44.162 C 261.329 44.418,260.583 44.892,260.407 45.214 C 259.811 46.300,259.022 352.741,259.610 354.800 C 259.892 355.790,260.157 357.140,260.199 357.800 C 260.384 360.747,260.012 360.563,264.912 360.125 C 267.513 359.893,268.400 359.257,268.400 357.626 L 268.400 356.509 272.500 356.155 L 276.600 355.800 276.800 354.000 L 277.000 352.200 280.579 352.083 C 284.680 351.950,285.200 351.671,285.200 349.609 L 285.200 348.115 288.452 347.844 C 292.515 347.505,293.060 347.215,293.399 345.205 L 293.670 343.600 295.589 343.600 C 297.658 343.600,297.982 343.210,297.995 340.700 C 298.000 339.676,298.118 339.599,299.700 339.583 C 304.135 339.537,306.000 338.572,306.000 336.324 C 306.000 335.245,306.079 335.200,307.957 335.200 C 310.113 335.200,310.400 334.894,310.400 332.589 C 310.400 331.268,310.434 331.242,312.300 331.122 L 314.200 331.000 314.322 329.100 C 314.443 327.217,314.457 327.200,315.848 327.200 C 318.148 327.200,318.800 326.627,318.800 324.608 L 318.800 322.844 320.700 322.722 L 322.600 322.600 322.722 320.700 L 322.844 318.800 324.608 318.800 C 326.627 318.800,327.200 318.148,327.200 315.848 C 327.200 314.457,327.217 314.443,329.100 314.322 L 331.000 314.200 331.121 312.321 L 331.242 310.442 333.121 310.321 L 335.000 310.200 335.120 308.121 L 335.240 306.042 337.120 305.921 L 339.000 305.800 339.366 303.744 C 339.678 301.987,339.911 301.609,340.966 301.144 C 342.557 300.443,343.556 298.370,343.581 295.722 L 343.600 293.644 345.484 293.522 C 347.730 293.377,347.899 293.020,347.960 288.300 L 348.000 285.200 350.000 285.200 L 352.000 285.200 352.000 283.000 C 352.000 280.920,352.055 280.800,353.000 280.800 C 354.983 280.800,356.400 277.505,356.400 272.894 C 356.400 272.000,356.626 271.582,357.211 271.397 C 357.657 271.255,358.327 270.658,358.701 270.070 C 359.075 269.481,359.610 268.856,359.890 268.680 C 360.247 268.456,360.400 267.179,360.400 264.426 L 360.400 260.491 362.165 260.226 C 364.395 259.892,364.400 259.877,364.400 253.167 L 364.400 247.600 365.700 247.594 C 368.492 247.581,368.742 246.553,368.776 234.951 L 368.800 226.902 370.382 226.649 C 372.803 226.262,372.796 226.347,372.796 200.000 C 372.796 173.653,372.803 173.738,370.382 173.351 L 368.800 173.098 368.776 165.049 C 368.742 153.447,368.492 152.419,365.700 152.406 L 364.400 152.400 364.400 146.833 C 364.400 140.128,364.394 140.108,362.178 139.776 L 360.427 139.513 360.314 135.457 C 360.214 131.888,360.116 131.407,359.504 131.455 C 359.122 131.485,358.912 131.342,359.039 131.137 C 359.362 130.614,358.169 128.908,357.283 128.626 C 356.678 128.434,356.464 127.693,356.090 124.496 C 355.599 120.289,354.954 119.200,352.956 119.200 C 352.064 119.200,352.000 119.053,352.000 117.000 C 352.000 114.967,351.930 114.800,351.075 114.800 C 349.354 114.800,348.120 112.914,347.898 109.942 C 347.646 106.571,347.523 106.400,345.376 106.400 L 343.600 106.400 343.581 104.300 C 343.556 101.631,342.561 99.559,340.966 98.856 C 339.911 98.391,339.678 98.013,339.366 96.256 L 339.000 94.200 337.120 94.079 L 335.240 93.958 335.120 91.879 L 335.000 89.800 333.121 89.679 L 331.242 89.558 331.121 87.679 L 331.000 85.800 329.100 85.678 C 327.217 85.557,327.200 85.543,327.200 84.152 C 327.200 81.852,326.627 81.200,324.608 81.200 L 322.844 81.200 322.722 79.300 L 322.600 77.400 320.700 77.278 L 318.800 77.156 318.800 75.392 C 318.800 73.373,318.148 72.800,315.848 72.800 C 314.457 72.800,314.443 72.783,314.322 70.900 L 314.200 69.000 312.300 68.878 C 310.434 68.758,310.400 68.732,310.400 67.411 C 310.400 65.106,310.113 64.800,307.957 64.800 C 306.066 64.800,306.000 64.761,306.000 63.644 C 306.000 61.517,304.979 60.844,301.300 60.549 L 298.000 60.285 298.000 58.975 C 298.000 56.721,297.702 56.400,295.608 56.400 L 293.702 56.400 293.448 54.813 C 293.129 52.813,292.533 52.497,288.452 52.156 L 285.200 51.885 285.200 50.391 C 285.200 48.329,284.680 48.050,280.579 47.917 L 277.000 47.800 276.800 46.000 L 276.600 44.200 272.500 43.845 L 268.400 43.491 268.400 42.194 C 268.400 40.480,267.845 40.096,264.991 39.833 C 263.676 39.711,262.800 39.744,263.043 39.906 M357.820 131.114 C 357.435 131.499,356.400 130.797,356.400 130.151 C 356.400 129.535,356.470 129.540,357.202 130.202 C 357.644 130.602,357.922 131.012,357.820 131.114 " stroke="none" fill="#f04855" fill-rule="evenodd"></path><path id="path1" d="M139.261 40.451 C 138.977 40.906,138.648 41.181,138.530 41.064 C 138.412 40.946,137.880 41.320,137.347 41.895 C 136.613 42.687,136.502 43.018,136.889 43.264 C 137.283 43.514,137.263 43.598,136.800 43.633 C 136.113 43.685,130.553 44.062,129.500 44.128 C 129.115 44.152,128.800 44.313,128.800 44.486 C 128.800 44.659,128.560 44.800,128.267 44.800 C 127.741 44.800,127.587 45.325,127.590 47.100 C 127.591 48.037,127.167 48.118,122.127 48.155 C 121.413 48.160,120.959 48.334,121.093 48.550 C 121.229 48.771,121.049 48.828,120.670 48.682 C 120.263 48.526,120.046 48.615,120.105 48.914 C 120.157 49.181,120.020 49.370,119.800 49.334 C 119.580 49.297,119.373 49.723,119.339 50.280 C 119.249 51.797,118.426 52.348,116.100 52.451 C 114.945 52.501,114.000 52.712,114.000 52.918 C 114.000 53.124,113.622 53.195,113.160 53.074 C 112.699 52.953,112.427 52.960,112.557 53.090 C 112.985 53.518,111.956 54.357,111.271 54.138 C 110.690 53.953,110.680 53.987,111.200 54.393 C 111.631 54.729,111.665 54.916,111.322 55.056 C 111.060 55.164,110.944 55.510,111.065 55.826 C 111.235 56.267,110.906 56.400,109.643 56.400 C 108.739 56.400,107.865 56.412,107.700 56.426 C 107.181 56.472,106.429 58.153,106.414 59.300 C 106.402 60.259,106.233 60.408,105.100 60.461 C 103.259 60.547,103.060 60.583,102.500 60.934 C 102.225 61.106,101.835 61.145,101.634 61.021 C 101.433 60.897,101.199 61.004,101.114 61.258 C 100.979 61.662,100.571 61.778,98.600 61.973 C 98.380 61.994,98.470 62.203,98.800 62.437 C 99.207 62.724,99.253 62.922,98.942 63.050 C 98.691 63.153,98.577 63.590,98.689 64.019 C 98.888 64.779,98.149 64.998,95.700 64.907 C 95.425 64.897,95.200 65.060,95.200 65.268 C 95.200 65.477,95.016 65.533,94.790 65.394 C 94.565 65.255,94.415 65.289,94.457 65.470 C 94.908 67.395,92.948 69.833,91.614 69.008 C 91.062 68.667,89.656 70.728,89.874 71.560 C 90.106 72.449,89.446 72.941,87.800 73.105 C 87.140 73.171,86.403 73.249,86.162 73.279 C 85.922 73.309,85.694 74.146,85.656 75.139 C 85.574 77.324,85.767 77.130,83.527 77.278 C 82.509 77.345,81.752 77.523,81.845 77.672 C 81.937 77.822,81.854 78.043,81.660 78.163 C 81.466 78.283,81.389 78.807,81.488 79.327 C 81.724 80.559,80.669 81.600,79.186 81.600 C 77.855 81.600,77.200 82.516,77.200 84.374 C 77.200 85.572,76.431 85.872,74.145 85.566 C 73.664 85.501,73.212 86.600,73.206 87.851 C 73.199 89.229,72.333 90.213,71.431 89.867 C 70.680 89.579,68.776 91.072,69.035 91.746 C 69.392 92.676,68.456 94.471,67.699 94.309 C 66.530 94.059,65.308 95.758,64.990 98.077 C 64.698 100.206,63.216 102.304,62.372 101.783 C 62.168 101.656,62.000 101.743,62.000 101.976 C 62.000 102.209,61.747 102.400,61.438 102.400 C 61.067 102.400,60.783 103.071,60.605 104.362 C 60.325 106.400,59.704 106.928,57.976 106.595 C 57.544 106.512,57.256 106.654,57.308 106.925 C 57.359 107.186,57.201 107.364,56.958 107.319 C 56.716 107.275,56.520 107.635,56.524 108.119 C 56.548 111.017,56.404 111.576,55.700 111.334 C 55.107 111.129,55.117 111.184,55.768 111.691 C 56.511 112.269,56.490 112.331,55.169 113.511 C 54.172 114.402,53.666 114.620,53.301 114.318 C 52.927 114.008,52.800 114.112,52.800 114.727 C 52.800 115.181,52.624 115.661,52.410 115.794 C 52.195 115.927,52.086 116.601,52.166 117.293 C 52.376 119.098,50.974 120.907,50.299 119.700 C 50.207 119.535,50.178 119.603,50.234 119.851 C 50.367 120.434,49.634 121.167,49.051 121.034 C 48.803 120.978,48.735 121.007,48.900 121.099 C 49.065 121.191,49.200 121.532,49.200 121.857 C 49.200 122.182,49.059 122.360,48.886 122.253 C 48.545 122.042,48.532 122.110,48.159 126.100 C 48.020 127.585,47.737 128.800,47.530 128.800 C 47.322 128.800,47.281 129.008,47.438 129.262 C 47.602 129.526,47.549 129.616,47.315 129.471 C 47.091 129.332,46.568 129.606,46.153 130.078 C 45.739 130.551,45.625 130.806,45.900 130.645 C 46.175 130.484,46.400 130.543,46.400 130.776 C 46.400 131.124,45.405 131.370,44.381 131.274 C 44.260 131.263,44.120 132.727,44.070 134.527 C 43.941 139.135,43.700 140.119,42.760 139.874 C 42.342 139.764,42.000 139.857,42.000 140.080 C 42.000 140.303,41.774 140.399,41.498 140.293 C 40.870 140.052,40.084 140.851,40.303 141.509 C 40.393 141.779,40.317 142.000,40.133 142.001 C 39.950 142.001,39.738 144.296,39.662 147.101 C 39.505 152.903,39.580 152.621,38.108 152.927 C 36.041 153.357,35.738 154.609,35.635 163.158 L 35.542 170.875 34.172 172.078 C 33.419 172.739,32.905 173.447,33.031 173.650 C 33.157 173.853,33.111 173.994,32.930 173.963 C 32.025 173.805,31.761 174.104,31.837 175.201 C 31.883 175.862,31.803 176.474,31.660 176.563 C 31.517 176.651,31.439 186.596,31.487 198.662 C 31.570 219.598,31.670 226.057,31.907 225.824 C 31.966 225.767,32.848 226.547,33.868 227.560 L 35.722 229.400 35.707 232.507 C 35.696 234.628,35.835 235.581,36.146 235.510 C 36.396 235.452,36.605 235.584,36.612 235.803 C 36.618 236.021,36.393 236.147,36.112 236.082 C 35.749 235.999,35.600 236.547,35.600 237.970 C 35.600 239.697,35.697 239.944,36.300 239.755 C 36.939 239.554,36.944 239.581,36.350 240.075 C 35.588 240.708,35.585 242.653,36.346 242.490 C 36.672 242.420,36.743 242.566,36.540 242.890 C 36.364 243.171,36.275 243.735,36.343 244.144 C 36.426 244.649,36.307 244.789,35.971 244.582 C 35.650 244.384,35.578 244.441,35.766 244.745 C 35.925 245.002,36.223 245.109,36.428 244.983 C 36.632 244.856,36.800 245.038,36.800 245.386 C 36.800 245.735,37.295 246.223,37.900 246.471 C 39.524 247.138,40.066 247.192,39.873 246.668 C 39.778 246.411,39.504 246.243,39.264 246.295 C 39.010 246.351,38.936 246.110,39.088 245.715 C 39.250 245.291,39.406 245.219,39.507 245.520 C 39.720 246.159,40.409 246.140,40.253 245.500 C 40.186 245.225,40.209 245.143,40.304 245.317 C 40.400 245.491,40.700 245.449,40.972 245.223 C 41.326 244.930,41.467 244.976,41.467 245.384 C 41.467 245.698,41.294 245.921,41.083 245.878 C 40.872 245.835,40.609 246.050,40.498 246.356 C 40.363 246.728,40.479 246.817,40.848 246.626 C 41.152 246.469,41.088 246.597,40.706 246.910 C 40.325 247.223,40.145 247.625,40.306 247.804 C 40.468 247.982,40.375 247.999,40.100 247.841 C 39.739 247.633,39.600 247.955,39.600 249.000 C 39.600 249.925,39.754 250.352,40.027 250.183 C 40.262 250.038,40.359 249.670,40.242 249.365 C 40.093 248.978,40.317 248.835,40.986 248.891 C 41.512 248.934,41.847 249.124,41.731 249.312 C 41.615 249.500,41.896 249.752,42.355 249.872 C 42.815 249.993,43.085 250.263,42.955 250.473 C 42.825 250.683,42.458 250.754,42.139 250.632 C 41.820 250.509,41.656 250.567,41.775 250.759 C 42.086 251.262,40.544 251.584,40.074 251.114 C 39.815 250.855,39.680 251.215,39.680 252.160 C 39.680 253.219,39.855 253.608,40.340 253.632 C 40.755 253.651,40.815 253.738,40.500 253.865 C 39.901 254.107,39.823 256.000,40.413 256.000 C 40.639 256.000,40.923 255.744,41.043 255.431 C 41.164 255.118,41.559 254.748,41.922 254.609 C 42.361 254.440,42.251 254.717,41.591 255.442 C 40.991 256.099,40.844 256.441,41.218 256.308 C 41.626 256.163,41.856 256.345,41.893 256.844 C 41.929 257.311,41.692 257.598,41.275 257.594 C 40.753 257.589,40.721 257.511,41.134 257.250 C 41.610 256.948,40.989 256.400,40.170 256.400 C 39.685 256.400,40.354 257.954,41.207 258.807 C 42.782 260.382,44.455 260.385,44.003 258.812 C 43.807 258.128,43.805 257.679,43.998 257.799 C 44.189 257.917,44.458 257.830,44.597 257.605 C 44.766 257.332,45.119 257.343,45.673 257.639 C 46.133 257.885,46.389 257.906,46.254 257.687 C 46.120 257.471,46.387 256.816,46.846 256.232 L 47.682 255.169 46.576 255.370 C 45.734 255.523,45.581 255.459,45.935 255.105 C 46.191 254.849,46.411 254.271,46.425 253.820 C 46.449 253.046,46.471 253.051,46.812 253.900 C 47.324 255.172,47.562 255.047,49.732 252.377 L 51.664 250.000 54.046 250.000 C 56.018 250.000,56.563 249.845,57.211 249.100 C 60.350 245.489,60.175 245.600,62.749 245.600 C 65.072 245.600,65.199 245.546,66.257 244.100 C 68.057 241.640,68.165 241.600,73.056 241.600 L 77.559 241.600 78.657 240.100 C 80.308 237.843,80.754 237.600,83.246 237.600 C 85.530 237.600,85.545 237.592,87.418 235.400 L 89.297 233.200 91.667 233.200 C 94.171 233.200,94.728 232.861,96.519 230.249 C 97.224 229.220,97.324 229.200,101.833 229.200 C 106.100 229.200,106.484 229.136,107.211 228.300 C 110.350 224.689,110.175 224.800,112.749 224.800 C 115.072 224.800,115.199 224.746,116.257 223.300 C 117.902 221.051,118.355 220.800,120.769 220.800 C 122.943 220.800,123.025 220.758,125.017 218.600 L 127.048 216.400 131.424 216.408 L 135.800 216.416 137.640 214.336 L 139.480 212.256 139.741 230.628 C 140.635 293.592,140.907 353.205,140.308 354.895 C 139.553 357.025,139.439 359.124,140.039 359.847 C 140.667 360.603,142.155 360.582,141.863 359.820 C 141.715 359.433,141.833 359.315,142.220 359.463 C 142.854 359.706,143.030 358.989,142.428 358.617 C 141.793 358.225,142.229 356.395,143.104 355.782 C 144.512 354.796,144.500 356.763,144.025 200.445 C 143.543 41.845,143.602 45.889,141.751 44.433 C 140.592 43.521,140.205 40.911,141.122 40.189 C 141.523 39.874,141.428 39.760,140.711 39.701 C 140.141 39.654,139.577 39.946,139.261 40.451 M53.762 112.469 C 53.343 112.947,53.256 113.187,53.568 113.003 C 54.008 112.744,54.070 112.842,53.844 113.434 C 53.635 113.983,53.676 114.078,53.986 113.771 C 54.378 113.381,54.914 111.600,54.639 111.600 C 54.576 111.600,54.181 111.991,53.762 112.469 M37.726 240.040 C 37.847 240.501,37.840 240.773,37.710 240.643 C 37.580 240.513,37.243 240.599,36.961 240.833 C 36.546 241.177,36.539 241.062,36.924 240.232 C 37.498 238.995,37.456 239.005,37.726 240.040 M38.196 242.106 C 37.627 242.425,37.601 242.562,38.052 242.877 C 38.499 243.190,38.489 243.228,38.000 243.080 C 37.670 242.981,37.445 242.697,37.500 242.450 C 37.555 242.203,37.285 241.987,36.900 241.972 C 36.307 241.948,36.322 241.896,37.000 241.627 C 38.124 241.183,39.127 241.585,38.196 242.106 M39.382 243.794 C 39.406 244.337,39.185 244.873,38.892 244.986 C 38.562 245.113,38.468 245.014,38.645 244.727 C 38.829 244.429,38.720 244.345,38.337 244.492 C 37.994 244.624,37.535 244.388,37.253 243.936 C 36.811 243.229,36.839 243.193,37.540 243.568 C 38.317 243.984,39.455 243.278,38.997 242.663 C 38.888 242.518,38.921 242.491,39.070 242.603 C 39.218 242.714,39.359 243.250,39.382 243.794 M44.263 246.980 C 44.107 247.387,44.233 247.486,44.686 247.312 C 45.116 247.147,45.235 247.220,45.042 247.532 C 44.647 248.172,43.600 248.124,43.600 247.467 C 43.600 246.943,43.961 246.400,44.309 246.400 C 44.406 246.400,44.386 246.661,44.263 246.980 M42.970 247.297 C 43.133 247.133,43.207 247.259,43.133 247.576 C 43.059 247.897,43.355 248.225,43.800 248.315 C 44.240 248.404,44.780 248.667,45.000 248.898 C 45.274 249.185,45.195 249.246,44.749 249.090 C 44.391 248.965,43.896 249.064,43.649 249.311 C 43.317 249.643,43.200 249.583,43.200 249.080 C 43.200 248.706,43.065 248.421,42.900 248.447 C 42.735 248.473,42.465 248.451,42.300 248.397 C 42.022 248.307,41.505 248.171,40.984 248.050 C 40.866 248.023,41.001 247.748,41.284 247.440 C 41.601 247.097,41.969 247.018,42.237 247.237 C 42.477 247.433,42.807 247.460,42.970 247.297 M40.642 249.835 C 40.313 250.692,40.333 250.800,40.824 250.800 C 41.057 250.800,41.145 250.635,41.021 250.434 C 40.897 250.233,41.012 249.996,41.278 249.907 C 41.617 249.794,41.630 249.666,41.322 249.476 C 41.081 249.327,40.775 249.488,40.642 249.835 M47.230 250.210 C 47.198 250.623,46.432 250.771,45.857 250.476 C 45.453 250.269,46.447 249.565,46.930 249.717 C 47.112 249.773,47.247 249.995,47.230 250.210 M42.940 251.787 C 43.064 252.110,42.993 252.481,42.783 252.611 C 42.572 252.741,42.400 252.535,42.400 252.154 C 42.400 251.561,42.255 251.597,41.402 252.399 C 40.852 252.914,40.294 253.228,40.162 253.095 C 39.824 252.757,40.383 251.942,40.782 252.189 C 40.962 252.300,41.332 252.123,41.604 251.796 C 42.229 251.042,42.653 251.040,42.940 251.787 M46.155 256.573 C 46.034 256.888,45.610 257.121,45.212 257.091 C 44.261 257.019,44.652 256.000,45.630 256.000 C 46.112 256.000,46.297 256.202,46.155 256.573 M43.505 258.825 C 43.634 259.300,43.595 259.305,43.279 258.855 C 42.956 258.394,42.863 258.394,42.680 258.855 C 42.534 259.222,42.453 259.160,42.432 258.667 C 42.395 257.828,43.271 257.957,43.505 258.825 M44.898 267.092 C 44.621 267.189,44.497 267.433,44.622 267.635 C 44.758 267.856,45.137 267.848,45.572 267.615 C 45.969 267.402,46.363 267.267,46.447 267.314 C 46.531 267.361,46.550 267.320,46.488 267.222 C 46.324 266.959,45.474 266.890,44.898 267.092 M48.180 273.945 C 48.230 274.281,48.484 274.598,48.745 274.648 C 49.029 274.703,49.049 274.656,48.793 274.531 C 48.500 274.388,48.495 274.167,48.777 273.828 C 49.069 273.476,49.029 273.333,48.639 273.333 C 48.337 273.333,48.131 273.609,48.180 273.945 M48.624 276.100 C 49.164 277.851,50.019 279.182,50.904 279.648 C 51.397 279.907,51.950 280.318,52.132 280.560 C 52.315 280.802,52.358 280.235,52.228 279.300 C 52.076 278.211,52.144 277.600,52.419 277.600 C 53.023 277.600,52.511 276.887,51.529 276.362 C 51.009 276.084,50.798 276.073,50.958 276.332 C 51.098 276.559,51.049 276.846,50.849 276.970 C 50.649 277.093,50.373 276.746,50.235 276.197 C 50.070 275.540,49.705 275.200,49.165 275.200 C 48.500 275.200,48.398 275.369,48.624 276.100 M61.374 297.242 C 61.185 297.547,61.245 297.619,61.538 297.438 C 61.815 297.267,62.000 297.413,62.000 297.800 C 62.000 298.156,62.173 298.340,62.385 298.209 C 62.597 298.078,63.137 298.337,63.585 298.785 C 64.600 299.800,64.800 299.805,64.800 298.814 C 64.800 298.019,63.510 297.023,63.062 297.471 C 62.929 297.605,62.561 297.500,62.245 297.238 C 61.801 296.869,61.604 296.870,61.374 297.242 " stroke="none" fill="#25a864" fill-rule="evenodd"></path><path id="path2" d="M137.400 39.889 C 136.069 40.217,135.600 40.831,135.600 42.249 C 135.600 43.012,135.397 43.600,135.133 43.600 C 134.877 43.600,134.765 43.699,134.886 43.819 C 135.007 43.940,135.594 43.916,136.191 43.767 C 136.826 43.607,137.090 43.379,136.827 43.217 C 136.529 43.033,136.718 42.574,137.389 41.849 C 137.945 41.249,138.400 40.880,138.400 41.028 C 138.400 41.177,138.670 41.074,139.000 40.800 C 140.230 39.779,139.512 39.370,137.400 39.889 M131.105 43.883 C 131.602 43.979,132.322 43.975,132.705 43.875 C 133.087 43.775,132.680 43.696,131.800 43.701 C 130.920 43.705,130.607 43.787,131.105 43.883 M127.467 44.267 C 127.320 44.413,127.203 44.998,127.206 45.567 C 127.211 46.351,127.301 46.460,127.580 46.019 C 127.782 45.700,127.858 45.295,127.750 45.119 C 127.642 44.944,127.833 44.800,128.176 44.800 C 128.519 44.800,128.800 44.620,128.800 44.400 C 128.800 43.950,127.876 43.858,127.467 44.267 M119.252 48.508 C 119.003 48.757,118.811 49.599,118.825 50.380 C 118.848 51.672,118.884 51.716,119.226 50.863 C 119.433 50.348,119.498 49.758,119.371 49.553 C 119.244 49.348,119.379 49.230,119.670 49.290 C 119.962 49.351,120.151 49.162,120.090 48.870 C 120.030 48.579,120.163 48.454,120.387 48.592 C 120.611 48.730,121.083 48.681,121.436 48.484 C 121.935 48.205,121.813 48.116,120.891 48.090 C 120.238 48.072,119.500 48.260,119.252 48.508 M114.400 52.320 C 114.400 52.496,115.075 52.575,115.900 52.497 C 118.472 52.252,118.682 52.095,116.500 52.046 C 115.345 52.021,114.400 52.144,114.400 52.320 M110.929 53.040 C 110.617 53.853,111.599 54.499,112.282 53.932 C 112.562 53.699,112.703 53.367,112.595 53.192 C 112.487 53.017,112.759 52.969,113.199 53.084 C 113.647 53.201,114.000 53.096,114.000 52.847 C 114.000 52.125,111.213 52.300,110.929 53.040 M110.400 55.400 C 110.400 55.950,110.599 56.400,110.843 56.400 C 111.086 56.400,111.182 56.130,111.055 55.800 C 110.929 55.470,110.999 55.200,111.213 55.200 C 111.426 55.200,111.600 55.020,111.600 54.800 C 111.600 54.580,111.330 54.400,111.000 54.400 C 110.627 54.400,110.400 54.778,110.400 55.400 M106.406 57.300 C 106.411 58.028,106.486 58.085,106.800 57.600 C 107.301 56.824,107.301 56.400,106.800 56.400 C 106.580 56.400,106.403 56.805,106.406 57.300 M105.000 59.600 C 104.293 60.381,104.301 60.400,105.338 60.400 C 106.133 60.400,106.400 60.199,106.400 59.600 C 106.400 59.160,106.248 58.800,106.062 58.800 C 105.876 58.800,105.398 59.160,105.000 59.600 M99.833 60.747 C 98.135 61.115,97.984 62.033,99.654 61.838 C 100.379 61.754,101.035 61.496,101.112 61.265 C 101.189 61.034,101.492 60.937,101.785 61.050 C 102.079 61.162,102.438 61.062,102.583 60.827 C 102.871 60.362,101.762 60.330,99.833 60.747 M98.700 62.276 C 97.916 62.481,97.683 64.800,98.447 64.800 C 98.696 64.800,98.801 64.447,98.684 64.000 C 98.569 63.560,98.619 63.200,98.795 63.200 C 98.971 63.200,99.218 62.930,99.345 62.600 C 99.471 62.270,99.536 62.021,99.487 62.046 C 99.439 62.072,99.085 62.175,98.700 62.276 M94.002 66.100 L 94.005 67.400 94.602 66.254 C 95.340 64.840,95.340 64.800,94.600 64.800 C 94.189 64.800,94.001 65.210,94.002 66.100 M89.750 69.387 C 89.325 70.494,89.800 70.726,90.519 69.763 C 91.146 68.923,91.157 68.800,90.606 68.800 C 90.259 68.800,89.874 69.064,89.750 69.387 M77.467 81.467 C 77.320 81.613,77.200 82.008,77.200 82.343 C 77.200 82.867,77.270 82.861,77.700 82.301 C 77.975 81.943,78.740 81.576,79.400 81.485 C 80.524 81.330,80.510 81.316,79.167 81.260 C 78.378 81.227,77.613 81.320,77.467 81.467 M72.893 88.000 C 72.893 88.770,72.975 89.085,73.076 88.700 C 73.176 88.315,73.176 87.685,73.076 87.300 C 72.975 86.915,72.893 87.230,72.893 88.000 M68.938 90.217 C 68.576 91.161,68.904 91.209,69.944 90.366 C 70.876 89.610,70.877 89.600,70.032 89.600 C 69.560 89.600,69.068 89.878,68.938 90.217 M65.139 94.300 C 65.106 94.465,65.036 94.780,64.985 95.000 C 64.934 95.220,64.872 95.983,64.846 96.695 C 64.804 97.885,64.671 98.011,63.208 98.245 C 61.170 98.571,60.944 98.895,60.718 101.800 C 60.615 103.120,60.604 103.795,60.692 103.300 C 60.781 102.805,61.111 102.400,61.427 102.400 C 61.742 102.400,62.000 102.209,62.000 101.976 C 62.000 101.743,62.168 101.656,62.372 101.783 C 63.220 102.307,64.698 100.206,64.993 98.056 C 65.164 96.813,65.605 95.595,66.044 95.156 C 66.460 94.740,66.800 94.310,66.800 94.200 C 66.800 93.876,65.206 93.972,65.139 94.300 M56.769 106.567 C 56.177 107.212,56.597 107.946,57.230 107.373 C 57.654 106.989,58.000 106.644,58.000 106.605 C 58.000 106.536,56.831 106.499,56.769 106.567 M53.740 111.387 C 53.279 111.710,52.699 112.780,52.451 113.764 C 51.899 115.953,51.896 116.112,52.400 115.800 C 52.620 115.664,52.800 115.181,52.800 114.727 C 52.800 114.112,52.927 114.008,53.301 114.318 C 53.968 114.871,56.191 112.910,56.283 111.688 C 56.364 110.621,55.054 110.467,53.740 111.387 M54.586 112.471 C 54.494 112.949,54.224 113.534,53.986 113.771 C 53.676 114.078,53.635 113.983,53.844 113.434 C 54.070 112.842,54.008 112.744,53.568 113.003 C 53.256 113.187,53.343 112.947,53.762 112.469 C 54.711 111.387,54.795 111.387,54.586 112.471 M52.000 118.333 C 52.000 118.590,51.640 118.800,51.200 118.800 C 50.756 118.800,50.400 119.067,50.400 119.400 C 50.400 119.730,50.627 120.000,50.904 120.000 C 51.483 120.000,52.569 118.436,52.228 118.094 C 52.102 117.969,52.000 118.077,52.000 118.333 M48.390 120.226 C 47.852 121.642,47.887 125.008,48.426 123.663 C 48.633 123.148,48.683 122.535,48.539 122.301 C 48.384 122.051,48.466 121.994,48.738 122.162 C 49.008 122.328,49.200 122.201,49.200 121.857 C 49.200 121.532,49.065 121.191,48.900 121.099 C 48.735 121.007,48.803 120.978,49.051 121.034 C 49.708 121.185,50.372 120.392,50.126 119.751 C 49.782 118.855,48.810 119.121,48.390 120.226 M46.090 127.484 C 44.833 127.725,44.007 129.144,44.075 130.948 C 44.117 132.056,44.227 132.294,44.486 131.832 C 44.681 131.485,45.191 131.200,45.620 131.200 C 46.049 131.200,46.400 131.009,46.400 130.776 C 46.400 130.543,46.175 130.484,45.900 130.645 C 45.625 130.806,45.739 130.551,46.153 130.078 C 46.568 129.606,47.091 129.332,47.315 129.471 C 47.549 129.616,47.602 129.526,47.438 129.262 C 47.281 129.008,47.343 128.800,47.576 128.800 C 47.809 128.800,48.000 128.440,48.000 128.000 C 48.000 127.203,47.815 127.153,46.090 127.484 M43.734 136.000 C 43.734 137.650,43.805 138.325,43.891 137.500 C 43.978 136.675,43.978 135.325,43.891 134.500 C 43.805 133.675,43.734 134.350,43.734 136.000 M40.080 140.080 C 39.482 140.678,39.450 142.000,40.033 142.000 C 40.272 142.000,40.393 141.779,40.303 141.509 C 40.084 140.851,40.870 140.052,41.498 140.293 C 41.774 140.399,42.000 140.286,42.000 140.043 C 42.000 139.452,40.683 139.477,40.080 140.080 M37.879 152.254 C 37.740 152.394,37.215 152.529,36.713 152.554 C 35.959 152.592,35.788 152.844,35.731 154.000 C 35.667 155.305,35.700 155.346,36.218 154.600 C 37.247 153.116,37.629 152.800,38.392 152.800 C 38.811 152.800,39.264 152.620,39.400 152.400 C 39.667 151.967,38.298 151.836,37.879 152.254 M32.237 170.100 C 31.531 171.194,30.875 177.048,31.503 176.660 C 31.732 176.518,31.883 175.862,31.837 175.201 C 31.761 174.104,32.025 173.805,32.930 173.963 C 33.111 173.994,33.157 173.853,33.031 173.650 C 32.905 173.447,33.432 172.728,34.201 172.053 C 36.084 170.399,36.088 169.200,34.209 169.200 C 33.206 169.200,32.657 169.451,32.237 170.100 M31.309 178.800 C 31.309 179.790,31.387 180.195,31.482 179.700 C 31.578 179.205,31.578 178.395,31.482 177.900 C 31.387 177.405,31.309 177.810,31.309 178.800 M31.344 185.200 C 31.344 187.290,31.412 188.145,31.494 187.100 C 31.576 186.055,31.576 184.345,31.494 183.300 C 31.412 182.255,31.344 183.110,31.344 185.200 M31.301 195.800 C 31.305 196.680,31.387 196.993,31.483 196.495 C 31.579 195.998,31.575 195.278,31.475 194.895 C 31.375 194.513,31.296 194.920,31.301 195.800 M31.301 204.200 C 31.305 205.080,31.387 205.393,31.483 204.895 C 31.579 204.398,31.575 203.678,31.475 203.295 C 31.375 202.913,31.296 203.320,31.301 204.200 M31.267 219.219 C 31.422 230.012,31.622 230.800,34.209 230.800 C 36.170 230.800,36.042 229.747,33.807 227.512 C 32.821 226.526,31.966 225.767,31.907 225.826 C 31.848 225.885,31.742 222.395,31.670 218.070 C 31.599 213.745,31.448 210.115,31.336 210.003 C 31.224 209.892,31.192 214.039,31.267 219.219 M137.663 214.324 L 135.926 216.400 131.487 216.400 L 127.048 216.400 125.017 218.600 C 123.025 220.758,122.943 220.800,120.769 220.800 C 118.355 220.800,117.902 221.051,116.257 223.300 C 115.199 224.746,115.072 224.800,112.749 224.800 C 110.175 224.800,110.350 224.689,107.211 228.300 C 106.484 229.136,106.100 229.200,101.833 229.200 C 97.324 229.200,97.224 229.220,96.519 230.249 C 94.728 232.861,94.171 233.200,91.667 233.200 L 89.297 233.200 87.418 235.400 C 85.545 237.592,85.530 237.600,83.246 237.600 C 80.754 237.600,80.308 237.843,78.657 240.100 L 77.559 241.600 73.056 241.600 C 68.165 241.600,68.057 241.640,66.257 244.100 C 65.199 245.546,65.072 245.600,62.749 245.600 C 60.175 245.600,60.350 245.489,57.211 249.100 C 56.563 249.845,56.018 250.000,54.046 250.000 L 51.664 250.000 49.732 252.377 C 47.562 255.047,47.324 255.172,46.812 253.900 C 46.471 253.051,46.449 253.046,46.425 253.820 C 46.411 254.271,46.191 254.849,45.935 255.105 C 45.581 255.459,45.734 255.523,46.576 255.370 L 47.682 255.169 46.846 256.232 C 46.387 256.816,46.120 257.471,46.254 257.687 C 46.389 257.906,46.133 257.885,45.673 257.639 C 45.119 257.343,44.766 257.332,44.597 257.605 C 44.458 257.830,44.189 257.917,43.998 257.799 C 43.805 257.679,43.807 258.128,44.003 258.812 C 44.455 260.385,42.782 260.382,41.207 258.807 C 40.030 257.630,39.658 256.183,40.628 256.556 C 40.979 256.690,41.386 256.803,41.533 256.806 C 41.680 256.809,41.530 256.987,41.200 257.200 C 40.683 257.534,40.693 257.589,41.275 257.594 C 41.692 257.598,41.929 257.311,41.893 256.844 C 41.856 256.345,41.626 256.163,41.218 256.308 C 40.844 256.441,40.991 256.099,41.591 255.442 C 42.251 254.717,42.361 254.440,41.922 254.609 C 41.559 254.748,41.164 255.118,41.043 255.431 C 40.923 255.744,40.639 256.000,40.413 256.000 C 39.823 256.000,39.901 254.107,40.500 253.865 C 40.799 253.744,40.718 253.650,40.300 253.632 C 39.698 253.604,39.600 253.987,39.600 256.371 C 39.600 259.569,40.130 260.400,42.168 260.400 L 43.478 260.400 43.750 265.487 C 44.025 270.636,44.544 272.400,45.783 272.400 C 46.094 272.400,46.855 272.609,47.474 272.865 C 48.093 273.120,48.748 273.296,48.930 273.255 C 49.111 273.214,49.144 273.368,49.002 273.597 C 48.861 273.826,48.605 273.927,48.435 273.822 C 47.970 273.534,47.903 278.494,48.356 279.685 C 48.660 280.483,49.125 280.785,50.375 280.996 C 51.956 281.263,52.000 281.313,52.000 282.858 C 52.000 286.734,53.020 288.701,55.268 289.160 C 56.475 289.407,56.532 289.507,56.565 291.409 L 56.600 293.400 58.600 293.600 L 60.600 293.800 60.712 297.173 C 60.840 301.041,61.038 301.408,63.186 301.751 C 64.735 301.999,64.758 302.029,64.878 303.901 L 65.000 305.800 66.880 305.921 L 68.760 306.042 68.880 308.121 L 69.000 310.200 70.900 310.322 C 72.665 310.435,72.800 310.520,72.805 311.522 C 72.818 314.004,73.163 314.439,75.043 314.341 C 77.201 314.230,77.299 314.330,77.355 316.688 L 77.400 318.600 79.400 318.600 L 81.400 318.600 81.400 320.600 L 81.400 322.600 83.500 322.721 C 85.746 322.850,85.753 322.858,85.614 325.447 C 85.543 326.781,86.202 327.183,88.478 327.195 C 89.480 327.200,89.565 327.335,89.678 329.100 L 89.800 331.000 91.593 331.128 C 93.656 331.274,93.985 331.628,93.994 333.700 L 94.000 335.200 95.947 335.200 L 97.895 335.200 98.116 336.848 C 98.420 339.114,98.594 339.213,102.742 339.481 L 106.400 339.718 106.400 341.659 L 106.400 343.600 108.375 343.600 L 110.351 343.600 110.617 345.373 C 110.930 347.462,110.951 347.473,115.373 347.832 L 118.800 348.110 118.800 349.606 C 118.800 351.684,119.446 352.063,122.873 351.998 C 127.458 351.910,127.142 351.773,127.278 353.900 L 127.400 355.800 131.500 356.143 L 135.600 356.486 135.600 357.794 C 135.600 359.450,136.194 359.933,138.640 360.266 C 140.347 360.498,140.537 360.455,140.110 359.937 C 139.472 359.163,139.575 356.575,140.314 354.800 C 140.888 353.422,140.462 270.195,139.656 226.224 L 139.400 212.248 137.663 214.324 M36.047 235.571 C 35.646 235.819,35.669 235.941,36.154 236.127 C 36.495 236.258,36.873 236.205,36.994 236.010 C 37.309 235.500,36.654 235.196,36.047 235.571 M36.924 240.232 C 36.539 241.062,36.546 241.177,36.961 240.833 C 37.243 240.599,37.580 240.513,37.710 240.643 C 37.840 240.773,37.847 240.501,37.726 240.040 C 37.456 239.005,37.498 238.995,36.924 240.232 M37.000 241.627 C 36.322 241.896,36.307 241.948,36.900 241.972 C 37.285 241.987,37.555 242.203,37.500 242.450 C 37.445 242.697,37.670 242.981,38.000 243.080 C 38.489 243.228,38.499 243.190,38.052 242.877 C 37.601 242.562,37.627 242.425,38.196 242.106 C 39.127 241.585,38.124 241.183,37.000 241.627 M35.715 244.967 C 35.794 247.236,35.868 247.408,36.800 247.524 C 39.434 247.851,40.435 247.902,40.233 247.700 C 40.112 247.578,40.325 247.223,40.706 246.910 C 41.088 246.597,41.152 246.469,40.848 246.626 C 40.479 246.817,40.363 246.728,40.498 246.356 C 40.609 246.050,40.873 245.835,41.083 245.878 C 41.294 245.921,41.467 245.698,41.467 245.384 C 41.467 244.976,41.326 244.930,40.972 245.223 C 40.700 245.449,40.400 245.491,40.304 245.317 C 40.209 245.143,40.186 245.225,40.253 245.500 C 40.409 246.140,39.720 246.159,39.507 245.520 C 39.406 245.219,39.250 245.291,39.088 245.715 C 38.936 246.110,39.010 246.351,39.264 246.295 C 39.504 246.243,39.778 246.411,39.873 246.668 C 40.064 247.185,39.520 247.138,37.979 246.502 C 36.864 246.041,35.813 243.547,36.461 242.899 C 36.682 242.678,36.590 242.533,36.229 242.533 C 35.754 242.533,35.648 243.036,35.715 244.967 M38.997 242.663 C 39.455 243.278,38.317 243.984,37.540 243.568 C 36.839 243.193,36.811 243.229,37.253 243.936 C 37.535 244.388,37.994 244.624,38.337 244.492 C 38.720 244.345,38.829 244.429,38.645 244.727 C 38.468 245.014,38.562 245.113,38.892 244.986 C 39.432 244.779,39.566 242.977,39.070 242.603 C 38.921 242.491,38.888 242.518,38.997 242.663 M43.867 246.667 C 43.720 246.813,43.600 247.173,43.600 247.467 C 43.600 248.124,44.647 248.172,45.042 247.532 C 45.235 247.220,45.116 247.147,44.686 247.312 C 44.233 247.486,44.107 247.387,44.263 246.980 C 44.498 246.367,44.313 246.221,43.867 246.667 M41.284 247.440 C 41.001 247.748,40.866 248.023,40.984 248.050 C 41.505 248.171,42.022 248.307,42.300 248.397 C 42.465 248.451,42.735 248.473,42.900 248.447 C 43.065 248.421,43.200 248.706,43.200 249.080 C 43.200 249.583,43.317 249.643,43.649 249.311 C 43.896 249.064,44.391 248.965,44.749 249.090 C 45.195 249.246,45.274 249.185,45.000 248.898 C 44.780 248.667,44.240 248.404,43.800 248.315 C 43.355 248.225,43.059 247.897,43.133 247.576 C 43.207 247.259,43.133 247.133,42.970 247.297 C 42.807 247.460,42.477 247.433,42.237 247.237 C 41.969 247.018,41.601 247.097,41.284 247.440 M40.242 249.365 C 40.359 249.670,40.254 250.043,40.008 250.195 C 39.301 250.632,40.292 251.553,41.210 251.313 C 41.640 251.201,41.894 250.952,41.775 250.759 C 41.656 250.567,41.820 250.509,42.139 250.632 C 42.458 250.754,42.825 250.683,42.955 250.473 C 43.085 250.263,42.815 249.993,42.355 249.872 C 41.896 249.752,41.615 249.500,41.731 249.312 C 41.847 249.124,41.512 248.934,40.986 248.891 C 40.317 248.835,40.093 248.978,40.242 249.365 M41.278 249.907 C 41.012 249.996,40.897 250.233,41.021 250.434 C 41.145 250.635,41.057 250.800,40.824 250.800 C 40.333 250.800,40.313 250.692,40.642 249.835 C 40.775 249.488,41.081 249.327,41.322 249.476 C 41.630 249.666,41.617 249.794,41.278 249.907 M46.057 249.957 C 45.493 250.314,45.835 250.671,46.700 250.626 C 47.260 250.597,47.442 249.877,46.930 249.717 C 46.749 249.660,46.356 249.768,46.057 249.957 M41.623 251.772 C 41.362 252.087,40.810 252.279,40.397 252.199 C 39.878 252.100,39.714 252.232,39.866 252.627 C 40.160 253.395,40.385 253.353,41.474 252.330 C 42.285 251.569,42.400 251.547,42.400 252.154 C 42.400 252.535,42.572 252.741,42.783 252.611 C 43.204 252.350,42.897 251.200,42.406 251.200 C 42.237 251.200,41.884 251.457,41.623 251.772 M44.687 256.518 C 44.572 256.816,44.796 257.060,45.212 257.091 C 45.610 257.121,46.034 256.888,46.155 256.573 C 46.297 256.202,46.112 256.000,45.630 256.000 C 45.221 256.000,44.796 256.233,44.687 256.518 M42.432 258.667 C 42.453 259.160,42.534 259.222,42.680 258.855 C 42.863 258.394,42.956 258.394,43.279 258.855 C 43.595 259.305,43.634 259.300,43.505 258.825 C 43.271 257.957,42.395 257.828,42.432 258.667 M46.488 267.222 C 46.550 267.320,46.531 267.361,46.447 267.314 C 46.363 267.267,45.969 267.402,45.572 267.615 C 45.137 267.848,44.758 267.856,44.622 267.635 C 44.497 267.433,44.621 267.189,44.898 267.092 C 45.474 266.890,46.324 266.959,46.488 267.222 M50.235 276.197 C 50.373 276.746,50.649 277.093,50.849 276.970 C 51.049 276.846,51.098 276.559,50.958 276.332 C 50.798 276.073,51.009 276.084,51.529 276.362 C 52.511 276.887,53.023 277.600,52.419 277.600 C 52.144 277.600,52.076 278.211,52.228 279.300 C 52.358 280.235,52.315 280.802,52.132 280.560 C 51.950 280.318,51.397 279.907,50.904 279.648 C 49.255 278.780,47.856 275.200,49.165 275.200 C 49.705 275.200,50.070 275.540,50.235 276.197 M63.062 297.471 C 63.510 297.023,64.800 298.019,64.800 298.814 C 64.800 299.805,64.600 299.800,63.585 298.785 C 63.137 298.337,62.597 298.078,62.385 298.209 C 62.173 298.340,62.000 298.156,62.000 297.800 C 62.000 297.413,61.815 297.267,61.538 297.438 C 61.245 297.619,61.185 297.547,61.374 297.242 C 61.604 296.870,61.801 296.869,62.245 297.238 C 62.561 297.500,62.929 297.605,63.062 297.471 " stroke="none" fill="#149451" fill-rule="evenodd"></path><path id="path3" d="M166.151 31.679 C 165.985 31.948,166.058 32.011,166.338 31.838 C 166.592 31.681,166.800 31.743,166.800 31.976 C 166.800 32.516,166.126 32.528,165.796 31.993 C 165.658 31.770,165.368 31.696,165.153 31.829 C 164.907 31.981,164.939 32.285,165.238 32.645 C 165.500 32.961,165.598 33.335,165.457 33.476 C 165.316 33.618,165.200 33.486,165.200 33.183 C 165.200 32.881,164.576 33.295,163.813 34.104 L 162.425 35.575 155.600 35.637 C 148.042 35.706,147.632 35.859,148.145 38.426 C 148.357 39.486,148.282 39.561,146.885 39.677 C 145.178 39.818,144.940 40.917,145.862 44.400 C 146.220 45.752,146.385 65.759,146.523 124.800 C 146.696 198.444,147.348 279.598,147.856 290.700 L 148.081 295.600 150.378 295.600 C 152.643 295.600,152.698 295.572,154.361 293.600 C 156.031 291.620,156.071 291.600,158.387 291.600 C 160.703 291.600,160.741 291.581,162.400 289.600 C 164.069 287.607,164.083 287.600,166.483 287.600 C 168.683 287.600,168.984 287.492,169.946 286.362 C 172.629 283.210,172.645 283.200,174.897 283.200 C 176.927 283.200,177.125 283.104,179.000 281.200 C 180.895 279.276,181.055 279.200,183.185 279.203 C 185.331 279.206,185.464 279.141,187.460 277.103 C 193.768 270.663,193.583 270.799,196.063 270.800 C 198.288 270.800,198.353 270.767,200.000 268.800 C 201.587 266.904,201.776 266.800,203.618 266.800 C 206.128 266.800,207.126 266.293,208.615 264.259 C 209.808 262.630,209.879 262.598,212.510 262.482 C 214.874 262.378,215.273 262.242,215.895 261.333 C 217.667 258.743,218.232 258.400,220.733 258.400 L 223.103 258.400 224.982 256.200 L 226.862 254.000 229.207 254.000 C 231.530 254.000,231.569 253.981,233.239 252.000 C 234.892 250.039,234.969 250.000,237.163 250.000 C 239.613 250.001,239.443 250.126,245.740 243.697 C 247.755 241.639,247.850 241.594,250.106 241.597 C 252.368 241.600,252.448 241.561,254.357 239.528 L 256.303 237.455 256.576 216.428 C 256.727 204.862,257.021 184.690,257.230 171.600 C 257.439 158.510,257.715 125.030,257.843 97.200 C 257.996 64.206,258.222 46.043,258.493 45.000 C 258.722 44.120,258.936 42.545,258.969 41.500 L 259.029 39.600 257.514 39.600 C 256.681 39.600,256.000 39.409,256.000 39.176 C 256.000 38.943,255.835 38.855,255.634 38.979 C 255.432 39.104,255.477 38.650,255.734 37.970 C 256.140 36.892,256.101 36.663,255.423 36.168 C 254.560 35.536,253.023 35.389,253.383 35.972 C 253.509 36.177,253.402 36.475,253.145 36.634 C 252.852 36.815,252.784 36.750,252.962 36.462 C 253.119 36.208,253.057 35.977,252.824 35.950 C 252.591 35.923,252.220 35.855,252.000 35.800 C 251.780 35.745,248.923 35.678,245.652 35.650 L 239.704 35.600 239.499 33.780 C 239.386 32.779,239.168 31.834,239.014 31.680 C 238.513 31.180,166.461 31.178,166.151 31.679 M356.400 130.151 C 356.400 130.522,356.678 130.932,357.017 131.062 C 357.988 131.434,358.082 130.998,357.202 130.202 C 356.470 129.540,356.400 129.535,356.400 130.151 M148.000 362.000 C 148.000 362.567,148.263 362.796,148.900 362.788 C 149.711 362.777,149.730 362.735,149.092 362.363 C 148.702 362.136,148.488 361.782,148.615 361.575 C 148.743 361.369,148.657 361.200,148.424 361.200 C 148.191 361.200,148.000 361.560,148.000 362.000 M255.000 362.027 C 254.322 362.295,254.307 362.348,254.900 362.372 C 255.285 362.387,255.600 362.591,255.600 362.824 C 255.600 363.057,255.431 363.143,255.225 363.015 C 255.018 362.888,254.703 363.037,254.525 363.347 C 254.346 363.657,253.840 364.000,253.400 364.109 C 252.643 364.296,252.646 364.310,253.456 364.354 C 254.562 364.414,256.131 363.141,255.945 362.335 C 255.840 361.883,255.577 361.798,255.000 362.027 M148.400 363.524 C 148.400 363.940,149.920 364.613,150.208 364.325 C 150.290 364.243,150.189 363.912,149.984 363.588 C 149.688 363.119,149.611 363.111,149.606 363.549 C 149.601 363.992,149.484 364.001,149.000 363.600 C 148.627 363.291,148.400 363.262,148.400 363.524 M239.152 365.513 C 239.021 366.307,239.079 366.681,239.301 366.459 C 239.503 366.257,239.601 365.667,239.519 365.146 C 239.393 364.345,239.337 364.402,239.152 365.513 M238.000 367.833 C 238.000 368.182,238.214 368.395,238.475 368.308 C 239.217 368.061,239.340 367.200,238.633 367.200 C 238.285 367.200,238.000 367.485,238.000 367.833 M166.349 368.100 C 166.909 368.814,169.041 369.113,168.611 368.417 C 168.481 368.207,168.108 368.137,167.782 368.262 C 167.456 368.387,166.877 368.244,166.495 367.945 C 165.866 367.452,165.852 367.467,166.349 368.100 " stroke="none" fill="#d7e4ec" fill-rule="evenodd"></path><path id="path4" d="M141.052 40.084 C 141.159 40.258,141.096 40.400,140.912 40.400 C 140.085 40.400,140.777 43.667,141.770 44.448 C 143.599 45.887,143.544 42.077,144.025 200.445 C 144.500 356.763,144.512 354.796,143.104 355.782 C 142.229 356.395,141.793 358.225,142.428 358.617 C 143.030 358.989,142.854 359.706,142.220 359.463 C 141.855 359.323,141.715 359.433,141.840 359.760 C 141.978 360.119,142.966 360.286,145.047 360.300 C 148.262 360.323,148.407 360.368,148.558 361.395 C 148.612 361.763,148.914 362.227,149.228 362.426 C 149.627 362.678,149.649 362.790,149.300 362.794 C 149.025 362.797,148.800 362.999,148.800 363.243 C 148.800 363.486,149.058 363.586,149.374 363.465 C 149.690 363.344,150.016 363.447,150.098 363.694 C 150.199 363.996,152.606 364.197,157.424 364.308 C 161.371 364.398,164.644 364.516,164.699 364.568 C 164.753 364.621,164.837 365.138,164.885 365.716 C 164.933 366.294,165.309 367.180,165.721 367.684 C 166.132 368.188,166.329 368.330,166.158 368.000 C 165.900 367.503,165.952 367.486,166.463 367.899 C 166.802 368.174,167.651 368.332,168.348 368.251 C 169.046 368.169,169.706 368.248,169.815 368.424 C 170.064 368.827,233.509 368.871,233.757 368.469 C 233.858 368.307,234.675 368.215,235.573 368.265 C 237.470 368.371,239.200 367.017,239.200 365.426 L 239.200 364.489 246.314 364.341 C 252.877 364.205,253.513 364.127,254.527 363.329 C 255.480 362.579,255.532 362.439,254.913 362.278 C 254.253 362.107,254.255 362.089,254.943 362.046 C 255.410 362.017,255.605 361.790,255.468 361.433 C 255.185 360.695,256.018 360.400,258.392 360.400 L 260.319 360.400 260.209 358.500 C 260.149 357.455,259.874 355.790,259.598 354.800 C 259.021 352.731,259.822 46.281,260.407 45.214 C 260.583 44.892,261.329 44.418,262.064 44.162 C 262.869 43.881,263.340 43.478,263.249 43.148 C 263.063 42.470,263.080 42.039,263.337 40.939 C 263.570 39.944,263.015 39.710,260.600 39.781 L 259.000 39.828 258.959 41.614 C 258.936 42.596,258.729 44.120,258.497 45.000 C 258.221 46.054,257.997 63.876,257.843 97.200 C 257.715 125.030,257.439 158.510,257.230 171.600 C 257.021 184.690,256.727 204.862,256.576 216.428 L 256.303 237.455 254.357 239.528 C 252.448 241.561,252.368 241.600,250.106 241.597 C 247.850 241.594,247.755 241.639,245.740 243.697 C 239.443 250.126,239.613 250.001,237.163 250.000 C 234.969 250.000,234.892 250.039,233.239 252.000 C 231.569 253.981,231.530 254.000,229.207 254.000 L 226.862 254.000 224.982 256.200 L 223.103 258.400 220.733 258.400 C 218.232 258.400,217.667 258.743,215.895 261.333 C 215.273 262.242,214.874 262.378,212.510 262.482 C 209.879 262.598,209.808 262.630,208.615 264.259 C 207.126 266.293,206.128 266.800,203.618 266.800 C 201.776 266.800,201.587 266.904,200.000 268.800 C 198.353 270.767,198.288 270.800,196.063 270.800 C 193.583 270.799,193.768 270.663,187.460 277.103 C 185.464 279.141,185.331 279.206,183.185 279.203 C 181.055 279.200,180.895 279.276,179.000 281.200 C 177.119 283.110,176.933 283.200,174.869 283.200 C 172.947 283.200,172.591 283.337,171.654 284.438 C 168.932 287.635,168.990 287.600,166.455 287.600 C 164.088 287.600,164.065 287.612,162.400 289.600 C 160.741 291.581,160.703 291.600,158.387 291.600 C 156.071 291.600,156.031 291.620,154.361 293.600 C 152.698 295.572,152.643 295.600,150.378 295.600 L 148.081 295.600 147.856 290.700 C 147.348 279.598,146.696 198.444,146.523 124.800 C 146.382 64.714,146.224 45.776,145.851 44.400 C 145.583 43.410,145.374 41.927,145.387 41.104 L 145.412 39.607 143.134 39.688 C 141.882 39.733,140.945 39.911,141.052 40.084 " stroke="none" fill="#bcc4cd" fill-rule="evenodd"></path></g></svg>