<svg id="svg" version="1.1" xmlns="http://www.w3.org/2000/svg" xmlns:xlink="http://www.w3.org/1999/xlink" width="400" height="400" viewBox="0, 0, 400,400"><g id="svgg"><path id="path0" d="M120.600 267.260 C 44.294 267.553,43.595 267.568,43.608 268.933 C 43.651 273.692,44.645 276.260,46.585 276.624 L 47.890 276.868 48.111 279.798 C 48.381 283.359,48.831 284.282,50.509 284.714 C 51.690 285.018,51.811 285.198,51.928 286.815 C 52.095 289.138,52.546 289.600,54.649 289.600 L 56.400 289.600 56.400 293.151 C 56.400 297.087,56.598 297.458,58.802 297.667 C 60.164 297.797,60.205 297.852,60.400 299.800 L 60.600 301.800 62.644 301.919 L 64.687 302.038 64.924 304.859 C 65.197 308.125,65.894 309.425,67.566 309.793 C 68.615 310.023,68.792 310.270,69.027 311.838 C 69.320 313.797,70.009 314.400,71.952 314.400 C 73.105 314.400,73.161 314.481,73.278 316.298 L 73.400 318.196 75.300 318.541 C 77.161 318.879,77.200 318.917,77.200 320.363 C 77.200 322.226,77.774 322.800,79.637 322.800 C 81.083 322.800,81.121 322.839,81.459 324.700 L 81.804 326.600 83.702 326.722 C 85.552 326.841,85.600 326.877,85.600 328.145 C 85.600 329.982,86.369 330.818,88.293 331.076 C 89.732 331.269,89.993 331.458,90.214 332.463 C 90.575 334.106,91.890 334.804,95.141 335.076 L 97.962 335.313 98.081 337.356 L 98.200 339.400 99.993 339.528 C 102.003 339.670,102.385 340.041,102.394 341.857 C 102.402 343.443,102.820 343.600,107.033 343.600 L 110.400 343.600 110.400 345.351 C 110.400 347.454,110.862 347.905,113.185 348.072 C 114.802 348.189,114.982 348.310,115.286 349.491 C 115.719 351.172,116.641 351.619,120.236 351.891 C 123.124 352.110,123.200 352.143,123.200 353.181 C 123.200 355.322,123.898 355.691,128.855 356.164 C 133.755 356.631,135.600 357.439,135.600 359.115 C 135.600 360.210,136.307 360.400,140.388 360.400 L 143.911 360.400 144.166 361.760 C 144.601 364.078,144.976 364.187,153.061 364.332 L 160.401 364.464 160.650 366.024 C 161.091 368.779,158.360 368.600,200.000 368.600 C 241.686 368.600,238.908 368.784,239.355 365.992 L 239.609 364.400 245.905 364.398 C 253.864 364.395,255.015 364.110,255.652 361.984 L 256.127 360.400 259.631 360.400 C 263.675 360.400,264.400 360.208,264.400 359.138 C 264.400 357.408,266.285 356.511,270.559 356.208 C 275.791 355.837,276.324 355.614,276.636 353.667 L 276.885 352.109 279.869 351.883 C 283.282 351.625,284.590 350.952,284.924 349.281 C 285.135 348.227,285.346 348.088,287.029 347.898 C 289.167 347.657,289.585 347.201,289.594 345.100 L 289.600 343.600 292.967 343.600 C 297.180 343.600,297.598 343.443,297.606 341.857 C 297.615 340.041,297.997 339.670,300.007 339.528 L 301.800 339.400 301.919 337.353 L 302.038 335.306 304.667 335.095 C 307.578 334.862,309.235 333.948,309.607 332.370 C 309.793 331.584,310.187 331.354,311.808 331.082 C 314.071 330.702,314.385 330.367,314.394 328.322 L 314.400 326.844 316.298 326.722 L 318.196 326.600 318.541 324.700 C 318.879 322.839,318.917 322.800,320.363 322.800 C 322.226 322.800,322.800 322.226,322.800 320.363 C 322.800 318.917,322.839 318.879,324.700 318.541 L 326.600 318.196 326.722 316.298 C 326.841 314.448,326.877 314.400,328.145 314.400 C 329.985 314.400,330.764 313.670,331.113 311.616 C 331.356 310.188,331.607 309.787,332.372 309.607 C 333.948 309.235,334.862 307.577,335.095 304.667 L 335.306 302.038 337.353 301.919 L 339.400 301.800 339.600 299.800 C 339.795 297.852,339.836 297.797,341.198 297.667 C 343.402 297.458,343.600 297.087,343.600 293.151 L 343.600 289.600 345.100 289.594 C 347.193 289.585,347.609 289.201,347.926 286.986 C 348.177 285.229,348.322 285.019,349.492 284.716 C 351.169 284.281,351.620 283.358,351.889 279.798 L 352.110 276.868 353.415 276.624 C 355.242 276.281,355.542 275.758,356.041 272.051 C 356.611 267.815,356.565 267.730,353.527 267.395 C 350.046 267.012,207.088 266.929,120.600 267.260 " stroke="none" fill="#e92f3d" fill-rule="evenodd"></path><path id="path1" d="M162.604 31.571 C 161.517 31.727,160.965 32.023,160.875 32.500 C 160.706 33.388,162.256 33.474,162.530 32.592 C 162.668 32.148,162.702 32.170,162.657 32.675 C 162.623 33.054,162.147 33.470,161.598 33.599 C 160.983 33.743,160.553 34.159,160.476 34.685 C 160.356 35.513,160.148 35.541,153.037 35.669 C 144.978 35.813,144.601 35.923,144.166 38.240 C 143.886 39.736,143.933 39.724,138.424 39.649 C 136.164 39.618,136.121 39.640,133.438 42.246 C 132.263 43.387,131.823 43.526,128.207 43.899 C 123.905 44.342,123.200 44.762,123.200 46.876 C 123.200 47.872,123.052 48.003,121.900 48.026 C 117.722 48.108,115.967 48.832,115.417 50.700 C 115.026 52.031,114.808 52.122,112.200 52.053 C 111.540 52.035,111.220 52.119,111.488 52.240 C 111.837 52.396,111.755 52.696,111.203 53.289 C 110.714 53.813,110.478 54.539,110.562 55.260 C 110.691 56.362,110.636 56.400,108.921 56.400 C 107.946 56.400,106.778 56.598,106.325 56.840 C 105.728 57.160,105.578 57.160,105.775 56.840 C 105.952 56.554,105.585 56.402,104.724 56.406 C 102.832 56.415,102.265 56.897,102.474 58.321 C 102.695 59.832,101.781 60.579,99.696 60.591 C 98.087 60.601,98.179 60.418,98.037 63.900 C 98.004 64.708,97.797 64.800,96.000 64.800 C 94.149 64.800,93.812 65.003,93.934 66.043 C 93.949 66.177,93.419 66.807,92.756 67.443 C 91.777 68.380,91.598 68.447,91.807 67.799 C 92.062 67.011,92.057 67.011,91.433 67.776 C 91.085 68.204,90.800 68.370,90.800 68.146 C 90.800 67.922,91.290 67.303,91.888 66.770 C 92.486 66.236,92.734 66.115,92.439 66.500 C 92.113 66.925,92.069 67.200,92.327 67.200 C 92.795 67.200,93.335 66.481,93.453 65.700 C 93.702 64.062,90.576 65.888,90.200 67.600 C 89.998 68.519,89.716 68.800,88.994 68.800 C 87.376 68.800,85.893 69.545,86.155 70.226 C 86.300 70.605,86.225 70.739,85.961 70.576 C 85.686 70.406,85.558 70.725,85.608 71.455 C 85.736 73.352,85.658 73.470,84.400 73.285 C 83.569 73.163,83.198 73.277,83.194 73.655 C 83.189 74.080,83.105 74.069,82.811 73.603 C 82.492 73.100,82.353 73.092,81.917 73.553 C 81.510 73.983,81.506 74.139,81.896 74.282 C 82.271 74.420,82.246 74.611,81.796 75.061 C 81.468 75.389,81.200 76.004,81.200 76.429 C 81.200 77.055,80.915 77.200,79.680 77.200 C 77.764 77.200,77.200 77.764,77.200 79.680 C 77.200 80.915,77.055 81.200,76.429 81.200 C 76.004 81.200,75.389 81.468,75.061 81.796 C 74.611 82.246,74.420 82.271,74.282 81.896 C 74.139 81.506,73.983 81.510,73.553 81.917 C 73.092 82.353,73.100 82.492,73.603 82.811 C 74.069 83.105,74.080 83.189,73.655 83.194 C 73.277 83.198,73.163 83.569,73.285 84.400 C 73.470 85.658,73.352 85.736,71.455 85.608 C 70.725 85.558,70.406 85.686,70.576 85.961 C 70.739 86.225,70.605 86.300,70.226 86.155 C 69.545 85.893,68.800 87.376,68.800 88.994 C 68.800 89.716,68.519 89.998,67.600 90.200 C 65.888 90.576,64.062 93.702,65.700 93.453 C 66.481 93.335,67.200 92.795,67.200 92.327 C 67.200 92.069,66.925 92.113,66.500 92.439 C 66.115 92.734,66.236 92.486,66.770 91.888 C 67.303 91.290,67.922 90.800,68.146 90.800 C 68.370 90.800,68.204 91.085,67.776 91.433 C 67.010 92.057,67.010 92.062,67.791 91.810 C 68.523 91.574,68.515 91.626,67.687 92.507 C 67.195 93.031,66.891 93.558,67.012 93.679 C 67.133 93.800,66.910 93.897,66.516 93.894 C 64.890 93.885,64.800 93.995,64.800 95.979 L 64.800 97.958 62.700 98.079 L 60.600 98.200 60.564 99.600 C 60.500 102.088,60.136 102.681,58.792 102.484 C 56.772 102.188,56.400 102.866,56.400 106.849 C 56.400 110.492,56.280 110.736,54.637 110.426 C 54.437 110.389,54.125 110.592,53.943 110.879 C 53.689 111.279,53.611 111.283,53.606 110.900 C 53.603 110.625,53.420 110.400,53.200 110.400 C 52.980 110.400,52.845 110.625,52.900 110.900 C 52.955 111.175,52.761 111.350,52.469 111.290 C 52.115 111.216,51.962 111.551,52.011 112.290 C 52.170 114.691,52.030 115.026,50.700 115.417 C 48.888 115.951,48.096 117.750,48.030 121.485 C 48.001 123.101,47.936 123.186,46.412 123.597 C 44.724 124.051,43.788 125.861,44.182 127.908 C 44.275 128.390,44.182 128.888,43.975 129.015 C 42.826 129.726,43.596 131.963,45.100 132.282 C 47.655 132.824,162.867 132.175,210.748 131.349 L 224.897 131.105 257.441 98.552 C 275.341 80.649,290.083 66.000,290.201 66.000 C 290.319 66.000,290.321 66.495,290.205 67.100 C 290.090 67.705,290.102 67.974,290.232 67.698 C 290.362 67.421,290.616 67.286,290.797 67.398 C 290.978 67.510,291.031 67.241,290.916 66.801 C 290.675 65.880,291.515 65.710,292.401 66.500 C 292.881 66.928,292.882 66.895,292.409 66.272 C 292.094 65.857,291.543 65.626,291.128 65.735 C 290.685 65.851,290.400 65.710,290.400 65.375 C 290.400 65.051,290.646 64.919,291.000 65.055 C 291.473 65.237,291.600 64.939,291.600 63.643 C 291.600 62.739,291.735 61.999,291.900 61.997 C 292.065 61.995,292.405 61.552,292.655 61.012 C 292.996 60.278,292.996 60.051,292.655 60.115 C 292.405 60.162,292.182 59.715,292.160 59.122 C 292.123 58.129,292.216 58.063,293.337 58.287 C 294.424 58.505,294.492 58.464,293.977 57.907 C 293.660 57.564,293.264 57.366,293.097 57.467 C 292.931 57.568,292.688 57.375,292.559 57.038 C 292.315 56.401,290.599 56.383,289.590 57.006 C 289.202 57.246,289.136 57.143,289.339 56.615 C 289.490 56.221,289.386 55.617,289.107 55.273 C 288.711 54.783,288.709 54.712,289.100 54.947 C 289.375 55.112,289.600 55.057,289.600 54.824 C 289.600 54.404,289.161 54.272,288.000 54.341 C 287.573 54.366,287.549 54.311,287.917 54.149 C 288.278 53.990,288.310 53.774,288.023 53.428 C 287.730 53.074,287.777 52.933,288.189 52.933 C 288.506 52.933,288.672 53.083,288.559 53.267 C 288.445 53.450,288.628 53.600,288.964 53.600 C 289.789 53.600,289.317 52.421,288.457 52.333 C 288.096 52.296,287.261 52.251,286.603 52.233 C 285.604 52.205,285.332 51.972,284.956 50.818 C 284.407 49.130,283.546 48.541,281.200 48.248 C 279.553 48.042,279.466 48.073,280.176 48.612 C 280.604 48.935,280.751 49.200,280.505 49.200 C 280.259 49.200,279.776 48.919,279.432 48.574 C 279.088 48.230,278.641 48.051,278.439 48.176 C 277.699 48.633,276.800 47.897,276.800 46.834 C 276.800 45.041,275.958 44.317,273.609 44.091 C 271.867 43.924,271.542 43.987,271.810 44.443 C 271.998 44.762,271.796 44.701,271.337 44.300 C 270.897 43.915,269.954 43.600,269.242 43.600 C 268.279 43.600,267.607 43.240,266.626 42.200 C 265.177 40.663,264.403 40.421,264.394 41.500 C 264.389 42.098,264.331 42.113,264.000 41.600 C 263.494 40.817,263.494 40.287,264.000 40.600 C 264.220 40.736,264.400 40.676,264.400 40.466 C 264.400 40.129,263.497 39.600,262.921 39.600 C 262.803 39.600,262.801 39.960,262.916 40.401 C 263.031 40.841,262.962 41.100,262.763 40.977 C 262.563 40.854,262.400 40.509,262.400 40.211 C 262.400 39.836,261.878 39.678,260.700 39.699 C 256.286 39.775,256.167 39.735,255.651 38.012 C 255.080 36.107,253.802 35.629,249.400 35.670 C 239.226 35.767,239.204 35.761,239.044 33.046 C 238.972 31.819,237.731 31.267,237.072 32.169 C 236.644 32.755,236.451 32.806,236.199 32.399 C 235.986 32.054,236.033 31.973,236.338 32.162 C 236.592 32.319,236.800 32.276,236.800 32.067 C 236.800 31.275,167.885 30.814,162.604 31.571 M238.540 33.013 C 238.299 33.641,237.896 33.763,237.470 33.337 C 237.117 32.984,237.999 31.952,238.428 32.217 C 238.613 32.332,238.664 32.690,238.540 33.013 M146.707 38.767 C 146.443 39.115,146.201 39.449,146.170 39.510 C 146.139 39.570,145.883 39.341,145.600 39.001 C 145.163 38.474,145.194 38.423,145.809 38.659 C 146.251 38.828,146.435 38.780,146.283 38.535 C 146.147 38.314,146.294 38.133,146.611 38.133 C 147.072 38.133,147.091 38.260,146.707 38.767 M253.717 38.535 C 253.565 38.780,253.749 38.828,254.191 38.659 C 254.806 38.423,254.837 38.474,254.400 39.001 C 254.117 39.341,253.861 39.570,253.830 39.510 C 253.799 39.449,253.557 39.115,253.293 38.767 C 252.909 38.260,252.928 38.133,253.389 38.133 C 253.706 38.133,253.853 38.314,253.717 38.535 M274.160 44.960 C 274.042 45.267,274.166 45.655,274.435 45.821 C 274.736 46.008,274.821 45.957,274.655 45.689 C 274.508 45.451,274.574 45.139,274.803 44.998 C 275.032 44.856,275.170 44.979,275.110 45.270 C 275.049 45.562,275.238 45.751,275.530 45.690 C 275.821 45.630,275.944 45.768,275.802 45.997 C 275.661 46.226,275.349 46.292,275.111 46.145 C 274.843 45.979,274.792 46.064,274.979 46.365 C 275.145 46.634,275.578 46.742,275.940 46.604 C 276.446 46.411,276.491 46.463,276.131 46.825 C 275.873 47.085,275.758 47.546,275.874 47.849 C 275.990 48.152,275.898 48.400,275.670 48.400 C 275.441 48.400,275.138 48.035,274.997 47.589 C 274.855 47.143,274.300 46.491,273.763 46.139 C 272.846 45.538,272.829 45.466,273.493 44.962 C 274.388 44.283,274.420 44.283,274.160 44.960 M125.802 46.398 C 125.403 46.839,124.879 47.186,124.638 47.168 C 124.387 47.150,124.415 47.050,124.702 46.934 C 124.979 46.823,125.086 46.539,124.941 46.304 C 124.784 46.050,124.865 45.993,125.141 46.164 C 125.403 46.325,125.713 46.170,125.852 45.808 C 125.988 45.455,126.195 45.262,126.314 45.380 C 126.432 45.498,126.202 45.956,125.802 46.398 M283.525 49.616 C 284.567 50.587,284.586 50.757,283.777 51.912 C 283.434 52.401,283.265 52.981,283.400 53.201 C 283.536 53.420,283.476 53.600,283.267 53.600 C 283.058 53.600,282.774 53.150,282.636 52.600 C 282.498 52.050,282.198 51.600,281.969 51.600 C 281.740 51.600,281.664 51.780,281.800 52.000 C 281.936 52.220,281.876 52.400,281.666 52.400 C 281.457 52.400,281.178 52.121,281.047 51.779 C 280.906 51.410,280.976 51.262,281.221 51.413 C 281.487 51.577,281.537 51.287,281.362 50.591 C 281.180 49.866,281.273 49.399,281.646 49.163 C 282.424 48.671,282.540 48.699,283.525 49.616 M118.562 49.539 C 118.677 49.725,118.215 50.400,117.534 51.039 C 116.554 51.958,116.388 52.022,116.737 51.347 C 116.979 50.878,117.479 50.379,117.846 50.238 C 118.214 50.097,118.414 49.881,118.292 49.758 C 118.169 49.636,117.648 49.740,117.134 49.990 C 116.244 50.423,116.236 50.415,116.976 49.822 C 117.854 49.119,118.258 49.047,118.562 49.539 M282.400 49.600 C 282.935 49.946,282.696 50.169,281.914 50.052 C 281.343 49.967,282.038 51.032,282.908 51.573 C 283.724 52.081,283.753 52.072,283.251 51.464 C 282.732 50.836,282.912 50.609,283.789 50.782 C 284.003 50.825,283.840 50.486,283.427 50.030 C 283.014 49.573,282.479 49.203,282.238 49.206 C 281.997 49.209,282.070 49.387,282.400 49.600 M295.500 56.665 C 295.775 56.776,296.000 57.111,296.000 57.410 C 296.000 58.154,296.526 58.416,297.193 58.004 C 297.972 57.523,297.004 56.389,295.851 56.432 C 295.383 56.449,295.225 56.554,295.500 56.665 M291.350 58.081 C 291.242 58.256,291.354 58.400,291.600 58.400 C 291.846 58.400,291.936 58.580,291.800 58.800 C 291.664 59.020,291.404 59.200,291.223 59.200 C 290.836 59.200,290.414 57.319,290.730 57.003 C 291.028 56.705,291.593 57.687,291.350 58.081 M294.358 57.566 C 294.665 57.760,294.813 58.190,294.686 58.521 C 294.370 59.345,294.809 59.690,295.473 59.139 C 296.071 58.643,295.144 57.193,294.238 57.206 C 293.997 57.209,294.051 57.371,294.358 57.566 M295.706 60.552 C 295.580 60.756,295.684 60.795,295.938 60.638 C 296.212 60.469,296.400 60.607,296.400 60.976 C 296.400 61.319,296.601 61.600,296.847 61.600 C 297.096 61.600,297.201 61.953,297.084 62.400 C 296.969 62.839,297.066 63.317,297.299 63.461 C 297.533 63.606,297.611 63.541,297.473 63.318 C 297.026 62.594,299.354 60.846,299.935 61.469 C 300.295 61.854,300.304 62.000,299.967 62.000 C 299.627 62.000,299.635 62.160,299.996 62.596 C 300.268 62.923,300.650 63.093,300.845 62.972 C 301.040 62.851,301.200 62.995,301.200 63.291 C 301.200 63.614,300.680 63.865,299.900 63.917 C 299.015 63.976,298.776 63.890,299.151 63.647 C 299.795 63.229,299.413 62.400,298.576 62.400 C 298.259 62.400,297.986 62.715,297.969 63.100 C 297.953 63.485,297.877 64.125,297.802 64.522 C 297.707 65.017,297.812 65.135,298.132 64.898 C 298.703 64.474,300.814 64.494,301.500 64.930 C 302.098 65.310,302.096 65.330,301.628 63.697 C 301.398 62.897,301.398 62.400,301.628 62.400 C 302.225 62.400,302.057 61.345,301.370 60.775 C 300.847 60.341,300.677 60.350,300.376 60.826 C 300.098 61.264,300.011 61.275,300.006 60.873 C 300.002 60.537,299.723 60.434,299.234 60.589 C 298.812 60.723,298.353 60.648,298.214 60.422 C 297.909 59.930,296.031 60.027,295.706 60.552 M292.180 60.909 C 292.072 61.188,291.609 61.652,291.150 61.938 C 290.461 62.369,290.373 62.367,290.640 61.930 C 291.472 60.570,292.596 59.825,292.180 60.909 M298.000 61.033 C 298.000 61.740,297.139 61.617,296.892 60.875 C 296.805 60.614,297.018 60.400,297.367 60.400 C 297.715 60.400,298.000 60.685,298.000 61.033 M301.120 62.296 C 300.540 62.995,300.380 62.764,300.671 61.649 C 300.845 60.985,301.000 60.876,301.233 61.253 C 301.410 61.540,301.359 62.008,301.120 62.296 M302.602 65.197 C 302.521 65.327,302.983 65.474,303.628 65.523 C 304.272 65.573,304.800 65.466,304.800 65.286 C 304.800 64.915,302.826 64.835,302.602 65.197 M305.519 65.123 C 305.932 65.400,305.904 65.582,305.383 66.014 C 304.819 66.482,304.808 66.617,305.304 66.979 C 306.223 67.651,306.249 67.930,305.447 68.516 C 304.807 68.984,304.792 69.067,305.347 69.067 C 305.706 69.067,306.000 68.906,306.000 68.710 C 306.000 68.513,306.183 68.466,306.407 68.604 C 306.630 68.742,306.715 69.013,306.596 69.207 C 306.403 69.518,306.676 69.516,308.200 69.191 C 308.420 69.144,308.735 69.142,308.900 69.186 C 309.300 69.294,311.920 69.289,312.300 69.181 C 312.465 69.133,311.978 68.983,311.217 68.847 C 310.187 68.663,309.776 68.354,309.607 67.636 C 309.340 66.498,307.878 65.379,306.200 65.027 C 305.468 64.874,305.202 64.911,305.519 65.123 M307.849 66.900 C 309.411 68.682,309.874 69.398,309.200 68.990 C 308.870 68.790,308.210 68.621,307.733 68.613 C 306.722 68.598,306.282 68.237,306.146 67.311 C 305.925 65.809,306.724 65.616,307.849 66.900 M307.199 67.398 C 307.714 67.948,308.225 68.309,308.332 68.201 C 308.598 67.935,307.179 66.400,306.668 66.400 C 306.444 66.400,306.683 66.849,307.199 67.398 M312.800 69.579 C 312.800 69.824,313.102 70.141,313.471 70.283 C 314.071 70.513,314.060 70.572,313.371 70.842 C 312.642 71.127,312.641 71.145,313.343 71.172 C 313.881 71.192,314.012 71.393,313.819 71.900 C 313.606 72.460,313.653 72.500,314.054 72.102 C 314.411 71.748,314.447 71.295,314.178 70.535 C 313.795 69.451,312.800 68.761,312.800 69.579 M310.380 70.763 C 310.596 71.166,310.733 71.563,310.686 71.647 C 310.639 71.731,310.673 71.757,310.763 71.703 C 310.853 71.650,311.138 71.783,311.397 71.997 C 311.719 72.265,311.867 72.208,311.867 71.816 C 311.867 71.502,311.694 71.279,311.483 71.322 C 311.273 71.365,311.017 71.175,310.917 70.900 C 310.803 70.590,310.959 70.486,311.326 70.627 C 311.652 70.752,312.010 70.707,312.121 70.527 C 312.231 70.347,311.797 70.162,311.155 70.116 C 310.139 70.042,310.039 70.126,310.380 70.763 M314.000 73.556 C 314.000 74.125,315.572 75.853,315.587 75.300 C 315.594 75.025,315.375 74.795,315.100 74.788 C 314.554 74.775,315.949 73.843,316.600 73.786 C 316.820 73.767,317.229 73.923,317.510 74.132 C 318.109 74.581,318.595 74.239,318.220 73.633 C 317.897 73.110,315.917 73.218,315.470 73.783 C 315.246 74.065,315.073 74.038,314.936 73.700 C 314.704 73.129,314.000 73.020,314.000 73.556 M316.060 74.780 C 316.148 75.044,316.351 75.247,316.510 75.230 C 316.988 75.181,316.896 74.632,316.380 74.460 C 316.116 74.372,315.972 74.516,316.060 74.780 M314.769 76.100 C 314.447 77.152,314.526 77.594,314.969 77.226 C 315.246 76.995,315.631 76.940,315.824 77.103 C 316.016 77.267,315.933 77.085,315.638 76.700 C 315.144 76.055,314.846 75.849,314.769 76.100 M316.561 76.614 C 316.619 77.010,316.994 77.381,317.393 77.440 C 318.237 77.564,318.853 78.391,318.512 78.943 C 318.379 79.157,318.490 79.192,318.765 79.021 C 319.034 78.855,319.162 78.479,319.050 78.185 C 318.937 77.892,319.060 77.564,319.322 77.457 C 319.677 77.313,319.672 77.255,319.300 77.232 C 319.025 77.214,318.800 76.924,318.800 76.586 C 318.800 76.113,318.630 76.063,318.061 76.367 C 317.561 76.635,317.182 76.622,316.889 76.329 C 316.578 76.018,316.485 76.098,316.561 76.614 M320.168 77.725 C 319.511 78.479,321.630 80.486,322.312 79.756 C 322.978 79.043,322.925 78.400,322.200 78.400 C 321.870 78.400,321.600 78.130,321.600 77.800 C 321.600 77.080,320.769 77.036,320.168 77.725 M321.066 77.900 C 320.829 78.291,321.840 79.226,322.157 78.909 C 322.291 78.776,322.400 78.776,322.400 78.910 C 322.400 79.513,321.606 79.549,321.029 78.971 C 320.470 78.413,320.481 77.600,321.047 77.600 C 321.157 77.600,321.165 77.735,321.066 77.900 M322.432 80.687 C 322.414 80.956,322.148 81.078,321.840 80.960 C 321.533 80.842,321.159 80.942,321.011 81.183 C 320.862 81.423,320.889 81.594,321.070 81.563 C 321.910 81.417,322.366 81.661,322.594 82.380 C 322.757 82.894,323.060 83.075,323.486 82.912 C 323.884 82.759,324.031 82.826,323.870 83.087 C 323.726 83.319,323.922 83.755,324.304 84.055 C 324.934 84.548,324.948 84.533,324.451 83.900 C 324.047 83.385,324.030 83.200,324.388 83.200 C 324.656 83.200,324.972 83.570,325.090 84.023 C 325.224 84.537,325.523 84.762,325.885 84.623 C 326.204 84.500,326.541 84.400,326.633 84.400 C 326.725 84.400,326.800 84.209,326.800 83.976 C 326.800 83.743,326.609 83.671,326.375 83.816 C 326.141 83.960,325.601 83.763,325.175 83.377 C 324.338 82.620,324.105 81.770,324.862 82.238 C 325.155 82.419,325.215 82.347,325.026 82.042 C 324.795 81.668,324.600 81.668,324.147 82.044 C 323.691 82.422,323.462 82.414,323.083 82.004 C 322.730 81.623,322.727 81.554,323.072 81.748 C 323.332 81.894,323.658 81.830,323.796 81.607 C 323.934 81.383,323.782 81.200,323.457 81.200 C 323.132 81.200,322.776 80.975,322.665 80.700 C 322.512 80.321,322.456 80.318,322.432 80.687 M325.600 81.918 C 325.600 82.129,325.891 82.543,326.246 82.838 C 326.805 83.302,326.873 83.273,326.746 82.620 C 326.595 81.843,325.600 81.233,325.600 81.918 M326.689 85.649 C 326.869 85.829,327.463 86.027,328.009 86.089 C 328.554 86.150,329.235 86.515,329.523 86.900 C 329.810 87.285,330.215 87.600,330.423 87.600 C 330.968 87.600,330.887 86.501,330.315 86.147 C 329.614 85.714,326.298 85.258,326.689 85.649 M326.973 87.098 C 327.091 87.901,328.480 88.061,328.637 87.290 C 328.694 87.010,328.649 86.965,328.537 87.190 C 328.425 87.416,328.068 87.600,327.743 87.600 C 327.418 87.600,327.256 87.432,327.383 87.228 C 327.509 87.023,327.446 86.752,327.242 86.626 C 327.037 86.499,326.917 86.712,326.973 87.098 M330.160 89.383 C 330.160 90.143,330.277 90.268,330.680 89.934 C 330.966 89.696,331.200 89.254,331.200 88.951 C 331.200 88.648,330.966 88.400,330.680 88.400 C 330.394 88.400,330.160 88.842,330.160 89.383 M331.052 90.609 C 330.836 91.172,333.578 94.000,334.340 94.000 C 334.622 94.000,334.720 94.206,334.562 94.462 C 334.392 94.737,334.451 94.815,334.709 94.656 C 335.253 94.320,334.685 92.178,333.788 91.187 C 332.992 90.307,331.304 89.951,331.052 90.609 M333.369 92.365 C 334.618 93.746,333.907 93.505,332.400 92.036 C 331.630 91.286,331.362 90.865,331.804 91.099 C 332.247 91.334,332.951 91.904,333.369 92.365 M340.071 103.067 C 340.142 103.434,340.430 103.780,340.710 103.837 C 340.990 103.894,341.036 103.849,340.810 103.737 C 340.584 103.625,340.400 103.358,340.400 103.143 C 340.400 102.928,340.608 102.881,340.862 103.038 C 341.148 103.215,341.215 103.148,341.038 102.862 C 340.607 102.164,339.924 102.309,340.071 103.067 M341.600 102.794 C 341.600 103.043,341.760 103.149,341.955 103.028 C 342.488 102.699,343.101 103.678,343.011 104.714 C 342.957 105.342,343.061 105.499,343.344 105.216 C 343.926 104.634,343.162 102.642,342.292 102.475 C 341.911 102.401,341.600 102.545,341.600 102.794 M348.900 115.829 C 349.505 116.157,350.000 116.516,350.000 116.627 C 350.000 116.738,349.652 116.642,349.226 116.414 C 348.801 116.186,348.216 116.008,347.926 116.018 C 347.637 116.028,347.940 116.273,348.600 116.562 C 349.260 116.852,349.927 117.018,350.083 116.931 C 350.239 116.845,350.648 117.320,350.993 117.987 C 351.814 119.573,352.067 119.533,351.534 117.900 C 351.019 116.321,349.811 115.194,348.656 115.216 C 347.885 115.230,347.909 115.291,348.900 115.829 M49.982 117.234 C 49.736 117.693,49.636 118.169,49.758 118.292 C 49.881 118.414,50.097 118.214,50.238 117.846 C 50.379 117.479,50.878 116.979,51.347 116.737 C 52.015 116.392,51.944 116.569,51.023 117.551 C 49.753 118.904,48.797 118.700,49.577 117.243 C 49.825 116.779,50.118 116.400,50.228 116.400 C 50.338 116.400,50.227 116.775,49.982 117.234 M351.992 123.390 C 352.212 123.656,352.275 123.992,352.130 124.137 C 351.985 124.282,352.087 124.400,352.357 124.400 C 352.627 124.400,352.737 124.578,352.603 124.795 C 352.468 125.013,352.609 125.095,352.915 124.977 C 353.621 124.706,354.566 125.808,354.173 126.444 C 353.985 126.748,354.046 126.819,354.338 126.638 C 354.592 126.481,354.800 126.513,354.800 126.710 C 354.800 126.906,355.073 127.067,355.406 127.067 C 355.801 127.067,355.940 126.812,355.806 126.333 C 355.693 125.930,355.504 125.259,355.387 124.843 C 355.257 124.384,354.469 123.854,353.382 123.496 C 352.129 123.084,351.711 123.052,351.992 123.390 M354.400 124.800 C 354.840 125.240,355.200 125.820,355.200 126.089 C 355.200 126.358,354.924 126.183,354.586 125.701 C 354.248 125.218,353.663 124.644,353.286 124.424 C 352.896 124.197,352.816 124.019,353.100 124.012 C 353.375 124.005,353.960 124.360,354.400 124.800 M356.101 130.600 C 356.105 131.480,356.187 131.793,356.283 131.295 C 356.379 130.798,356.375 130.078,356.275 129.695 C 356.175 129.313,356.096 129.720,356.101 130.600 M36.615 144.539 C 36.210 144.836,35.992 145.264,36.133 145.491 C 36.514 146.108,37.961 146.386,38.261 145.901 C 38.416 145.651,38.333 145.594,38.062 145.762 C 37.808 145.919,37.600 145.846,37.600 145.600 C 37.600 145.354,37.422 145.263,37.205 145.397 C 36.981 145.535,36.909 145.382,37.038 145.046 C 37.163 144.718,37.503 144.541,37.793 144.653 C 38.082 144.764,38.438 144.662,38.583 144.427 C 38.963 143.812,37.495 143.896,36.615 144.539 M35.677 147.406 C 35.717 148.464,35.828 148.653,36.164 148.234 C 36.404 147.936,36.870 147.579,37.200 147.442 C 37.530 147.304,37.395 147.266,36.900 147.358 C 35.972 147.530,35.625 146.992,36.480 146.707 C 36.783 146.606,36.714 146.453,36.293 146.291 C 35.745 146.081,35.635 146.280,35.677 147.406 M33.073 162.154 C 32.942 162.495,32.995 162.873,33.190 162.994 C 33.700 163.309,34.004 162.654,33.629 162.047 C 33.381 161.646,33.259 161.669,33.073 162.154 M35.689 252.629 C 35.632 253.317,35.811 253.598,36.304 253.594 C 36.856 253.589,36.886 253.515,36.449 253.239 C 36.146 253.047,36.014 252.702,36.155 252.472 C 36.297 252.243,36.268 251.966,36.091 251.856 C 35.914 251.747,35.734 252.095,35.689 252.629 M36.228 254.355 C 36.107 254.550,36.256 254.914,36.558 255.165 C 36.977 255.513,37.158 255.485,37.326 255.049 C 37.668 254.158,36.720 253.559,36.228 254.355 " stroke="none" fill="#ced9e3" fill-rule="evenodd"></path><path id="path2" d="M162.400 32.506 C 162.400 32.857,161.995 33.222,161.500 33.318 L 160.600 33.491 161.513 33.546 C 162.392 33.598,163.162 32.629,162.649 32.116 C 162.512 31.979,162.400 32.154,162.400 32.506 M237.649 32.541 C 237.224 33.053,237.418 33.600,238.024 33.600 C 238.472 33.600,238.808 32.452,238.428 32.217 C 238.242 32.103,237.892 32.248,237.649 32.541 M146.283 38.535 C 146.435 38.780,146.251 38.828,145.809 38.659 C 145.194 38.423,145.163 38.474,145.600 39.001 C 145.883 39.341,146.139 39.570,146.170 39.510 C 146.201 39.449,146.443 39.115,146.707 38.767 C 147.091 38.260,147.072 38.133,146.611 38.133 C 146.294 38.133,146.147 38.314,146.283 38.535 M253.293 38.767 C 253.557 39.115,253.799 39.449,253.830 39.510 C 253.861 39.570,254.117 39.341,254.400 39.001 C 254.837 38.474,254.806 38.423,254.191 38.659 C 253.749 38.828,253.565 38.780,253.717 38.535 C 253.853 38.314,253.706 38.133,253.389 38.133 C 252.928 38.133,252.909 38.260,253.293 38.767 M273.493 44.962 C 272.829 45.466,272.846 45.538,273.763 46.139 C 274.300 46.491,274.855 47.143,274.997 47.589 C 275.138 48.035,275.441 48.400,275.670 48.400 C 275.898 48.400,275.990 48.152,275.874 47.849 C 275.758 47.546,275.873 47.085,276.131 46.825 C 276.491 46.463,276.446 46.411,275.940 46.604 C 275.578 46.742,275.145 46.634,274.979 46.365 C 274.792 46.064,274.843 45.979,275.111 46.145 C 275.349 46.292,275.661 46.226,275.802 45.997 C 275.944 45.768,275.821 45.630,275.530 45.690 C 275.238 45.751,275.049 45.562,275.110 45.270 C 275.170 44.979,275.032 44.856,274.803 44.998 C 274.574 45.139,274.508 45.451,274.655 45.689 C 274.821 45.957,274.736 46.008,274.435 45.821 C 274.166 45.655,274.042 45.267,274.160 44.960 C 274.420 44.283,274.388 44.283,273.493 44.962 M125.852 45.808 C 125.713 46.170,125.403 46.325,125.141 46.164 C 124.865 45.993,124.784 46.050,124.941 46.304 C 125.086 46.539,124.979 46.823,124.702 46.934 C 124.415 47.050,124.387 47.150,124.638 47.168 C 125.177 47.207,126.611 45.677,126.314 45.380 C 126.195 45.262,125.988 45.455,125.852 45.808 M281.646 49.163 C 281.273 49.399,281.180 49.866,281.362 50.591 C 281.537 51.287,281.487 51.577,281.221 51.413 C 280.976 51.262,280.906 51.410,281.047 51.779 C 281.178 52.121,281.457 52.400,281.666 52.400 C 281.876 52.400,281.936 52.220,281.800 52.000 C 281.664 51.780,281.740 51.600,281.969 51.600 C 282.198 51.600,282.498 52.050,282.636 52.600 C 282.774 53.150,283.058 53.600,283.267 53.600 C 283.476 53.600,283.536 53.420,283.400 53.201 C 283.265 52.981,283.434 52.401,283.777 51.912 C 284.586 50.757,284.567 50.587,283.525 49.616 C 282.540 48.699,282.424 48.671,281.646 49.163 M116.976 49.822 C 116.236 50.415,116.244 50.423,117.134 49.990 C 117.648 49.740,118.169 49.636,118.292 49.758 C 118.414 49.881,118.214 50.097,117.846 50.238 C 117.479 50.379,116.979 50.878,116.737 51.347 C 116.388 52.022,116.554 51.958,117.534 51.039 C 119.175 49.499,118.693 48.447,116.976 49.822 M283.427 50.030 C 283.840 50.486,284.003 50.825,283.789 50.782 C 282.912 50.609,282.732 50.836,283.251 51.464 C 283.753 52.072,283.724 52.081,282.908 51.573 C 282.038 51.032,281.343 49.967,281.914 50.052 C 282.696 50.169,282.935 49.946,282.400 49.600 C 282.070 49.387,281.997 49.209,282.238 49.206 C 282.479 49.203,283.014 49.573,283.427 50.030 M110.684 53.200 C 110.569 53.640,110.508 54.000,110.549 54.000 C 110.589 54.000,110.930 53.640,111.307 53.200 C 111.832 52.587,111.863 52.400,111.443 52.400 C 111.141 52.400,110.799 52.760,110.684 53.200 M288.023 53.428 C 288.311 53.774,288.279 53.976,287.917 54.103 C 287.633 54.203,287.895 54.288,288.500 54.292 C 289.105 54.296,289.600 54.142,289.600 53.950 C 289.600 53.758,289.319 53.600,288.976 53.600 C 288.633 53.600,288.445 53.450,288.559 53.267 C 288.672 53.083,288.506 52.933,288.189 52.933 C 287.777 52.933,287.730 53.074,288.023 53.428 M290.939 56.821 C 290.708 57.052,290.603 57.682,290.706 58.221 C 290.901 59.239,291.374 59.489,291.800 58.800 C 291.936 58.580,291.872 58.400,291.659 58.400 C 291.445 58.400,291.320 57.950,291.380 57.400 C 291.506 56.257,291.504 56.256,290.939 56.821 M292.524 56.921 C 292.621 57.184,292.858 57.372,293.050 57.338 C 293.243 57.304,293.660 57.559,293.977 57.904 C 294.493 58.465,294.426 58.505,293.337 58.287 C 292.216 58.063,292.123 58.129,292.160 59.122 C 292.182 59.715,292.405 60.162,292.655 60.115 C 292.996 60.051,292.996 60.278,292.655 61.012 C 292.405 61.552,292.065 61.995,291.900 61.997 C 291.735 61.999,291.600 62.739,291.600 63.643 C 291.600 64.939,291.473 65.237,291.000 65.055 C 290.646 64.919,290.400 65.051,290.400 65.375 C 290.400 65.710,290.685 65.851,291.128 65.735 C 291.543 65.626,292.094 65.857,292.409 66.272 C 292.882 66.895,292.881 66.928,292.401 66.500 C 291.515 65.710,290.675 65.880,290.916 66.801 C 291.031 67.241,290.978 67.510,290.797 67.398 C 290.616 67.286,290.362 67.421,290.232 67.698 C 290.102 67.974,290.090 67.705,290.205 67.100 C 290.321 66.495,290.319 66.000,290.201 66.000 C 290.083 66.000,275.341 80.649,257.441 98.552 L 224.897 131.105 210.748 131.349 C 162.867 132.175,47.655 132.824,45.100 132.282 C 43.521 131.947,43.193 132.337,43.992 133.600 C 44.323 134.124,47.287 134.189,67.286 134.111 C 79.889 134.063,147.530 133.836,217.600 133.609 C 305.527 133.323,346.511 133.055,349.876 132.745 C 355.412 132.236,355.872 132.319,356.126 133.876 C 356.226 134.494,356.225 133.380,356.123 131.400 C 355.912 127.315,355.772 126.646,355.203 126.998 C 354.981 127.135,354.800 127.046,354.800 126.800 C 354.800 126.554,354.622 126.463,354.405 126.597 C 354.187 126.732,354.105 126.591,354.223 126.285 C 354.494 125.579,353.392 124.634,352.756 125.027 C 352.452 125.215,352.381 125.154,352.562 124.862 C 352.719 124.608,352.657 124.400,352.424 124.400 C 352.191 124.400,352.021 124.265,352.047 124.100 C 352.073 123.935,352.057 123.620,352.010 123.400 C 351.964 123.180,351.955 122.251,351.991 121.336 C 352.067 119.380,350.541 116.629,348.985 115.921 C 348.443 115.674,347.987 115.365,347.971 115.236 C 347.956 115.106,347.857 114.280,347.752 113.400 C 347.521 111.454,346.938 110.810,345.210 110.591 C 343.456 110.369,343.455 110.369,343.557 107.564 C 343.607 106.168,343.488 105.222,343.279 105.351 C 343.077 105.476,342.960 105.141,343.019 104.607 C 343.078 104.073,342.872 103.426,342.563 103.169 C 342.253 102.912,341.997 102.859,341.994 103.051 C 341.991 103.243,341.818 103.132,341.611 102.803 C 341.304 102.318,341.138 102.302,340.720 102.720 C 340.302 103.138,340.318 103.304,340.803 103.611 C 341.217 103.872,341.244 103.990,340.890 103.994 C 340.265 104.001,339.702 102.596,339.432 100.352 C 339.206 98.481,338.535 97.797,337.637 98.523 C 337.174 98.897,337.111 98.892,337.347 98.500 C 337.561 98.144,337.296 98.000,336.424 98.000 C 335.172 98.000,334.939 97.457,335.180 95.097 C 335.219 94.711,334.925 94.280,334.526 94.140 C 333.189 93.671,330.882 91.172,331.082 90.410 C 331.185 90.014,331.046 89.552,330.773 89.383 C 330.464 89.192,330.378 89.241,330.545 89.511 C 330.692 89.749,330.654 90.043,330.459 90.163 C 330.010 90.441,330.084 88.685,330.536 88.354 C 330.721 88.219,330.417 87.653,329.860 87.097 C 329.304 86.540,328.773 86.161,328.680 86.254 C 328.212 86.721,326.432 85.582,326.668 84.967 C 326.867 84.447,326.749 84.362,326.110 84.565 C 325.508 84.756,325.245 84.614,325.087 84.011 C 324.970 83.565,324.656 83.200,324.388 83.200 C 324.030 83.200,324.047 83.385,324.451 83.900 C 324.948 84.533,324.934 84.548,324.304 84.055 C 323.922 83.755,323.726 83.319,323.870 83.087 C 324.031 82.826,323.884 82.759,323.486 82.912 C 323.060 83.075,322.757 82.894,322.594 82.380 C 322.366 81.661,321.910 81.417,321.070 81.563 C 320.889 81.594,320.862 81.423,321.011 81.183 C 321.159 80.942,321.518 80.836,321.807 80.947 C 322.097 81.059,322.443 80.865,322.576 80.517 C 322.867 79.760,322.473 79.240,322.078 79.860 C 321.900 80.140,321.406 79.895,320.706 79.180 C 319.988 78.447,319.782 78.002,320.106 77.886 C 320.378 77.789,320.491 77.591,320.357 77.445 C 319.947 76.998,318.838 77.633,319.053 78.193 C 319.164 78.482,319.034 78.855,318.765 79.021 C 318.490 79.192,318.379 79.157,318.512 78.943 C 318.853 78.391,318.237 77.564,317.393 77.440 C 316.994 77.381,316.621 77.023,316.565 76.644 C 316.493 76.148,316.599 76.067,316.946 76.355 C 317.708 76.987,318.677 76.216,318.058 75.469 C 317.779 75.134,317.731 74.818,317.946 74.739 C 318.155 74.663,317.931 74.306,317.449 73.946 C 316.632 73.337,316.510 73.344,315.642 74.046 C 315.130 74.461,314.911 74.800,315.156 74.800 C 315.400 74.800,315.594 75.025,315.587 75.300 C 315.579 75.575,315.221 75.377,314.789 74.859 C 314.245 74.205,314.083 73.607,314.261 72.899 C 314.438 72.192,314.378 71.966,314.063 72.161 C 313.777 72.338,313.692 72.225,313.834 71.856 C 313.970 71.500,313.772 71.196,313.329 71.081 C 312.667 70.910,312.664 70.889,313.300 70.846 C 314.896 70.741,312.580 69.296,310.855 69.321 C 309.951 69.335,309.074 69.194,308.906 69.009 C 308.738 68.823,308.860 68.823,309.179 69.008 C 309.860 69.404,308.349 67.188,307.402 66.401 C 306.624 65.756,305.721 66.433,306.249 67.265 C 306.435 67.559,306.591 67.980,306.595 68.200 C 306.599 68.420,307.097 68.590,307.703 68.578 C 308.309 68.565,308.655 68.705,308.473 68.887 C 308.010 69.350,306.330 69.636,306.596 69.207 C 306.715 69.013,306.630 68.742,306.407 68.604 C 306.183 68.466,306.000 68.513,306.000 68.710 C 306.000 68.906,305.706 69.067,305.347 69.067 C 304.780 69.067,304.772 69.009,305.287 68.633 C 306.133 68.014,306.171 67.528,305.407 67.100 C 304.794 66.757,304.792 66.672,305.388 66.013 C 305.966 65.375,305.969 65.274,305.417 65.062 C 305.078 64.932,304.800 64.999,304.800 65.213 C 304.800 65.426,304.429 65.600,303.976 65.600 C 303.424 65.600,303.252 65.435,303.453 65.100 C 303.628 64.809,303.439 64.850,303.000 65.200 C 302.395 65.681,302.314 65.688,302.589 65.232 C 302.844 64.808,302.765 64.728,302.278 64.915 C 301.919 65.052,301.539 65.025,301.434 64.855 C 301.197 64.472,298.772 64.515,298.135 64.913 C 297.835 65.101,297.718 64.954,297.805 64.502 C 297.878 64.116,297.953 63.485,297.969 63.100 C 297.986 62.715,298.259 62.400,298.576 62.400 C 299.413 62.400,299.795 63.229,299.151 63.647 C 298.776 63.890,299.015 63.976,299.900 63.917 C 300.680 63.865,301.200 63.614,301.200 63.291 C 301.200 62.995,301.040 62.851,300.845 62.972 C 300.650 63.093,300.268 62.923,299.996 62.596 C 299.658 62.188,299.642 62.000,299.947 62.000 C 300.194 62.000,300.087 61.644,299.707 61.200 C 299.330 60.760,298.837 60.403,298.611 60.406 C 298.385 60.409,298.463 60.579,298.785 60.782 C 299.265 61.086,299.176 61.304,298.281 62.008 C 297.682 62.479,297.312 63.057,297.458 63.294 C 297.607 63.535,297.538 63.609,297.299 63.461 C 297.066 63.317,296.969 62.839,297.084 62.400 C 297.201 61.953,297.096 61.600,296.847 61.600 C 296.601 61.600,296.400 61.319,296.400 60.976 C 296.400 60.607,296.212 60.469,295.938 60.638 C 295.650 60.816,295.585 60.748,295.766 60.455 C 295.925 60.198,296.186 60.068,296.347 60.167 C 296.507 60.266,296.878 60.199,297.170 60.018 C 297.812 59.622,297.345 58.687,296.672 59.023 C 296.413 59.153,296.560 58.952,297.000 58.576 C 297.717 57.963,297.723 57.919,297.063 58.148 C 296.536 58.331,296.266 58.175,296.116 57.602 C 296.001 57.161,295.793 56.782,295.653 56.759 C 293.664 56.441,292.371 56.508,292.524 56.921 M295.348 57.943 C 295.911 58.565,295.931 58.759,295.473 59.139 C 294.809 59.690,294.370 59.345,294.686 58.521 C 294.813 58.190,294.665 57.760,294.358 57.566 C 294.051 57.371,293.997 57.209,294.238 57.206 C 294.479 57.203,294.978 57.534,295.348 57.943 M291.382 60.915 C 290.369 62.090,290.281 62.481,291.150 61.938 C 291.990 61.414,292.622 60.387,292.087 60.415 C 291.929 60.424,291.612 60.649,291.382 60.915 M296.892 60.875 C 297.139 61.617,298.000 61.740,298.000 61.033 C 298.000 60.685,297.715 60.400,297.367 60.400 C 297.018 60.400,296.805 60.614,296.892 60.875 M300.806 61.067 C 300.803 61.324,300.688 61.827,300.551 62.184 C 300.393 62.596,300.489 62.790,300.816 62.716 C 301.098 62.652,301.462 63.050,301.625 63.600 L 301.920 64.600 301.960 63.500 C 301.982 62.895,301.809 62.400,301.576 62.400 C 301.343 62.400,301.242 62.256,301.350 62.081 C 301.458 61.905,301.382 61.500,301.180 61.181 C 300.962 60.837,300.810 60.791,300.806 61.067 M93.550 65.400 C 93.523 65.510,93.475 65.735,93.444 65.900 C 93.329 66.513,92.739 67.200,92.327 67.200 C 92.069 67.200,92.113 66.925,92.439 66.500 C 92.734 66.115,92.486 66.236,91.888 66.770 C 91.290 67.303,90.800 67.922,90.800 68.146 C 90.800 68.370,91.085 68.204,91.433 67.776 C 92.057 67.011,92.062 67.011,91.807 67.799 C 91.593 68.461,91.748 68.408,92.708 67.488 C 93.345 66.878,93.867 66.113,93.867 65.789 C 93.867 65.230,93.657 64.972,93.550 65.400 M307.802 67.202 C 308.872 68.384,308.299 68.570,307.199 67.398 C 306.683 66.849,306.444 66.400,306.668 66.400 C 306.893 66.400,307.403 66.761,307.802 67.202 M312.121 70.527 C 312.010 70.707,311.652 70.752,311.326 70.627 C 310.959 70.486,310.803 70.590,310.917 70.900 C 311.017 71.175,311.273 71.365,311.483 71.322 C 311.694 71.279,311.867 71.502,311.867 71.816 C 311.867 72.208,311.719 72.265,311.397 71.997 C 311.138 71.783,310.853 71.650,310.763 71.703 C 310.673 71.757,310.639 71.731,310.686 71.647 C 310.733 71.563,310.596 71.166,310.380 70.763 C 310.039 70.126,310.139 70.042,311.155 70.116 C 311.797 70.162,312.231 70.347,312.121 70.527 M316.830 74.910 C 316.781 75.388,316.232 75.296,316.060 74.780 C 315.972 74.516,316.116 74.372,316.380 74.460 C 316.644 74.548,316.847 74.751,316.830 74.910 M315.638 76.700 C 315.933 77.085,316.016 77.267,315.824 77.103 C 315.631 76.940,315.246 76.995,314.969 77.226 C 314.526 77.594,314.447 77.152,314.769 76.100 C 314.846 75.849,315.144 76.055,315.638 76.700 M320.620 77.968 C 320.324 78.447,321.553 79.676,322.032 79.380 C 322.235 79.255,322.400 79.043,322.400 78.910 C 322.400 78.776,322.291 78.776,322.157 78.909 C 321.840 79.226,320.829 78.291,321.066 77.900 C 321.165 77.735,321.157 77.600,321.047 77.600 C 320.937 77.600,320.745 77.765,320.620 77.968 M323.058 82.094 C 323.176 82.285,323.474 82.375,323.718 82.294 C 323.963 82.212,324.564 82.608,325.054 83.173 C 326.159 84.448,327.130 83.872,326.066 82.573 C 325.411 81.772,322.580 81.321,323.058 82.094 M327.383 87.228 C 327.256 87.432,327.418 87.600,327.743 87.600 C 328.068 87.600,328.425 87.416,328.537 87.190 C 328.649 86.965,328.694 87.010,328.637 87.290 C 328.480 88.061,327.091 87.901,326.973 87.098 C 326.917 86.712,327.037 86.499,327.242 86.626 C 327.446 86.752,327.509 87.023,327.383 87.228 M66.770 91.888 C 66.236 92.486,66.115 92.734,66.500 92.439 C 66.885 92.144,67.200 92.082,67.200 92.302 C 67.200 92.752,65.971 93.873,65.705 93.667 C 65.611 93.593,65.464 93.602,65.380 93.687 C 65.296 93.771,65.665 93.840,66.200 93.840 C 66.735 93.840,67.088 93.754,66.983 93.650 C 66.878 93.545,67.195 93.031,67.687 92.507 C 68.515 91.626,68.523 91.574,67.791 91.810 C 67.010 92.062,67.010 92.057,67.776 91.433 C 68.204 91.085,68.370 90.800,68.146 90.800 C 67.922 90.800,67.303 91.290,66.770 91.888 M332.400 92.036 C 333.170 92.786,333.874 93.356,333.964 93.302 C 334.230 93.145,332.679 91.563,331.804 91.099 C 331.362 90.865,331.630 91.286,332.400 92.036 M349.424 116.622 C 350.188 117.234,350.187 117.238,349.400 116.876 C 348.960 116.674,348.330 116.408,348.000 116.286 C 347.482 116.093,347.485 116.059,348.024 116.032 C 348.366 116.014,348.996 116.280,349.424 116.622 M49.577 117.243 C 48.797 118.700,49.753 118.904,51.023 117.551 C 51.944 116.569,52.015 116.392,51.347 116.737 C 50.878 116.979,50.379 117.479,50.238 117.846 C 50.097 118.214,49.881 118.414,49.758 118.292 C 49.636 118.169,49.736 117.693,49.982 117.234 C 50.227 116.775,50.338 116.400,50.228 116.400 C 50.118 116.400,49.825 116.779,49.577 117.243 M353.286 124.424 C 353.663 124.644,354.248 125.218,354.586 125.701 C 354.924 126.183,355.200 126.358,355.200 126.089 C 355.200 125.444,353.736 123.997,353.100 124.012 C 352.816 124.019,352.896 124.197,353.286 124.424 M40.800 136.000 C 40.800 136.220,40.575 136.400,40.300 136.400 C 39.941 136.401,39.784 137.424,39.742 140.025 C 39.684 143.713,39.082 145.086,37.733 144.614 C 37.476 144.524,37.163 144.718,37.038 145.046 C 36.909 145.382,36.981 145.535,37.205 145.397 C 37.422 145.263,37.600 145.354,37.600 145.600 C 37.600 145.846,37.808 145.919,38.062 145.762 C 38.342 145.588,38.415 145.652,38.248 145.923 C 38.060 146.226,37.655 146.249,36.986 145.995 C 36.356 145.755,36.000 145.761,36.000 146.010 C 36.000 146.224,36.193 146.400,36.429 146.400 C 36.666 146.400,36.600 146.657,36.283 146.974 C 35.840 147.417,35.709 148.774,35.713 152.874 C 35.716 155.803,35.795 157.787,35.889 157.283 C 36.027 156.542,36.228 156.420,36.930 156.651 C 39.851 157.611,40.151 156.972,40.127 149.829 C 40.110 144.843,40.216 143.603,40.674 143.427 C 40.986 143.307,41.145 143.366,41.026 143.558 C 40.908 143.749,41.507 143.915,42.357 143.927 C 44.223 143.953,45.133 140.177,44.148 136.500 C 43.896 135.559,40.800 135.096,40.800 136.000 M360.976 145.001 C 360.474 145.390,360.421 145.526,360.825 145.387 C 361.169 145.269,361.755 145.508,362.127 145.919 C 362.682 146.532,362.698 146.667,362.219 146.667 C 361.898 146.667,361.745 146.489,361.879 146.272 C 362.026 146.034,361.915 146.005,361.600 146.200 C 361.255 146.413,361.173 146.367,361.359 146.066 C 361.541 145.772,361.424 145.693,361.029 145.844 C 360.660 145.986,360.481 146.420,360.579 146.940 C 360.668 147.413,360.754 147.873,360.770 147.962 C 360.787 148.051,361.179 147.781,361.642 147.362 C 362.105 146.943,362.596 146.659,362.732 146.730 C 363.456 147.109,363.106 145.980,362.332 145.437 C 361.831 145.087,361.614 144.800,361.849 144.800 C 362.787 144.800,363.682 146.299,363.239 147.127 C 362.829 147.893,363.736 148.797,364.324 148.209 C 364.439 148.094,364.311 148.000,364.040 148.000 C 363.724 148.000,363.640 147.704,363.806 147.180 C 364.390 145.341,362.459 143.854,360.976 145.001 M34.474 160.849 C 33.858 161.078,33.591 161.456,33.674 161.978 C 33.787 162.682,33.691 162.800,33.010 162.800 C 32.905 162.800,32.990 162.352,33.199 161.804 C 33.473 161.083,33.447 160.834,33.104 160.904 C 32.159 161.096,31.663 161.778,32.089 162.300 C 32.374 162.649,32.355 162.800,32.024 162.800 C 31.763 162.800,31.582 163.115,31.621 163.500 C 31.660 163.885,31.660 164.290,31.621 164.400 C 31.308 165.283,31.282 174.400,31.593 174.400 C 31.806 174.400,31.876 174.918,31.750 175.551 C 31.623 176.185,31.701 176.815,31.922 176.952 C 32.164 177.101,32.241 176.880,32.116 176.401 C 31.994 175.935,32.104 175.600,32.377 175.600 C 32.636 175.600,32.737 175.778,32.603 175.995 C 32.459 176.227,32.632 176.286,33.020 176.137 C 33.383 175.998,33.799 176.074,33.943 176.308 C 35.405 178.673,36.399 171.875,35.720 164.152 C 35.405 160.558,35.386 160.510,34.474 160.849 M366.562 161.262 C 366.373 161.567,366.454 161.614,366.799 161.401 C 367.128 161.197,367.521 161.351,367.861 161.815 C 368.157 162.221,368.400 162.375,368.400 162.156 C 368.400 161.144,367.043 160.484,366.562 161.262 M31.200 226.576 C 31.200 227.066,31.321 227.588,31.470 227.736 C 31.834 228.101,31.898 230.000,31.545 230.000 C 31.257 230.000,31.354 234.811,31.655 235.448 C 31.746 235.642,31.810 236.372,31.796 237.071 C 31.783 237.770,31.959 238.310,32.186 238.271 C 32.414 238.232,32.545 238.455,32.477 238.768 C 32.376 239.237,32.463 239.246,32.977 238.819 C 33.461 238.417,33.600 238.413,33.600 238.798 C 33.600 239.092,33.917 239.211,34.381 239.089 C 34.810 238.977,35.246 239.091,35.349 239.342 C 35.452 239.594,35.551 236.695,35.568 232.900 C 35.586 228.953,35.443 226.000,35.233 226.000 C 35.031 226.000,34.551 225.879,34.167 225.732 C 33.691 225.549,33.561 225.613,33.758 225.932 C 33.933 226.216,33.792 226.400,33.400 226.400 C 33.044 226.400,32.836 226.265,32.938 226.100 C 33.040 225.935,32.691 225.774,32.162 225.742 C 31.417 225.698,31.200 225.885,31.200 226.576 M36.283 246.713 C 35.260 246.930,35.450 250.088,36.558 251.277 C 37.104 251.864,37.209 252.197,36.883 252.306 C 36.135 252.555,36.313 253.250,37.091 253.118 C 37.483 253.051,37.794 253.260,37.809 253.600 C 37.824 253.930,38.067 254.151,38.348 254.090 C 38.629 254.030,38.740 254.173,38.594 254.410 C 38.408 254.711,38.162 254.700,37.769 254.374 C 37.461 254.118,37.325 253.722,37.466 253.493 C 37.624 253.237,37.527 253.198,37.213 253.392 C 36.778 253.661,38.654 256.000,39.306 256.000 C 39.617 256.000,39.638 246.798,39.327 246.760 C 38.014 246.601,36.894 246.584,36.283 246.713 M362.999 254.401 C 362.845 254.651,362.332 255.012,361.859 255.203 C 361.299 255.429,361.217 255.558,361.624 255.575 C 362.411 255.607,363.886 254.553,363.539 254.206 C 363.397 254.063,363.154 254.151,362.999 254.401 M39.600 259.471 C 39.600 259.674,39.816 260.056,40.080 260.320 C 40.453 260.693,40.453 260.800,40.080 260.800 C 39.816 260.800,39.600 260.999,39.600 261.243 C 39.600 261.486,39.857 261.587,40.171 261.467 C 40.485 261.346,40.980 261.541,41.271 261.901 C 41.660 262.381,41.667 262.474,41.297 262.251 C 40.996 262.071,40.698 262.200,40.555 262.572 C 40.424 262.915,40.155 263.096,39.958 262.974 C 39.761 262.852,39.600 262.956,39.600 263.203 C 39.600 263.481,39.927 263.550,40.450 263.384 C 40.993 263.212,41.208 263.264,41.044 263.530 C 40.902 263.758,40.951 264.046,41.152 264.170 C 41.352 264.294,41.638 264.081,41.787 263.698 C 42.024 263.085,42.115 263.073,42.530 263.600 C 43.466 264.788,43.865 264.375,43.902 262.178 C 43.940 259.870,43.876 259.807,41.679 259.987 C 41.172 260.029,40.497 259.847,40.179 259.582 C 39.860 259.318,39.600 259.268,39.600 259.471 M43.646 266.533 L 43.600 268.066 46.500 267.817 C 49.539 267.556,169.601 266.997,267.600 266.787 C 311.966 266.692,294.844 266.586,192.200 266.320 C 119.160 266.130,55.949 266.074,51.731 266.194 C 44.631 266.396,44.047 266.360,43.877 265.706 C 43.776 265.318,43.672 265.690,43.646 266.533 M352.505 267.487 C 353.114 267.579,354.014 267.577,354.505 267.482 C 354.997 267.387,354.500 267.311,353.400 267.314 C 352.300 267.317,351.897 267.395,352.505 267.487 " stroke="none" fill="#bac2cc" fill-rule="evenodd"></path><path id="path3" d="M280.800 199.965 L 216.200 264.658 247.600 265.137 C 285.868 265.720,330.317 266.349,345.300 266.519 L 356.400 266.645 356.400 265.603 C 356.400 265.029,356.216 264.376,355.992 264.152 C 354.194 262.354,355.340 255.354,357.444 255.275 C 358.241 255.245,359.114 255.038,359.383 254.814 C 359.653 254.590,359.959 254.493,360.064 254.598 C 360.169 254.703,360.102 253.846,359.915 252.694 C 358.494 243.944,359.201 240.511,362.377 240.735 C 364.196 240.863,365.376 239.909,364.491 239.025 C 364.370 238.903,364.212 238.217,364.141 237.502 C 364.070 236.786,363.824 235.030,363.595 233.600 C 362.984 229.792,362.900 227.033,363.277 223.107 C 363.573 220.031,364.704 214.580,364.774 215.895 C 364.802 216.427,366.443 216.413,366.837 215.878 C 367.191 215.397,368.513 219.125,368.290 219.977 C 368.185 220.381,368.265 220.956,368.469 221.256 C 368.934 221.937,368.665 218.434,368.089 216.300 C 367.664 214.723,367.819 214.240,368.318 215.589 C 368.478 216.023,368.607 208.958,368.605 199.889 C 368.602 190.820,368.503 184.390,368.384 185.600 C 368.206 187.409,368.127 187.587,367.943 186.600 C 367.731 185.458,367.717 185.473,367.660 186.900 C 367.627 187.725,367.401 188.400,367.157 188.400 C 366.909 188.400,366.822 188.092,366.958 187.700 C 367.176 187.074,367.149 187.067,366.701 187.635 C 366.425 187.984,365.950 188.186,365.644 188.083 C 365.307 187.970,365.198 188.074,365.368 188.348 C 365.522 188.597,365.485 188.800,365.288 188.800 C 363.302 188.800,361.206 172.876,362.366 166.602 C 362.861 163.923,362.636 163.227,361.183 162.937 C 358.542 162.408,357.200 159.279,357.200 153.649 C 357.200 150.425,356.693 148.172,356.057 148.565 C 355.531 148.890,352.807 145.981,352.749 145.033 C 352.722 144.575,352.659 143.840,352.610 143.400 C 352.561 142.960,352.494 141.838,352.460 140.908 C 352.407 139.415,352.270 139.183,351.300 138.944 C 349.529 138.508,348.456 137.616,348.324 136.469 C 348.218 135.552,348.001 135.391,346.800 135.336 C 345.448 135.274,343.173 137.502,280.800 199.965 M368.416 236.600 C 368.071 238.389,368.075 238.485,368.465 238.095 C 368.691 237.869,368.789 237.351,368.684 236.942 C 368.579 236.534,368.458 236.380,368.416 236.600 M363.574 253.976 C 364.052 254.278,364.060 254.446,363.621 254.974 C 363.214 255.465,362.967 255.504,362.538 255.148 C 362.094 254.780,362.032 254.819,362.234 255.343 C 362.549 256.166,362.969 256.174,363.771 255.371 C 364.608 254.535,364.570 253.599,363.700 253.606 C 363.125 253.611,363.103 253.677,363.574 253.976 " stroke="none" fill="#0c84dc" fill-rule="evenodd"></path><path id="path4" d="M349.400 132.805 C 348.080 132.984,288.860 133.332,217.800 133.579 C 146.740 133.826,78.567 134.067,66.305 134.114 C 42.395 134.206,43.212 134.129,44.011 136.230 C 44.449 137.382,44.512 140.267,44.147 142.474 C 43.915 143.882,43.834 143.948,42.357 143.927 C 41.507 143.915,40.908 143.749,41.026 143.558 C 41.145 143.366,40.975 143.312,40.649 143.437 C 40.164 143.622,40.076 144.484,40.164 148.132 C 40.360 156.251,39.860 157.724,37.245 156.738 C 35.801 156.194,35.800 156.200,35.800 166.216 C 35.800 175.092,35.760 175.593,35.003 176.148 C 34.467 176.540,34.119 176.592,33.943 176.308 C 33.799 176.074,33.383 175.998,33.020 176.137 C 32.632 176.286,32.459 176.227,32.603 175.995 C 32.737 175.778,32.636 175.600,32.377 175.600 C 32.104 175.600,31.994 175.935,32.116 176.401 C 32.241 176.880,32.164 177.101,31.922 176.952 C 31.701 176.815,31.623 176.185,31.750 175.551 C 31.877 174.913,31.806 174.400,31.590 174.400 C 31.341 174.400,31.200 183.638,31.200 200.000 C 31.200 215.037,31.350 225.600,31.563 225.600 C 31.762 225.600,31.831 225.960,31.716 226.400 C 31.601 226.840,31.702 227.200,31.941 227.200 C 32.180 227.200,32.280 226.953,32.164 226.652 C 32.049 226.350,32.244 225.992,32.598 225.856 C 32.972 225.713,33.139 225.775,32.997 226.005 C 32.863 226.222,33.044 226.400,33.400 226.400 C 33.771 226.400,33.931 226.211,33.774 225.957 C 33.550 225.596,35.008 225.779,35.490 226.173 C 35.539 226.213,35.595 230.865,35.613 236.511 L 35.648 246.776 37.124 246.647 C 39.541 246.437,39.600 246.528,39.600 250.511 C 39.600 253.384,39.455 254.308,38.900 254.962 C 38.233 255.747,38.233 255.760,38.900 255.244 C 39.548 254.743,39.600 254.867,39.600 256.902 C 39.600 259.310,40.142 260.113,41.679 259.987 C 43.764 259.816,43.897 259.921,43.934 261.786 C 43.954 262.768,43.813 263.668,43.621 263.787 C 43.426 263.908,43.455 264.490,43.685 265.102 L 44.100 266.200 181.150 266.262 C 258.317 266.297,310.685 266.188,301.000 266.013 C 291.540 265.842,268.590 265.469,250.000 265.184 L 216.200 264.667 280.964 199.913 C 341.633 139.254,345.806 135.166,346.964 135.279 C 347.969 135.377,348.223 135.600,348.324 136.469 C 348.456 137.616,349.529 138.508,351.300 138.944 C 352.270 139.183,352.407 139.415,352.460 140.908 C 352.494 141.838,352.561 142.960,352.610 143.400 C 352.659 143.840,352.722 144.575,352.749 145.033 C 352.807 145.981,355.531 148.890,356.057 148.565 C 356.693 148.172,357.200 150.425,357.200 153.649 C 357.200 159.279,358.542 162.408,361.183 162.937 C 362.636 163.227,362.861 163.923,362.366 166.602 C 361.206 172.876,363.302 188.800,365.288 188.800 C 365.485 188.800,365.522 188.597,365.368 188.348 C 365.198 188.074,365.307 187.970,365.644 188.083 C 365.950 188.186,366.425 187.984,366.701 187.635 C 367.149 187.067,367.176 187.074,366.958 187.700 C 366.822 188.092,366.909 188.400,367.157 188.400 C 367.401 188.400,367.621 187.725,367.647 186.900 C 367.694 185.424,367.699 185.420,367.977 186.600 C 368.180 187.462,368.347 186.612,368.572 183.584 C 368.960 178.349,368.591 162.793,368.033 160.886 C 368.015 160.823,367.637 160.966,367.194 161.203 C 366.575 161.534,366.413 161.515,366.494 161.117 C 366.561 160.791,366.193 160.606,365.500 160.616 L 364.400 160.632 364.400 154.543 C 364.400 148.806,364.354 148.439,363.600 148.200 C 362.932 147.988,362.873 147.811,363.240 147.124 C 363.926 145.843,362.470 144.521,361.149 145.225 C 360.304 145.676,360.256 145.663,360.717 145.104 C 361.009 144.750,361.067 144.417,360.850 144.339 C 360.639 144.263,360.420 142.490,360.365 140.400 C 360.237 135.631,360.299 135.774,358.299 135.656 C 356.311 135.539,356.378 135.590,356.039 133.920 C 355.732 132.411,354.213 132.155,349.400 132.805 M362.814 145.817 C 363.202 146.284,363.214 146.546,362.863 146.897 C 362.608 147.152,362.400 147.206,362.400 147.018 C 362.400 146.830,362.040 147.002,361.600 147.400 C 361.160 147.798,360.786 148.051,360.769 147.962 C 360.753 147.873,360.674 147.452,360.594 147.026 C 360.343 145.684,361.968 144.798,362.814 145.817 M361.335 146.100 C 360.687 147.136,360.825 147.701,361.563 147.034 C 361.949 146.684,362.424 146.534,362.619 146.699 C 362.814 146.865,362.733 146.685,362.438 146.300 C 361.799 145.466,361.738 145.455,361.335 146.100 M368.560 194.600 C 368.561 197.900,368.622 199.197,368.698 197.482 C 368.773 195.767,368.772 193.067,368.697 191.482 C 368.621 189.897,368.559 191.300,368.560 194.600 M368.544 206.400 C 368.544 208.490,368.612 209.345,368.694 208.300 C 368.776 207.255,368.776 205.545,368.694 204.500 C 368.612 203.455,368.544 204.310,368.544 206.400 M367.996 216.183 C 368.180 216.997,368.462 217.784,368.622 217.932 C 369.045 218.319,368.455 215.495,368.024 215.064 C 367.808 214.848,367.797 215.301,367.996 216.183 M364.056 217.907 C 362.926 223.024,362.767 228.440,363.595 233.600 C 363.824 235.030,364.074 236.823,364.150 237.584 C 364.308 239.171,365.140 239.886,366.246 239.387 C 366.661 239.199,367.254 239.035,367.565 239.021 C 368.353 238.987,368.696 231.437,368.427 220.019 C 368.397 218.732,367.142 215.464,366.837 215.878 C 366.498 216.339,365.053 216.410,364.787 215.979 C 364.663 215.778,364.334 216.646,364.056 217.907 M31.200 228.733 C 31.200 229.430,31.341 230.000,31.513 230.000 C 31.889 230.000,31.853 228.119,31.470 227.736 C 31.321 227.588,31.200 228.037,31.200 228.733 M31.467 235.867 C 31.102 236.231,31.128 237.600,31.500 237.600 C 31.665 237.600,31.800 237.150,31.800 236.600 C 31.800 236.050,31.785 235.600,31.767 235.600 C 31.748 235.600,31.613 235.720,31.467 235.867 M359.788 242.135 C 359.082 243.737,359.131 247.868,359.915 252.694 C 360.102 253.846,360.169 254.703,360.064 254.598 C 359.959 254.493,359.653 254.590,359.383 254.814 C 359.114 255.038,358.241 255.245,357.444 255.275 C 355.425 255.351,354.271 261.526,355.810 264.016 C 356.125 264.527,359.200 264.512,359.200 264.000 C 359.200 263.780,359.425 263.600,359.700 263.599 C 360.417 263.598,360.601 256.526,359.906 255.683 C 359.463 255.145,359.508 255.127,360.274 255.535 C 360.754 255.791,361.474 255.987,361.874 255.972 C 362.566 255.945,362.566 255.930,361.862 255.653 C 361.198 255.392,361.228 255.316,362.151 254.895 C 362.734 254.629,363.297 253.952,363.454 253.328 C 363.702 252.341,363.760 252.309,364.028 253.015 C 364.192 253.447,364.331 250.892,364.337 247.337 L 364.348 240.874 362.406 240.737 C 360.494 240.602,360.454 240.623,359.788 242.135 M35.916 251.200 C 36.119 251.750,36.192 252.467,36.078 252.793 C 35.922 253.242,36.038 253.219,36.558 252.700 C 37.206 252.051,37.197 251.963,36.396 251.107 L 35.548 250.200 35.916 251.200 M36.757 253.467 C 36.451 253.845,36.405 254.031,36.655 253.881 C 36.905 253.731,37.355 253.911,37.655 254.279 C 38.138 254.873,38.109 254.916,37.400 254.651 C 36.756 254.411,36.698 254.451,37.103 254.859 C 37.508 255.268,37.741 255.228,38.303 254.656 C 38.832 254.117,38.860 253.977,38.418 254.073 C 38.098 254.143,37.828 253.990,37.818 253.733 C 37.785 252.886,37.323 252.770,36.757 253.467 M40.072 261.713 C 39.811 262.027,39.784 262.451,40.002 262.803 C 40.220 263.156,40.198 263.478,39.945 263.634 C 39.718 263.774,39.901 263.986,40.353 264.103 C 41.167 264.316,41.367 263.667,40.649 263.145 C 40.130 262.768,40.774 261.938,41.328 262.270 C 41.597 262.432,41.564 262.262,41.251 261.877 C 40.593 261.066,40.608 261.068,40.072 261.713 M339.600 266.791 C 347.850 266.946,354.848 267.147,355.150 267.237 C 355.453 267.326,355.770 267.214,355.855 266.986 C 355.960 266.705,350.950 266.562,340.305 266.540 L 324.600 266.509 339.600 266.791 " stroke="none" fill="#269aed" fill-rule="evenodd"></path></g></svg>