<?xml version="1.0" encoding="UTF-8" standalone="no"?>
<!DOCTYPE svg PUBLIC "-//W3C//DTD SVG 1.1//EN" "http://www.w3.org/Graphics/SVG/1.1/DTD/svg11.dtd">
<svg width="100%" height="100%" viewBox="0 0 3536 4862" version="1.1" xmlns="http://www.w3.org/2000/svg" xmlnsXlink="http://www.w3.org/1999/xlink" xmlSpace="preserve" style="fill-rule:evenodd;clip-rule:evenodd;stroke-linecap:round;stroke-linejoin:round;stroke-miterlimit:1.5;">
    <g transform="matrix(1,0,0,1,-5391.67,-5196.83)">
        <g>
            <g transform="matrix(2.89274,0,0,2.29486,-9779.16,-22610.8)">
                <path d="M5288.22,12341.7C5259.97,12275.9 5242.5,12189.7 5261.17,12165.9C5279.85,12142 5330.75,12175.1 5400.27,12198.7C5707.07,12089.2 5989.86,12091.8 6250.3,12198.7C6312.73,12174.9 6380.06,12142 6399.06,12165.9C6418.05,12189.7 6398.04,12280.6 6364.28,12341.7C6432.04,12523 6425.32,12695.5 6364.28,12861.4C6386.39,12911.5 6397.56,12967.1 6399.06,13027.5C6384.09,13052.5 6327.1,13035.4 6250.3,12998.5C5998.23,13115.7 5721.24,13118.3 5417.66,12998.5C5374.09,13029.4 5325.36,13052.6 5261.17,13052.6C5252.04,12999.1 5261.29,12935.5 5288.22,12861.4C5234.53,12708.6 5233.73,12535.7 5288.22,12341.7Z" style="fill:rgb(194,194,194);stroke:black;stroke-opacity:0;stroke-width:0.38px;"/>
            </g>
            <g transform="matrix(1,0,0,1,2774.62,1378.8)">
                <g transform="matrix(1.13017,0,0,1.53258,-187.113,-2631.88)">
                    <path d="M2997.26,6205.84L2997.26,6400.86C2997.26,6514.64 3122.53,6607.02 3276.82,6607.02L4714.56,6607.02C4868.86,6607.02 4994.12,6514.64 4994.12,6400.86L4994.12,6205.84L2997.26,6205.84Z" style="fill:rgb(251,107,28);"/>
                </g>
                <g transform="matrix(1.35645,0,0,1.35645,-1095.42,-2080.06)">
                    <text x="2867.57px" y="6456.49px" style="font-family:'Gadugi-Bold', 'Gadugi', sans-serif;font-weight:700;font-size:400px;fill:rgb(251,107,28);">FOODBOOK</text>
                </g>
                <g transform="matrix(1,0,0,1,-391.51,119.155)">
                    <path d="M5848.59,5965.66L5848.59,4673.08C5848.59,4498.7 5707.02,4357.13 5532.64,4357.13L3907.75,4357.13C3733.38,4357.13 3591.8,4498.7 3591.8,4673.08L3591.8,5965.66L5848.59,5965.66ZM4514.05,5020.98C4554.57,4951.78 4629.69,4905.28 4715.59,4905.28C4798.18,4905.28 4870.82,4948.28 4912.3,5013.1C4915.71,5012.97 4919.16,5012.9 4922.63,5012.9C5063.05,5012.9 5177.06,5126.9 5177.06,5267.32C5177.06,5367 5119.6,5453.37 5036.03,5495.09L5036.03,5625.57C5036.03,5729.11 4951.97,5813.18 4848.42,5813.18L4593.15,5813.18C4489.61,5813.18 4405.54,5729.11 4405.54,5625.57L4405.54,5483.1C4315.66,5448.59 4251.78,5361.4 4251.78,5259.42C4251.78,5127.23 4359.1,5019.91 4491.28,5019.91C4498.97,5019.91 4506.56,5020.28 4514.05,5020.98Z" style="fill:rgb(251,107,28);"/>
                </g>
                <g transform="matrix(1,0,0,1,127.943,-324.881)">
                    <g transform="matrix(0.747967,0,0,0.747967,891.958,1791.18)">
                        <path d="M3603.77,7910.35C3722.1,7910.35 3818.17,8006.42 3818.17,8124.75C3818.17,8243.08 3722.1,8339.15 3603.77,8339.15C3485.44,8339.15 3389.38,8243.08 3389.38,8124.75C3389.38,8062.52 3415.94,8006.45 3458.34,7967.27C3496.57,7931.94 3547.67,7910.35 3603.77,7910.35Z" style="fill:rgb(251,107,28);"/>
                    </g>
                    <g transform="matrix(0.810624,0,0,1.2979,769.884,-2190.75)">
                        <rect x="3277.9" y="7354.08" width="395.706" height="395.706" style="fill:rgb(251,107,28);"/>
                    </g>
                </g>
            </g>
            <g transform="matrix(1.62046,-0.255195,0.255195,1.62046,-5327.89,-1283.18)">
                <text x="7003.06px" y="5828.33px" style="font-family:'Gadugi-Bold', 'Gadugi', sans-serif;font-weight:700;font-size:542.581px;fill:rgb(137,49,0);">z</text>
            </g>
            <g transform="matrix(1.22423,0.205392,-0.205392,1.22423,558.82,-2677.05)">
                <text x="7003.06px" y="5828.33px" style="font-family:'Gadugi-Bold', 'Gadugi', sans-serif;font-weight:700;font-size:542.581px;fill:rgb(137,49,0);">z</text>
            </g>
            <g transform="matrix(0.769212,-0.265516,0.265516,0.769212,1440.82,3006.41)">
                <text x="7003.06px" y="5828.33px" style="font-family:'Gadugi-Bold', 'Gadugi', sans-serif;font-weight:700;font-size:542.581px;fill:rgb(137,49,0);">z</text>
            </g>
            <g transform="matrix(1,0,0,2.17235,83.829,-10534)">
                <path d="M5364.51,8398.03C5557.47,8340.63 5742.24,8233.96 5943.39,8225.84C6156.3,8217.25 6437.51,8306.02 6641.96,8346.48C6819.22,8381.56 6976.01,8284.67 7146.52,8284.67C7316.44,8284.67 7499.27,8383.9 7665.02,8346.48C7844.28,8306.02 8066.61,8216.26 8245.64,8225.84C8420.29,8235.18 8643.57,8292.69 8739.19,8403.93C8834.81,8515.16 8819.37,8732.11 8819.37,8893.26C8819.37,9054.41 8869.09,9275 8739.19,9370.82C8608.9,9466.92 8273.65,9478.04 8037.62,9469.86C7760.36,9460.26 7376.66,9313.16 7075.64,9313.16C6789.45,9313.16 6516.67,9460.26 6231.48,9469.86C5946.3,9479.47 5494.85,9466.92 5364.51,9370.82C5234.37,9274.87 5449.41,9054.94 5449.41,8893.26C5449.41,8731.13 5392.81,8563.11 5364.51,8398.03" style="fill:rgb(44,42,93);stroke:white;stroke-opacity:0;stroke-width:17.54px;"/>
            </g>
        </g>
    </g>
</svg>
